<svg width="22" height="22" viewBox="0 0 22 22" fill="none" xmlns="http://www.w3.org/2000/svg">
<path d="M18.5018 4.38538C20.8611 7.85425 22.0262 11.7671 21.5907 16.2716C21.5888 16.2907 21.5789 16.3082 21.5633 16.3196C19.7766 17.6315 18.0456 18.4278 16.3388 18.9558C16.3255 18.9599 16.3113 18.9596 16.2981 18.9551C16.285 18.9507 16.2735 18.9423 16.2655 18.9309C15.8711 18.3823 15.5129 17.8039 15.1989 17.1965C15.1809 17.1607 15.1974 17.1176 15.2345 17.1036C15.8035 16.8892 16.3445 16.6322 16.865 16.328C16.906 16.304 16.9086 16.2452 16.8707 16.217C16.7602 16.135 16.6508 16.0488 16.5462 15.9627C16.5266 15.9468 16.5002 15.9436 16.478 15.9544C13.0992 17.5146 9.39792 17.5146 5.97918 15.9544C5.95698 15.9443 5.93061 15.9478 5.91155 15.9635C5.80709 16.0497 5.69742 16.135 5.58801 16.217C5.55014 16.2452 5.55327 16.304 5.59453 16.328C6.11496 16.6265 6.65603 16.8892 7.22426 17.1047C7.26108 17.1187 7.27857 17.1607 7.26029 17.1965C6.9532 17.8047 6.59493 18.383 6.19331 18.9317C6.17581 18.9539 6.14708 18.9641 6.11992 18.9558C4.42127 18.4278 2.69022 17.6315 0.903554 16.3196C0.88867 16.3082 0.877963 16.2899 0.876396 16.2708C0.512378 12.3745 1.25425 8.42927 3.96245 4.3846C3.96898 4.37389 3.9789 4.36553 3.99039 4.36057C5.32295 3.749 6.75057 3.29907 8.24267 3.04211C8.26983 3.03794 8.29699 3.05047 8.31108 3.07449C8.49545 3.4009 8.70618 3.81951 8.84875 4.16159C10.4216 3.92134 12.019 3.92134 13.6246 4.16159C13.7672 3.82682 13.9706 3.4009 14.1542 3.07449C14.1607 3.06258 14.1708 3.05303 14.1831 3.04722C14.1954 3.0414 14.2093 3.03962 14.2226 3.04211C15.7155 3.29985 17.1431 3.74978 18.4746 4.36057C18.4864 4.36553 18.496 4.37389 18.5018 4.38538ZM9.64835 11.7937C9.66479 10.6418 8.82499 9.68871 7.77081 9.68871C6.72523 9.68871 5.89353 10.6335 5.89353 11.7937C5.89353 12.9537 6.74168 13.8984 7.77081 13.8984C8.81664 13.8984 9.64835 12.9537 9.64835 11.7937ZM16.5897 11.7937C16.6062 10.6418 15.7664 9.68871 14.7125 9.68871C13.6667 9.68871 12.8349 10.6335 12.8349 11.7937C12.8349 12.9537 13.6831 13.8984 14.7125 13.8984C15.7664 13.8984 16.5897 12.9537 16.5897 11.7937Z" fill="#8E8E8E"/>
</svg>
