<svg width="24" height="24" viewBox="0 0 24 24" fill="none" xmlns="http://www.w3.org/2000/svg">
<path d="M20.4723 7.15048C19.609 5.61938 18.3681 4.34734 16.8738 3.4617C15.3674 2.55803 13.6505 2.08818 11.9047 2.10189C10.1573 2.08734 8.43865 2.55721 6.93087 3.4617C5.43496 4.34657 4.19261 5.61871 3.32845 7.15048C2.44598 8.69296 1.98713 10.451 2.00047 12.2387C1.9798 14.3826 2.64271 16.4749 3.88861 18.1981C5.09241 19.9193 6.80202 21.2014 8.76783 21.8572C8.8548 21.8844 8.94682 21.8902 9.03641 21.8743C9.12601 21.8582 9.21068 21.8209 9.28356 21.7652C9.3376 21.7154 9.3805 21.6544 9.40935 21.5861C9.43819 21.5178 9.45228 21.444 9.45064 21.3697L9.44389 20.6566C9.43938 20.2076 9.43712 19.8173 9.43712 19.4857L9.14158 19.5421C8.90502 19.5807 8.66538 19.5963 8.42594 19.5885C8.12521 19.5832 7.82543 19.5525 7.52967 19.4965C7.21513 19.4372 6.91907 19.3015 6.66624 19.1009C6.40106 18.8956 6.20329 18.6124 6.09933 18.289L5.97087 17.9855C5.86254 17.7451 5.72635 17.5189 5.56523 17.312C5.42059 17.1008 5.22803 16.9287 5.0041 16.8105L4.91428 16.7443C4.85257 16.6986 4.79647 16.6455 4.74721 16.5861C4.69961 16.5309 4.66053 16.4685 4.63131 16.4012C4.60555 16.3392 4.62712 16.2883 4.69601 16.2489C4.81455 16.2001 4.9424 16.1798 5.06978 16.1895L5.32764 16.2291C5.55811 16.2922 5.77476 16.3995 5.96604 16.5455C6.22156 16.7239 6.43503 16.9584 6.59092 17.2319C6.76145 17.5615 7.00689 17.8444 7.30658 18.0567C7.55398 18.2354 7.84795 18.3342 8.15068 18.3405C8.39723 18.3437 8.64346 18.3215 8.88565 18.2742C9.08581 18.2322 9.28036 18.1658 9.46513 18.0764C9.50776 17.5598 9.73223 17.0765 10.0968 16.7166C9.65112 16.672 9.20944 16.5926 8.77555 16.4793C8.3521 16.3599 7.94492 16.1869 7.56347 15.964C7.16419 15.7417 6.81144 15.4414 6.52523 15.0799C6.21906 14.6647 5.98991 14.1954 5.84917 13.6954C5.6634 13.0536 5.57416 12.3867 5.58455 11.7175C5.56324 10.7093 5.9291 9.73276 6.60347 8.99784C6.28646 8.12303 6.31873 7.15557 6.69329 6.30494C7.07195 6.2422 7.46029 6.30454 7.80203 6.48294C8.1728 6.62402 8.53248 6.79396 8.87793 6.99126C9.10586 7.1317 9.28839 7.25037 9.42554 7.34729C11.0455 6.88974 12.7562 6.88974 14.3762 7.34729L14.8659 7.03082C15.2423 6.79931 15.6394 6.60494 16.0518 6.45031C16.3759 6.28911 16.7416 6.23817 17.096 6.30494C17.2854 6.72475 17.392 7.17873 17.4098 7.64084C17.4275 8.10296 17.3559 8.5641 17.1992 8.99784C17.8735 9.73281 18.2394 10.7093 18.2182 11.7175C18.2283 12.3896 18.1391 13.0595 17.9535 13.7043C17.8144 14.2062 17.5826 14.6762 17.2707 15.0888C16.9799 15.4463 16.6257 15.7443 16.2267 15.967C15.8451 16.1898 15.438 16.3628 15.0146 16.4822C14.5808 16.596 14.139 16.6756 13.6934 16.7206C13.9332 16.964 14.1176 17.2586 14.2334 17.5834C14.3494 17.9082 14.3938 18.2552 14.3637 18.5995V21.3845C14.3619 21.4583 14.3754 21.5317 14.4032 21.5999C14.431 21.668 14.4725 21.7294 14.5249 21.78C14.5963 21.8361 14.6799 21.8737 14.7685 21.8898C14.857 21.9057 14.9481 21.8997 15.0339 21.8721C16.9998 21.2162 18.7094 19.9342 19.9132 18.2129C21.1612 16.4853 21.8236 14.3874 21.7993 12.2387C21.8126 10.4512 21.3542 8.69321 20.4723 7.15048Z" fill="#8E8E8E"/>
</svg>
