<svg width="20" height="18" viewBox="0 0 20 18" fill="none" xmlns="http://www.w3.org/2000/svg">
<path d="M5.22184 2.17562C5.22184 3.37718 4.18499 4.35124 2.90596 4.35124C1.62694 4.35124 0.590088 3.37718 0.590088 2.17562C0.590088 0.974058 1.62694 0 2.90596 0C4.18499 0 5.22184 0.974058 5.22184 2.17562Z" fill="#8E8E8E"/>
<path d="M0.906789 5.95041H4.86555V18H0.906789V5.95041Z" fill="#8E8E8E"/>
<path d="M11.2392 5.95041H7.2804V18H11.2392C11.2392 18 11.2392 14.2066 11.2392 11.8348C11.2392 10.4112 11.7231 8.98141 13.654 8.98141C15.8362 8.98141 15.8231 10.8444 15.8129 12.2877C15.7996 14.1743 15.8313 16.0995 15.8313 18H19.7901V11.6405C19.7566 7.57977 18.7031 5.70868 15.2375 5.70868C13.1794 5.70868 11.9036 6.64722 11.2392 7.49635V5.95041Z" fill="#8E8E8E"/>
</svg>
