<svg xmlns="http://www.w3.org/2000/svg" width="32" height="32" viewBox="0 0 32 32" fill="none">
  <path opacity="0.4" d="M9.47999 7.94663L21.5067 3.9333C26.9067 2.1333 29.84 5.07996 28.0533 10.48L24.04 22.5066C21.3467 30.6 16.92 30.6 14.2267 22.5066L13.04 18.9333L9.46666 17.7466C1.38666 15.0666 1.38666 10.6533 9.47999 7.94663Z" fill="#FFB92E"/>
  <path d="M16.16 15.5067L21.24 10.4133L16.16 15.5067Z" fill="#FFB92E"/>
  <path d="M16.16 16.5067C15.9067 16.5067 15.6533 16.4134 15.4533 16.2134C15.0667 15.8267 15.0667 15.1867 15.4533 14.8001L20.52 9.70675C20.9067 9.32008 21.5467 9.32008 21.9333 9.70675C22.32 10.0934 22.32 10.7334 21.9333 11.1201L16.8667 16.2134C16.6667 16.4001 16.4133 16.5067 16.16 16.5067Z" fill="#FFB92E"/>
</svg>