<svg width="101" height="20" viewBox="0 0 101 20" fill="none" xmlns="http://www.w3.org/2000/svg">
<path d="M29.8 18V3H33.46V4.335C33.97 3.795 34.58 3.37 35.29 3.06C36 2.74 36.765 2.58 37.585 2.58C38.625 2.58 39.58 2.825 40.45 3.315C41.33 3.805 42.03 4.46 42.55 5.28C43.08 4.46 43.78 3.805 44.65 3.315C45.52 2.825 46.475 2.58 47.515 2.58C48.615 2.58 49.61 2.85 50.5 3.39C51.4 3.92 52.115 4.635 52.645 5.535C53.185 6.425 53.455 7.42 53.455 8.52V18H49.795V9.495C49.795 8.915 49.65 8.385 49.36 7.905C49.08 7.415 48.7 7.025 48.22 6.735C47.75 6.435 47.22 6.285 46.63 6.285C46.04 6.285 45.505 6.43 45.025 6.72C44.555 7 44.175 7.38 43.885 7.86C43.595 8.34 43.45 8.885 43.45 9.495V18H39.79V9.495C39.79 8.885 39.65 8.34 39.37 7.86C39.09 7.38 38.71 7 38.23 6.72C37.75 6.43 37.215 6.285 36.625 6.285C36.045 6.285 35.515 6.435 35.035 6.735C34.555 7.025 34.17 7.415 33.88 7.905C33.6 8.385 33.46 8.915 33.46 9.495V18H29.8ZM55.8602 12.45V3H59.5202V11.49C59.5202 12.08 59.6652 12.62 59.9552 13.11C60.2452 13.59 60.6302 13.975 61.1102 14.265C61.6002 14.545 62.1352 14.685 62.7152 14.685C63.3152 14.685 63.8552 14.545 64.3352 14.265C64.8152 13.975 65.2002 13.59 65.4902 13.11C65.7802 12.62 65.9252 12.08 65.9252 11.49V3H69.5852L69.6002 18H65.9402L65.9252 16.635C65.4052 17.175 64.7902 17.605 64.0802 17.925C63.3702 18.235 62.6102 18.39 61.8002 18.39C60.7102 18.39 59.7152 18.125 58.8152 17.595C57.9152 17.055 57.1952 16.34 56.6552 15.45C56.1252 14.55 55.8602 13.55 55.8602 12.45ZM78.9684 18.39C77.5884 18.39 76.3284 18.035 75.1884 17.325C74.0584 16.615 73.1534 15.66 72.4734 14.46C71.8034 13.26 71.4684 11.935 71.4684 10.485C71.4684 9.395 71.6634 8.375 72.0534 7.425C72.4434 6.465 72.9784 5.625 73.6584 4.905C74.3484 4.175 75.1484 3.605 76.0584 3.195C76.9684 2.785 77.9384 2.58 78.9684 2.58C80.1384 2.58 81.2084 2.83 82.1784 3.33C83.1584 3.82 83.9884 4.495 84.6684 5.355C85.3484 6.215 85.8434 7.195 86.1534 8.295C86.4634 9.395 86.5334 10.545 86.3634 11.745H75.3984C75.5384 12.305 75.7684 12.81 76.0884 13.26C76.4084 13.7 76.8134 14.055 77.3034 14.325C77.7934 14.585 78.3484 14.72 78.9684 14.73C79.6084 14.74 80.1884 14.59 80.7084 14.28C81.2384 13.96 81.6784 13.53 82.0284 12.99L85.7634 13.86C85.1534 15.19 84.2434 16.28 83.0334 17.13C81.8234 17.97 80.4684 18.39 78.9684 18.39ZM75.2784 9H82.6584C82.5484 8.4 82.3134 7.86 81.9534 7.38C81.6034 6.89 81.1684 6.5 80.6484 6.21C80.1284 5.92 79.5684 5.775 78.9684 5.775C78.3684 5.775 77.8134 5.92 77.3034 6.21C76.7934 6.49 76.3584 6.875 75.9984 7.365C75.6484 7.845 75.4084 8.39 75.2784 9ZM93.3461 18.27C92.5661 18.22 91.8111 18.065 91.0811 17.805C90.3611 17.535 89.7211 17.17 89.1611 16.71C88.6011 16.25 88.1711 15.7 87.8711 15.06L90.9611 13.74C91.0811 13.94 91.2761 14.155 91.5461 14.385C91.8161 14.605 92.1361 14.79 92.5061 14.94C92.8861 15.09 93.3011 15.165 93.7511 15.165C94.1311 15.165 94.4911 15.115 94.8311 15.015C95.1811 14.905 95.4611 14.74 95.6711 14.52C95.8911 14.3 96.0011 14.015 96.0011 13.665C96.0011 13.295 95.8711 13.01 95.6111 12.81C95.3611 12.6 95.0411 12.445 94.6511 12.345C94.2711 12.235 93.9011 12.135 93.5411 12.045C92.5911 11.855 91.7061 11.56 90.8861 11.16C90.0761 10.76 89.4211 10.245 88.9211 9.615C88.4311 8.975 88.1861 8.205 88.1861 7.305C88.1861 6.315 88.4461 5.46 88.9661 4.74C89.4961 4.02 90.1811 3.465 91.0211 3.075C91.8711 2.685 92.7861 2.49 93.7661 2.49C94.9561 2.49 96.0461 2.74 97.0361 3.24C98.0361 3.73 98.8261 4.425 99.4061 5.325L96.5111 7.035C96.3711 6.795 96.1761 6.575 95.9261 6.375C95.6761 6.165 95.3911 5.995 95.0711 5.865C94.7511 5.725 94.4161 5.645 94.0661 5.625C93.6161 5.605 93.2061 5.645 92.8361 5.745C92.4661 5.845 92.1661 6.015 91.9361 6.255C91.7161 6.495 91.6061 6.815 91.6061 7.215C91.6061 7.595 91.7561 7.88 92.0561 8.07C92.3561 8.25 92.7161 8.39 93.1361 8.49C93.5661 8.59 93.9761 8.7 94.3661 8.82C95.2461 9.11 96.0711 9.465 96.8411 9.885C97.6211 10.305 98.2461 10.82 98.7161 11.43C99.1861 12.04 99.4111 12.77 99.3911 13.62C99.3911 14.59 99.1011 15.44 98.5211 16.17C97.9411 16.89 97.1911 17.44 96.2711 17.82C95.3611 18.2 94.3861 18.35 93.3461 18.27Z" fill="white"/>
<path d="M20 6.74528H13.2235V0H6.72941C6.72941 3.72642 3.71765 6.74528 0 6.74528V13.2547H6.72941V20H13.2235C13.2235 16.2736 16.2824 13.2547 20 13.2547V6.74528Z" fill="white"/>
</svg>
