<svg xmlns="http://www.w3.org/2000/svg" width="32" height="32" viewBox="0 0 32 32" fill="none">
  <path opacity="0.4" d="M20.64 2.66675H10.04C5.42666 2.66675 2.67999 5.4134 2.67999 10.0267V20.6268C2.67999 25.2401 5.43999 27.9867 10.04 27.9867H20.64C25.2533 27.9867 28 25.2401 28 20.6268V10.0267C28 5.4134 25.24 2.66675 20.64 2.66675Z" fill="#0089FF"/>
  <path d="M29.28 25.12L27.1067 25.8533C26.5067 26.0533 26.0267 26.52 25.8267 27.1333L25.0933 29.3067C24.4667 31.1867 21.8267 31.1467 21.24 29.2667L18.7733 21.3333C18.2933 19.76 19.7467 18.2933 21.3067 18.7867L29.2533 21.2533C31.12 21.84 31.1467 24.4933 29.28 25.12Z" fill="#0089FF"/>
</svg>