<svg width="70" height="32" viewBox="0 0 70 32" fill="none" xmlns="http://www.w3.org/2000/svg">
<mask id="mask0_85_893" style="mask-type:alpha" maskUnits="userSpaceOnUse" x="-1" y="0" width="30" height="32">
<path d="M25.9735 32H2.28523C1.02286 32 -0.000488281 30.9767 -0.000488281 29.7143V2.28572C-0.000488281 1.02335 1.02286 0 2.28523 0H17.6618L28.2593 10.5974V29.7143C28.2593 30.9767 27.2359 32 25.9735 32Z" fill="url(#paint0_linear_85_893)"/>
</mask>
<g mask="url(#mask0_85_893)">
<path d="M25.9691 32H2.28083C1.01847 32 -0.00488281 30.9767 -0.00488281 29.7143V2.28572C-0.00488281 1.02335 1.01847 0 2.28083 0H17.6575L28.2549 10.5974V29.7143C28.2549 30.9767 27.2315 32 25.9691 32Z" fill="url(#paint1_linear_85_893)"/>
<path opacity="0.12" fill-rule="evenodd" clip-rule="evenodd" d="M20.6715 14.4411H7.58057V13.1943H20.6715V14.4411ZM20.6715 17.5583H7.58057V16.3115H20.6715V17.5583ZM7.58057 20.6755H20.6715V19.4287H7.58057V20.6755ZM20.6715 23.7927H7.58057V22.5459H20.6715V23.7927ZM7.58057 26.9098H20.6715V25.6631H7.58057V26.9098Z" fill="white"/>
<mask id="path-4-outside-1_85_893" maskUnits="userSpaceOnUse" x="5.2959" y="17.0645" width="18" height="7" fill="black">
<rect fill="white" x="5.2959" y="17.0645" width="18" height="7"/>
<path d="M6.4614 23.1055C6.35744 23.1055 6.26989 23.0699 6.19876 22.9988C6.12762 22.9277 6.09205 22.8401 6.09205 22.7361V17.713C6.09205 17.609 6.12762 17.5215 6.19876 17.4503C6.26989 17.3737 6.35744 17.3354 6.4614 17.3354H8.33278C8.74864 17.3354 9.09611 17.3901 9.37517 17.4996C9.65971 17.6035 9.88405 17.7458 10.0482 17.9264C10.2178 18.1015 10.3382 18.2957 10.4094 18.5091C10.486 18.7225 10.5243 18.9387 10.5243 19.1575C10.5243 19.3764 10.486 19.5926 10.4094 19.806C10.3382 20.0194 10.2178 20.2163 10.0482 20.3969C9.88405 20.572 9.65971 20.7143 9.37517 20.8237C9.09611 20.9277 8.74864 20.9797 8.33278 20.9797H6.83896V22.7361C6.83896 22.8401 6.80066 22.9277 6.72405 22.9988C6.65292 23.0699 6.56537 23.1055 6.4614 23.1055ZM6.83896 20.2738H8.25891C8.6693 20.2738 8.98393 20.2191 9.20281 20.1096C9.42168 19.9947 9.57216 19.8525 9.65424 19.6828C9.73631 19.5077 9.77735 19.3326 9.77735 19.1575C9.77735 18.977 9.73631 18.8019 9.65424 18.6322C9.57216 18.4626 9.42168 18.3231 9.20281 18.2136C8.98393 18.0987 8.6693 18.0413 8.25891 18.0413H6.83896V20.2738ZM12.5506 23.0645C12.4466 23.0645 12.359 23.0289 12.2879 22.9578C12.2168 22.8866 12.1812 22.7991 12.1812 22.6951V17.713C12.1812 17.609 12.2168 17.5215 12.2879 17.4503C12.359 17.3737 12.4466 17.3354 12.5506 17.3354H14.2003C14.6928 17.3354 15.1196 17.4202 15.4807 17.5899C15.8419 17.754 16.1428 17.9756 16.3836 18.2547C16.6244 18.5283 16.8022 18.8347 16.9171 19.174C17.0375 19.5132 17.0977 19.8552 17.0977 20.1999C17.0977 20.5447 17.0375 20.8867 16.9171 21.2259C16.8022 21.5652 16.6244 21.8743 16.3836 22.1534C16.1428 22.427 15.8419 22.6486 15.4807 22.8182C15.1196 22.9824 14.6928 23.0645 14.2003 23.0645H12.5506ZM12.9281 22.3668H14.11C14.5697 22.3668 14.9664 22.2765 15.3002 22.0959C15.6394 21.9099 15.8993 21.6554 16.0799 21.3326C16.266 21.0043 16.359 20.6267 16.359 20.1999C16.359 19.7731 16.266 19.3983 16.0799 19.0755C15.8993 18.7472 15.6394 18.4927 15.3002 18.3121C14.9664 18.1261 14.5697 18.0331 14.11 18.0331H12.9281V22.3668ZM19.289 23.1055C19.185 23.1055 19.0975 23.0699 19.0263 22.9988C18.9552 22.9277 18.9196 22.8401 18.9196 22.7361V17.713C18.9196 17.609 18.9552 17.5215 19.0263 17.4503C19.0975 17.3737 19.185 17.3354 19.289 17.3354H22.4818C22.5803 17.3354 22.6624 17.371 22.728 17.4421C22.7992 17.5078 22.8347 17.5899 22.8347 17.6883C22.8347 17.7868 22.7992 17.8689 22.728 17.9346C22.6624 18.0002 22.5803 18.0331 22.4818 18.0331H19.6665V19.847H22.1945C22.293 19.847 22.3751 19.8826 22.4408 19.9537C22.5119 20.0194 22.5475 20.1014 22.5475 20.1999C22.5475 20.2984 22.5119 20.3805 22.4408 20.4462C22.3751 20.5118 22.293 20.5447 22.1945 20.5447H19.6665V22.7361C19.6665 22.8401 19.6282 22.9277 19.5516 22.9988C19.4805 23.0699 19.3929 23.1055 19.289 23.1055Z"/>
</mask>
<path d="M6.4614 23.1055C6.35744 23.1055 6.26989 23.0699 6.19876 22.9988C6.12762 22.9277 6.09205 22.8401 6.09205 22.7361V17.713C6.09205 17.609 6.12762 17.5215 6.19876 17.4503C6.26989 17.3737 6.35744 17.3354 6.4614 17.3354H8.33278C8.74864 17.3354 9.09611 17.3901 9.37517 17.4996C9.65971 17.6035 9.88405 17.7458 10.0482 17.9264C10.2178 18.1015 10.3382 18.2957 10.4094 18.5091C10.486 18.7225 10.5243 18.9387 10.5243 19.1575C10.5243 19.3764 10.486 19.5926 10.4094 19.806C10.3382 20.0194 10.2178 20.2163 10.0482 20.3969C9.88405 20.572 9.65971 20.7143 9.37517 20.8237C9.09611 20.9277 8.74864 20.9797 8.33278 20.9797H6.83896V22.7361C6.83896 22.8401 6.80066 22.9277 6.72405 22.9988C6.65292 23.0699 6.56537 23.1055 6.4614 23.1055ZM6.83896 20.2738H8.25891C8.6693 20.2738 8.98393 20.2191 9.20281 20.1096C9.42168 19.9947 9.57216 19.8525 9.65424 19.6828C9.73631 19.5077 9.77735 19.3326 9.77735 19.1575C9.77735 18.977 9.73631 18.8019 9.65424 18.6322C9.57216 18.4626 9.42168 18.3231 9.20281 18.2136C8.98393 18.0987 8.6693 18.0413 8.25891 18.0413H6.83896V20.2738ZM12.5506 23.0645C12.4466 23.0645 12.359 23.0289 12.2879 22.9578C12.2168 22.8866 12.1812 22.7991 12.1812 22.6951V17.713C12.1812 17.609 12.2168 17.5215 12.2879 17.4503C12.359 17.3737 12.4466 17.3354 12.5506 17.3354H14.2003C14.6928 17.3354 15.1196 17.4202 15.4807 17.5899C15.8419 17.754 16.1428 17.9756 16.3836 18.2547C16.6244 18.5283 16.8022 18.8347 16.9171 19.174C17.0375 19.5132 17.0977 19.8552 17.0977 20.1999C17.0977 20.5447 17.0375 20.8867 16.9171 21.2259C16.8022 21.5652 16.6244 21.8743 16.3836 22.1534C16.1428 22.427 15.8419 22.6486 15.4807 22.8182C15.1196 22.9824 14.6928 23.0645 14.2003 23.0645H12.5506ZM12.9281 22.3668H14.11C14.5697 22.3668 14.9664 22.2765 15.3002 22.0959C15.6394 21.9099 15.8993 21.6554 16.0799 21.3326C16.266 21.0043 16.359 20.6267 16.359 20.1999C16.359 19.7731 16.266 19.3983 16.0799 19.0755C15.8993 18.7472 15.6394 18.4927 15.3002 18.3121C14.9664 18.1261 14.5697 18.0331 14.11 18.0331H12.9281V22.3668ZM19.289 23.1055C19.185 23.1055 19.0975 23.0699 19.0263 22.9988C18.9552 22.9277 18.9196 22.8401 18.9196 22.7361V17.713C18.9196 17.609 18.9552 17.5215 19.0263 17.4503C19.0975 17.3737 19.185 17.3354 19.289 17.3354H22.4818C22.5803 17.3354 22.6624 17.371 22.728 17.4421C22.7992 17.5078 22.8347 17.5899 22.8347 17.6883C22.8347 17.7868 22.7992 17.8689 22.728 17.9346C22.6624 18.0002 22.5803 18.0331 22.4818 18.0331H19.6665V19.847H22.1945C22.293 19.847 22.3751 19.8826 22.4408 19.9537C22.5119 20.0194 22.5475 20.1014 22.5475 20.1999C22.5475 20.2984 22.5119 20.3805 22.4408 20.4462C22.3751 20.5118 22.293 20.5447 22.1945 20.5447H19.6665V22.7361C19.6665 22.8401 19.6282 22.9277 19.5516 22.9988C19.4805 23.0699 19.3929 23.1055 19.289 23.1055Z" fill="white"/>
<path d="M6.19876 22.9988L6.34569 22.8519L6.19876 22.9988ZM6.19876 17.4503L6.34579 17.5974L6.35102 17.5917L6.19876 17.4503ZM9.37517 17.4996L9.29929 17.6931L9.30386 17.6947L9.37517 17.4996ZM10.0482 17.9264L9.89438 18.0662L9.89897 18.071L10.0482 17.9264ZM10.4094 18.5091L10.2122 18.5749L10.2138 18.5793L10.4094 18.5091ZM10.4094 19.806L10.2137 19.7357L10.2122 19.7402L10.4094 19.806ZM10.0482 20.3969L9.89676 20.2547L9.89662 20.2548L10.0482 20.3969ZM9.37517 20.8237L9.44772 21.0185L9.44976 21.0177L9.37517 20.8237ZM6.83896 20.9797V20.7719H6.63117V20.9797H6.83896ZM6.72405 22.9988L6.58256 22.8464L6.57712 22.8519L6.72405 22.9988ZM6.83896 20.2738H6.63117V20.4816H6.83896V20.2738ZM9.20281 20.1096L9.29575 20.2955L9.2994 20.2936L9.20281 20.1096ZM9.65424 19.6828L9.8413 19.7734L9.84238 19.771L9.65424 19.6828ZM9.20281 18.2136L9.1062 18.3977L9.10988 18.3995L9.20281 18.2136ZM6.83896 18.0413V17.8335H6.63117V18.0413H6.83896ZM6.46141 22.8977C6.41049 22.8977 6.37642 22.8826 6.34569 22.8519L6.05182 23.1457C6.16336 23.2573 6.30439 23.3133 6.46141 23.3133V22.8977ZM6.34569 22.8519C6.31495 22.8211 6.29985 22.7871 6.29985 22.7361H5.88426C5.88426 22.8932 5.94029 23.0342 6.05182 23.1457L6.34569 22.8519ZM6.29985 22.7361V17.713H5.88426V22.7361H6.29985ZM6.29985 17.713C6.29985 17.6621 6.31495 17.628 6.34569 17.5973L6.05182 17.3034C5.94029 17.4149 5.88426 17.556 5.88426 17.713H6.29985ZM6.35102 17.5917C6.38309 17.5572 6.41558 17.5432 6.46141 17.5432V17.1276C6.2993 17.1276 6.15669 17.1902 6.04649 17.3089L6.35102 17.5917ZM6.46141 17.5432H8.33278V17.1276H6.46141V17.5432ZM8.33278 17.5432C8.73203 17.5432 9.05181 17.596 9.29931 17.693L9.45103 17.3061C9.1404 17.1843 8.76526 17.1276 8.33278 17.1276V17.5432ZM9.30386 17.6947C9.56432 17.7899 9.75771 17.9157 9.89446 18.0662L10.202 17.7866C10.0104 17.5759 9.75509 17.4172 9.44648 17.3044L9.30386 17.6947ZM9.89897 18.071C10.0488 18.2256 10.1517 18.3934 10.2122 18.5748L10.6065 18.4434C10.5247 18.1981 10.3869 17.9774 10.1975 17.7818L9.89897 18.071ZM10.2138 18.5793C10.2826 18.771 10.3165 18.9635 10.3165 19.1575H10.7321C10.7321 18.9139 10.6893 18.674 10.6049 18.4389L10.2138 18.5793ZM10.3165 19.1575C10.3165 19.3516 10.2826 19.5441 10.2138 19.7358L10.6049 19.8762C10.6893 19.6411 10.7321 19.4012 10.7321 19.1575H10.3165ZM10.2122 19.7402C10.1515 19.9223 10.0479 20.0938 9.89676 20.2547L10.1997 20.5392C10.3878 20.3389 10.5249 20.1164 10.6065 19.8717L10.2122 19.7402ZM9.89662 20.2548C9.75888 20.4017 9.56353 20.5286 9.30058 20.6298L9.44976 21.0177C9.75589 20.8999 10.0092 20.7423 10.1998 20.539L9.89662 20.2548ZM9.30263 20.629C9.05398 20.7216 8.73296 20.7719 8.33278 20.7719V21.1875C8.76433 21.1875 9.13823 21.1337 9.44771 21.0184L9.30263 20.629ZM8.33278 20.7719H6.83896V21.1875H8.33278V20.7719ZM6.63117 20.9797V22.7361H7.04676V20.9797H6.63117ZM6.63117 22.7361C6.63117 22.782 6.61719 22.8145 6.58266 22.8465L6.86545 23.1511C6.98413 23.0409 7.04676 22.8983 7.04676 22.7361H6.63117ZM6.57712 22.8519C6.54639 22.8826 6.51232 22.8977 6.46141 22.8977V23.3133C6.61842 23.3133 6.75945 23.2573 6.87099 23.1457L6.57712 22.8519ZM6.83896 20.4816H8.25891V20.066H6.83896V20.4816ZM8.25891 20.4816C8.68245 20.4816 9.03475 20.426 9.29574 20.2955L9.10988 19.9238C8.93312 20.0122 8.65615 20.066 8.25891 20.066V20.4816ZM9.2994 20.2936C9.54541 20.1645 9.73457 19.9939 9.84128 19.7733L9.46719 19.5923C9.40975 19.7111 9.29796 19.825 9.10622 19.9257L9.2994 20.2936ZM9.84238 19.771C9.93604 19.5712 9.98515 19.3662 9.98515 19.1575H9.56956C9.56956 19.2991 9.53659 19.4442 9.46609 19.5946L9.84238 19.771ZM9.98515 19.1575C9.98515 18.9443 9.9364 18.7383 9.84128 18.5417L9.46719 18.7228C9.53623 18.8654 9.56956 19.0097 9.56956 19.1575H9.98515ZM9.84128 18.5417C9.73395 18.3199 9.54333 18.1516 9.29574 18.0278L9.10988 18.3995C9.30004 18.4946 9.41037 18.6053 9.46719 18.7228L9.84128 18.5417ZM9.2994 18.0297C9.03721 17.892 8.68337 17.8335 8.25891 17.8335V18.2491C8.65524 18.2491 8.93065 18.3055 9.10622 18.3976L9.2994 18.0297ZM8.25891 17.8335H6.83896V18.2491H8.25891V17.8335ZM6.63117 18.0413V20.2738H7.04676V18.0413H6.63117ZM12.2879 22.9578L12.4348 22.8108L12.2879 22.9578ZM12.2879 17.4503L12.4349 17.5974L12.4402 17.5917L12.2879 17.4503ZM15.4807 17.5899L15.3924 17.7779L15.3948 17.779L15.4807 17.5899ZM16.3836 18.2547L16.2263 18.3904L16.2276 18.392L16.3836 18.2547ZM16.9171 19.174L16.7203 19.2406L16.7213 19.2434L16.9171 19.174ZM16.9171 21.2259L16.7213 21.1564L16.7203 21.1592L16.9171 21.2259ZM16.3836 22.1534L16.5396 22.2907L16.5409 22.2891L16.3836 22.1534ZM15.4807 22.8182L15.5667 23.0074L15.5691 23.0063L15.4807 22.8182ZM12.9281 22.3668H12.7203V22.5746H12.9281V22.3668ZM15.3002 22.0959L15.399 22.2787L15.4001 22.2781L15.3002 22.0959ZM16.0799 21.3326L15.8991 21.2302L15.8986 21.2312L16.0799 21.3326ZM16.0799 19.0755L15.8978 19.1756L15.8999 19.1792L16.0799 19.0755ZM15.3002 18.3121L15.199 18.4937L15.2025 18.4956L15.3002 18.3121ZM12.9281 18.0331V17.8253H12.7203V18.0331H12.9281ZM12.5506 22.8567C12.4996 22.8567 12.4656 22.8416 12.4348 22.8108L12.141 23.1047C12.2525 23.2162 12.3935 23.2722 12.5506 23.2722V22.8567ZM12.4348 22.8108C12.4041 22.7801 12.389 22.746 12.389 22.6951H11.9734C11.9734 22.8521 12.0294 22.9931 12.141 23.1047L12.4348 22.8108ZM12.389 22.6951V17.713H11.9734V22.6951H12.389ZM12.389 17.713C12.389 17.6621 12.4041 17.628 12.4348 17.5973L12.141 17.3034C12.0294 17.4149 11.9734 17.556 11.9734 17.713H12.389ZM12.4402 17.5917C12.4722 17.5572 12.5047 17.5432 12.5506 17.5432V17.1276C12.3885 17.1276 12.2458 17.1902 12.1356 17.3089L12.4402 17.5917ZM12.5506 17.5432H14.2003V17.1276H12.5506V17.5432ZM14.2003 17.5432C14.6692 17.5432 15.0646 17.624 15.3924 17.7779L15.5691 17.4018C15.1746 17.2165 14.7163 17.1276 14.2003 17.1276V17.5432ZM15.3948 17.779C15.7307 17.9317 16.0066 18.1358 16.2263 18.3904L16.5409 18.1189C16.2791 17.8154 15.9531 17.5763 15.5667 17.4007L15.3948 17.779ZM16.2276 18.392C16.4506 18.6453 16.6144 18.9278 16.7203 19.2406L17.1139 19.1073C16.99 18.7416 16.7982 18.4112 16.5396 18.1174L16.2276 18.392ZM16.7213 19.2434C16.8341 19.5614 16.8899 19.8799 16.8899 20.1999H17.3055C17.3055 19.8305 17.2409 19.465 17.1129 19.1045L16.7213 19.2434ZM16.8899 20.1999C16.8899 20.5199 16.8341 20.8385 16.7213 21.1564L17.1129 21.2954C17.2409 20.9348 17.3055 20.5694 17.3055 20.1999H16.8899ZM16.7203 21.1592C16.6142 21.4724 16.4501 21.7583 16.2263 22.0177L16.5409 22.2891C16.7987 21.9904 16.9902 21.6579 17.1139 21.2926L16.7203 21.1592ZM16.2276 22.0161C16.0074 22.2664 15.7302 22.4715 15.3924 22.6301L15.5691 23.0063C15.9536 22.8257 16.2783 22.5876 16.5396 22.2907L16.2276 22.0161ZM15.3948 22.6291C15.0663 22.7783 14.6701 22.8567 14.2003 22.8567V23.2722C14.7155 23.2722 15.1729 23.1864 15.5667 23.0074L15.3948 22.6291ZM14.2003 22.8567H12.5506V23.2722H14.2003V22.8567ZM12.9281 22.5746H14.11V22.159H12.9281V22.5746ZM14.11 22.5746C14.597 22.5746 15.0291 22.4788 15.399 22.2787L15.2013 21.9132C14.9037 22.0742 14.5424 22.159 14.11 22.159V22.5746ZM15.4001 22.2781C15.7719 22.0742 16.0608 21.7925 16.2613 21.434L15.8986 21.2312C15.7379 21.5184 15.507 21.7455 15.2003 21.9137L15.4001 22.2781ZM16.2607 21.4351C16.4667 21.0716 16.5668 20.6579 16.5668 20.1999H16.1512C16.1512 20.5956 16.0652 20.937 15.8991 21.2302L16.2607 21.4351ZM16.5668 20.1999C16.5668 19.7421 16.4667 19.3305 16.2599 18.9717L15.8999 19.1792C16.0652 19.4661 16.1512 19.8042 16.1512 20.1999H16.5668ZM16.262 18.9753C16.0614 18.6107 15.7717 18.3277 15.3978 18.1287L15.2025 18.4956C15.5071 18.6577 15.7372 18.8836 15.8978 19.1756L16.262 18.9753ZM15.4013 18.1306C15.0309 17.9242 14.5979 17.8253 14.11 17.8253V18.2409C14.5414 18.2409 14.9019 18.328 15.199 18.4936L15.4013 18.1306ZM14.11 17.8253H12.9281V18.2409H14.11V17.8253ZM12.7203 18.0331V22.3668H13.1359V18.0331H12.7203ZM19.0263 22.9988L19.1732 22.8519L19.0263 22.9988ZM19.0263 17.4503L19.1733 17.5974L19.1786 17.5917L19.0263 17.4503ZM22.728 17.4421L22.5753 17.5831L22.581 17.5892L22.5871 17.5948L22.728 17.4421ZM22.728 17.9346L22.587 17.7818L22.5811 17.7877L22.728 17.9346ZM19.6665 18.0331V17.8253H19.4587V18.0331H19.6665ZM19.6665 19.847H19.4587V20.0548H19.6665V19.847ZM22.4408 19.9537L22.2881 20.0946L22.2937 20.1007L22.2998 20.1064L22.4408 19.9537ZM22.4408 20.4462L22.2997 20.2934L22.2938 20.2992L22.4408 20.4462ZM19.6665 20.5447V20.3369H19.4587V20.5447H19.6665ZM19.5516 22.9988L19.4101 22.8464L19.4047 22.8519L19.5516 22.9988ZM19.289 22.8977C19.238 22.8977 19.204 22.8826 19.1732 22.8519L18.8794 23.1457C18.9909 23.2573 19.132 23.3133 19.289 23.3133V22.8977ZM19.1732 22.8519C19.1425 22.8211 19.1274 22.7871 19.1274 22.7361H18.7118C18.7118 22.8932 18.7678 23.0342 18.8794 23.1457L19.1732 22.8519ZM19.1274 22.7361V17.713H18.7118V22.7361H19.1274ZM19.1274 17.713C19.1274 17.6621 19.1425 17.628 19.1732 17.5973L18.8794 17.3034C18.7678 17.4149 18.7118 17.556 18.7118 17.713H19.1274ZM19.1786 17.5917C19.2107 17.5572 19.2431 17.5432 19.289 17.5432V17.1276C19.1269 17.1276 18.9843 17.1902 18.874 17.3089L19.1786 17.5917ZM19.289 17.5432H22.4818V17.1276H19.289V17.5432ZM22.4818 17.5432C22.5234 17.5432 22.5498 17.5554 22.5753 17.5831L22.8807 17.3012C22.7749 17.1866 22.6371 17.1276 22.4818 17.1276V17.5432ZM22.5871 17.5948C22.6148 17.6204 22.6269 17.6467 22.6269 17.6883H23.0425C23.0425 17.533 22.9836 17.3952 22.869 17.2894L22.5871 17.5948ZM22.6269 17.6883C22.6269 17.73 22.6148 17.7563 22.5871 17.7819L22.869 18.0873C22.9836 17.9815 23.0425 17.8437 23.0425 17.6883H22.6269ZM22.5811 17.7877C22.557 17.8118 22.5289 17.8253 22.4818 17.8253V18.2409C22.6317 18.2409 22.7678 18.1887 22.875 18.0815L22.5811 17.7877ZM22.4818 17.8253H19.6665V18.2409H22.4818V17.8253ZM19.4587 18.0331V19.847H19.8743V18.0331H19.4587ZM19.6665 20.0548H22.1945V19.6392H19.6665V20.0548ZM22.1945 20.0548C22.2362 20.0548 22.2625 20.067 22.2881 20.0946L22.5934 19.8128C22.4877 19.6982 22.3499 19.6392 22.1945 19.6392V20.0548ZM22.2998 20.1064C22.3275 20.1319 22.3397 20.1583 22.3397 20.1999H22.7553C22.7553 20.0446 22.6963 19.9068 22.5817 19.801L22.2998 20.1064ZM22.3397 20.1999C22.3397 20.2416 22.3275 20.2679 22.2998 20.2935L22.5817 20.5989C22.6963 20.4931 22.7553 20.3553 22.7553 20.1999H22.3397ZM22.2938 20.2992C22.2697 20.3234 22.2416 20.3369 22.1945 20.3369V20.7525C22.3444 20.7525 22.4805 20.7003 22.5877 20.5931L22.2938 20.2992ZM22.1945 20.3369H19.6665V20.7525H22.1945V20.3369ZM19.4587 20.5447V22.7361H19.8743V20.5447H19.4587ZM19.4587 22.7361C19.4587 22.782 19.4448 22.8145 19.4102 22.8465L19.693 23.1511C19.8117 23.0409 19.8743 22.8983 19.8743 22.7361H19.4587ZM19.4047 22.8519C19.374 22.8826 19.3399 22.8977 19.289 22.8977V23.3133C19.446 23.3133 19.587 23.2573 19.6985 23.1457L19.4047 22.8519Z" fill="white" mask="url(#path-4-outside-1_85_893)"/>
<g filter="url(#filter0_d_85_893)">
<path d="M28.2566 10.5974H19.9449C18.6825 10.5974 17.6592 9.57405 17.6592 8.31169V0L28.2566 10.5974Z" fill="url(#paint2_linear_85_893)"/>
</g>
</g>
<mask id="mask1_85_893" style="mask-type:alpha" maskUnits="userSpaceOnUse" x="40" y="0" width="30" height="32">
<path d="M66.9735 32H43.2852C42.0229 32 40.9995 30.9767 40.9995 29.7143V2.28572C40.9995 1.02335 42.0229 0 43.2852 0H58.6618L69.2593 10.5974V29.7143C69.2593 30.9767 68.2359 32 66.9735 32Z" fill="url(#paint3_linear_85_893)"/>
</mask>
<g mask="url(#mask1_85_893)">
<path d="M66.9691 32H43.2808C42.0185 32 40.9951 30.9767 40.9951 29.7143V2.28572C40.9951 1.02335 42.0185 0 43.2808 0H58.6575L69.2549 10.5974V29.7143C69.2549 30.9767 68.2315 32 66.9691 32Z" fill="url(#paint4_linear_85_893)"/>
<g opacity="0.23" filter="url(#filter1_f_85_893)">
<rect x="42.5537" y="15.4805" width="25.3506" height="8.72727" fill="#E32E06" style="mix-blend-mode:darken"/>
</g>
<path opacity="0.12" fill-rule="evenodd" clip-rule="evenodd" d="M55.1247 22.9604C58.9118 22.9604 61.9819 19.8903 61.9819 16.1032C61.9819 12.3161 58.9118 9.24609 55.1247 9.24609C51.3376 9.24609 48.2676 12.3161 48.2676 16.1032C48.2676 19.8903 51.3376 22.9604 55.1247 22.9604ZM55.1247 21.574C52.1033 21.574 49.654 19.1246 49.654 16.1032C49.654 13.3301 51.7173 11.0389 54.3926 10.6811V15.3708V16.7422V16.7439H55.764V16.7422L60.5585 16.7422C60.2421 19.4625 57.93 21.574 55.1247 21.574ZM55.764 10.6694V15.3708H60.5469C60.2168 12.9043 58.2434 10.958 55.764 10.6694ZM61.6715 26.0781H48.5806V24.8314H61.6715V26.0781ZM61.6715 29.1934H48.5806V27.9466H61.6715V29.1934Z" fill="white"/>
<mask id="path-11-outside-2_85_893" maskUnits="userSpaceOnUse" x="46.5029" y="17.0645" width="18" height="7" fill="black">
<rect fill="white" x="46.5029" y="17.0645" width="18" height="7"/>
<path d="M48.0785 23.1055C47.9745 23.1055 47.887 23.0699 47.8158 22.9988C47.7447 22.9277 47.7091 22.8401 47.7091 22.7361V17.713C47.7091 17.609 47.7447 17.5215 47.8158 17.4503C47.887 17.3737 47.9745 17.3354 48.0785 17.3354H49.9498C50.3657 17.3354 50.7132 17.3901 50.9922 17.4996C51.2768 17.6035 51.5011 17.7458 51.6653 17.9264C51.8349 18.1015 51.9553 18.2957 52.0264 18.5091C52.103 18.7225 52.1413 18.9387 52.1413 19.1575C52.1413 19.3764 52.103 19.5926 52.0264 19.806C51.9553 20.0194 51.8349 20.2163 51.6653 20.3969C51.5011 20.572 51.2768 20.7143 50.9922 20.8237C50.7132 20.9277 50.3657 20.9797 49.9498 20.9797H48.456V22.7361C48.456 22.8401 48.4177 22.9277 48.3411 22.9988C48.27 23.0699 48.1824 23.1055 48.0785 23.1055ZM48.456 20.2738H49.876C50.2864 20.2738 50.601 20.2191 50.8199 20.1096C51.0387 19.9947 51.1892 19.8525 51.2713 19.6828C51.3534 19.5077 51.3944 19.3326 51.3944 19.1575C51.3944 18.977 51.3534 18.8019 51.2713 18.6322C51.1892 18.4626 51.0387 18.3231 50.8199 18.2136C50.601 18.0987 50.2864 18.0413 49.876 18.0413H48.456V20.2738ZM54.1676 23.1055C54.0637 23.1055 53.9761 23.0699 53.905 22.9988C53.8338 22.9277 53.7983 22.8401 53.7983 22.7361V17.713C53.7983 17.609 53.8338 17.5215 53.905 17.4503C53.9761 17.3737 54.0637 17.3354 54.1676 17.3354H56.039C56.4549 17.3354 56.8023 17.3901 57.0814 17.4996C57.3659 17.6035 57.5903 17.7458 57.7544 17.9264C57.9241 18.1015 58.0444 18.2957 58.1156 18.5091C58.1922 18.7225 58.2305 18.9387 58.2305 19.1575C58.2305 19.3764 58.1922 19.5926 58.1156 19.806C58.0444 20.0194 57.9241 20.2163 57.7544 20.3969C57.5903 20.572 57.3659 20.7143 57.0814 20.8237C56.8023 20.9277 56.4549 20.9797 56.039 20.9797H54.5452V22.7361C54.5452 22.8401 54.5069 22.9277 54.4303 22.9988C54.3591 23.0699 54.2716 23.1055 54.1676 23.1055ZM54.5452 20.2738H55.9651C56.3755 20.2738 56.6902 20.2191 56.909 20.1096C57.1279 19.9947 57.2784 19.8525 57.3605 19.6828C57.4425 19.5077 57.4836 19.3326 57.4836 19.1575C57.4836 18.977 57.4425 18.8019 57.3605 18.6322C57.2784 18.4626 57.1279 18.3231 56.909 18.2136C56.6902 18.0987 56.3755 18.0413 55.9651 18.0413H54.5452V20.2738ZM61.5864 23.1055C61.4825 23.1055 61.3949 23.0699 61.3238 22.9988C61.2527 22.9277 61.2171 22.8401 61.2171 22.7361V18.0331H59.5427C59.4442 18.0331 59.3621 18.0002 59.2965 17.9346C59.2308 17.8689 59.198 17.7868 59.198 17.6883C59.198 17.5899 59.2308 17.5078 59.2965 17.4421C59.3621 17.371 59.4442 17.3354 59.5427 17.3354H63.6302C63.7287 17.3354 63.8108 17.371 63.8764 17.4421C63.9476 17.5078 63.9831 17.5899 63.9831 17.6883C63.9831 17.7868 63.9476 17.8689 63.8764 17.9346C63.8108 18.0002 63.7287 18.0331 63.6302 18.0331H61.964V22.7361C61.964 22.8401 61.9257 22.9277 61.8491 22.9988C61.778 23.0699 61.6904 23.1055 61.5864 23.1055Z"/>
</mask>
<path d="M48.0785 23.1055C47.9745 23.1055 47.887 23.0699 47.8158 22.9988C47.7447 22.9277 47.7091 22.8401 47.7091 22.7361V17.713C47.7091 17.609 47.7447 17.5215 47.8158 17.4503C47.887 17.3737 47.9745 17.3354 48.0785 17.3354H49.9498C50.3657 17.3354 50.7132 17.3901 50.9922 17.4996C51.2768 17.6035 51.5011 17.7458 51.6653 17.9264C51.8349 18.1015 51.9553 18.2957 52.0264 18.5091C52.103 18.7225 52.1413 18.9387 52.1413 19.1575C52.1413 19.3764 52.103 19.5926 52.0264 19.806C51.9553 20.0194 51.8349 20.2163 51.6653 20.3969C51.5011 20.572 51.2768 20.7143 50.9922 20.8237C50.7132 20.9277 50.3657 20.9797 49.9498 20.9797H48.456V22.7361C48.456 22.8401 48.4177 22.9277 48.3411 22.9988C48.27 23.0699 48.1824 23.1055 48.0785 23.1055ZM48.456 20.2738H49.876C50.2864 20.2738 50.601 20.2191 50.8199 20.1096C51.0387 19.9947 51.1892 19.8525 51.2713 19.6828C51.3534 19.5077 51.3944 19.3326 51.3944 19.1575C51.3944 18.977 51.3534 18.8019 51.2713 18.6322C51.1892 18.4626 51.0387 18.3231 50.8199 18.2136C50.601 18.0987 50.2864 18.0413 49.876 18.0413H48.456V20.2738ZM54.1676 23.1055C54.0637 23.1055 53.9761 23.0699 53.905 22.9988C53.8338 22.9277 53.7983 22.8401 53.7983 22.7361V17.713C53.7983 17.609 53.8338 17.5215 53.905 17.4503C53.9761 17.3737 54.0637 17.3354 54.1676 17.3354H56.039C56.4549 17.3354 56.8023 17.3901 57.0814 17.4996C57.3659 17.6035 57.5903 17.7458 57.7544 17.9264C57.9241 18.1015 58.0444 18.2957 58.1156 18.5091C58.1922 18.7225 58.2305 18.9387 58.2305 19.1575C58.2305 19.3764 58.1922 19.5926 58.1156 19.806C58.0444 20.0194 57.9241 20.2163 57.7544 20.3969C57.5903 20.572 57.3659 20.7143 57.0814 20.8237C56.8023 20.9277 56.4549 20.9797 56.039 20.9797H54.5452V22.7361C54.5452 22.8401 54.5069 22.9277 54.4303 22.9988C54.3591 23.0699 54.2716 23.1055 54.1676 23.1055ZM54.5452 20.2738H55.9651C56.3755 20.2738 56.6902 20.2191 56.909 20.1096C57.1279 19.9947 57.2784 19.8525 57.3605 19.6828C57.4425 19.5077 57.4836 19.3326 57.4836 19.1575C57.4836 18.977 57.4425 18.8019 57.3605 18.6322C57.2784 18.4626 57.1279 18.3231 56.909 18.2136C56.6902 18.0987 56.3755 18.0413 55.9651 18.0413H54.5452V20.2738ZM61.5864 23.1055C61.4825 23.1055 61.3949 23.0699 61.3238 22.9988C61.2527 22.9277 61.2171 22.8401 61.2171 22.7361V18.0331H59.5427C59.4442 18.0331 59.3621 18.0002 59.2965 17.9346C59.2308 17.8689 59.198 17.7868 59.198 17.6883C59.198 17.5899 59.2308 17.5078 59.2965 17.4421C59.3621 17.371 59.4442 17.3354 59.5427 17.3354H63.6302C63.7287 17.3354 63.8108 17.371 63.8764 17.4421C63.9476 17.5078 63.9831 17.5899 63.9831 17.6883C63.9831 17.7868 63.9476 17.8689 63.8764 17.9346C63.8108 18.0002 63.7287 18.0331 63.6302 18.0331H61.964V22.7361C61.964 22.8401 61.9257 22.9277 61.8491 22.9988C61.778 23.0699 61.6904 23.1055 61.5864 23.1055Z" fill="white"/>
<path d="M47.8158 22.9988L47.9628 22.8519L47.8158 22.9988ZM47.8158 17.4503L47.9629 17.5974L47.9681 17.5917L47.8158 17.4503ZM50.9922 17.4996L50.9164 17.6931L50.9209 17.6947L50.9922 17.4996ZM51.6653 17.9264L51.5114 18.0662L51.516 18.071L51.6653 17.9264ZM52.0264 18.5091L51.8292 18.5749L51.8308 18.5793L52.0264 18.5091ZM52.0264 19.806L51.8308 19.7357L51.8293 19.7402L52.0264 19.806ZM51.6653 20.3969L51.5138 20.2547L51.5137 20.2548L51.6653 20.3969ZM50.9922 20.8237L51.0648 21.0185L51.0668 21.0177L50.9922 20.8237ZM48.456 20.9797V20.7719H48.2482V20.9797H48.456ZM48.3411 22.9988L48.1996 22.8464L48.1942 22.8519L48.3411 22.9988ZM48.456 20.2738H48.2482V20.4816H48.456V20.2738ZM50.8199 20.1096L50.9128 20.2955L50.9165 20.2936L50.8199 20.1096ZM51.2713 19.6828L51.4584 19.7734L51.4594 19.771L51.2713 19.6828ZM50.8199 18.2136L50.7233 18.3977L50.7269 18.3995L50.8199 18.2136ZM48.456 18.0413V17.8335H48.2482V18.0413H48.456ZM48.0785 22.8977C48.0276 22.8977 47.9935 22.8826 47.9628 22.8519L47.6689 23.1457C47.7804 23.2573 47.9215 23.3133 48.0785 23.3133V22.8977ZM47.9628 22.8519C47.932 22.8211 47.9169 22.7871 47.9169 22.7361H47.5013C47.5013 22.8932 47.5574 23.0342 47.6689 23.1457L47.9628 22.8519ZM47.9169 22.7361V17.713H47.5013V22.7361H47.9169ZM47.9169 17.713C47.9169 17.6621 47.932 17.628 47.9628 17.5973L47.6689 17.3034C47.5574 17.4149 47.5013 17.556 47.5013 17.713H47.9169ZM47.9681 17.5917C48.0002 17.5572 48.0326 17.5432 48.0785 17.5432V17.1276C47.9164 17.1276 47.7738 17.1902 47.6636 17.3089L47.9681 17.5917ZM48.0785 17.5432H49.9498V17.1276H48.0785V17.5432ZM49.9498 17.5432C50.3491 17.5432 50.6689 17.596 50.9164 17.693L51.0681 17.3061C50.7575 17.1843 50.3823 17.1276 49.9498 17.1276V17.5432ZM50.9209 17.6947C51.1814 17.7899 51.3748 17.9157 51.5115 18.0662L51.819 17.7866C51.6275 17.5759 51.3722 17.4172 51.0635 17.3044L50.9209 17.6947ZM51.516 18.071C51.6658 18.2256 51.7688 18.3934 51.8293 18.5748L52.2235 18.4434C52.1418 18.1981 52.004 17.9774 51.8145 17.7818L51.516 18.071ZM51.8308 18.5793C51.8997 18.771 51.9335 18.9635 51.9335 19.1575H52.3491C52.3491 18.9139 52.3064 18.674 52.222 18.4389L51.8308 18.5793ZM51.9335 19.1575C51.9335 19.3516 51.8997 19.5441 51.8308 19.7358L52.222 19.8762C52.3064 19.6411 52.3491 19.4012 52.3491 19.1575H51.9335ZM51.8293 19.7402C51.7686 19.9223 51.665 20.0938 51.5138 20.2547L51.8167 20.5392C52.0048 20.3389 52.142 20.1164 52.2235 19.8717L51.8293 19.7402ZM51.5137 20.2548C51.3759 20.4017 51.1806 20.5286 50.9176 20.6298L51.0668 21.0177C51.3729 20.8999 51.6263 20.7423 51.8169 20.539L51.5137 20.2548ZM50.9197 20.629C50.671 20.7216 50.35 20.7719 49.9498 20.7719V21.1875C50.3814 21.1875 50.7553 21.1337 51.0648 21.0184L50.9197 20.629ZM49.9498 20.7719H48.456V21.1875H49.9498V20.7719ZM48.2482 20.9797V22.7361H48.6638V20.9797H48.2482ZM48.2482 22.7361C48.2482 22.782 48.2343 22.8145 48.1997 22.8465L48.4825 23.1511C48.6012 23.0409 48.6638 22.8983 48.6638 22.7361H48.2482ZM48.1942 22.8519C48.1635 22.8826 48.1294 22.8977 48.0785 22.8977V23.3133C48.2355 23.3133 48.3765 23.2573 48.488 23.1457L48.1942 22.8519ZM48.456 20.4816H49.876V20.066H48.456V20.4816ZM49.876 20.4816C50.2995 20.4816 50.6518 20.426 50.9128 20.2955L50.7269 19.9238C50.5502 20.0122 50.2732 20.066 49.876 20.066V20.4816ZM50.9165 20.2936C51.1625 20.1645 51.3516 19.9939 51.4583 19.7733L51.0843 19.5923C51.0268 19.7111 50.915 19.825 50.7233 19.9257L50.9165 20.2936ZM51.4594 19.771C51.5531 19.5712 51.6022 19.3662 51.6022 19.1575H51.1866C51.1866 19.2991 51.1537 19.4442 51.0832 19.5946L51.4594 19.771ZM51.6022 19.1575C51.6022 18.9443 51.5535 18.7383 51.4583 18.5417L51.0843 18.7228C51.1533 18.8654 51.1866 19.0097 51.1866 19.1575H51.6022ZM51.4583 18.5417C51.351 18.3199 51.1604 18.1516 50.9128 18.0278L50.7269 18.3995C50.9171 18.4946 51.0274 18.6053 51.0843 18.7228L51.4583 18.5417ZM50.9165 18.0297C50.6543 17.892 50.3004 17.8335 49.876 17.8335V18.2491C50.2723 18.2491 50.5477 18.3055 50.7233 18.3976L50.9165 18.0297ZM49.876 17.8335H48.456V18.2491H49.876V17.8335ZM48.2482 18.0413V20.2738H48.6638V18.0413H48.2482ZM53.905 22.9988L54.0519 22.8519L53.905 22.9988ZM53.905 17.4503L54.052 17.5974L54.0572 17.5917L53.905 17.4503ZM57.0814 17.4996L57.0055 17.6931L57.0101 17.6947L57.0814 17.4996ZM57.7544 17.9264L57.6006 18.0662L57.6052 18.071L57.7544 17.9264ZM58.1156 18.5091L57.9184 18.5749L57.92 18.5793L58.1156 18.5091ZM58.1156 19.806L57.9199 19.7357L57.9184 19.7402L58.1156 19.806ZM57.7544 20.3969L57.603 20.2547L57.6028 20.2548L57.7544 20.3969ZM57.0814 20.8237L57.1539 21.0185L57.156 21.0177L57.0814 20.8237ZM54.5452 20.9797V20.7719H54.3374V20.9797H54.5452ZM54.4303 22.9988L54.2888 22.8464L54.2833 22.8519L54.4303 22.9988ZM54.5452 20.2738H54.3374V20.4816H54.5452V20.2738ZM56.909 20.1096L57.002 20.2955L57.0056 20.2936L56.909 20.1096ZM57.3605 19.6828L57.5475 19.7734L57.5486 19.771L57.3605 19.6828ZM56.909 18.2136L56.8124 18.3977L56.8161 18.3995L56.909 18.2136ZM54.5452 18.0413V17.8335H54.3374V18.0413H54.5452ZM54.1676 22.8977C54.1167 22.8977 54.0826 22.8826 54.0519 22.8519L53.758 23.1457C53.8696 23.2573 54.0106 23.3133 54.1676 23.3133V22.8977ZM54.0519 22.8519C54.0212 22.8211 54.0061 22.7871 54.0061 22.7361H53.5905C53.5905 22.8932 53.6465 23.0342 53.758 23.1457L54.0519 22.8519ZM54.0061 22.7361V17.713H53.5905V22.7361H54.0061ZM54.0061 17.713C54.0061 17.6621 54.0212 17.628 54.0519 17.5973L53.758 17.3034C53.6465 17.4149 53.5905 17.556 53.5905 17.713H54.0061ZM54.0572 17.5917C54.0893 17.5572 54.1218 17.5432 54.1676 17.5432V17.1276C54.0055 17.1276 53.8629 17.1902 53.7527 17.3089L54.0572 17.5917ZM54.1676 17.5432H56.039V17.1276H54.1676V17.5432ZM56.039 17.5432C56.4382 17.5432 56.758 17.596 57.0055 17.693L57.1573 17.3061C56.8466 17.1843 56.4715 17.1276 56.039 17.1276V17.5432ZM57.0101 17.6947C57.2705 17.7899 57.4639 17.9157 57.6007 18.0662L57.9082 17.7866C57.7166 17.5759 57.4613 17.4172 57.1527 17.3044L57.0101 17.6947ZM57.6052 18.071C57.755 18.2256 57.858 18.3934 57.9184 18.5748L58.3127 18.4434C58.2309 18.1981 58.0931 17.9774 57.9037 17.7818L57.6052 18.071ZM57.92 18.5793C57.9888 18.771 58.0227 18.9635 58.0227 19.1575H58.4383C58.4383 18.9139 58.3955 18.674 58.3111 18.4389L57.92 18.5793ZM58.0227 19.1575C58.0227 19.3516 57.9888 19.5441 57.92 19.7358L58.3111 19.8762C58.3955 19.6411 58.4383 19.4012 58.4383 19.1575H58.0227ZM57.9184 19.7402C57.8577 19.9223 57.7541 20.0938 57.603 20.2547L57.9059 20.5392C58.094 20.3389 58.2311 20.1164 58.3127 19.8717L57.9184 19.7402ZM57.6028 20.2548C57.4651 20.4017 57.2697 20.5286 57.0068 20.6298L57.156 21.0177C57.4621 20.8999 57.7155 20.7423 57.906 20.539L57.6028 20.2548ZM57.0088 20.629C56.7602 20.7216 56.4392 20.7719 56.039 20.7719V21.1875C56.4705 21.1875 56.8444 21.1337 57.1539 21.0184L57.0088 20.629ZM56.039 20.7719H54.5452V21.1875H56.039V20.7719ZM54.3374 20.9797V22.7361H54.753V20.9797H54.3374ZM54.3374 22.7361C54.3374 22.782 54.3234 22.8145 54.2889 22.8465L54.5717 23.1511C54.6903 23.0409 54.753 22.8983 54.753 22.7361H54.3374ZM54.2833 22.8519C54.2526 22.8826 54.2185 22.8977 54.1676 22.8977V23.3133C54.3246 23.3133 54.4657 23.2573 54.5772 23.1457L54.2833 22.8519ZM54.5452 20.4816H55.9651V20.066H54.5452V20.4816ZM55.9651 20.4816C56.3887 20.4816 56.741 20.426 57.002 20.2955L56.8161 19.9238C56.6393 20.0122 56.3624 20.066 55.9651 20.066V20.4816ZM57.0056 20.2936C57.2516 20.1645 57.4408 19.9939 57.5475 19.7733L57.1734 19.5923C57.116 19.7111 57.0042 19.825 56.8124 19.9257L57.0056 20.2936ZM57.5486 19.771C57.6423 19.5712 57.6914 19.3662 57.6914 19.1575H57.2758C57.2758 19.2991 57.2428 19.4442 57.1723 19.5946L57.5486 19.771ZM57.6914 19.1575C57.6914 18.9443 57.6426 18.7383 57.5475 18.5417L57.1734 18.7228C57.2424 18.8654 57.2758 19.0097 57.2758 19.1575H57.6914ZM57.5475 18.5417C57.4402 18.3199 57.2495 18.1516 57.002 18.0278L56.8161 18.3995C57.0063 18.4946 57.1166 18.6053 57.1734 18.7228L57.5475 18.5417ZM57.0056 18.0297C56.7434 17.892 56.3896 17.8335 55.9651 17.8335V18.2491C56.3615 18.2491 56.6369 18.3055 56.8124 18.3976L57.0056 18.0297ZM55.9651 17.8335H54.5452V18.2491H55.9651V17.8335ZM54.3374 18.0413V20.2738H54.753V18.0413H54.3374ZM61.3238 22.9988L61.1769 23.1457L61.3238 22.9988ZM61.2171 18.0331H61.4249V17.8253H61.2171V18.0331ZM59.2965 17.9346L59.1495 18.0815V18.0815L59.2965 17.9346ZM59.2965 17.4421L59.4435 17.5892L59.4492 17.5831L59.2965 17.4421ZM63.8764 17.4421L63.7237 17.5831L63.7294 17.5892L63.7355 17.5948L63.8764 17.4421ZM63.8764 17.9346L63.7354 17.7818L63.7295 17.7877L63.8764 17.9346ZM61.964 18.0331V17.8253H61.7562V18.0331H61.964ZM61.8491 22.9988L61.7076 22.8464L61.7022 22.8519L61.8491 22.9988ZM61.5864 22.8977C61.5355 22.8977 61.5015 22.8826 61.4707 22.8519L61.1769 23.1457C61.2884 23.2573 61.4294 23.3133 61.5864 23.3133V22.8977ZM61.4707 22.8519C61.44 22.8211 61.4249 22.7871 61.4249 22.7361H61.0093C61.0093 22.8932 61.0653 23.0342 61.1769 23.1457L61.4707 22.8519ZM61.4249 22.7361V18.0331H61.0093V22.7361H61.4249ZM61.2171 17.8253H59.5427V18.2409H61.2171V17.8253ZM59.5427 17.8253C59.4956 17.8253 59.4675 17.8118 59.4434 17.7877L59.1495 18.0815C59.2567 18.1887 59.3928 18.2409 59.5427 18.2409V17.8253ZM59.4434 17.7877C59.4193 17.7635 59.4058 17.7354 59.4058 17.6883H58.9902C58.9902 17.8382 59.0424 17.9743 59.1495 18.0815L59.4434 17.7877ZM59.4058 17.6883C59.4058 17.6413 59.4193 17.6132 59.4434 17.589L59.1495 17.2952C59.0424 17.4024 58.9902 17.5385 58.9902 17.6883H59.4058ZM59.4492 17.5831C59.4747 17.5554 59.5011 17.5432 59.5427 17.5432V17.1276C59.3874 17.1276 59.2496 17.1866 59.1438 17.3012L59.4492 17.5831ZM59.5427 17.5432H63.6302V17.1276H59.5427V17.5432ZM63.6302 17.5432C63.6718 17.5432 63.6982 17.5554 63.7237 17.5831L64.0291 17.3012C63.9233 17.1866 63.7855 17.1276 63.6302 17.1276V17.5432ZM63.7355 17.5948C63.7632 17.6204 63.7753 17.6467 63.7753 17.6883H64.1909C64.1909 17.533 64.1319 17.3952 64.0174 17.2894L63.7355 17.5948ZM63.7753 17.6883C63.7753 17.73 63.7632 17.7563 63.7355 17.7819L64.0174 18.0873C64.1319 17.9815 64.1909 17.8437 64.1909 17.6883H63.7753ZM63.7295 17.7877C63.7053 17.8118 63.6773 17.8253 63.6302 17.8253V18.2409C63.7801 18.2409 63.9162 18.1887 64.0233 18.0815L63.7295 17.7877ZM63.6302 17.8253H61.964V18.2409H63.6302V17.8253ZM61.7562 18.0331V22.7361H62.1718V18.0331H61.7562ZM61.7562 22.7361C61.7562 22.782 61.7422 22.8145 61.7077 22.8465L61.9905 23.1511C62.1092 23.0409 62.1718 22.8983 62.1718 22.7361H61.7562ZM61.7022 22.8519C61.6714 22.8826 61.6374 22.8977 61.5864 22.8977V23.3133C61.7435 23.3133 61.8845 23.2573 61.996 23.1457L61.7022 22.8519Z" fill="white" mask="url(#path-11-outside-2_85_893)"/>
<mask id="mask2_85_893" style="mask-type:alpha" maskUnits="userSpaceOnUse" x="40" y="0" width="30" height="32">
<path d="M66.9687 32H43.2803C42.018 32 40.9946 30.9767 40.9946 29.7143V2.28572C40.9946 1.02335 42.018 0 43.2803 0H58.657L69.2544 10.5974V29.7143C69.2544 30.9767 68.231 32 66.9687 32Z" fill="url(#paint5_linear_85_893)"/>
</mask>
<g mask="url(#mask2_85_893)">
<ellipse opacity="0.05" cx="39.4888" cy="-1.29827" rx="23.2208" ry="22.2857" fill="url(#paint6_linear_85_893)"/>
<ellipse opacity="0.07" cx="39.4866" cy="-1.29941" rx="14.5974" ry="13.974" fill="url(#paint7_linear_85_893)"/>
</g>
<g filter="url(#filter2_d_85_893)">
<path d="M69.2566 10.5974H60.9449C59.6825 10.5974 58.6592 9.57405 58.6592 8.31169V0L69.2566 10.5974Z" fill="url(#paint8_linear_85_893)"/>
</g>
</g>
<defs>
<filter id="filter0_d_85_893" x="15.2696" y="-2.49351" width="15.792" height="15.7925" filterUnits="userSpaceOnUse" color-interpolation-filters="sRGB">
<feFlood flood-opacity="0" result="BackgroundImageFix"/>
<feColorMatrix in="SourceAlpha" type="matrix" values="0 0 0 0 0 0 0 0 0 0 0 0 0 0 0 0 0 0 127 0" result="hardAlpha"/>
<feOffset dx="0.207792" dy="0.103896"/>
<feGaussianBlur stdDeviation="1.2987"/>
<feColorMatrix type="matrix" values="0 0 0 0 0 0 0 0 0 0 0 0 0 0 0 0 0 0 0.33 0"/>
<feBlend mode="normal" in2="BackgroundImageFix" result="effect1_dropShadow_85_893"/>
<feBlend mode="normal" in="SourceGraphic" in2="effect1_dropShadow_85_893" result="shape"/>
</filter>
<filter id="filter1_f_85_893" x="38.5018" y="11.4285" width="33.4545" height="16.8314" filterUnits="userSpaceOnUse" color-interpolation-filters="sRGB">
<feFlood flood-opacity="0" result="BackgroundImageFix"/>
<feBlend mode="normal" in="SourceGraphic" in2="BackgroundImageFix" result="shape"/>
<feGaussianBlur stdDeviation="2.02597" result="effect1_foregroundBlur_85_893"/>
</filter>
<filter id="filter2_d_85_893" x="56.2696" y="-2.49351" width="15.792" height="15.7925" filterUnits="userSpaceOnUse" color-interpolation-filters="sRGB">
<feFlood flood-opacity="0" result="BackgroundImageFix"/>
<feColorMatrix in="SourceAlpha" type="matrix" values="0 0 0 0 0 0 0 0 0 0 0 0 0 0 0 0 0 0 127 0" result="hardAlpha"/>
<feOffset dx="0.207792" dy="0.103896"/>
<feGaussianBlur stdDeviation="1.2987"/>
<feColorMatrix type="matrix" values="0 0 0 0 0 0 0 0 0 0 0 0 0 0 0 0 0 0 0.33 0"/>
<feBlend mode="normal" in2="BackgroundImageFix" result="effect1_dropShadow_85_893"/>
<feBlend mode="normal" in="SourceGraphic" in2="effect1_dropShadow_85_893" result="shape"/>
</filter>
<linearGradient id="paint0_linear_85_893" x1="14.1294" y1="0" x2="14.1294" y2="32" gradientUnits="userSpaceOnUse">
<stop stop-color="#FF7979"/>
<stop offset="1" stop-color="#E85555"/>
</linearGradient>
<linearGradient id="paint1_linear_85_893" x1="14.125" y1="0" x2="14.125" y2="32" gradientUnits="userSpaceOnUse">
<stop stop-color="#FF7981"/>
<stop offset="1" stop-color="#E85567"/>
</linearGradient>
<linearGradient id="paint2_linear_85_893" x1="22.9579" y1="0" x2="22.9579" y2="10.5974" gradientUnits="userSpaceOnUse">
<stop stop-color="#D03954"/>
<stop offset="1" stop-color="#C02A3C"/>
</linearGradient>
<linearGradient id="paint3_linear_85_893" x1="55.1294" y1="0" x2="55.1294" y2="32" gradientUnits="userSpaceOnUse">
<stop stop-color="#FF7979"/>
<stop offset="1" stop-color="#E85555"/>
</linearGradient>
<linearGradient id="paint4_linear_85_893" x1="55.125" y1="0" x2="55.125" y2="32" gradientUnits="userSpaceOnUse">
<stop stop-color="#FF8777"/>
<stop offset="1" stop-color="#F0695F"/>
</linearGradient>
<linearGradient id="paint5_linear_85_893" x1="55.1245" y1="0" x2="55.1245" y2="32" gradientUnits="userSpaceOnUse">
<stop stop-color="#FF8777"/>
<stop offset="1" stop-color="#F0695F"/>
</linearGradient>
<linearGradient id="paint6_linear_85_893" x1="41.1748" y1="-0.532437" x2="48.2168" y2="18.1571" gradientUnits="userSpaceOnUse">
<stop stop-color="white" stop-opacity="0"/>
<stop offset="1" stop-color="white"/>
</linearGradient>
<linearGradient id="paint7_linear_85_893" x1="40.5464" y1="-0.819205" x2="44.9536" y2="10.9073" gradientUnits="userSpaceOnUse">
<stop stop-color="white" stop-opacity="0"/>
<stop offset="1" stop-color="white"/>
</linearGradient>
<linearGradient id="paint8_linear_85_893" x1="63.9579" y1="0" x2="63.9579" y2="10.5974" gradientUnits="userSpaceOnUse">
<stop stop-color="#DA5D4C"/>
<stop offset="1" stop-color="#E32900"/>
</linearGradient>
</defs>
</svg>
