<svg width="71" height="58" viewBox="0 0 71 58" fill="none" xmlns="http://www.w3.org/2000/svg">
<path d="M63.4731 29.0002C63.4731 44.4641 50.9372 57 35.4734 57C20.0096 57 7.47314 44.4641 7.47314 29.0002M63.4731 29.0002C63.4731 13.5359 50.9372 1 35.4734 1C20.0096 1 7.47314 13.5359 7.47314 29.0002M63.4731 29.0002C63.4731 19.1514 50.9372 11.1672 35.4734 11.1672C20.0096 11.1672 7.47314 19.1514 7.47314 29.0002M63.4731 29.0002C63.4731 38.8491 50.9372 46.8328 35.4734 46.8328C20.0096 46.8328 7.47314 38.8491 7.47314 29.0002M35.4724 57C44.8984 57 52.5397 44.4641 52.5397 29.0002C52.5397 13.5359 44.8984 1 35.4724 1M35.4724 57C26.0469 57 18.4056 44.4641 18.4056 29.0002C18.4056 13.5359 26.0469 1 35.4724 1M35.4724 57C39.2351 57 42.2855 44.4641 42.2855 29.0002C42.2855 13.5359 39.2351 1 35.4724 1M35.4724 57C31.7097 57 28.6593 44.4641 28.6593 29.0002C28.6593 13.5359 31.7097 1 35.4724 1M35.4734 33.6749C20.0096 33.6749 7.47314 31.4097 7.47314 28.6157C7.47314 25.8217 20.0096 23.5569 35.4734 23.5569C50.9372 23.5569 63.4731 25.8217 63.4731 28.6157C63.4731 31.4097 50.9372 33.6749 35.4734 33.6749Z" stroke="url(#paint0_radial_74_2805)"/>
<path d="M5.54958 29.537C2.55879 30.8203 0.917001 31.9579 1.08161 32.7974C1.31385 33.9795 7.10008 34.505 14.1596 33.9544M62.5339 17.9424C67.0832 17.827 69.8796 18.2484 70.0783 19.2611C70.5612 21.7231 55.5075 26.7492 36.4545 30.4873C30.051 31.7436 24.0103 32.6943 18.7941 33.3097" stroke="url(#paint1_linear_74_2805)"/>
<path d="M16.353 35.3008C17.3195 35.3008 18.103 34.5173 18.103 33.5508C18.103 32.5843 17.3195 31.8008 16.353 31.8008C15.3865 31.8008 14.603 32.5843 14.603 33.5508C14.603 34.5173 15.3865 35.3008 16.353 35.3008Z" fill="#0089FF"/>
<defs>
<radialGradient id="paint0_radial_74_2805" cx="0" cy="0" r="1" gradientUnits="userSpaceOnUse" gradientTransform="translate(29.716 7.57377) rotate(7.49586) scale(45.231 66.9433)">
<stop stop-color="#0089FF"/>
<stop offset="0.854856" stop-color="#005AA7" stop-opacity="0"/>
</radialGradient>
<linearGradient id="paint1_linear_74_2805" x1="40.5436" y1="56.3439" x2="29.4692" y2="-3.39754" gradientUnits="userSpaceOnUse">
<stop offset="0.423887" stop-color="#0089FF"/>
<stop offset="0.538502" stop-color="#0061B4" stop-opacity="0"/>
</linearGradient>
</defs>
</svg>
