<svg width="46" height="48" viewBox="0 0 46 48" fill="none" xmlns="http://www.w3.org/2000/svg">
<g clip-path="url(#clip0_507_2161)">
<path fill-rule="evenodd" clip-rule="evenodd" d="M33.4168 34.5893C29.8537 34.5893 26.9652 31.7132 26.9652 28.1657C26.9652 24.6176 29.8537 21.7415 33.4168 21.7415C36.98 21.7415 39.8684 24.6176 39.8684 28.1657C39.8684 31.7132 36.98 34.5893 33.4168 34.5893ZM35.3482 15.798V10.0833C36.8463 9.37871 37.8956 7.86973 37.8956 6.11851V5.9866C37.8956 3.56964 35.9097 1.5922 33.4825 1.5922H33.3506C30.9234 1.5922 28.9375 3.56964 28.9375 5.9866V6.11851C28.9375 7.86973 29.9868 9.37933 31.4848 10.0839V15.798C29.2544 16.1414 27.2166 17.0574 25.5359 18.4054L9.77831 6.19987C9.88231 5.80229 9.95535 5.39299 9.95597 4.96274C9.95845 2.22587 7.73363 0.00370168 4.98387 3.21105e-06C2.23534 -0.00307885 0.00309841 2.21292 3.22562e-06 4.95041C-0.00309196 7.68789 2.22173 9.91006 4.97149 9.91314C5.86723 9.91437 6.69674 9.66103 7.42349 9.24926L22.9236 21.2564C21.6056 23.2375 20.8331 25.6107 20.8331 28.1657C20.8331 30.8403 21.6818 33.3146 23.1155 35.3494L18.4021 40.0434C18.0294 39.9318 17.6432 39.8541 17.2334 39.8541C14.9745 39.8541 13.1428 41.6775 13.1428 43.9268C13.1428 46.1767 14.9745 48 17.2334 48C19.4929 48 21.324 46.1767 21.324 43.9268C21.324 43.5199 21.246 43.1347 21.1339 42.7636L25.7965 38.1208C27.913 39.729 30.5488 40.6955 33.4168 40.6955C40.3668 40.6955 46 35.0856 46 28.1657C46 21.9011 41.3783 16.7257 35.3482 15.798Z" fill="#F95C35"/>
</g>
<defs>
<clipPath id="clip0_507_2161">
<rect width="46" height="48" fill="white"/>
</clipPath>
</defs>
</svg>
