<svg width="43" height="48" viewBox="0 0 43 48" fill="none" xmlns="http://www.w3.org/2000/svg">
<mask id="mask0_507_2151" style="mask-type:luminance" maskUnits="userSpaceOnUse" x="0" y="0" width="43" height="48">
<path d="M43 0H0V48H43V0Z" fill="white"/>
</mask>
<g mask="url(#mask0_507_2151)">
<mask id="mask1_507_2151" style="mask-type:luminance" maskUnits="userSpaceOnUse" x="0" y="7" width="38" height="38">
<path d="M37.1619 7.24988H0V44.6999H37.1619V7.24988Z" fill="white"/>
</mask>
<g mask="url(#mask1_507_2151)">
<path d="M11.9508 32.6742H8.622C3.6016 32.6742 0 29.5991 0 25.0963H17.8988C18.8265 25.0963 19.4268 25.7553 19.4268 26.6888V44.6999C14.9521 44.6999 11.9508 41.0757 11.9508 36.0238V32.6742ZM20.791 23.7235H17.4623C12.4419 23.7235 8.84028 20.7033 8.84028 16.2006H26.7391C27.6668 16.2006 28.3216 16.8046 28.3216 17.7381V35.7492C23.8469 35.7492 20.791 32.125 20.791 27.0731V23.7235ZM29.6859 14.8278H26.3571C21.3367 14.8278 17.7351 11.7527 17.7351 7.24988H35.634C36.5617 7.24988 37.1619 7.90878 37.1619 8.78738V26.7986C32.6872 26.7986 29.6859 23.1744 29.6859 18.1225V14.8278Z" fill="#1868DB"/>
</g>
</g>
</svg>
