  <svg xmlns="http://www.w3.org/2000/svg" width="12" height="66" viewBox="0 0 12 66" fill="none">
  <path d="M6.75 1C6.75 0.585786 6.41421 0.25 6 0.25C5.58579 0.25 5.25 0.585786 5.25 1L6.75 1ZM5.46967 65.5303C5.76256 65.8232 6.23743 65.8232 6.53033 65.5303L11.3033 60.7574C11.5962 60.4645 11.5962 59.9896 11.3033 59.6967C11.0104 59.4038 10.5355 59.4038 10.2426 59.6967L6 63.9393L1.75736 59.6967C1.46446 59.4038 0.98959 59.4038 0.696697 59.6967C0.403803 59.9896 0.403803 60.4645 0.696697 60.7574L5.46967 65.5303ZM5.25 4.2C5.25 4.61421 5.58579 4.95 6 4.95C6.41421 4.95 6.75 4.61421 6.75 4.2L5.25 4.2ZM6.75 10.6C6.75 10.1858 6.41421 9.85 6 9.85C5.58579 9.85 5.25 10.1858 5.25 10.6L6.75 10.6ZM5.25 17C5.25 17.4142 5.58579 17.75 6 17.75C6.41421 17.75 6.75 17.4142 6.75 17L5.25 17ZM6.75 23.4C6.75 22.9858 6.41421 22.65 6 22.65C5.58579 22.65 5.25 22.9858 5.25 23.4L6.75 23.4ZM5.25 29.8C5.25 30.2142 5.58579 30.55 6 30.55C6.41421 30.55 6.75 30.2142 6.75 29.8L5.25 29.8ZM6.75 36.2C6.75 35.7858 6.41421 35.45 6 35.45C5.58578 35.45 5.25 35.7858 5.25 36.2L6.75 36.2ZM5.25 42.6C5.25 43.0142 5.58578 43.35 6 43.35C6.41421 43.35 6.75 43.0142 6.75 42.6L5.25 42.6ZM6.75 49C6.75 48.5858 6.41421 48.25 6 48.25C5.58578 48.25 5.25 48.5858 5.25 49L6.75 49ZM5.25 55.4C5.25 55.8142 5.58578 56.15 6 56.15C6.41421 56.15 6.75 55.8142 6.75 55.4L5.25 55.4ZM6.75 61.8C6.75 61.3858 6.41421 61.05 6 61.05C5.58578 61.05 5.25 61.3858 5.25 61.8L6.75 61.8ZM6 1L5.25 1L5.25 4.2L6 4.2L6.75 4.2L6.75 1L6 1ZM6 10.6L5.25 10.6L5.25 17L6 17L6.75 17L6.75 10.6L6 10.6ZM6 23.4L5.25 23.4L5.25 29.8L6 29.8L6.75 29.8L6.75 23.4L6 23.4ZM6 36.2L5.25 36.2L5.25 42.6L6 42.6L6.75 42.6L6.75 36.2L6 36.2ZM6 49L5.25 49L5.25 55.4L6 55.4L6.75 55.4L6.75 49L6 49ZM6 61.8L5.25 61.8L5.25 65L6 65L6.75 65L6.75 61.8L6 61.8ZM6.75 1C6.75 0.585786 6.41421 0.25 6 0.25C5.58579 0.25 5.25 0.585786 5.25 1L6.75 1ZM5.46967 65.5303C5.76256 65.8232 6.23743 65.8232 6.53033 65.5303L11.3033 60.7574C11.5962 60.4645 11.5962 59.9896 11.3033 59.6967C11.0104 59.4038 10.5355 59.4038 10.2426 59.6967L6 63.9393L1.75736 59.6967C1.46446 59.4038 0.98959 59.4038 0.696697 59.6967C0.403803 59.9896 0.403803 60.4645 0.696697 60.7574L5.46967 65.5303ZM5.25 4.2C5.25 4.61421 5.58579 4.95 6 4.95C6.41421 4.95 6.75 4.61421 6.75 4.2L5.25 4.2ZM6.75 10.6C6.75 10.1858 6.41421 9.85 6 9.85C5.58579 9.85 5.25 10.1858 5.25 10.6L6.75 10.6ZM5.25 17C5.25 17.4142 5.58579 17.75 6 17.75C6.41421 17.75 6.75 17.4142 6.75 17L5.25 17ZM6.75 23.4C6.75 22.9858 6.41421 22.65 6 22.65C5.58579 22.65 5.25 22.9858 5.25 23.4L6.75 23.4ZM5.25 29.8C5.25 30.2142 5.58579 30.55 6 30.55C6.41421 30.55 6.75 30.2142 6.75 29.8L5.25 29.8ZM6.75 36.2C6.75 35.7858 6.41421 35.45 6 35.45C5.58578 35.45 5.25 35.7858 5.25 36.2L6.75 36.2ZM5.25 42.6C5.25 43.0142 5.58578 43.35 6 43.35C6.41421 43.35 6.75 43.0142 6.75 42.6L5.25 42.6ZM6.75 49C6.75 48.5858 6.41421 48.25 6 48.25C5.58578 48.25 5.25 48.5858 5.25 49L6.75 49ZM5.25 55.4C5.25 55.8142 5.58578 56.15 6 56.15C6.41421 56.15 6.75 55.8142 6.75 55.4L5.25 55.4ZM6.75 61.8C6.75 61.3858 6.41421 61.05 6 61.05C5.58578 61.05 5.25 61.3858 5.25 61.8L6.75 61.8ZM6 1L5.25 1L5.25 4.2L6 4.2L6.75 4.2L6.75 1L6 1ZM6 10.6L5.25 10.6L5.25 17L6 17L6.75 17L6.75 10.6L6 10.6ZM6 23.4L5.25 23.4L5.25 29.8L6 29.8L6.75 29.8L6.75 23.4L6 23.4ZM6 36.2L5.25 36.2L5.25 42.6L6 42.6L6.75 42.6L6.75 36.2L6 36.2ZM6 49L5.25 49L5.25 55.4L6 55.4L6.75 55.4L6.75 49L6 49ZM6 61.8L5.25 61.8L5.25 65L6 65L6.75 65L6.75 61.8L6 61.8Z" fill="#DDDDDD"/>
</svg>