<svg xmlns="http://www.w3.org/2000/svg" width="32" height="32" viewBox="0 0 32 32" fill="none">
  <path fill-rule="evenodd" clip-rule="evenodd" d="M28.7341 13.3388C29.067 12.3517 29.1824 11.3043 29.0724 10.2684C28.9624 9.23246 28.6296 8.23263 28.0968 7.33747C26.4741 4.5508 23.2141 3.11614 20.0301 3.7908C19.3249 3.01 18.4623 2.38735 17.4992 1.96381C16.5361 1.54028 15.4942 1.32545 14.4421 1.33347C11.1874 1.3268 8.29944 3.3948 7.29811 6.4508C6.26885 6.65684 5.29516 7.07938 4.44163 7.69038C3.58811 8.30139 2.87426 9.0869 2.34744 9.9948C1.55115 11.3472 1.21082 12.9197 1.37673 14.4803C1.54263 16.0409 2.20596 17.5068 3.26877 18.6615C2.93545 19.6487 2.81971 20.6963 2.9295 21.7324C3.03928 22.7686 3.37199 23.7687 3.90477 24.6641C5.52744 27.4508 8.78744 28.8841 11.9714 28.2108C12.6764 28.9915 13.5388 29.6139 14.5017 30.0373C15.4646 30.4606 16.5063 30.6751 17.5581 30.6668C20.8154 30.6748 23.7048 28.6055 24.7061 25.5468C25.7361 25.3408 26.7104 24.918 27.5645 24.3065C28.4185 23.695 29.1326 22.9088 29.6594 22.0001C30.4542 20.6479 30.7934 19.076 30.6271 17.5163C30.4607 15.9566 29.7976 14.4917 28.7354 13.3375L28.7341 13.3388ZM17.5594 28.7495C16.2589 28.7526 14.9978 28.3029 13.9928 27.4775C14.0381 27.4535 14.1168 27.4108 14.1688 27.3788L20.0888 24.0055C20.2365 23.923 20.3595 23.8025 20.4448 23.6564C20.5302 23.5103 20.5748 23.344 20.5741 23.1748V14.9401L23.0768 16.3655C23.1034 16.3788 23.1208 16.4041 23.1248 16.4321V23.2521C23.1208 26.2841 20.6314 28.7428 17.5594 28.7495ZM5.59011 23.7068C4.93761 22.5969 4.70218 21.2907 4.92611 20.0228C4.96877 20.0495 5.04611 20.0961 5.10077 20.1268L11.0208 23.5001C11.3208 23.6735 11.6928 23.6735 11.9941 23.5001L19.2208 19.3828V22.2335C19.2214 22.2481 19.2184 22.2627 19.2121 22.2759C19.2059 22.2891 19.1965 22.3007 19.1848 22.3095L13.2008 25.7175C10.5354 27.2321 7.13144 26.3308 5.59144 23.7041L5.59011 23.7068ZM4.03144 10.9548C4.68649 9.83747 5.71274 8.98533 6.93144 8.5468L6.92877 8.74814V15.4948C6.92796 15.6642 6.97255 15.8307 7.0579 15.977C7.14325 16.1234 7.26626 16.2441 7.41411 16.3268L14.6408 20.4428L12.1394 21.8695C12.1271 21.8774 12.1129 21.8822 12.0983 21.8833C12.0836 21.8845 12.0689 21.882 12.0554 21.8761L6.07011 18.4641C3.41011 16.9441 2.49811 13.5868 4.03011 10.9575L4.03144 10.9548ZM24.5874 15.6748L17.3608 11.5575L19.8621 10.1335C19.8744 10.1253 19.8885 10.1203 19.9031 10.1189C19.9178 10.1175 19.9325 10.1198 19.9461 10.1255L25.9314 13.5348C28.5954 15.0548 29.5088 18.4175 27.9701 21.0455C27.3145 22.1621 26.2891 23.0144 25.0714 23.4548V16.5068C25.0723 16.3377 25.0278 16.1715 24.9427 16.0255C24.8576 15.8794 24.7349 15.7588 24.5874 15.6761V15.6748ZM27.0768 11.9775C27.0185 11.9421 26.9599 11.9074 26.9008 11.8735L20.9808 8.50014C20.8329 8.41508 20.6653 8.37032 20.4948 8.37032C20.3242 8.37032 20.1566 8.41508 20.0088 8.50014L12.7821 12.6175V9.7668C12.7815 9.75217 12.7845 9.73761 12.7908 9.72438C12.797 9.71114 12.8064 9.69962 12.8181 9.6908L18.8008 6.28414C21.4674 4.76814 24.8741 5.6708 26.4101 8.30147C27.0594 9.41214 27.2968 10.7135 27.0768 11.9775ZM11.4221 17.0575L8.91944 15.6335C8.90638 15.6271 8.89513 15.6175 8.88674 15.6056C8.87836 15.5937 8.87309 15.5799 8.87144 15.5655V8.74547C8.87277 5.70947 11.3688 3.24947 14.4461 3.25214C15.7474 3.25214 17.0061 3.7028 18.0074 4.52414C17.9621 4.54814 17.8848 4.5908 17.8328 4.62147L11.9128 7.9948C11.7648 8.07708 11.6416 8.19755 11.556 8.34365C11.4704 8.48975 11.4255 8.65614 11.4261 8.82547L11.4221 17.0561V17.0575ZM12.7821 14.1668L16.0008 12.3335L19.2194 14.1668V17.8335L16.0008 19.6668L12.7808 17.8335V14.1668H12.7821Z" fill="black"/>
</svg>