<svg xmlns="http://www.w3.org/2000/svg" width="32" height="32" viewBox="0 0 32 32" fill="none">
  <path opacity="0.4" d="M24 4H8.00001C5.05334 4 2.66667 6.37333 2.66667 9.29333V22.7067C2.66667 25.6267 5.05334 28 8.00001 28H24C26.9467 28 29.3333 25.6267 29.3333 22.7067V9.29333C29.3333 6.37333 26.9467 4 24 4Z" fill="#1FC16B"/>
  <path d="M25.3333 11.6667H18.6667C18.12 11.6667 17.6667 11.2134 17.6667 10.6667C17.6667 10.1201 18.12 9.66675 18.6667 9.66675H25.3333C25.88 9.66675 26.3333 10.1201 26.3333 10.6667C26.3333 11.2134 25.88 11.6667 25.3333 11.6667Z" fill="#1FC16B"/>
  <path d="M25.3333 17H20C19.4533 17 19 16.5467 19 16C19 15.4533 19.4533 15 20 15H25.3333C25.88 15 26.3333 15.4533 26.3333 16C26.3333 16.5467 25.88 17 25.3333 17Z" fill="#1FC16B"/>
  <path d="M25.3333 22.3333H22.6667C22.12 22.3333 21.6667 21.8799 21.6667 21.3333C21.6667 20.7866 22.12 20.3333 22.6667 20.3333H25.3333C25.88 20.3333 26.3333 20.7866 26.3333 21.3333C26.3333 21.8799 25.88 22.3333 25.3333 22.3333Z" fill="#1FC16B"/>
  <path d="M11.3333 15.7201C13.0344 15.7201 14.4133 14.3411 14.4133 12.6401C14.4133 10.939 13.0344 9.56006 11.3333 9.56006C9.63229 9.56006 8.25333 10.939 8.25333 12.6401C8.25333 14.3411 9.63229 15.7201 11.3333 15.7201Z" fill="#1FC16B"/>
  <path d="M12.4 17.4799C11.6933 17.4133 10.96 17.4133 10.2533 17.4799C8.01334 17.6933 6.21334 19.4666 6 21.7066C5.98667 21.8933 6.04 22.0799 6.17334 22.2133C6.30667 22.3466 6.48 22.4399 6.66667 22.4399H16C16.1867 22.4399 16.3733 22.3599 16.4933 22.2266C16.6133 22.0933 16.68 21.9066 16.6667 21.7199C16.44 19.4666 14.6533 17.6933 12.4 17.4799Z" fill="#1FC16B"/>
</svg>