<svg xmlns="http://www.w3.org/2000/svg" width="32" height="32" viewBox="0 0 32 32" fill="none">
  <path opacity="0.4" d="M27.7865 17.5601C28.3065 17.5601 28.7198 17.1334 28.7198 16.6001V15.4268C28.7198 10.1868 27.1198 8.6001 21.8932 8.6001H13.4932V11.8401C14.0132 11.8401 14.4398 12.2668 14.4398 12.7868V16.3601C14.4398 16.8801 14.0132 17.3068 13.4932 17.3068V20.6534C14.0132 20.6534 14.4398 21.0801 14.4398 21.6001V25.1734C14.4398 25.6934 14.0132 26.1201 13.4932 26.1201V29.3334H21.8932C27.1198 29.3334 28.7198 27.7334 28.7198 22.5068C28.7198 21.9868 28.3065 21.5601 27.7865 21.5601C26.6665 21.5601 25.7732 20.6668 25.7732 19.5601C25.7732 18.4534 26.6665 17.5601 27.7865 17.5601Z" fill="#0089FF" fill-opacity="0.5"/>
  <path d="M10.0936 8.61341C10.107 8.61341 10.107 8.61341 10.0936 8.61341H10.107H21.8803C21.9736 8.61341 22.067 8.61341 22.147 8.61341C22.1336 8.58675 22.1336 8.57341 22.1336 8.54675C22.0936 8.08008 22.2803 7.62675 22.627 7.28008C22.8003 7.10675 22.907 6.86675 22.907 6.61341C22.907 6.36008 22.8003 6.12008 22.627 5.94675L21.8936 5.20008C20.587 3.88008 19.147 2.66675 17.467 2.66675C15.8003 2.66675 14.347 3.88008 13.0403 5.20008L9.62695 8.61341C9.77362 8.61341 9.93362 8.61341 10.0936 8.61341Z" fill="#0089FF"/>
  <path d="M12.5469 12.7866V16.3599C12.5469 16.8799 12.9736 17.3066 13.4936 17.3066V20.6533C12.9736 20.6533 12.5469 21.0799 12.5469 21.5999V25.1733C12.5469 25.6933 12.9736 26.1199 13.4936 26.1199V29.3333H10.1069C4.88027 29.3333 3.28027 27.7333 3.28027 22.5066V21.9333C3.28027 21.3999 3.69361 20.9866 4.21361 20.9866C5.33361 20.9866 6.22694 20.0799 6.22694 18.9733C6.22694 17.8666 5.33361 16.9599 4.21361 16.9599C3.69361 16.9599 3.28027 16.5466 3.28027 16.0133V15.4399C3.28027 10.1999 4.88027 8.61328 10.1069 8.61328H13.4803V11.8533C12.9736 11.8533 12.5469 12.2799 12.5469 12.7866Z" fill="#0089FF"/>
</svg>