<svg xmlns="http://www.w3.org/2000/svg" width="32" height="32" viewBox="0 0 32 32" fill="none">
  <path opacity="0.4" d="M24 25.1466H22.9867C21.92 25.1466 20.9067 25.5599 20.16 26.3066L17.88 28.5599C16.84 29.5866 15.1467 29.5866 14.1067 28.5599L11.8267 26.3066C11.08 25.5599 10.0533 25.1466 9 25.1466H8C5.78667 25.1466 4 23.3733 4 21.1866V6.63989C4 4.45323 5.78667 2.67993 8 2.67993H24C26.2133 2.67993 28 4.45323 28 6.63989V21.1866C28 23.3599 26.2133 25.1466 24 25.1466Z" fill="#1FC16B"/>
  <path d="M13.8403 19.3468H10.267C9.6803 19.3468 9.13363 19.0668 8.78697 18.5868C8.45363 18.1334 8.37363 17.5735 8.53363 17.0401C9.0003 15.6135 10.147 14.8401 11.1603 14.1467C12.227 13.4267 12.827 12.9734 12.827 12.2001C12.827 11.5068 12.267 10.9468 11.5736 10.9468C10.8803 10.9468 10.3203 11.5068 10.3203 12.2001C10.3203 12.7468 9.86698 13.2001 9.32031 13.2001C8.77365 13.2001 8.32031 12.7468 8.32031 12.2001C8.32031 10.4134 9.77363 8.94678 11.5736 8.94678C13.3736 8.94678 14.827 10.4001 14.827 12.2001C14.827 14.0801 13.4136 15.0401 12.2803 15.8134C11.5736 16.2934 10.907 16.7468 10.5736 17.3468H13.827C14.3736 17.3468 14.827 17.8001 14.827 18.3468C14.827 18.8934 14.387 19.3468 13.8403 19.3468Z" fill="#1FC16B"/>
  <path d="M21.3871 19.3467C20.8405 19.3467 20.3871 18.8933 20.3871 18.3467V17.4267H17.7738C17.7738 17.4267 17.7738 17.4267 17.7605 17.4267C17.1072 17.4267 16.5072 17.08 16.1738 16.52C15.8405 15.9467 15.8405 15.24 16.1738 14.68C17.0805 13.12 18.1338 11.3466 19.0938 9.79996C19.5205 9.11996 20.3338 8.81336 21.0938 9.02669C21.8538 9.25336 22.3872 9.94666 22.3738 10.7467V15.44H22.6672C23.2138 15.44 23.6672 15.8934 23.6672 16.44C23.6672 16.9867 23.2138 17.44 22.6672 17.44H22.3871V18.36C22.3871 18.9067 21.9471 19.3467 21.3871 19.3467ZM20.3871 11.52C19.6005 12.8 18.7871 14.1733 18.0538 15.4267H20.3871V11.52Z" fill="#1FC16B"/>
</svg>