<svg width="119" height="26" viewBox="0 0 119 26" fill="none" xmlns="http://www.w3.org/2000/svg">
<path d="M34.0819 2.67466C33.7238 2.49958 33.5697 2.83322 33.3603 3.00258C33.2886 3.05722 33.2279 3.1282 33.1675 3.19373C32.6441 3.75136 32.0326 4.11767 31.2337 4.07393C30.0659 4.0084 29.0685 4.37462 28.1871 5.26562C27.9997 4.16687 27.3772 3.51058 26.4297 3.08989C25.9339 2.87125 25.4326 2.65243 25.0854 2.17684C24.843 1.83802 24.7769 1.46073 24.6557 1.08897C24.5786 0.864972 24.5013 0.635257 24.2424 0.596867C23.9614 0.55312 23.8511 0.788102 23.7411 0.985141C23.3003 1.78883 23.1295 2.67439 23.1462 3.57084C23.1848 5.58828 24.0387 7.1953 25.7356 8.33807C25.9284 8.46931 25.9779 8.60046 25.9175 8.79179C25.8018 9.18551 25.664 9.56807 25.5428 9.96179C25.4657 10.2133 25.3498 10.2679 25.0799 10.1587C24.1489 9.77064 23.3444 9.1964 22.6337 8.50226C21.4271 7.3377 20.3363 6.05298 18.9755 5.04698C18.6605 4.81465 18.3371 4.59401 18.0058 4.38551C16.6175 3.0407 18.1877 1.93623 18.5512 1.80517C18.9314 1.66839 18.6835 1.19834 17.4548 1.20379C16.2262 1.20923 15.1022 1.6192 13.6699 2.16595C13.4605 2.24808 13.2402 2.30817 13.0142 2.35718C11.7141 2.11113 10.3643 2.05649 8.95383 2.21496C6.29824 2.51003 4.17732 3.76208 2.61821 5.89968C0.745127 8.46958 0.304243 11.3887 0.844205 14.4339C1.41164 17.6428 3.05337 20.2999 5.57668 22.3774C8.19361 24.5311 11.2073 25.5863 14.645 25.384C16.7329 25.2639 19.058 24.9851 21.6804 22.7708C22.3415 23.0988 23.0356 23.2301 24.1871 23.3285C25.0742 23.4106 25.9281 23.2847 26.5893 23.1482C27.6251 22.9296 27.5535 21.9728 27.1787 21.798C24.1433 20.3876 24.8096 20.9616 24.2037 20.4969C25.5461 18.9127 27.481 17.2747 28.5597 12.8374C28.8183 11.7734 28.9803 10.5846 28.9803 9.47013C28.9803 9.24691 29.0298 9.13676 29.3054 9.10935C30.0656 9.02177 30.8038 8.81429 31.4815 8.44235C33.4483 7.37082 34.2417 5.61051 34.4291 3.50031C34.4565 3.17783 34.4236 2.84402 34.0819 2.67466ZM16.9425 21.6664C14.0005 19.3596 12.5736 18.5994 11.9842 18.6323C11.4333 18.6652 11.5324 19.2939 11.6536 19.7038C11.7802 20.1084 11.9457 20.3872 12.177 20.7425C12.3367 20.9777 12.447 21.3274 12.0173 21.59C11.0697 22.1748 9.42237 21.3932 9.34513 21.3548C7.42793 20.2286 5.82469 18.7417 4.69518 16.7081C3.60443 14.7507 2.97076 12.6517 2.86622 10.4102C2.83865 9.86903 2.9985 9.67744 3.53829 9.57923C4.24893 9.4479 4.98167 9.42049 5.6924 9.52432C8.69491 9.96179 11.2512 11.3012 13.3944 13.4222C14.6175 14.6303 15.543 16.0737 16.4963 17.4841C17.51 18.982 18.6008 20.409 19.9892 21.5789C20.4796 21.9888 20.8706 22.3005 21.2453 22.5302C20.1158 22.6558 18.2315 22.6833 16.9425 21.6664ZM18.3655 12.5136C18.4122 12.3251 18.5822 12.187 18.7882 12.187C18.8389 12.1871 18.8893 12.1963 18.9368 12.2142C18.9975 12.2362 19.0525 12.269 19.0967 12.318C19.1737 12.3947 19.2178 12.504 19.2178 12.6187C19.2178 12.8593 19.0251 13.0506 18.7827 13.0506C18.6804 13.0515 18.5812 13.0156 18.5033 12.9495C18.4254 12.8833 18.374 12.7913 18.3586 12.6904C18.3491 12.6316 18.3514 12.5715 18.3655 12.5136ZM22.5907 14.9165C22.3575 15.0054 22.1253 15.0752 21.9009 15.0844C21.4821 15.1061 21.025 14.9367 20.7771 14.7289C20.3916 14.4065 20.1161 14.2262 20.0004 13.6629C19.9508 13.4222 19.9783 13.0506 20.0224 12.8374C20.1215 12.3781 20.0113 12.0829 19.6864 11.815C19.422 11.5964 19.0857 11.5363 18.7167 11.5363C18.579 11.5363 18.4523 11.4762 18.3586 11.427C18.2043 11.3506 18.0777 11.1592 18.1989 10.924C18.2375 10.8476 18.4249 10.6616 18.469 10.629C18.9702 10.3446 19.5488 10.4376 20.0831 10.6508C20.5789 10.8531 20.9536 11.2247 21.4935 11.7495C22.0444 12.3836 22.1436 12.5587 22.4577 13.0342C22.7057 13.4059 22.9315 13.7887 23.0858 14.2259C23.1643 14.4546 23.0922 14.6491 22.8763 14.7863C22.7885 14.8421 22.6875 14.8795 22.5907 14.9165Z" fill="white" fill-opacity="0.4"/>
<path fill-rule="evenodd" clip-rule="evenodd" d="M109.155 6.39258H111.208V19.163H109.155V6.39258ZM115.539 9.927L112.169 14.0421L115.539 19.163H118.083L114.714 14.0421L118.083 9.927H115.539ZM99.9701 10.7108C100.795 9.81923 102.058 9.49878 103.314 9.49878C104.571 9.49878 105.833 9.81923 106.658 10.7108C107.483 11.6023 107.778 12.9698 107.778 14.3309V15.0797H102.312V13.5821H105.941C105.856 13.0333 105.665 12.5288 105.323 12.1576C104.828 11.6214 104.069 11.431 103.314 11.431C102.562 11.431 101.801 11.6214 101.309 12.1576C100.814 12.6938 100.636 13.5155 100.636 14.3309C100.636 15.1463 100.814 15.9681 101.309 16.5043C101.801 17.0405 102.562 17.2308 103.314 17.2308C104.069 17.2308 104.828 17.0405 105.323 16.5043C105.392 16.4281 105.456 16.3456 105.513 16.26H107.544C107.366 16.9072 107.08 17.491 106.658 17.9511C105.833 18.8426 104.571 19.1631 103.314 19.1631C102.058 19.1631 100.795 18.8426 99.9701 17.9511C99.1483 17.0595 98.8501 15.6889 98.8501 14.3309C98.8501 12.9698 99.1483 11.6023 99.9701 10.7108ZM93.009 9.49878C91.7526 9.49878 90.4898 9.81923 89.6649 10.7108C88.8432 11.6023 88.5449 12.9698 88.5449 14.3309C88.5449 15.6889 88.8432 17.0595 89.6649 17.9511C90.4898 18.8426 91.7526 19.1631 93.009 19.1631C94.2654 19.1631 95.5282 18.8426 96.3531 17.9511C96.7751 17.491 97.0607 16.9072 97.2352 16.26H95.2078C95.1507 16.3456 95.0872 16.4281 95.0174 16.5043C94.5224 17.0405 93.7641 17.2308 93.009 17.2308C92.2571 17.2308 91.4956 17.0405 91.0038 16.5043C90.5089 15.9681 90.3312 15.1463 90.3312 14.3309C90.3312 13.5155 90.5089 12.6938 91.0038 12.1576C91.4956 11.6214 92.2571 11.431 93.009 11.431C93.7641 11.431 94.5224 11.6214 95.0174 12.1576C95.3601 12.5288 95.5504 13.0333 95.6361 13.5821H92.0033V15.0797H97.4731V14.3309C97.4731 12.9698 97.1781 11.6023 96.3531 10.7108C95.5282 9.81923 94.2654 9.49878 93.009 9.49878ZM82.7039 13.4584C83.9571 13.4584 85.223 13.6456 86.0448 14.1723C86.8697 14.699 87.1648 15.508 87.1648 16.3107C87.1648 17.1103 86.8697 17.9193 86.0448 18.446C85.223 18.9727 83.9571 19.1599 82.7039 19.1599C81.4474 19.1599 80.1847 18.9727 79.3597 18.446C78.5348 17.9193 78.2397 17.1103 78.2397 16.3107H80.6479C80.6479 16.6217 80.7875 16.9326 81.1746 17.1388C81.5648 17.3419 82.1613 17.4149 82.7514 17.4149C83.3448 17.4149 83.9412 17.3419 84.3283 17.1388C84.7186 16.9358 84.8582 16.6217 84.8582 16.3107C84.8582 15.9998 84.7186 15.6857 84.3283 15.4795C83.9412 15.2764 83.294 15.2034 82.7039 15.2034C81.568 15.2034 80.4258 15.0131 79.6802 14.4864C78.9346 13.9629 78.6681 13.1538 78.6681 12.3511C78.6681 11.5484 78.9346 10.7425 79.6802 10.2158C80.4258 9.68915 81.568 9.49878 82.7039 9.49878C83.8397 9.49878 84.9819 9.68915 85.7275 10.2158C86.4731 10.7425 86.7428 11.5484 86.7428 12.3511H84.6519C84.6519 12.0402 84.525 11.7261 84.1728 11.523C83.8238 11.32 83.2845 11.2438 82.7483 11.2438C82.2121 11.2438 81.6727 11.3168 81.3205 11.523C80.9683 11.7261 80.8446 12.0402 80.8446 12.3511C80.8446 12.662 80.9683 12.9761 81.3205 13.1792C81.6727 13.3854 82.2121 13.4584 82.7483 13.4584H82.7039ZM72.5668 9.49878C71.7863 9.49878 70.9995 9.67011 70.4887 10.1524C70.4442 10.1936 70.403 10.238 70.3617 10.2825H69.9874V9.49878H67.9346V21.8346H69.9874V14.1691C69.9874 13.3791 70.1587 12.5859 70.6346 12.0687C71.1105 11.5484 71.8403 11.3644 72.5668 11.3644C73.2902 11.3644 74.0231 11.5484 74.4991 12.0687C74.975 12.5859 75.1463 13.3791 75.1463 14.1691C75.1463 14.956 74.975 15.7492 74.4991 16.2663C74.0231 16.7867 73.2902 16.9707 72.5668 16.9707H71.3992V18.8363H72.5668C73.7757 18.8363 74.9908 18.5285 75.784 17.6655C76.5772 16.8025 76.8596 15.4826 76.8596 14.1691C76.8596 12.8556 76.5772 11.5325 75.784 10.6695C74.9908 9.80654 73.7757 9.49878 72.5668 9.49878ZM58.7494 10.7108C59.5711 9.81923 60.8371 9.49878 62.0903 9.49878C63.3467 9.49878 64.6127 9.81923 65.4344 10.7108C66.2594 11.6023 66.5544 12.9698 66.5544 14.3309V15.0797H61.0877V13.5821H64.7174C64.6317 13.0333 64.4414 12.5288 64.0987 12.1576C63.6037 11.6214 62.8454 11.431 62.0935 11.431C61.3384 11.431 60.5801 11.6214 60.0851 12.1576C59.5902 12.6938 59.4125 13.5155 59.4125 14.3309C59.4125 15.1463 59.5902 15.9681 60.0851 16.5043C60.5801 17.0405 61.3384 17.2308 62.0935 17.2308C62.8454 17.2308 63.6037 17.0405 64.0987 16.5043C64.1685 16.4281 64.232 16.3456 64.2891 16.26H66.3196C66.142 16.9072 65.8596 17.491 65.4344 17.9511C64.6095 18.8426 63.3467 19.1631 62.0903 19.1631C60.8371 19.1631 59.5711 18.8426 58.7494 17.9511C57.9245 17.0595 57.6294 15.6889 57.6294 14.3309C57.6294 12.9698 57.9245 11.6023 58.7494 10.7108ZM51.7851 9.49878C50.5287 9.49878 49.266 9.81923 48.441 10.7108C47.6193 11.6023 47.3242 12.9698 47.3242 14.3309C47.3242 15.6889 47.6193 17.0595 48.441 17.9511C49.266 18.8426 50.5287 19.1631 51.7851 19.1631C53.0416 19.1631 54.3043 18.8426 55.1293 17.9511C55.5512 17.491 55.8368 16.9072 56.0145 16.26H53.9839C53.9268 16.3456 53.8633 16.4281 53.7935 16.5043C53.2986 17.0405 52.5403 17.2308 51.7851 17.2308C51.0332 17.2308 50.2749 17.0405 49.78 16.5043C49.285 15.9681 49.1073 15.1463 49.1073 14.3309C49.1073 13.5155 49.285 12.6938 49.78 12.1576C50.2749 11.6214 51.0332 11.431 51.7851 11.431C52.5403 11.431 53.2986 11.6214 53.7935 12.1576C54.1362 12.5288 54.3265 13.0333 54.4122 13.5821H50.7826V15.0797H56.2493V14.3309C56.2493 12.9698 55.9542 11.6023 55.1293 10.7108C54.3075 9.81923 53.0416 9.49878 51.7851 9.49878ZM43.244 16.5931C43.72 16.0759 43.8913 15.2827 43.8913 14.4927V6.8241H45.9441V19.163H43.8913V18.3794H43.5137C43.4757 18.4238 43.4344 18.4682 43.39 18.5094C42.876 18.9885 42.0923 19.163 41.3118 19.163C40.103 19.163 38.8878 18.8553 38.0946 17.9923C37.3014 17.1293 37.019 15.8062 37.019 14.4927C37.019 13.1792 37.3014 11.8593 38.0946 10.9963C38.8878 10.1333 40.103 9.82555 41.3118 9.82555H42.4794V11.6911H41.3118C40.5852 11.6911 39.8555 11.8752 39.3796 12.3923C38.9037 12.9095 38.7323 13.7059 38.7323 14.4927C38.7323 15.2827 38.9037 16.0759 39.3796 16.5931C39.8555 17.1103 40.5852 17.2974 41.3118 17.2974C42.0384 17.2974 42.7681 17.1103 43.244 16.5931Z" fill="white" fill-opacity="0.4"/>
</svg>
