<svg width="79" height="30" viewBox="0 0 79 30" fill="none" xmlns="http://www.w3.org/2000/svg">
<g clip-path="url(#clip0_19_1347)">
<path d="M68.3977 22.2542V7.85486H70.6785V17.3579L75.5023 11.8278H78.2674L73.928 16.5671L78.3078 22.2542H75.583L72.0355 17.3676L70.6785 17.3579V22.2542H68.3977Z" fill="white"/>
<path d="M61.4811 22.4963C58.0903 22.4963 56.2537 20.0964 56.2537 17.031C56.2537 13.9454 58.0903 11.5657 61.4811 11.5657C64.8921 11.5657 66.7086 13.9454 66.7086 17.031C66.7086 20.0964 64.8921 22.4963 61.4811 22.4963ZM58.6353 17.031C58.6353 19.4107 59.927 20.6005 61.4811 20.6005C63.0555 20.6005 64.327 19.4107 64.327 17.031C64.327 14.6512 63.0555 13.4412 61.4811 13.4412C59.927 13.4412 58.6353 14.6512 58.6353 17.031Z" fill="white"/>
<path d="M49.906 22.2542V13.4815L51.8234 11.8278H55.9005V13.7638H52.1868V22.2542H49.906Z" fill="white"/>
<path d="M41.1853 22.5206C36.8382 22.5206 34.2463 19.3704 34.2463 15.0748C34.2463 10.7388 36.9308 7.51208 41.2702 7.51208C44.661 7.51208 47.1436 9.24646 47.7289 12.4732H45.1252C44.7417 10.638 43.2078 9.60948 41.2702 9.60948C38.1418 9.60948 36.7693 12.3119 36.7693 15.0748C36.7693 17.8377 38.1418 20.5199 41.2702 20.5199C44.2573 20.5199 45.5693 18.362 45.6701 16.5671H41.1693V14.479H47.9711L47.9599 15.5707C47.9599 19.6277 46.3033 22.5206 41.1853 22.5206Z" fill="white"/>
<path d="M12.4192 19.0132L22.233 11.7745C22.7142 11.4196 23.4019 11.558 23.6311 12.1093C24.8377 15.0163 24.2986 18.5098 21.898 20.9085C19.4975 23.307 16.1573 23.8331 13.1044 22.6351L9.76929 24.178C14.5528 27.4449 20.3615 26.637 23.9913 23.0076C26.8705 20.1307 27.7622 16.2093 26.9284 12.6731L26.936 12.6806C25.7268 7.48562 27.2333 5.40915 30.319 1.16307C30.392 1.06239 30.465 0.961715 30.5381 0.858521L26.4775 4.91582V4.90324L12.4167 19.0157" fill="white"/>
<path d="M10.3944 20.7726C6.96103 17.4955 7.55299 12.4238 10.4825 9.49921C12.6488 7.33462 16.1981 6.45118 19.2963 7.74991L22.6239 6.21458C22.0245 5.78167 21.2561 5.31604 20.3745 4.98883C16.3895 3.35031 11.6186 4.16579 8.3792 7.40006C5.26325 10.5135 4.28337 15.3007 5.96604 19.3857C7.223 22.4388 5.16249 24.5983 3.08687 26.778C2.35133 27.5506 1.61327 28.3234 1.0188 29.1414L10.3918 20.775" fill="white"/>
</g>
<defs>
<clipPath id="clip0_19_1347">
<rect width="77.9333" height="29.1667" fill="white" transform="translate(0.696533 0.416626)"/>
</clipPath>
</defs>
</svg>
