<svg width="84" height="24" viewBox="0 0 84 24" fill="none" xmlns="http://www.w3.org/2000/svg">
<g clip-path="url(#clip0_19_1376)">
<path d="M35.4089 4.14088H37.2203L37.9676 6.58054L38.2239 7.53263H38.2709L38.5241 6.58054L39.275 4.14088H41.0863V11.0254H39.6257V8.89419L39.6267 8.78298C39.6393 7.96829 39.78 6.40639 39.857 5.69619H39.822L39.2366 7.5439L38.6428 9.20239H37.805L37.201 7.5439L36.655 5.69619H36.6145L36.6331 5.86083C36.7208 6.66483 36.8458 8.17185 36.8458 8.89419V11.0254H35.4089V4.14088ZM42.6271 9.71898H44.409V5.44727H42.6271V4.14088H47.9174V5.44727H46.136V9.71898H47.9176V11.0255H42.6271V9.71898ZM49.3751 10.158L50.3662 9.0878C50.943 9.5141 51.6547 9.80634 52.3946 9.80634C53.1273 9.80634 53.4658 9.55024 53.4658 9.21366C53.4658 8.718 53.0122 8.59815 52.2902 8.32537L51.2961 7.94254C50.4509 7.65263 49.6789 7.06771 49.6789 6.06556C49.6789 4.92541 50.8171 4.014 52.4753 4.014C53.393 4.014 54.3202 4.32468 55.0092 4.91546L54.1392 5.89756C53.6018 5.54927 53.1261 5.35976 52.3806 5.35976C51.8121 5.35976 51.4259 5.57268 51.4259 5.97468C51.4259 6.38883 51.9374 6.54044 52.6693 6.7879L53.6027 7.14498C54.6022 7.48273 55.2328 8.04512 55.2328 9.01668C55.2328 10.1611 54.1687 11.1521 52.2799 11.1521C51.2489 11.1521 50.184 10.8117 49.3749 10.158M58.4591 5.44727H56.1715V4.14088H62.4732V5.44727H60.1863V11.0255H58.4594L58.4591 5.44727ZM65.3779 5.37746H66.2201C67.1269 5.37746 67.6137 5.6059 67.6137 6.2858C67.6137 6.95971 67.1269 7.3121 66.2201 7.3121H65.378L65.3779 5.37746ZM69.673 11.0254L67.9473 8.27122C68.7619 7.93873 69.3071 7.29732 69.3071 6.2858C69.3071 4.66419 68.0034 4.15098 66.4091 4.14088H63.6479V11.0254H65.3782V8.54868H66.2846L67.7414 11.0255L69.673 11.0254ZM72.5394 8.17405L72.72 7.53966L73.312 5.31951H73.3587C73.4898 5.83829 73.6458 6.39805 73.7948 6.92605L74.1472 8.17405H72.5394ZM74.9532 11.0252H76.7841L74.4075 4.14073H72.3377L69.9612 11.0252H71.7282L72.1939 9.38795H74.4904L74.9532 11.0252ZM78.133 4.14073H79.8565V9.71883H83.2529V11.0252H78.133V4.14073ZM37.4145 19.2184L37.5949 18.5842L38.187 16.3638H38.2338C38.3648 16.8827 38.5207 17.4424 38.6699 17.9706L39.0223 19.2184H37.4145ZM39.8275 22.0724H41.6592L39.2817 15.185H37.2109L34.8336 22.0724H36.6012L37.0674 20.4342H39.3645L39.8275 22.0724ZM42.6271 20.7634H44.409V16.4917H42.6271V15.185H47.9174V16.4915H46.136V20.7632H47.9176V22.0699H42.6271V20.7634ZM49.4529 22.7551H55.1052V23.9416H49.4529V22.7551ZM20.1802 0H25.162V4.49722H20.1802V0Z" fill="white" />
<path d="M22.6709 0H27.6527V4.49722H22.6709V0Z" fill="white" />
<path d="M0.25293 0H5.23471V4.49722H0.25293V0ZM0.25293 4.49722H5.23471V8.99444H0.25293V4.49722ZM0.25293 8.99444H5.23471V13.4918H0.25293V8.99444ZM0.25293 13.4918H5.23471V17.989H0.25293V13.4918Z" fill="white" />
<path d="M0.25293 17.989H5.23471V22.4862H0.25293V17.989Z" fill="white" />
<path d="M2.74365 0H7.72544V4.49722H2.74365V0Z" fill="white" />
<path d="M22.6709 4.49719H27.6527V8.99441H22.6709V4.49719ZM2.74365 4.49719H7.72544V8.99441H2.74365V4.49719Z" fill="white" />
<path d="M15.1982 4.49719H20.18V8.99441H15.1982V4.49719Z" fill="white" />
<path d="M17.6888 4.49719H22.6706V8.99441H17.6888V4.49719ZM7.7251 4.49719H12.7069V8.99441H7.7251V4.49719Z" fill="white" />
<path d="M12.7069 8.99463H17.6887V13.4918H12.7069V8.99463ZM17.6887 8.99463H22.6706V13.4918H17.6887V8.99463ZM7.7251 8.99463H12.7069V13.4918H7.7251V8.99463Z" fill="white" />
<path d="M10.2163 13.4917H15.1981V17.9889H10.2163V13.4917Z" fill="white" />
<path d="M12.707 13.4917H17.6888V17.9889H12.707V13.4917Z" fill="white" />
<path d="M22.6709 8.99463H27.6527V13.4918H22.6709V8.99463ZM2.74365 8.99463H7.72544V13.4918H2.74365V8.99463Z" fill="white" />
<path d="M20.1802 13.4917H25.162V17.9889H20.1802V13.4917Z" fill="white" />
<path d="M22.6709 13.4917H27.6527V17.9889H22.6709V13.4917Z" fill="white" />
<path d="M20.1802 17.989H25.162V22.4862H20.1802V17.989Z" fill="white" />
<path d="M2.74365 13.4917H7.72544V17.9889H2.74365V13.4917Z" fill="white" />
<path d="M22.6709 17.989H27.6527V22.4862H22.6709V17.989ZM2.74365 17.989H7.72544V22.4862H2.74365V17.989Z" fill="white" />
</g>
<defs>
<clipPath id="clip0_19_1376">
<rect width="83" height="24" fill="white" transform="translate(0.253418)"/>
</clipPath>
</defs>
</svg>
