<svg width="83" height="30" viewBox="0 0 83 30" fill="none" xmlns="http://www.w3.org/2000/svg">
<path fill-rule="evenodd" clip-rule="evenodd" d="M9.69482 1.96847C9.95282 2.07 10.1857 2.23722 10.3972 2.4582C10.7495 2.8237 11.0469 3.34686 11.2739 3.96678C11.502 4.59028 11.6501 5.28067 11.7063 5.97344C12.4583 5.54799 13.2929 5.28893 14.1537 5.21378L14.2146 5.209C15.2538 5.12539 16.281 5.31292 17.1768 5.77517C17.2975 5.83847 17.4157 5.90656 17.5316 5.97822C17.5913 5.29858 17.737 4.62372 17.9616 4.01456C18.1885 3.39345 18.4859 2.87147 18.8371 2.50478C19.0333 2.29248 19.2734 2.12538 19.5406 2.01506C19.8476 1.89561 20.1737 1.87411 20.4914 1.96489C20.9704 2.10106 21.3813 2.40445 21.705 2.8452C22.0012 3.24772 22.2233 3.76372 22.375 4.38245C22.6498 5.49806 22.6975 6.96603 22.5124 8.7362L22.5757 8.78397L22.6068 8.80667C23.511 9.49467 24.1404 10.4753 24.4737 11.6136C24.9933 13.3898 24.7317 15.3821 23.8358 16.4965L23.8143 16.5216L23.8167 16.5252C24.3148 17.4353 24.617 18.3969 24.6815 19.3918L24.6839 19.4277C24.7603 20.6998 24.445 21.9802 23.7116 23.2379L23.7033 23.2499L23.7152 23.2786C24.279 24.6605 24.4558 26.0521 24.2384 27.4424L24.2312 27.489C24.1975 27.6921 24.0847 27.8735 23.9174 27.9935C23.7502 28.1135 23.5421 28.1623 23.339 28.1292C23.2383 28.1135 23.1418 28.0781 23.0549 28.025C22.968 27.9719 22.8925 27.9022 22.8325 27.8199C22.7726 27.7376 22.7295 27.6442 22.7058 27.5452C22.682 27.4462 22.678 27.3435 22.694 27.2429C22.8934 26.0091 22.7059 24.7716 22.1206 23.5127C22.066 23.3957 22.0418 23.2669 22.0501 23.1381C22.0585 23.0093 22.0991 22.8846 22.1684 22.7757L22.1732 22.7685C22.8946 21.6649 23.1932 20.5827 23.1287 19.5196C23.0738 18.5892 22.7405 17.6754 22.1732 16.8047C22.0628 16.6354 22.0235 16.4295 22.0638 16.2315C22.104 16.0334 22.2205 15.8592 22.3882 15.7464L22.3989 15.7392C22.6892 15.5493 22.9567 15.0644 23.0917 14.4014C23.2406 13.6176 23.2017 12.8096 22.9782 12.0436C22.7334 11.2075 22.2855 10.5099 21.6584 10.0334C20.9477 9.49108 20.0065 9.2295 18.8156 9.30475C18.6599 9.31488 18.5047 9.27806 18.3701 9.19906C18.2356 9.12006 18.1278 9.00252 18.0607 8.86161C17.6857 8.06731 17.1386 7.49875 16.4566 7.14639C15.8018 6.81959 15.0687 6.68224 14.34 6.74983C12.8529 6.86808 11.5414 7.70658 11.1508 8.76367C11.0956 8.91244 10.9962 9.04079 10.866 9.13151C10.7358 9.22224 10.5809 9.27101 10.4222 9.27131C9.14776 9.27369 8.16115 9.57231 7.43971 10.111C6.81621 10.5768 6.39099 11.2278 6.16643 12.0078C5.96323 12.742 5.93541 13.5136 6.08521 14.2605C6.21899 14.927 6.48057 15.4788 6.78038 15.7762L6.78993 15.7846C7.04315 16.0319 7.0969 16.4177 6.92013 16.7223C6.49013 17.4652 6.16882 18.5724 6.11626 19.6367C6.05654 20.8526 6.33843 21.9085 6.97507 22.6658L6.99418 22.6885C7.09026 22.8005 7.15205 22.9377 7.17217 23.0839C7.1923 23.23 7.1699 23.3789 7.10765 23.5127C6.41965 24.989 6.20824 26.2026 6.43638 27.1581C6.47738 27.3568 6.43923 27.5637 6.33003 27.7347C6.22084 27.9057 6.04922 28.0273 5.85171 28.0737C5.6542 28.1201 5.44638 28.0875 5.27248 27.983C5.09859 27.8785 4.97235 27.7102 4.92063 27.5141C4.63038 26.2981 4.82746 24.9054 5.4856 23.3359L5.50232 23.2941L5.49276 23.2797C5.1693 22.802 4.92789 22.2735 4.77849 21.7162L4.77251 21.6935C4.59121 20.9982 4.51988 20.2788 4.5611 19.5614C4.61365 18.4745 4.89315 17.3613 5.30404 16.4678L5.31838 16.4368L5.31599 16.4344C4.96601 15.9351 4.70682 15.2961 4.56349 14.589L4.55751 14.5603C4.36003 13.574 4.39809 12.555 4.6686 11.5861C4.98154 10.4932 5.59668 9.55439 6.50326 8.87595C6.57493 8.8222 6.65018 8.76845 6.72543 8.71828C6.53551 6.93497 6.58329 5.45745 6.85921 4.33467C7.0109 3.71595 7.23426 3.19995 7.53049 2.79742C7.85299 2.35786 8.26388 2.05447 8.74285 1.91711C9.06057 1.82633 9.38785 1.84664 9.69482 1.96728V1.96847ZM14.6112 12.826C15.7292 12.826 16.7612 13.1998 17.5328 13.8472C18.2853 14.4767 18.7332 15.3224 18.7332 16.1644C18.7332 17.2251 18.2482 18.0517 17.3799 18.5796C16.6393 19.0275 15.6467 19.2449 14.5096 19.2449C13.3044 19.2449 12.2748 18.9356 11.5319 18.3682C10.7949 17.8068 10.3816 17.0185 10.3816 16.1644C10.3816 15.32 10.857 14.4719 11.643 13.8401C12.4408 13.1986 13.4943 12.826 14.6112 12.826ZM14.6112 13.8962C13.7825 13.889 12.9758 14.1626 12.3226 14.6726C11.772 15.1145 11.4602 15.6699 11.4602 16.1656C11.4602 16.6769 11.711 17.1558 12.1888 17.5201C12.7323 17.9346 13.5314 18.1747 14.5096 18.1747C15.464 18.1747 16.269 17.9991 16.8173 17.6659C17.3703 17.3314 17.6534 16.8465 17.6534 16.1644C17.6534 15.6592 17.3596 15.1014 16.8376 14.6642C16.2595 14.1805 15.4759 13.8962 14.6112 13.8962ZM15.4019 15.3415L15.4067 15.3463C15.55 15.5266 15.5201 15.7882 15.3398 15.9315L14.991 16.2063V16.739C14.9904 16.8576 14.9427 16.9711 14.8585 17.0546C14.7743 17.1381 14.6605 17.1848 14.5419 17.1845C14.4233 17.1848 14.3094 17.1381 14.2252 17.0546C14.141 16.9711 14.0934 16.8576 14.0928 16.739V16.1895L13.7691 15.9291C13.7264 15.8949 13.6909 15.8526 13.6646 15.8046C13.6384 15.7566 13.6219 15.7039 13.6161 15.6494C13.6103 15.595 13.6154 15.54 13.631 15.4876C13.6466 15.4351 13.6724 15.3863 13.707 15.3439C13.7775 15.258 13.879 15.2035 13.9895 15.1921C14.0999 15.1807 14.2105 15.2133 14.297 15.2829L14.5538 15.4884L14.8166 15.2806C14.9028 15.2124 15.0123 15.1807 15.1216 15.192C15.2309 15.2034 15.3315 15.257 15.4019 15.3415ZM9.38188 13.0493C9.95282 13.0493 10.4175 13.5152 10.4175 14.0897C10.4178 14.3651 10.3088 14.6294 10.1144 14.8244C9.91996 15.0195 9.65608 15.1294 9.38068 15.1301C9.1057 15.1291 8.8423 15.0192 8.64819 14.8244C8.45409 14.6296 8.3451 14.3659 8.3451 14.0909C8.34446 13.8155 8.45317 13.5511 8.64735 13.3558C8.84153 13.1605 9.10648 13.0503 9.38188 13.0493ZM19.7807 13.0493C20.354 13.0493 20.8175 13.5152 20.8175 14.0897C20.8178 14.3651 20.7088 14.6294 20.5144 14.8244C20.32 15.0195 20.0561 15.1294 19.7807 15.1301C19.5057 15.1291 19.2423 15.0192 19.0482 14.8244C18.8541 14.6296 18.7451 14.3659 18.7451 14.0909C18.7445 13.8155 18.8532 13.5511 19.0474 13.3558C19.2416 13.1605 19.5053 13.0503 19.7807 13.0493ZM9.1394 3.41375L9.13582 3.41614C8.99745 3.47631 8.87928 3.57499 8.7954 3.70042L8.78943 3.70758C8.6246 3.93333 8.48126 4.26539 8.37376 4.70136C8.17071 5.52792 8.11576 6.6495 8.22565 8.02431C8.73926 7.87142 9.29946 7.77586 9.90265 7.74122L9.9146 7.74003L9.93729 7.69942C9.99224 7.60147 10.0508 7.50711 10.1141 7.41395C10.261 6.49303 10.1403 5.39295 9.81188 4.49472C9.65182 4.05995 9.45713 3.71833 9.27079 3.52364C9.23232 3.48316 9.18946 3.4471 9.14299 3.41614L9.1394 3.41375ZM20.0972 3.46153L20.0948 3.46272C20.0484 3.49369 20.0055 3.52974 19.967 3.57022C19.7807 3.76492 19.5848 4.10772 19.426 4.5425C19.0796 5.49089 18.9637 6.66383 19.1512 7.61461L19.2205 7.73047L19.2301 7.74719H19.2659C19.8587 7.74735 20.4484 7.83263 21.017 8.00042C21.1197 6.65786 21.0623 5.56017 20.8641 4.74914C20.7566 4.31317 20.6132 3.98111 20.4472 3.75536L20.4424 3.74819C20.3587 3.62232 20.2405 3.52322 20.102 3.46272H20.0972V3.46153Z" fill="white"/>
<path fill-rule="evenodd" clip-rule="evenodd" d="M36.2423 9.99719C34.4184 9.99719 32.9928 10.5802 31.9647 11.7804C30.9705 12.9137 30.4897 14.3809 30.4897 16.1969C30.4897 17.9968 30.9705 19.4634 31.9653 20.5967C32.9922 21.7635 34.4184 22.3632 36.2423 22.3632C38.0488 22.3632 39.4745 21.7801 40.5192 20.6134C41.514 19.4968 42.0108 18.0302 42.0108 16.1969C42.0108 14.3636 41.514 12.8803 40.5192 11.7637C39.4745 10.5802 38.0488 9.99719 36.2416 9.99719H36.2423ZM36.2423 11.7136C37.4688 11.7136 38.4137 12.0969 39.0769 12.897C39.7235 13.6971 40.0551 14.7971 40.0551 16.1969C40.0551 17.5967 39.7235 18.68 39.0769 19.4634C38.4137 20.2468 37.4688 20.6468 36.2416 20.6468C35.0151 20.6468 34.0536 20.2301 33.391 19.4133C32.7438 18.6132 32.4294 17.5466 32.4294 16.1969C32.4294 14.8304 32.7438 13.7639 33.391 12.9632C34.0702 12.1303 35.0157 11.7136 36.2423 11.7136ZM43.4204 9.99719V22.1301H45.3102V9.99719H43.4204ZM47.2166 9.99719V22.1301H49.1064V9.99719H47.2166ZM54.7424 13.2804C53.6483 13.2804 52.7867 13.4634 52.1567 13.8634C51.4109 14.2969 50.9462 14.9968 50.7638 15.9471L52.6375 16.0967C52.7367 15.6466 52.9851 15.3133 53.35 15.0969C53.665 14.8972 54.0798 14.8138 54.6099 14.8138C55.8364 14.8138 56.4503 15.364 56.4503 16.4968V16.8307L54.5766 16.8801C53.3167 16.9135 52.3392 17.18 51.6427 17.6802C50.8802 18.1965 50.5154 18.9465 50.5154 19.9135C50.5154 20.6301 50.7804 21.2132 51.3105 21.68C51.8251 22.1301 52.521 22.3632 53.4166 22.3632C54.1624 22.3632 54.8089 22.2297 55.3557 21.9799C55.8364 21.7468 56.2512 21.4296 56.5822 20.9968V22.1301H58.3401V16.6303C58.3401 15.5804 58.075 14.7804 57.5444 14.2301C56.9471 13.5969 56.0022 13.2804 54.7424 13.2804ZM56.4497 18.1965V18.6299C56.4497 19.2964 56.1847 19.8467 55.6873 20.2802C55.1905 20.6969 54.5766 20.9133 53.8474 20.9133C53.4332 20.9133 53.1016 20.7964 52.8366 20.5967C52.5709 20.3964 52.4544 20.1466 52.4544 19.8467C52.4544 18.8488 53.1503 18.3177 54.5562 18.2515L56.4497 18.1965ZM64.1259 13.2804C63.2975 13.2804 62.5178 13.647 61.8053 14.397V13.5135H59.9149V22.1301H61.8047V16.9636C61.8047 16.3966 61.9705 15.897 62.3021 15.497C62.6337 15.0642 63.0645 14.8638 63.6118 14.8638C64.7385 14.8638 65.3025 15.5131 65.3025 16.83V22.1301H67.1923V16.8634C67.1923 16.2303 67.3414 15.7468 67.673 15.3968C67.988 15.0302 68.3695 14.8638 68.8336 14.8638C69.4962 14.8638 69.961 15.0135 70.2593 15.33C70.541 15.6305 70.6901 16.1301 70.6901 16.814V22.1301H72.5799V16.4801C72.5799 15.5304 72.2816 14.7637 71.7182 14.1639C71.121 13.5642 70.3918 13.2804 69.5129 13.2804C68.9329 13.2804 68.4527 13.3805 68.0706 13.5802C67.6398 13.7806 67.2256 14.1472 66.8274 14.6808C66.2807 13.7472 65.3857 13.2804 64.1259 13.2804ZM78.0513 13.2804C76.9573 13.2804 76.095 13.4634 75.4651 13.8634C74.7193 14.2969 74.2552 14.9968 74.0721 15.9471L75.9459 16.0967C76.0451 15.6466 76.2941 15.3133 76.6584 15.0969C76.9733 14.8972 77.3881 14.8138 77.9182 14.8138C79.1448 14.8138 79.7587 15.364 79.7587 16.4968V16.8307L77.8849 16.8801C76.6257 16.9135 75.6475 17.18 74.951 17.6802C74.1886 18.1965 73.8237 18.9465 73.8237 19.9135C73.8237 20.6301 74.0888 21.2132 74.6194 21.68C75.1335 22.1301 75.83 22.3632 76.7249 22.3632C77.4707 22.3632 78.1179 22.2297 78.6646 21.9799C79.1454 21.7468 79.5596 21.4296 79.8912 20.9968V22.1301H81.6478V16.6303C81.6478 15.5804 81.3828 14.7804 80.8521 14.2301C80.2555 13.5969 79.3112 13.2804 78.0513 13.2804ZM79.7587 18.1965V18.6299C79.7587 19.2964 79.4936 19.8467 78.9962 20.2802C78.4988 20.6969 77.8855 20.9133 77.1558 20.9133C76.7416 20.9133 76.41 20.7964 76.1449 20.5967C75.8799 20.3964 75.7634 20.1466 75.7634 19.8467C75.7634 18.8488 76.4587 18.3177 77.8652 18.2515L79.7587 18.1965Z" fill="white"/>
</svg>
