<svg width="107" height="32" viewBox="0 0 107 32" fill="none" xmlns="http://www.w3.org/2000/svg">
<path fill-rule="evenodd" clip-rule="evenodd" d="M29.15 13.3387C29.4877 12.3516 29.6048 11.3041 29.4932 10.2682C29.3816 9.23234 29.0439 8.2325 28.5034 7.33735C26.8572 4.55068 23.55 3.11601 20.3198 3.79068C19.6044 3.00988 18.7293 2.38723 17.7522 1.96369C16.7752 1.54016 15.7182 1.32533 14.6508 1.33335C11.349 1.32668 8.41913 3.39468 7.40329 6.45068C6.35911 6.65672 5.37131 7.07925 4.50542 7.69026C3.63952 8.30127 2.91533 9.08678 2.38087 9.99468C1.57304 11.347 1.22778 12.9196 1.39609 14.4802C1.56439 16.0408 2.23734 17.5066 3.31556 18.6613C2.97741 19.6485 2.85999 20.6962 2.97136 21.7323C3.08274 22.7685 3.42026 23.7686 3.96078 24.664C5.60696 27.4507 8.9142 28.884 12.1443 28.2107C12.8595 28.9913 13.7344 29.6138 14.7113 30.0371C15.6881 30.4605 16.7449 30.675 17.812 30.6667C21.1165 30.6747 24.0477 28.6053 25.0636 25.5467C26.1085 25.3407 27.097 24.9179 27.9634 24.3064C28.8297 23.6949 29.5542 22.9087 30.0887 22C30.895 20.6477 31.2391 19.0759 31.0704 17.5162C30.9016 15.9565 30.2288 14.4915 29.1513 13.3373L29.15 13.3387ZM17.8133 28.7493C16.4939 28.7525 15.2146 28.3027 14.195 27.4773C14.241 27.4533 14.3208 27.4107 14.3735 27.3787L20.3793 24.0053C20.5292 23.9229 20.6539 23.8024 20.7405 23.6563C20.8271 23.5102 20.8724 23.3439 20.8717 23.1747V14.94L23.4106 16.3653C23.4377 16.3787 23.4553 16.404 23.4593 16.432V23.252C23.4553 26.284 20.9299 28.7427 17.8133 28.7493ZM5.67053 23.7067C5.00858 22.5968 4.76974 21.2906 4.99691 20.0227C5.0402 20.0493 5.11865 20.096 5.17411 20.1267L11.1799 23.5C11.4843 23.6733 11.8616 23.6733 12.1673 23.5L19.4987 19.3827V22.2333C19.4993 22.248 19.4963 22.2625 19.49 22.2758C19.4836 22.289 19.4741 22.3005 19.4622 22.3093L13.3915 25.7174C10.6875 27.232 7.2342 26.3307 5.67189 23.704L5.67053 23.7067ZM4.08928 10.9547C4.75382 9.83735 5.79495 8.98521 7.03131 8.54668L7.0286 8.74801V15.4947C7.02777 15.6641 7.07301 15.8306 7.1596 15.9769C7.24619 16.1232 7.37097 16.244 7.52097 16.3267L14.8524 20.4427L12.3148 21.8693C12.3022 21.8773 12.2879 21.882 12.273 21.8832C12.2582 21.8844 12.2432 21.8819 12.2296 21.876L6.15749 18.464C3.45894 16.944 2.53372 13.5867 4.08793 10.9573L4.08928 10.9547ZM24.9432 15.6747L17.6118 11.5573L20.1494 10.1333C20.1618 10.1252 20.1761 10.1202 20.191 10.1188C20.2058 10.1174 20.2208 10.1197 20.2346 10.1253L26.3067 13.5347C29.0093 15.0547 29.9358 18.4173 28.3749 21.0453C27.7098 22.162 26.6695 23.0143 25.4342 23.4547V16.5067C25.4351 16.3376 25.39 16.1714 25.3036 16.0253C25.2173 15.8793 25.0928 15.7586 24.9432 15.676V15.6747ZM27.4686 11.9773C27.4095 11.9419 27.35 11.9073 27.29 11.8733L21.2843 8.50001C21.1343 8.41496 20.9642 8.3702 20.7912 8.3702C20.6182 8.3702 20.4482 8.41496 20.2982 8.50001L12.9668 12.6173V9.76668C12.9662 9.75205 12.9692 9.73749 12.9755 9.72425C12.9819 9.71102 12.9914 9.6995 13.0033 9.69068L19.0727 6.28401C21.778 4.76801 25.234 5.67068 26.7923 8.30135C27.451 9.41201 27.6918 10.7133 27.4686 11.9773ZM11.5871 17.0573L9.04812 15.6333C9.03486 15.627 9.02346 15.6174 9.01495 15.6055C9.00644 15.5936 9.0011 15.5798 8.99942 15.5653V8.74535C9.00077 5.70935 11.5329 3.24935 14.6549 3.25201C15.9751 3.25201 17.252 3.70268 18.2678 4.52401C18.2218 4.54801 18.1434 4.59068 18.0906 4.62135L12.0848 7.99468C11.9347 8.07696 11.8097 8.19743 11.7228 8.34353C11.636 8.48963 11.5905 8.65602 11.5911 8.82535L11.5871 17.056V17.0573ZM12.9668 14.1667L16.2321 12.3333L19.4974 14.1667V17.8333L16.2321 19.6667L12.9654 17.8333V14.1667H12.9668Z" fill="white"/>
<g clip-path="url(#clip0_19_1339)">
<path fill-rule="evenodd" clip-rule="evenodd" d="M39.1997 15.1318C39.1997 19.5157 41.9583 22.5727 45.7808 22.5727C49.6032 22.5727 52.3618 19.5157 52.3618 15.1318C52.3618 10.7479 49.6032 7.69092 45.7808 7.69092C41.9967 7.69092 39.2553 10.6872 39.1997 15.0005V15.1318ZM49.8394 15.1318C49.8394 18.2685 48.1643 20.3001 45.7808 20.3001C43.3964 20.3001 41.7213 18.2685 41.7213 15.1318C41.7213 11.9942 43.3964 9.96348 45.7808 9.96348C48.1643 9.96348 49.8394 11.9942 49.8394 15.1318ZM59.4633 22.5727C62.36 22.5727 64.0147 20.0791 64.0147 17.0828C64.0147 14.0857 62.36 11.5921 59.4633 11.5921C58.1233 11.5921 57.1387 12.1355 56.489 12.9199V11.7932H54.1243V25.9711H56.4882V21.2449C57.1387 22.0292 58.1241 22.5727 59.4633 22.5727ZM56.4294 16.7812C56.4294 14.7894 57.5325 13.7043 58.9911 13.7043C60.7045 13.7043 61.6303 15.0711 61.6303 17.0828C61.6303 19.0936 60.7045 20.4613 58.9911 20.4613C57.5325 20.4613 56.4294 19.3545 56.4294 17.4035V16.7812ZM70.4135 22.5727C72.4824 22.5727 74.1175 21.4667 74.8464 19.6163L72.8175 18.8319C72.5021 19.9179 71.5754 20.5211 70.4135 20.5211C68.8961 20.5211 67.8322 19.4152 67.6549 17.6046H74.906V16.8011C74.906 13.9054 73.3102 11.5921 70.3146 11.5921C67.3199 11.5921 65.3891 13.9851 65.3891 17.0828C65.3891 20.34 67.4572 22.5727 70.4135 22.5727ZM70.295 13.6237C71.7928 13.6237 72.5021 14.6291 72.5217 15.7957H67.7742C68.1289 14.3673 69.0734 13.6237 70.295 13.6237ZM76.68 22.3516H79.0447V16.1571C79.0447 14.649 80.1282 13.8447 81.1921 13.8447C82.4921 13.8447 83.0044 14.7894 83.0044 16.0965V22.3516H85.3692V15.3935C85.3692 13.121 84.0683 11.5921 81.9013 11.5921C80.5613 11.5921 79.6355 12.2153 79.0447 12.9199V11.7932H76.68V22.3516ZM92.2942 7.91194L86.9339 22.3516H89.4368L90.6387 19.0529H96.7467L97.9683 22.3516H100.509L95.1517 7.91194H92.2942ZM93.6727 10.7678L95.9198 16.8003H91.4665L93.6727 10.7678ZM104.569 7.95432H102.047V22.3932H104.569V7.95432Z" fill="white"/>
</g>
<defs>
<clipPath id="clip0_19_1339">
<rect width="68.6377" height="19.942" fill="white" transform="translate(37.5654 6.02893)"/>
</clipPath>
</defs>
</svg>
