<svg xmlns="http://www.w3.org/2000/svg" style="display:none">

  <symbol id="openai" viewBox="0 0 107 32">
    <path fill-rule="evenodd" clip-rule="evenodd" d="M29.15 13.3387C29.4877 12.3516 29.6048 11.3041 29.4932 10.2682C29.3816 9.23234 29.0439 8.2325 28.5034 7.33735C26.8572 4.55068 23.55 3.11601 20.3198 3.79068C19.6044 3.00988 18.7293 2.38723 17.7522 1.96369C16.7752 1.54016 15.7182 1.32533 14.6508 1.33335C11.349 1.32668 8.41913 3.39468 7.40329 6.45068C6.35911 6.65672 5.37131 7.07925 4.50542 7.69026C3.63952 8.30127 2.91533 9.08678 2.38087 9.99468C1.57304 11.347 1.22778 12.9196 1.39609 14.4802C1.56439 16.0408 2.23734 17.5066 3.31556 18.6613C2.97741 19.6485 2.85999 20.6962 2.97136 21.7323C3.08274 22.7685 3.42026 23.7686 3.96078 24.664C5.60696 27.4507 8.9142 28.884 12.1443 28.2107C12.8595 28.9913 13.7344 29.6138 14.7113 30.0371C15.6881 30.4605 16.7449 30.675 17.812 30.6667C21.1165 30.6747 24.0477 28.6053 25.0636 25.5467C26.1085 25.3407 27.097 24.9179 27.9634 24.3064C28.8297 23.6949 29.5542 22.9087 30.0887 22C30.895 20.6477 31.2391 19.0759 31.0704 17.5162C30.9016 15.9565 30.2288 14.4915 29.1513 13.3373L29.15 13.3387ZM17.8133 28.7493C16.4939 28.7525 15.2146 28.3027 14.195 27.4773C14.241 27.4533 14.3208 27.4107 14.3735 27.3787L20.3793 24.0053C20.5292 23.9229 20.6539 23.8024 20.7405 23.6563C20.8271 23.5102 20.8724 23.3439 20.8717 23.1747V14.94L23.4106 16.3653C23.4377 16.3787 23.4553 16.404 23.4593 16.432V23.252C23.4553 26.284 20.9299 28.7427 17.8133 28.7493ZM5.67053 23.7067C5.00858 22.5968 4.76974 21.2906 4.99691 20.0227C5.0402 20.0493 5.11865 20.096 5.17411 20.1267L11.1799 23.5C11.4843 23.6733 11.8616 23.6733 12.1673 23.5L19.4987 19.3827V22.2333C19.4993 22.248 19.4963 22.2625 19.49 22.2758C19.4836 22.289 19.4741 22.3005 19.4622 22.3093L13.3915 25.7174C10.6875 27.232 7.2342 26.3307 5.67189 23.704L5.67053 23.7067ZM4.08928 10.9547C4.75382 9.83735 5.79495 8.98521 7.03131 8.54668L7.0286 8.74801V15.4947C7.02777 15.6641 7.07301 15.8306 7.1596 15.9769C7.24619 16.1232 7.37097 16.244 7.52097 16.3267L14.8524 20.4427L12.3148 21.8693C12.3022 21.8773 12.2879 21.882 12.273 21.8832C12.2582 21.8844 12.2432 21.8819 12.2296 21.876L6.15749 18.464C3.45894 16.944 2.53372 13.5867 4.08793 10.9573L4.08928 10.9547ZM24.9432 15.6747L17.6118 11.5573L20.1494 10.1333C20.1618 10.1252 20.1761 10.1202 20.191 10.1188C20.2058 10.1174 20.2208 10.1197 20.2346 10.1253L26.3067 13.5347C29.0093 15.0547 29.9358 18.4173 28.3749 21.0453C27.7098 22.162 26.6695 23.0143 25.4342 23.4547V16.5067C25.4351 16.3376 25.39 16.1714 25.3036 16.0253C25.2173 15.8793 25.0928 15.7586 24.9432 15.676V15.6747ZM27.4686 11.9773C27.4095 11.9419 27.35 11.9073 27.29 11.8733L21.2843 8.50001C21.1343 8.41496 20.9642 8.3702 20.7912 8.3702C20.6182 8.3702 20.4482 8.41496 20.2982 8.50001L12.9668 12.6173V9.76668C12.9662 9.75205 12.9692 9.73749 12.9755 9.72425C12.9819 9.71102 12.9914 9.6995 13.0033 9.69068L19.0727 6.28401C21.778 4.76801 25.234 5.67068 26.7923 8.30135C27.451 9.41201 27.6918 10.7133 27.4686 11.9773ZM11.5871 17.0573L9.04812 15.6333C9.03486 15.627 9.02346 15.6174 9.01495 15.6055C9.00644 15.5936 9.0011 15.5798 8.99942 15.5653V8.74535C9.00077 5.70935 11.5329 3.24935 14.6549 3.25201C15.9751 3.25201 17.252 3.70268 18.2678 4.52401C18.2218 4.54801 18.1434 4.59068 18.0906 4.62135L12.0848 7.99468C11.9347 8.07696 11.8097 8.19743 11.7228 8.34353C11.636 8.48963 11.5905 8.65602 11.5911 8.82535L11.5871 17.056V17.0573ZM12.9668 14.1667L16.2321 12.3333L19.4974 14.1667V17.8333L16.2321 19.6667L12.9654 17.8333V14.1667H12.9668Z" fill="white" fill-opacity="0.4"/>
    <g clip-path="url(#clip0_19_1339)">
    <path fill-rule="evenodd" clip-rule="evenodd" d="M39.1997 15.1318C39.1997 19.5157 41.9583 22.5727 45.7808 22.5727C49.6032 22.5727 52.3618 19.5157 52.3618 15.1318C52.3618 10.7479 49.6032 7.69092 45.7808 7.69092C41.9967 7.69092 39.2553 10.6872 39.1997 15.0005V15.1318ZM49.8394 15.1318C49.8394 18.2685 48.1643 20.3001 45.7808 20.3001C43.3964 20.3001 41.7213 18.2685 41.7213 15.1318C41.7213 11.9942 43.3964 9.96348 45.7808 9.96348C48.1643 9.96348 49.8394 11.9942 49.8394 15.1318ZM59.4633 22.5727C62.36 22.5727 64.0147 20.0791 64.0147 17.0828C64.0147 14.0857 62.36 11.5921 59.4633 11.5921C58.1233 11.5921 57.1387 12.1355 56.489 12.9199V11.7932H54.1243V25.9711H56.4882V21.2449C57.1387 22.0292 58.1241 22.5727 59.4633 22.5727ZM56.4294 16.7812C56.4294 14.7894 57.5325 13.7043 58.9911 13.7043C60.7045 13.7043 61.6303 15.0711 61.6303 17.0828C61.6303 19.0936 60.7045 20.4613 58.9911 20.4613C57.5325 20.4613 56.4294 19.3545 56.4294 17.4035V16.7812ZM70.4135 22.5727C72.4824 22.5727 74.1175 21.4667 74.8464 19.6163L72.8175 18.8319C72.5021 19.9179 71.5754 20.5211 70.4135 20.5211C68.8961 20.5211 67.8322 19.4152 67.6549 17.6046H74.906V16.8011C74.906 13.9054 73.3102 11.5921 70.3146 11.5921C67.3199 11.5921 65.3891 13.9851 65.3891 17.0828C65.3891 20.34 67.4572 22.5727 70.4135 22.5727ZM70.295 13.6237C71.7928 13.6237 72.5021 14.6291 72.5217 15.7957H67.7742C68.1289 14.3673 69.0734 13.6237 70.295 13.6237ZM76.68 22.3516H79.0447V16.1571C79.0447 14.649 80.1282 13.8447 81.1921 13.8447C82.4921 13.8447 83.0044 14.7894 83.0044 16.0965V22.3516H85.3692V15.3935C85.3692 13.121 84.0683 11.5921 81.9013 11.5921C80.5613 11.5921 79.6355 12.2153 79.0447 12.9199V11.7932H76.68V22.3516ZM92.2942 7.91194L86.9339 22.3516H89.4368L90.6387 19.0529H96.7467L97.9683 22.3516H100.509L95.1517 7.91194H92.2942ZM93.6727 10.7678L95.9198 16.8003H91.4665L93.6727 10.7678ZM104.569 7.95432H102.047V22.3932H104.569V7.95432Z" fill="white" fill-opacity="0.4"/>
    </g>
    <defs>
    <clipPath id="clip0_19_1339">
    <rect width="68.6377" height="19.942" fill="white" transform="translate(37.5654 6.02893)"/>
    </clipPath>
    </defs>
  </symbol>

  <symbol id="claude" viewBox="0 0 100 22">
    <path d="M4.39329 14.5226L8.59451 12.1652L8.6648 11.9597L8.59451 11.8462H8.38904L7.68614 11.8029L5.28544 11.7381L3.20375 11.6515L1.18695 11.5434L0.678695 11.4353L0.202881 10.8081L0.251544 10.4944L0.678695 10.2079L1.28968 10.2619L2.64143 10.3539L4.66904 10.4944L6.13974 10.581L8.31875 10.8081H8.6648L8.71346 10.6675L8.59451 10.581L8.50259 10.4944L6.40468 9.07241L4.13375 7.56927L2.94422 6.70416L2.30079 6.26619L1.97637 5.85526L1.83579 4.9577L2.41974 4.31427L3.20375 4.36834L3.40381 4.42241L4.19864 5.0334L5.89643 6.3473L8.11329 7.9802L8.43771 8.25055L8.56747 8.15863L8.58369 8.09375L8.43771 7.85044L7.23195 5.67142L5.94509 3.45456L5.37195 2.53538L5.22055 1.98387C5.16648 1.75677 5.12864 1.56753 5.12864 1.33503L5.79369 0.432064L6.16137 0.31311L7.04811 0.432064L7.42119 0.756482L7.97271 2.01631L8.86486 4.00067L10.249 6.69875L10.6546 7.49898L10.8708 8.23974L10.9519 8.46683H11.0925V8.33706L11.2061 6.8177L11.4169 4.9523L11.6224 2.5516L11.6927 1.87573L12.0279 1.06468L12.693 0.626715L13.2121 0.875436L13.6392 1.48642L13.5797 1.88113L13.3256 3.53026L12.8282 6.1148L12.5038 7.84503H12.693L12.9093 7.62875L13.7852 6.46625L15.2559 4.62788L15.9047 3.89794L16.6617 3.0923L17.1483 2.7084H18.0675L18.7434 3.7141L18.4406 4.75224L17.4944 5.95259L16.7104 6.9691L15.5857 8.48305L14.8828 9.69421L14.9477 9.79154L15.1153 9.77532L17.6566 9.23462L19.03 8.9859L20.6683 8.70474L21.409 9.05078L21.4901 9.40224L21.1982 10.1214L19.4463 10.5539L17.3917 10.9649L14.3313 11.6894L14.2935 11.7164L14.3367 11.7705L15.7155 11.9003L16.3049 11.9327H17.7485L20.4358 12.1328L21.1387 12.5978L21.5604 13.1655L21.4901 13.5981L20.4088 14.1496L18.9489 13.8035L15.5425 12.9925L14.3746 12.7005H14.2124V12.7978L15.1856 13.7494L16.9699 15.3607L19.203 17.437L19.3165 17.9507L19.03 18.3562L18.7272 18.3129L16.7644 16.8368L16.0075 16.1718L14.2935 14.7281H14.1799V14.8795L14.5746 15.4581L16.6617 18.5941L16.7699 19.5565L16.6185 19.8701L16.0778 20.0594L15.483 19.9512L14.261 18.2372L13.0012 16.3069L11.9847 14.5767L11.8603 14.647L11.2601 21.1083L10.979 21.4382L10.3301 21.6869L9.78945 21.276L9.50288 20.6109L9.78945 19.297L10.1355 17.583L10.4167 16.2204L10.6708 14.5281L10.8222 13.9657L10.8114 13.9279L10.687 13.9441L9.41096 15.696L7.46986 18.3183L5.93428 19.9621L5.5666 20.108L4.92858 19.7782L4.98806 19.1889L5.34492 18.6644L7.46986 15.9609L8.75131 14.2847L9.57858 13.3169L9.57317 13.1763H9.52451L3.87962 16.8422L2.87393 16.972L2.44137 16.5665L2.49544 15.9014L2.7009 15.6851L4.39869 14.5172L4.39329 14.5226Z" fill="white" fill-opacity="0.4"/>
    <path d="M35.0669 18.4536C32.3526 18.4536 30.498 16.9396 29.6221 14.6092C29.1647 13.3949 28.9391 12.1056 28.957 10.8081C28.957 6.89887 30.7089 4.18456 34.5803 4.18456C37.181 4.18456 38.7869 5.32003 39.7007 8.02892H40.8145L40.6631 4.2927C39.1059 3.28701 37.1594 2.77875 34.7912 2.77875C31.4551 2.77875 28.6164 4.27108 27.0376 6.96375C26.2221 8.38561 25.8072 10.0019 25.8372 11.6408C25.8372 14.6308 27.2484 17.2803 29.8978 18.751C31.3479 19.5258 32.9747 19.9097 34.6181 19.8648C37.2027 19.8648 39.2519 19.3728 41.0687 18.5131L41.5391 14.3929H40.4036C39.7223 16.2746 38.9113 17.4046 37.5649 18.0048C36.9053 18.3022 36.0726 18.4536 35.0669 18.4536ZM46.773 4.18456L46.8812 2.34619H46.1134L42.6962 3.37352V3.93044L44.2101 4.63334V17.4911C44.2101 18.3671 43.7613 18.5617 42.588 18.7077V19.6485H48.4005V18.7077C47.2218 18.5617 46.7784 18.3671 46.7784 17.4911V4.18997L46.773 4.18456ZM69.8879 19.8648H70.3366L74.2675 19.1186V18.1562L73.716 18.1129C72.7968 18.0264 72.5589 17.8372 72.5589 17.0856V10.2296L72.667 8.02892H72.0452L68.3306 8.56421V9.50503L68.6929 9.56991C69.6986 9.7159 69.996 9.99706 69.996 10.7V16.8099C69.0336 17.556 68.1144 18.0264 67.0222 18.0264C65.811 18.0264 65.0594 17.41 65.0594 15.9718V10.235L65.1676 8.03433H64.5295L60.8095 8.56962V9.51044L61.1934 9.57532C62.1991 9.72131 62.4965 10.0025 62.4965 10.7054V16.3449C62.4965 18.7347 63.8483 19.8702 66.0002 19.8702C67.644 19.8702 68.9903 18.9943 70.0014 17.7777L69.8933 19.8702L69.8879 19.8648ZM59.0847 12.2572C59.0847 9.20224 57.4626 8.02892 54.532 8.02892C51.9475 8.02892 50.0713 9.09951 50.0713 10.873C50.0713 11.4029 50.2605 11.8084 50.6444 12.0896L52.6126 11.83C52.526 11.2353 52.4828 10.873 52.4828 10.7216C52.4828 9.7159 53.0181 9.20765 54.1049 9.20765C55.7108 9.20765 56.5218 10.3377 56.5218 12.1544V12.7492L52.4666 13.9658C51.1148 14.3335 50.347 14.6525 49.8334 15.3986C49.5611 15.8551 49.4295 16.3817 49.4549 16.9126C49.4549 18.6428 50.6444 19.8648 52.6774 19.8648C54.1481 19.8648 55.4512 19.1997 56.5867 17.9399C56.9922 19.1997 57.614 19.8648 58.7224 19.8648C59.62 19.8648 60.431 19.5025 61.1556 18.7942L60.9393 18.0481C60.6257 18.1346 60.3229 18.1778 60.0039 18.1778C59.3821 18.1778 59.0847 17.6858 59.0847 16.7233V12.2572ZM53.894 18.1346C52.7856 18.1346 52.0989 17.4911 52.0989 16.3611C52.0989 15.5933 52.4612 15.1445 53.2344 14.885L56.5218 13.8414V16.9991C55.4729 17.7939 54.8565 18.1346 53.894 18.1346ZM88.1202 19.1186V18.1562L87.5633 18.1129C86.6441 18.0264 86.4116 17.8372 86.4116 17.0856V4.18456L86.5197 2.34619H85.7465L82.3293 3.37352V3.93044L83.8433 4.63334V8.8616C82.991 8.27712 81.9722 7.98494 80.9397 8.02892C77.5441 8.02892 74.8947 10.6135 74.8947 14.4794C74.8947 17.6642 76.798 19.8648 79.934 19.8648C81.5561 19.8648 82.9673 19.0754 83.8433 17.8534L83.7351 19.8648H84.1893L88.1202 19.1186ZM81.0046 9.31038C82.6267 9.31038 83.8433 10.2512 83.8433 11.9814V16.8477C83.4738 17.2161 83.034 17.5064 82.55 17.7015C82.0661 17.8966 81.5479 17.9923 81.0262 17.9832C78.7012 17.9832 77.5225 16.1448 77.5225 13.69C77.5225 10.9325 78.8688 9.31038 81.0046 9.31038ZM96.4307 11.7435C96.1279 10.3161 95.252 9.50503 94.0354 9.50503C92.2187 9.50503 90.9588 10.873 90.9588 12.8357C90.9588 15.7393 92.4944 17.6209 94.9762 17.6209C95.7898 17.6127 96.587 17.3912 97.2882 16.9784C97.9893 16.5657 98.5699 15.9762 98.972 15.2689L99.6965 15.4635C99.3721 17.9832 97.0903 19.8648 94.2895 19.8648C91.0021 19.8648 88.7366 17.4317 88.7366 13.9712C88.7366 10.4837 91.1967 8.02892 94.4842 8.02892C96.939 8.02892 98.6692 9.50503 99.2261 12.0679L90.6615 14.6957V13.5386L96.4307 11.7489V11.7435Z" fill="white" fill-opacity="0.4"/>
  </symbol>

  <symbol id="grok" viewBox="0 0 79 30">
    <g clip-path="url(#clip0_19_1347)">
    <path d="M68.3977 22.2542V7.85486H70.6785V17.3579L75.5023 11.8278H78.2674L73.928 16.5671L78.3078 22.2542H75.583L72.0355 17.3676L70.6785 17.3579V22.2542H68.3977Z" fill="white" fill-opacity="0.4"/>
    <path d="M61.4811 22.4963C58.0903 22.4963 56.2537 20.0964 56.2537 17.031C56.2537 13.9454 58.0903 11.5657 61.4811 11.5657C64.8921 11.5657 66.7086 13.9454 66.7086 17.031C66.7086 20.0964 64.8921 22.4963 61.4811 22.4963ZM58.6353 17.031C58.6353 19.4107 59.927 20.6005 61.4811 20.6005C63.0555 20.6005 64.327 19.4107 64.327 17.031C64.327 14.6512 63.0555 13.4412 61.4811 13.4412C59.927 13.4412 58.6353 14.6512 58.6353 17.031Z" fill="white" fill-opacity="0.4"/>
    <path d="M49.906 22.2542V13.4815L51.8234 11.8278H55.9005V13.7638H52.1868V22.2542H49.906Z" fill="white" fill-opacity="0.4"/>
    <path d="M41.1853 22.5206C36.8382 22.5206 34.2463 19.3704 34.2463 15.0748C34.2463 10.7388 36.9308 7.51208 41.2702 7.51208C44.661 7.51208 47.1436 9.24646 47.7289 12.4732H45.1252C44.7417 10.638 43.2078 9.60948 41.2702 9.60948C38.1418 9.60948 36.7693 12.3119 36.7693 15.0748C36.7693 17.8377 38.1418 20.5199 41.2702 20.5199C44.2573 20.5199 45.5693 18.362 45.6701 16.5671H41.1693V14.479H47.9711L47.9599 15.5707C47.9599 19.6277 46.3033 22.5206 41.1853 22.5206Z" fill="white" fill-opacity="0.4"/>
    <path d="M12.4192 19.0132L22.233 11.7745C22.7142 11.4196 23.4019 11.558 23.6311 12.1093C24.8377 15.0163 24.2986 18.5098 21.898 20.9085C19.4975 23.307 16.1573 23.8331 13.1044 22.6351L9.76929 24.178C14.5528 27.4449 20.3615 26.637 23.9913 23.0076C26.8705 20.1307 27.7622 16.2093 26.9284 12.6731L26.936 12.6806C25.7268 7.48562 27.2333 5.40915 30.319 1.16307C30.392 1.06239 30.465 0.961715 30.5381 0.858521L26.4775 4.91582V4.90324L12.4167 19.0157" fill="white" fill-opacity="0.4"/>
    <path d="M10.3944 20.7726C6.96103 17.4955 7.55299 12.4238 10.4825 9.49921C12.6488 7.33462 16.1981 6.45118 19.2963 7.74991L22.6239 6.21458C22.0245 5.78167 21.2561 5.31604 20.3745 4.98883C16.3895 3.35031 11.6186 4.16579 8.3792 7.40006C5.26325 10.5135 4.28337 15.3007 5.96604 19.3857C7.223 22.4388 5.16249 24.5983 3.08687 26.778C2.35133 27.5506 1.61327 28.3234 1.0188 29.1414L10.3918 20.775" fill="white" fill-opacity="0.4"/>
    </g>
    <defs>
    <clipPath id="clip0_19_1347">
    <rect width="77.9333" height="29.1667" fill="white" transform="translate(0.696533 0.416626)"/>
    </clipPath>
    </defs>
  </symbol>

  <symbol id="deepseek" viewBox="0 0 119 26">
    <path d="M34.0819 2.67466C33.7238 2.49958 33.5697 2.83322 33.3603 3.00258C33.2886 3.05722 33.2279 3.1282 33.1675 3.19373C32.6441 3.75136 32.0326 4.11767 31.2337 4.07393C30.0659 4.0084 29.0685 4.37462 28.1871 5.26562C27.9997 4.16687 27.3772 3.51058 26.4297 3.08989C25.9339 2.87125 25.4326 2.65243 25.0854 2.17684C24.843 1.83802 24.7769 1.46073 24.6557 1.08897C24.5786 0.864972 24.5013 0.635257 24.2424 0.596867C23.9614 0.55312 23.8511 0.788102 23.7411 0.985141C23.3003 1.78883 23.1295 2.67439 23.1462 3.57084C23.1848 5.58828 24.0387 7.1953 25.7356 8.33807C25.9284 8.46931 25.9779 8.60046 25.9175 8.79179C25.8018 9.18551 25.664 9.56807 25.5428 9.96179C25.4657 10.2133 25.3498 10.2679 25.0799 10.1587C24.1489 9.77064 23.3444 9.1964 22.6337 8.50226C21.4271 7.3377 20.3363 6.05298 18.9755 5.04698C18.6605 4.81465 18.3371 4.59401 18.0058 4.38551C16.6175 3.0407 18.1877 1.93623 18.5512 1.80517C18.9314 1.66839 18.6835 1.19834 17.4548 1.20379C16.2262 1.20923 15.1022 1.6192 13.6699 2.16595C13.4605 2.24808 13.2402 2.30817 13.0142 2.35718C11.7141 2.11113 10.3643 2.05649 8.95383 2.21496C6.29824 2.51003 4.17732 3.76208 2.61821 5.89968C0.745127 8.46958 0.304243 11.3887 0.844205 14.4339C1.41164 17.6428 3.05337 20.2999 5.57668 22.3774C8.19361 24.5311 11.2073 25.5863 14.645 25.384C16.7329 25.2639 19.058 24.9851 21.6804 22.7708C22.3415 23.0988 23.0356 23.2301 24.1871 23.3285C25.0742 23.4106 25.9281 23.2847 26.5893 23.1482C27.6251 22.9296 27.5535 21.9728 27.1787 21.798C24.1433 20.3876 24.8096 20.9616 24.2037 20.4969C25.5461 18.9127 27.481 17.2747 28.5597 12.8374C28.8183 11.7734 28.9803 10.5846 28.9803 9.47013C28.9803 9.24691 29.0298 9.13676 29.3054 9.10935C30.0656 9.02177 30.8038 8.81429 31.4815 8.44235C33.4483 7.37082 34.2417 5.61051 34.4291 3.50031C34.4565 3.17783 34.4236 2.84402 34.0819 2.67466ZM16.9425 21.6664C14.0005 19.3596 12.5736 18.5994 11.9842 18.6323C11.4333 18.6652 11.5324 19.2939 11.6536 19.7038C11.7802 20.1084 11.9457 20.3872 12.177 20.7425C12.3367 20.9777 12.447 21.3274 12.0173 21.59C11.0697 22.1748 9.42237 21.3932 9.34513 21.3548C7.42793 20.2286 5.82469 18.7417 4.69518 16.7081C3.60443 14.7507 2.97076 12.6517 2.86622 10.4102C2.83865 9.86903 2.9985 9.67744 3.53829 9.57923C4.24893 9.4479 4.98167 9.42049 5.6924 9.52432C8.69491 9.96179 11.2512 11.3012 13.3944 13.4222C14.6175 14.6303 15.543 16.0737 16.4963 17.4841C17.51 18.982 18.6008 20.409 19.9892 21.5789C20.4796 21.9888 20.8706 22.3005 21.2453 22.5302C20.1158 22.6558 18.2315 22.6833 16.9425 21.6664ZM18.3655 12.5136C18.4122 12.3251 18.5822 12.187 18.7882 12.187C18.8389 12.1871 18.8893 12.1963 18.9368 12.2142C18.9975 12.2362 19.0525 12.269 19.0967 12.318C19.1737 12.3947 19.2178 12.504 19.2178 12.6187C19.2178 12.8593 19.0251 13.0506 18.7827 13.0506C18.6804 13.0515 18.5812 13.0156 18.5033 12.9495C18.4254 12.8833 18.374 12.7913 18.3586 12.6904C18.3491 12.6316 18.3514 12.5715 18.3655 12.5136ZM22.5907 14.9165C22.3575 15.0054 22.1253 15.0752 21.9009 15.0844C21.4821 15.1061 21.025 14.9367 20.7771 14.7289C20.3916 14.4065 20.1161 14.2262 20.0004 13.6629C19.9508 13.4222 19.9783 13.0506 20.0224 12.8374C20.1215 12.3781 20.0113 12.0829 19.6864 11.815C19.422 11.5964 19.0857 11.5363 18.7167 11.5363C18.579 11.5363 18.4523 11.4762 18.3586 11.427C18.2043 11.3506 18.0777 11.1592 18.1989 10.924C18.2375 10.8476 18.4249 10.6616 18.469 10.629C18.9702 10.3446 19.5488 10.4376 20.0831 10.6508C20.5789 10.8531 20.9536 11.2247 21.4935 11.7495C22.0444 12.3836 22.1436 12.5587 22.4577 13.0342C22.7057 13.4059 22.9315 13.7887 23.0858 14.2259C23.1643 14.4546 23.0922 14.6491 22.8763 14.7863C22.7885 14.8421 22.6875 14.8795 22.5907 14.9165Z" fill="white" fill-opacity="0.4"/>
    <path fill-rule="evenodd" clip-rule="evenodd" d="M109.155 6.39258H111.208V19.163H109.155V6.39258ZM115.539 9.927L112.169 14.0421L115.539 19.163H118.083L114.714 14.0421L118.083 9.927H115.539ZM99.9701 10.7108C100.795 9.81923 102.058 9.49878 103.314 9.49878C104.571 9.49878 105.833 9.81923 106.658 10.7108C107.483 11.6023 107.778 12.9698 107.778 14.3309V15.0797H102.312V13.5821H105.941C105.856 13.0333 105.665 12.5288 105.323 12.1576C104.828 11.6214 104.069 11.431 103.314 11.431C102.562 11.431 101.801 11.6214 101.309 12.1576C100.814 12.6938 100.636 13.5155 100.636 14.3309C100.636 15.1463 100.814 15.9681 101.309 16.5043C101.801 17.0405 102.562 17.2308 103.314 17.2308C104.069 17.2308 104.828 17.0405 105.323 16.5043C105.392 16.4281 105.456 16.3456 105.513 16.26H107.544C107.366 16.9072 107.08 17.491 106.658 17.9511C105.833 18.8426 104.571 19.1631 103.314 19.1631C102.058 19.1631 100.795 18.8426 99.9701 17.9511C99.1483 17.0595 98.8501 15.6889 98.8501 14.3309C98.8501 12.9698 99.1483 11.6023 99.9701 10.7108ZM93.009 9.49878C91.7526 9.49878 90.4898 9.81923 89.6649 10.7108C88.8432 11.6023 88.5449 12.9698 88.5449 14.3309C88.5449 15.6889 88.8432 17.0595 89.6649 17.9511C90.4898 18.8426 91.7526 19.1631 93.009 19.1631C94.2654 19.1631 95.5282 18.8426 96.3531 17.9511C96.7751 17.491 97.0607 16.9072 97.2352 16.26H95.2078C95.1507 16.3456 95.0872 16.4281 95.0174 16.5043C94.5224 17.0405 93.7641 17.2308 93.009 17.2308C92.2571 17.2308 91.4956 17.0405 91.0038 16.5043C90.5089 15.9681 90.3312 15.1463 90.3312 14.3309C90.3312 13.5155 90.5089 12.6938 91.0038 12.1576C91.4956 11.6214 92.2571 11.431 93.009 11.431C93.7641 11.431 94.5224 11.6214 95.0174 12.1576C95.3601 12.5288 95.5504 13.0333 95.6361 13.5821H92.0033V15.0797H97.4731V14.3309C97.4731 12.9698 97.1781 11.6023 96.3531 10.7108C95.5282 9.81923 94.2654 9.49878 93.009 9.49878ZM82.7039 13.4584C83.9571 13.4584 85.223 13.6456 86.0448 14.1723C86.8697 14.699 87.1648 15.508 87.1648 16.3107C87.1648 17.1103 86.8697 17.9193 86.0448 18.446C85.223 18.9727 83.9571 19.1599 82.7039 19.1599C81.4474 19.1599 80.1847 18.9727 79.3597 18.446C78.5348 17.9193 78.2397 17.1103 78.2397 16.3107H80.6479C80.6479 16.6217 80.7875 16.9326 81.1746 17.1388C81.5648 17.3419 82.1613 17.4149 82.7514 17.4149C83.3448 17.4149 83.9412 17.3419 84.3283 17.1388C84.7186 16.9358 84.8582 16.6217 84.8582 16.3107C84.8582 15.9998 84.7186 15.6857 84.3283 15.4795C83.9412 15.2764 83.294 15.2034 82.7039 15.2034C81.568 15.2034 80.4258 15.0131 79.6802 14.4864C78.9346 13.9629 78.6681 13.1538 78.6681 12.3511C78.6681 11.5484 78.9346 10.7425 79.6802 10.2158C80.4258 9.68915 81.568 9.49878 82.7039 9.49878C83.8397 9.49878 84.9819 9.68915 85.7275 10.2158C86.4731 10.7425 86.7428 11.5484 86.7428 12.3511H84.6519C84.6519 12.0402 84.525 11.7261 84.1728 11.523C83.8238 11.32 83.2845 11.2438 82.7483 11.2438C82.2121 11.2438 81.6727 11.3168 81.3205 11.523C80.9683 11.7261 80.8446 12.0402 80.8446 12.3511C80.8446 12.662 80.9683 12.9761 81.3205 13.1792C81.6727 13.3854 82.2121 13.4584 82.7483 13.4584H82.7039ZM72.5668 9.49878C71.7863 9.49878 70.9995 9.67011 70.4887 10.1524C70.4442 10.1936 70.403 10.238 70.3617 10.2825H69.9874V9.49878H67.9346V21.8346H69.9874V14.1691C69.9874 13.3791 70.1587 12.5859 70.6346 12.0687C71.1105 11.5484 71.8403 11.3644 72.5668 11.3644C73.2902 11.3644 74.0231 11.5484 74.4991 12.0687C74.975 12.5859 75.1463 13.3791 75.1463 14.1691C75.1463 14.956 74.975 15.7492 74.4991 16.2663C74.0231 16.7867 73.2902 16.9707 72.5668 16.9707H71.3992V18.8363H72.5668C73.7757 18.8363 74.9908 18.5285 75.784 17.6655C76.5772 16.8025 76.8596 15.4826 76.8596 14.1691C76.8596 12.8556 76.5772 11.5325 75.784 10.6695C74.9908 9.80654 73.7757 9.49878 72.5668 9.49878ZM58.7494 10.7108C59.5711 9.81923 60.8371 9.49878 62.0903 9.49878C63.3467 9.49878 64.6127 9.81923 65.4344 10.7108C66.2594 11.6023 66.5544 12.9698 66.5544 14.3309V15.0797H61.0877V13.5821H64.7174C64.6317 13.0333 64.4414 12.5288 64.0987 12.1576C63.6037 11.6214 62.8454 11.431 62.0935 11.431C61.3384 11.431 60.5801 11.6214 60.0851 12.1576C59.5902 12.6938 59.4125 13.5155 59.4125 14.3309C59.4125 15.1463 59.5902 15.9681 60.0851 16.5043C60.5801 17.0405 61.3384 17.2308 62.0935 17.2308C62.8454 17.2308 63.6037 17.0405 64.0987 16.5043C64.1685 16.4281 64.232 16.3456 64.2891 16.26H66.3196C66.142 16.9072 65.8596 17.491 65.4344 17.9511C64.6095 18.8426 63.3467 19.1631 62.0903 19.1631C60.8371 19.1631 59.5711 18.8426 58.7494 17.9511C57.9245 17.0595 57.6294 15.6889 57.6294 14.3309C57.6294 12.9698 57.9245 11.6023 58.7494 10.7108ZM51.7851 9.49878C50.5287 9.49878 49.266 9.81923 48.441 10.7108C47.6193 11.6023 47.3242 12.9698 47.3242 14.3309C47.3242 15.6889 47.6193 17.0595 48.441 17.9511C49.266 18.8426 50.5287 19.1631 51.7851 19.1631C53.0416 19.1631 54.3043 18.8426 55.1293 17.9511C55.5512 17.491 55.8368 16.9072 56.0145 16.26H53.9839C53.9268 16.3456 53.8633 16.4281 53.7935 16.5043C53.2986 17.0405 52.5403 17.2308 51.7851 17.2308C51.0332 17.2308 50.2749 17.0405 49.78 16.5043C49.285 15.9681 49.1073 15.1463 49.1073 14.3309C49.1073 13.5155 49.285 12.6938 49.78 12.1576C50.2749 11.6214 51.0332 11.431 51.7851 11.431C52.5403 11.431 53.2986 11.6214 53.7935 12.1576C54.1362 12.5288 54.3265 13.0333 54.4122 13.5821H50.7826V15.0797H56.2493V14.3309C56.2493 12.9698 55.9542 11.6023 55.1293 10.7108C54.3075 9.81923 53.0416 9.49878 51.7851 9.49878ZM43.244 16.5931C43.72 16.0759 43.8913 15.2827 43.8913 14.4927V6.8241H45.9441V19.163H43.8913V18.3794H43.5137C43.4757 18.4238 43.4344 18.4682 43.39 18.5094C42.876 18.9885 42.0923 19.163 41.3118 19.163C40.103 19.163 38.8878 18.8553 38.0946 17.9923C37.3014 17.1293 37.019 15.8062 37.019 14.4927C37.019 13.1792 37.3014 11.8593 38.0946 10.9963C38.8878 10.1333 40.103 9.82555 41.3118 9.82555H42.4794V11.6911H41.3118C40.5852 11.6911 39.8555 11.8752 39.3796 12.3923C38.9037 12.9095 38.7323 13.7059 38.7323 14.4927C38.7323 15.2827 38.9037 16.0759 39.3796 16.5931C39.8555 17.1103 40.5852 17.2974 41.3118 17.2974C42.0384 17.2974 42.7681 17.1103 43.244 16.5931Z" fill="white" fill-opacity="0.4"/>
  </symbol>

  <symbol id="gemini" viewBox="0 0 66 24">
    <g clip-path="url(#clip0_19_1366)">
    <mask id="mask0_19_1366" style="mask-type:alpha" maskUnits="userSpaceOnUse" x="0" y="0" width="66" height="24">
    <path fill-rule="evenodd" clip-rule="evenodd" d="M44.3219 7.78968C44.58 8.37834 44.709 9.00733 44.709 9.67663C44.709 9.00733 44.8339 8.37834 45.0839 7.78968C45.3418 7.20102 45.6886 6.68897 46.1239 6.25353C46.5594 5.81807 47.0713 5.47536 47.6599 5.22539C48.2485 4.96734 48.8775 4.83833 49.5466 4.83833C48.8775 4.83833 48.2485 4.71334 47.6599 4.46334C47.0713 4.20531 46.5594 3.85856 46.1239 3.42312C45.6886 2.98766 45.3418 2.47561 45.0839 1.88694C44.8339 1.29828 44.709 0.6693 44.709 0C44.709 0.6693 44.58 1.29828 44.3219 1.88694C44.0721 2.47561 43.7293 2.98766 43.2939 3.42312C42.8586 3.85856 42.3465 4.20531 41.7579 4.46334C41.1694 4.71334 40.5405 4.83833 39.8712 4.83833C40.5405 4.83833 41.1694 4.96734 41.7579 5.22539C42.3465 5.47536 42.8586 5.81807 43.2939 6.25353C43.7293 6.68897 44.0721 7.20102 44.3219 7.78968ZM5.02523 23.2706C6.01214 23.677 7.06435 23.8802 8.18185 23.8802C9.31389 23.8802 10.3443 23.6988 11.2732 23.3359C12.202 22.9731 13.0075 22.4578 13.6896 21.7901C14.3717 21.1225 14.9015 20.3314 15.2788 19.4169C15.6562 18.488 15.8448 17.4719 15.8448 16.3688V16.347C15.8448 16.1438 15.8303 15.9551 15.8013 15.7809C15.7868 15.6067 15.765 15.4253 15.736 15.2366H8.22541V17.0437H13.8855C13.8275 17.9146 13.6243 18.6694 13.276 19.3081C12.9422 19.9323 12.514 20.4474 11.9916 20.8539C11.4836 21.2602 10.8958 21.565 10.2282 21.7684C9.57512 21.957 8.893 22.0515 8.18185 22.0515C7.39815 22.0515 6.6362 21.9061 5.89603 21.6159C5.15586 21.3256 4.4955 20.9048 3.91498 20.3531C3.34897 19.8015 2.89905 19.141 2.56525 18.3718C2.23144 17.588 2.06454 16.7099 2.06454 15.7374C2.06454 14.7649 2.22419 13.894 2.54348 13.1247C2.87729 12.3409 3.3272 11.6804 3.89321 11.1434C4.45922 10.5918 5.11232 10.1709 5.85249 9.88059C6.60717 9.59029 7.38364 9.44514 8.18185 9.44514C8.77691 9.44514 9.34292 9.52498 9.8799 9.68464C10.4169 9.82978 10.9103 10.0403 11.3602 10.316C11.8247 10.5918 12.2238 10.9257 12.5576 11.3176L13.9073 9.92413C13.2542 9.18388 12.4197 8.61052 11.4038 8.20411C10.4024 7.7977 9.3284 7.59449 8.18185 7.59449C7.07886 7.59449 6.03391 7.7977 5.047 8.20411C4.07463 8.61052 3.21109 9.18388 2.45641 9.92413C1.71623 10.6644 1.1357 11.528 0.71482 12.5151C0.293937 13.5021 0.0834961 14.5762 0.0834961 15.7374C0.0834961 16.8986 0.293937 17.9727 0.71482 18.9596C1.1357 19.9466 1.71623 20.8103 2.45641 21.5507C3.19658 22.2909 4.05286 22.8643 5.02523 23.2706ZM19.7456 23.1182C20.5872 23.6262 21.5452 23.8802 22.6192 23.8802C23.8382 23.8802 24.8613 23.6045 25.6888 23.0529C26.516 22.5014 27.1473 21.8047 27.5827 20.9628L25.9282 20.1789C25.6234 20.7305 25.2024 21.195 24.6656 21.5724C24.1429 21.9498 23.4899 22.1384 22.7061 22.1384C22.0966 22.1384 21.5089 21.9861 20.9428 21.6813C20.3769 21.3764 19.9125 20.9191 19.5497 20.3097C19.2362 19.7828 19.058 19.1369 19.0155 18.3718H27.7569C27.7714 18.2993 27.7786 18.2049 27.7786 18.0888C27.7931 17.9727 27.8003 17.8638 27.8003 17.7622C27.8003 16.6591 27.5827 15.6793 27.1473 14.8229C26.7263 13.9665 26.1168 13.2989 25.3186 12.8199C24.5203 12.3264 23.5698 12.0796 22.4667 12.0796C21.3782 12.0796 20.4277 12.3554 19.6149 12.907C18.8022 13.444 18.1708 14.1625 17.7209 15.0624C17.2855 15.9623 17.0678 16.9421 17.0678 18.0017C17.0678 19.1339 17.3 20.1426 17.7645 21.0282C18.2434 21.9135 18.9038 22.6103 19.7456 23.1182ZM19.1264 16.7824C19.1948 16.4593 19.2925 16.1545 19.4189 15.868C19.6948 15.2439 20.0939 14.7504 20.6163 14.3875C21.1533 14.0101 21.7774 13.8214 22.4885 13.8214C23.0835 13.8214 23.5842 13.923 23.9906 14.1262C24.3971 14.3149 24.7308 14.5617 24.9921 14.8665C25.2532 15.1713 25.442 15.4979 25.558 15.8462C25.6742 16.1801 25.7394 16.4922 25.754 16.7824H19.1264ZM29.4652 12.428V23.5319H31.4245V17.3485C31.4245 16.7389 31.5478 16.1656 31.7946 15.6285C32.0414 15.0915 32.3825 14.6633 32.8178 14.3439C33.2531 14.0101 33.7467 13.8432 34.2981 13.8432C35.0673 13.8432 35.6623 14.0682 36.0833 14.5181C36.5186 14.9536 36.7363 15.7011 36.7363 16.7607V23.5319H38.6738V17.305C38.6738 16.6954 38.7972 16.1293 39.044 15.6067C39.2906 15.0697 39.6316 14.6415 40.0672 14.3222C40.5025 14.0028 40.9959 13.8432 41.5475 13.8432C42.3312 13.8432 42.9334 14.0609 43.3544 14.4963C43.7898 14.9318 44.0074 15.6793 44.0074 16.7389V23.5319H45.945V16.4123C45.945 15.1205 45.6256 14.0754 44.9872 13.2771C44.363 12.4788 43.3833 12.0796 42.0482 12.0796C41.1629 12.0796 40.4009 12.2828 39.7624 12.6892C39.1237 13.0956 38.6158 13.6109 38.2385 14.2351C37.9772 13.5964 37.549 13.0811 36.954 12.6892C36.3735 12.2828 35.6697 12.0796 34.8424 12.0796C34.378 12.0796 33.9135 12.174 33.4491 12.3626C32.9992 12.5368 32.6001 12.7763 32.2517 13.0811C31.9035 13.3714 31.6278 13.698 31.4245 14.0609H31.3373V12.428H29.4652ZM47.7083 12.428V23.5319H49.6458V12.428H47.7083ZM47.6865 10.0765C47.9622 10.3378 48.2889 10.4684 48.6663 10.4684C49.058 10.4684 49.3847 10.3378 49.6458 10.0765C49.9071 9.80075 50.0377 9.47416 50.0377 9.09678C50.0377 8.70488 49.9071 8.37829 49.6458 8.11703C49.3847 7.84124 49.058 7.70334 48.6663 7.70334C48.2889 7.70334 47.9622 7.84124 47.6865 8.11703C47.4252 8.37829 47.2947 8.70488 47.2947 9.09678C47.2947 9.47416 47.4252 9.80075 47.6865 10.0765ZM51.4654 12.428V23.5319H53.4247V17.3485C53.4247 16.7534 53.5481 16.1946 53.7948 15.6721C54.0562 15.135 54.4116 14.6995 54.8615 14.3657C55.3114 14.0173 55.8412 13.8432 56.4508 13.8432C57.2635 13.8432 57.9167 14.0682 58.41 14.5181C58.9034 14.9536 59.1502 15.7011 59.1502 16.7607V23.5319H61.1094V16.4123C61.1094 15.106 60.7612 14.0609 60.0645 13.2771C59.3678 12.4788 58.3447 12.0796 56.995 12.0796C56.1968 12.0796 55.4711 12.2755 54.818 12.6675C54.165 13.0594 53.6932 13.5239 53.403 14.0609H53.3158V12.428H51.4654ZM62.7541 12.428V23.5319H64.6916V12.428H62.7541ZM62.7323 10.0765C63.008 10.3378 63.3347 10.4684 63.7121 10.4684C64.1038 10.4684 64.4305 10.3378 64.6916 10.0765C64.9529 9.80075 65.0835 9.47416 65.0835 9.09678C65.0835 8.70488 64.9529 8.37829 64.6916 8.11703C64.4305 7.84124 64.1038 7.70334 63.7121 7.70334C63.3347 7.70334 63.008 7.84124 62.7323 8.11703C62.4712 8.37829 62.3405 8.70488 62.3405 9.09678C62.3405 9.47416 62.4712 9.80075 62.7323 10.0765Z" fill="white"/>
    </mask>
    <g mask="url(#mask0_19_1366)">
    <path d="M127.408 -86.068H-29.8181V43.4421H127.408V-86.068Z" fill="white" fill-opacity="0.4"/>
    </g>
    </g>
    <defs>
    <clipPath id="clip0_19_1366">
    <rect width="65" height="24" fill="white" transform="translate(0.0834961)"/>
    </clipPath>
    </defs>
  </symbol>

  <symbol id="microsoft-copilot" viewBox="0 0 84 24">
    <path d="M18.3588 1.89047C18.0382 0.799217 16.9706 6.94308e-05 15.8332 6.16177e-10H15.0657C13.8108 -2.71387e-05 12.703 0.922867 12.4765 2.15713L11.1597 9.32841L11.4866 8.21118C11.8062 7.1185 12.8748 6.31781 14.0133 6.31787L22.1562 6.3173H21.6297C20.4921 6.31748 19.4242 5.51827 19.1036 4.42683L18.3588 1.89047Z" fill="white" fill-opacity="0.25"/>
    <path d="M7.09425 20.8414C7.41131 21.938 8.48228 22.743 9.62378 22.7427H11.2555C12.6636 22.7429 13.8509 21.586 13.8874 20.1785L14.0648 13.2631L13.693 14.5327C13.3732 15.625 12.305 16.4253 11.1668 16.4254H3.32129H3.83982C4.98092 16.4256 6.05126 17.2305 6.3682 18.3267L7.09425 20.8414Z" fill="white" fill-opacity="0.25"/>
    <path d="M15.7191 0H6.59938C3.99367 0 2.4307 3.44378 1.38853 6.887C0.153619 10.9676 -1.4628 16.4229 3.21247 16.4229H7.14975C7.7222 16.4234 8.27922 16.2373 8.7364 15.8928C9.19357 15.5483 9.52598 15.0641 9.68325 14.5137C10.6114 11.2582 11.5535 8.0068 12.5096 4.75944C12.9889 3.14301 13.3874 1.75515 13.9998 0.890369C14.3432 0.405954 14.9151 0 15.7191 0Z" fill="white" fill-opacity="0.25"/>
    <path d="M15.7191 0H6.59938C3.99367 0 2.4307 3.44378 1.38853 6.887C0.153619 10.9676 -1.4628 16.4229 3.21247 16.4229H7.14975C8.29466 16.424 9.36871 15.6146 9.68325 14.5137C10.6114 11.2582 11.5535 8.0068 12.5096 4.75944C12.9889 3.14301 13.3874 1.75515 13.9998 0.890369C14.3432 0.405954 14.9151 0 15.7191 0Z" fill="white" fill-opacity="0.05"/>
    <path d="M9.46387 22.7425H18.5836C21.1887 22.7425 22.7523 19.2982 23.7944 15.8544C25.0288 11.7738 26.6446 6.31677 21.9705 6.31677H18.0326C17.4603 6.31638 16.9034 6.50255 16.4463 6.84706C15.9893 7.19158 15.6569 7.67567 15.4997 8.22601C14.5714 11.4822 13.629 14.7344 12.6728 17.9825C12.1941 19.599 11.795 20.9874 11.1832 21.8522C10.8398 22.3366 10.2678 22.7425 9.46387 22.7425Z" fill="white" fill-opacity="0.25"/>
    <path d="M9.46387 22.7425H18.5836C21.1887 22.7425 22.7523 19.2982 23.7944 15.8544C25.0288 11.7738 26.6446 6.31677 21.9705 6.31677H18.0326C16.8879 6.31599 15.8142 7.12533 15.4997 8.22601C14.5714 11.4822 13.629 14.7344 12.6728 17.9825C12.1941 19.599 11.795 20.9874 11.1832 21.8522C10.8398 22.3366 10.2678 22.7425 9.46387 22.7425Z" fill="white" fill-opacity="0.05"/>
    <path d="M70.0926 21.0827C69.9122 21.1549 69.7297 21.209 69.5453 21.2451C69.3608 21.2852 69.1583 21.3053 68.9377 21.3053C68.3844 21.3053 67.9553 21.1529 67.6505 20.8481C67.3498 20.5433 67.1994 20.0902 67.1994 19.4887V15.8556H66.1347V14.8571H67.1994V13.4135L68.4505 13.0345V14.8571H69.9964V15.8556H68.4505V19.3744C68.4505 19.7113 68.5107 19.9539 68.631 20.1022C68.7553 20.2466 68.9397 20.3188 69.1844 20.3188C69.3047 20.3188 69.4189 20.3047 69.5272 20.2767C69.6355 20.2486 69.7297 20.2145 69.8099 20.1744L70.0926 21.0827Z" fill="white" fill-opacity="0.4"/>
    <path d="M61.863 21.3173C60.8966 21.3173 60.1287 21.0225 59.5592 20.4331C58.9938 19.8396 58.7111 19.0516 58.7111 18.0691C58.7111 17.0185 59.0039 16.1964 59.5893 15.603C60.1788 15.0055 60.9788 14.7067 61.9893 14.7067C62.9598 14.7027 63.7176 14.9934 64.263 15.5789C64.8084 16.1644 65.0811 16.9604 65.0811 17.9669C65.0811 18.9894 64.7903 19.8035 64.2089 20.409C63.6314 21.0145 62.8495 21.3173 61.863 21.3173ZM61.9292 20.3007C62.5387 20.3007 63.0039 20.1022 63.3247 19.7052C63.6455 19.3082 63.8059 18.7408 63.8059 18.003C63.8059 17.2651 63.6435 16.6997 63.3186 16.3067C62.9978 15.9137 62.5347 15.7172 61.9292 15.7172C61.3277 15.7172 60.8525 15.9238 60.5036 16.3368C60.1587 16.7458 59.9863 17.3132 59.9863 18.0391C59.9863 18.7528 60.1587 19.3082 60.5036 19.7052C60.8525 20.1022 61.3277 20.3007 61.9292 20.3007Z" fill="white" fill-opacity="0.4"/>
    <path d="M55.741 21.1669V12.0481H56.9922V21.1669H55.741Z" fill="white" fill-opacity="0.4"/>
    <path d="M53.0129 13.63C52.7803 13.63 52.5859 13.5538 52.4295 13.4015C52.2731 13.2491 52.1949 13.0626 52.1949 12.8421C52.1949 12.6175 52.2731 12.429 52.4295 12.2766C52.5859 12.1243 52.7803 12.0481 53.0129 12.0481C53.2535 12.0481 53.452 12.1243 53.6084 12.2766C53.7648 12.429 53.843 12.6175 53.843 12.8421C53.843 13.0666 53.7648 13.2551 53.6084 13.4075C53.452 13.5558 53.2535 13.63 53.0129 13.63ZM53.6325 21.1669H52.3753V14.8571H53.6325V21.1669Z" fill="white" fill-opacity="0.4"/>
    <path d="M46.1466 20.2947H46.1165V24H44.8654V14.8571H46.1165V15.9278H46.1406C46.3892 15.5228 46.6919 15.218 47.0488 15.0135C47.4097 14.809 47.8228 14.7067 48.2879 14.7067C49.102 14.7067 49.7356 14.9894 50.1887 15.5549C50.6418 16.1163 50.8684 16.8722 50.8684 17.8225C50.8684 18.8812 50.6097 19.7293 50.0924 20.3669C49.5792 21.0005 48.8814 21.3173 47.9992 21.3173C47.5982 21.3173 47.2413 21.2331 46.9285 21.0647C46.6198 20.8922 46.3591 20.6356 46.1466 20.2947ZM46.1105 17.7443V18.5203C46.1105 19.0255 46.2669 19.4486 46.5797 19.7895C46.8924 20.1303 47.2894 20.3007 47.7706 20.3007C48.3401 20.3007 48.7852 20.0822 49.106 19.6451C49.4268 19.208 49.5872 18.6005 49.5872 17.8225C49.5872 17.1569 49.4388 16.6396 49.1421 16.2706C48.8453 15.9017 48.4363 15.7173 47.915 15.7173C47.3736 15.7173 46.9366 15.9097 46.6037 16.2947C46.2749 16.6757 46.1105 17.1589 46.1105 17.7443Z" fill="white" fill-opacity="0.4"/>
    <path d="M40.234 21.3173C39.2676 21.3173 38.4996 21.0226 37.9302 20.4331C37.3648 19.8396 37.0821 19.0516 37.0821 18.0692C37.0821 17.0185 37.3748 16.1965 37.9603 15.603C38.5498 15.0055 39.3498 14.7067 40.3603 14.7067C41.3307 14.7027 42.0886 14.9935 42.634 15.5789C43.1793 16.1644 43.452 16.9604 43.452 17.9669C43.452 18.9895 43.1613 19.8035 42.5798 20.409C42.0024 21.0145 41.2204 21.3173 40.234 21.3173ZM40.3001 20.3008C40.9097 20.3008 41.3748 20.1023 41.6956 19.7053C42.0164 19.3083 42.1768 18.7408 42.1768 18.003C42.1768 17.2651 42.0144 16.6997 41.6896 16.3067C41.3688 15.9138 40.9057 15.7173 40.3001 15.7173C39.6986 15.7173 39.2234 15.9238 38.8746 16.3368C38.5297 16.7458 38.3573 17.3133 38.3573 18.0391C38.3573 18.7529 38.5297 19.3083 38.8746 19.7053C39.2234 20.1023 39.6986 20.3008 40.3001 20.3008Z" fill="white" fill-opacity="0.4"/>
    <path d="M36.0295 20.7218C35.6044 20.9303 35.1874 21.0807 34.7783 21.1729C34.3733 21.2652 33.9322 21.3113 33.455 21.3113C32.1397 21.3113 31.1132 20.9223 30.3753 20.1443C29.6375 19.3664 29.2686 18.3178 29.2686 16.9985C29.2686 15.619 29.6776 14.5082 30.4956 13.6661C31.3137 12.82 32.3843 12.3969 33.7077 12.3969C34.1367 12.3969 34.5317 12.435 34.8926 12.5112C35.2535 12.5874 35.6224 12.7057 35.9994 12.8661L35.5603 13.9127C35.2515 13.7804 34.9508 13.6842 34.658 13.624C34.3693 13.5639 34.0565 13.5338 33.7197 13.5338C32.7934 13.5338 32.0435 13.8365 31.4701 14.4421C30.9006 15.0476 30.6159 15.8716 30.6159 16.9143C30.6159 17.9208 30.8826 18.7168 31.4159 19.3022C31.9533 19.8837 32.6731 20.1744 33.5753 20.1744C33.8881 20.1744 34.2069 20.1363 34.5317 20.0601C34.8605 19.9839 35.1934 19.8616 35.5302 19.6932L36.0295 20.7218Z" fill="white" fill-opacity="0.4"/>
    <path d="M83.2535 9.71144C83.0731 9.78362 82.8906 9.83776 82.7062 9.87385C82.5217 9.91395 82.3192 9.934 82.0986 9.934C81.5453 9.934 81.1162 9.78162 80.8114 9.47686C80.5107 9.17209 80.3603 8.71896 80.3603 8.11745V4.48435H79.2956V3.48585H80.3603V2.04223L81.6114 1.66328V3.48585H83.1573V4.48435H81.6114V8.00316C81.6114 8.34001 81.6716 8.58262 81.7919 8.73099C81.9162 8.87535 82.1006 8.94753 82.3453 8.94753C82.4656 8.94753 82.5798 8.93349 82.6881 8.90542C82.7964 8.87735 82.8906 8.84327 82.9708 8.80317L83.2535 9.71144Z" fill="white" fill-opacity="0.4"/>
    <path d="M78.8084 1.64524C78.6921 1.60514 78.5879 1.57707 78.4956 1.56103C78.4074 1.54098 78.3092 1.53095 78.2009 1.53095C77.8841 1.53095 77.6475 1.61717 77.4911 1.7896C77.3347 1.96203 77.2565 2.21266 77.2565 2.54148V3.48585H78.7001V4.48435H77.2565V9.79565H76.0054V4.48435H74.9528V3.48585H76.0054V2.47532C76.0054 1.8698 76.1999 1.3926 76.5889 1.04373C76.9778 0.690846 77.4991 0.514404 78.1528 0.514404C78.3412 0.514404 78.5077 0.528439 78.652 0.55651C78.7964 0.58057 78.9448 0.61666 79.0971 0.664781L78.8084 1.64524Z" fill="white" fill-opacity="0.4"/>
    <path d="M70.8625 9.94604C69.8961 9.94604 69.1282 9.65131 68.5588 9.06183C67.9934 8.46834 67.7107 7.68037 67.7107 6.69791C67.7107 5.64727 68.0034 4.82521 68.5889 4.23173C69.1783 3.63423 69.9783 3.33548 70.9889 3.33548C71.9593 3.33147 72.7172 3.6222 73.2626 4.20767C73.8079 4.79313 74.0806 5.58913 74.0806 6.59565C74.0806 7.61821 73.7899 8.43225 73.2084 9.03777C72.631 9.64328 71.849 9.94604 70.8625 9.94604ZM70.9287 8.9295C71.5382 8.9295 72.0034 8.731 72.3242 8.334C72.645 7.93701 72.8054 7.36959 72.8054 6.63174C72.8054 5.89389 72.643 5.32848 72.3182 4.93549C71.9974 4.54251 71.5342 4.34601 70.9287 4.34601C70.3272 4.34601 69.852 4.55253 69.5032 4.96557C69.1583 5.37459 68.9859 5.94201 68.9859 6.66783C68.9859 7.38162 69.1583 7.93701 69.5032 8.334C69.852 8.731 70.3272 8.9295 70.9287 8.9295Z" fill="white" fill-opacity="0.4"/>
    <path d="M62.0445 9.31445L62.5979 8.40617C62.8505 8.57861 63.1112 8.71495 63.3798 8.8152C63.6485 8.91144 63.9432 8.95956 64.2641 8.95956C64.649 8.95956 64.9458 8.88938 65.1543 8.74903C65.3628 8.60467 65.4671 8.39013 65.4671 8.10542C65.4671 7.87284 65.3768 7.68036 65.1964 7.52797C65.0199 7.37559 64.7292 7.24928 64.3242 7.14902C63.5422 6.95654 62.9989 6.70792 62.6941 6.40316C62.3934 6.09839 62.243 5.70741 62.243 5.23022C62.243 4.67683 62.4555 4.2237 62.8806 3.87081C63.3057 3.51392 63.8731 3.33547 64.5828 3.33547C64.9277 3.33547 65.2545 3.37958 65.5633 3.4678C65.8761 3.55602 66.1849 3.70039 66.4896 3.90089L65.9723 4.7851C65.6996 4.61267 65.451 4.49237 65.2265 4.4242C65.0019 4.35202 64.7733 4.31593 64.5407 4.31593C64.1718 4.31593 63.8871 4.3861 63.6866 4.52645C63.4861 4.6628 63.3859 4.85528 63.3859 5.1039C63.3859 5.35653 63.4821 5.54701 63.6746 5.67533C63.8711 5.80365 64.2039 5.92596 64.6731 6.04225C65.3387 6.21067 65.83 6.44927 66.1468 6.75804C66.4676 7.06682 66.628 7.47785 66.628 7.99113C66.628 8.58863 66.4114 9.06382 65.9783 9.41671C65.5453 9.76959 64.9578 9.94603 64.2159 9.94603C63.8149 9.94603 63.432 9.8939 63.0671 9.78964C62.7062 9.68137 62.3653 9.52297 62.0445 9.31445Z" fill="white" fill-opacity="0.4"/>
    <path d="M57.7859 9.94604C56.8194 9.94604 56.0515 9.65131 55.4821 9.06183C54.9167 8.46834 54.634 7.68037 54.634 6.69791C54.634 5.64727 54.9267 4.82521 55.5122 4.23173C56.1016 3.63423 56.9016 3.33548 57.9122 3.33548C58.8826 3.33147 59.6405 3.6222 60.1859 4.20767C60.7312 4.79313 61.0039 5.58913 61.0039 6.59565C61.0039 7.61821 60.7132 8.43225 60.1317 9.03777C59.5543 9.64328 58.7723 9.94604 57.7859 9.94604ZM57.852 8.9295C58.4615 8.9295 58.9267 8.731 59.2475 8.334C59.5683 7.93701 59.7287 7.36959 59.7287 6.63174C59.7287 5.89389 59.5663 5.32848 59.2415 4.93549C58.9207 4.54251 58.4575 4.34601 57.852 4.34601C57.2505 4.34601 56.7753 4.55253 56.4265 4.96557C56.0816 5.37459 55.9092 5.94201 55.9092 6.66783C55.9092 7.38162 56.0816 7.93701 56.4265 8.334C56.7753 8.731 57.2505 8.9295 57.852 8.9295Z" fill="white" fill-opacity="0.4"/>
    <path d="M53.6909 4.50239C53.6107 4.47833 53.5346 4.46229 53.4624 4.45427C53.3902 4.44224 53.306 4.43623 53.2097 4.43623C52.7005 4.43623 52.3035 4.63874 52.0188 5.04375C51.7381 5.44876 51.5977 5.96807 51.5977 6.60165V9.75355H50.3466V3.44374H51.5977V4.67683H51.6218C51.7661 4.23974 51.9847 3.9069 52.2774 3.67833C52.5701 3.44976 52.911 3.33547 53.3 3.33547C53.4163 3.33547 53.5185 3.34149 53.6067 3.35352C53.699 3.36555 53.7852 3.38359 53.8654 3.40765L53.6909 4.50239Z" fill="white" fill-opacity="0.4"/>
    <path d="M48.9076 9.39264C48.6028 9.58914 48.2961 9.72949 47.9873 9.8137C47.6825 9.90192 47.3517 9.94603 46.9948 9.94603C46.0565 9.94603 45.3006 9.66533 44.7271 9.10392C44.1537 8.54251 43.867 7.76858 43.867 6.7821C43.867 5.73949 44.1617 4.9054 44.7512 4.27984C45.3447 3.65026 46.1487 3.33547 47.1632 3.33547C47.5041 3.33547 47.8189 3.37357 48.1076 3.44976C48.4003 3.52595 48.6971 3.65026 48.9978 3.82269L48.4926 4.71292C48.272 4.5846 48.0555 4.49237 47.8429 4.43623C47.6344 4.38009 47.4079 4.35202 47.1632 4.35202C46.5136 4.35202 46.0144 4.56656 45.6655 4.99563C45.3166 5.42069 45.1422 5.97609 45.1422 6.6618C45.1422 7.39163 45.3246 7.95304 45.6896 8.34602C46.0585 8.735 46.5317 8.92948 47.1091 8.92948C47.2976 8.92948 47.4981 8.89941 47.7106 8.83926C47.9271 8.7751 48.1497 8.67284 48.3783 8.53249L48.9076 9.39264Z" fill="white" fill-opacity="0.4"/>
    <path d="M41.5992 2.25877C41.3666 2.25877 41.1721 2.18258 41.0158 2.0302C40.8594 1.87782 40.7812 1.69135 40.7812 1.4708C40.7812 1.24624 40.8594 1.05777 41.0158 0.905384C41.1721 0.753002 41.3666 0.676811 41.5992 0.676811C41.8398 0.676811 42.0383 0.753002 42.1947 0.905384C42.3511 1.05777 42.4293 1.24624 42.4293 1.4708C42.4293 1.69536 42.3511 1.88383 42.1947 2.03622C42.0383 2.18459 41.8398 2.25877 41.5992 2.25877ZM42.2188 9.79565H40.9616V3.48585H42.2188V9.79565Z" fill="white" fill-opacity="0.4"/>
    <path d="M38.9227 9.79565H37.6535V4.18961C37.6535 3.94901 37.6595 3.68435 37.6716 3.39562C37.6876 3.10289 37.7097 2.79211 37.7377 2.46329H37.7016C37.6535 2.67983 37.6074 2.8663 37.5633 3.02269C37.5232 3.17507 37.4831 3.29738 37.443 3.38961L34.7603 9.79565H33.9543L31.2655 3.43773C31.2335 3.3455 31.1934 3.21918 31.1452 3.05878C31.1011 2.89437 31.053 2.69587 31.0009 2.46329H30.9708C30.9909 2.71191 31.0049 2.99061 31.0129 3.29938C31.0209 3.60414 31.0249 3.94099 31.0249 4.30991V9.79565H29.828V1.17005H31.6024L33.9904 6.92045C34.0866 7.141 34.1648 7.3395 34.2249 7.51594C34.2851 7.69239 34.3312 7.85078 34.3633 7.99113H34.3994C34.4756 7.75855 34.5457 7.55203 34.6099 7.37158C34.6781 7.18712 34.7402 7.03073 34.7964 6.90241L37.2204 1.17005H38.9227V9.79565Z" fill="white" fill-opacity="0.4"/>
  </symbol>

  <symbol id="mistral-ai" viewBox="0 0 84 24">
    <g clip-path="url(#clip0_19_1376)">
    <path d="M35.4089 4.14088H37.2203L37.9676 6.58054L38.2239 7.53263H38.2709L38.5241 6.58054L39.275 4.14088H41.0863V11.0254H39.6257V8.89419L39.6267 8.78298C39.6393 7.96829 39.78 6.40639 39.857 5.69619H39.822L39.2366 7.5439L38.6428 9.20239H37.805L37.201 7.5439L36.655 5.69619H36.6145L36.6331 5.86083C36.7208 6.66483 36.8458 8.17185 36.8458 8.89419V11.0254H35.4089V4.14088ZM42.6271 9.71898H44.409V5.44727H42.6271V4.14088H47.9174V5.44727H46.136V9.71898H47.9176V11.0255H42.6271V9.71898ZM49.3751 10.158L50.3662 9.0878C50.943 9.5141 51.6547 9.80634 52.3946 9.80634C53.1273 9.80634 53.4658 9.55024 53.4658 9.21366C53.4658 8.718 53.0122 8.59815 52.2902 8.32537L51.2961 7.94254C50.4509 7.65263 49.6789 7.06771 49.6789 6.06556C49.6789 4.92541 50.8171 4.014 52.4753 4.014C53.393 4.014 54.3202 4.32468 55.0092 4.91546L54.1392 5.89756C53.6018 5.54927 53.1261 5.35976 52.3806 5.35976C51.8121 5.35976 51.4259 5.57268 51.4259 5.97468C51.4259 6.38883 51.9374 6.54044 52.6693 6.7879L53.6027 7.14498C54.6022 7.48273 55.2328 8.04512 55.2328 9.01668C55.2328 10.1611 54.1687 11.1521 52.2799 11.1521C51.2489 11.1521 50.184 10.8117 49.3749 10.158M58.4591 5.44727H56.1715V4.14088H62.4732V5.44727H60.1863V11.0255H58.4594L58.4591 5.44727ZM65.3779 5.37746H66.2201C67.1269 5.37746 67.6137 5.6059 67.6137 6.2858C67.6137 6.95971 67.1269 7.3121 66.2201 7.3121H65.378L65.3779 5.37746ZM69.673 11.0254L67.9473 8.27122C68.7619 7.93873 69.3071 7.29732 69.3071 6.2858C69.3071 4.66419 68.0034 4.15098 66.4091 4.14088H63.6479V11.0254H65.3782V8.54868H66.2846L67.7414 11.0255L69.673 11.0254ZM72.5394 8.17405L72.72 7.53966L73.312 5.31951H73.3587C73.4898 5.83829 73.6458 6.39805 73.7948 6.92605L74.1472 8.17405H72.5394ZM74.9532 11.0252H76.7841L74.4075 4.14073H72.3377L69.9612 11.0252H71.7282L72.1939 9.38795H74.4904L74.9532 11.0252ZM78.133 4.14073H79.8565V9.71883H83.2529V11.0252H78.133V4.14073ZM37.4145 19.2184L37.5949 18.5842L38.187 16.3638H38.2338C38.3648 16.8827 38.5207 17.4424 38.6699 17.9706L39.0223 19.2184H37.4145ZM39.8275 22.0724H41.6592L39.2817 15.185H37.2109L34.8336 22.0724H36.6012L37.0674 20.4342H39.3645L39.8275 22.0724ZM42.6271 20.7634H44.409V16.4917H42.6271V15.185H47.9174V16.4915H46.136V20.7632H47.9176V22.0699H42.6271V20.7634ZM49.4529 22.7551H55.1052V23.9416H49.4529V22.7551ZM20.1802 0H25.162V4.49722H20.1802V0Z" fill="white" fill-opacity="0.4"/>
    <path d="M22.6709 0H27.6527V4.49722H22.6709V0Z" fill="white" fill-opacity="0.4"/>
    <path d="M0.25293 0H5.23471V4.49722H0.25293V0ZM0.25293 4.49722H5.23471V8.99444H0.25293V4.49722ZM0.25293 8.99444H5.23471V13.4918H0.25293V8.99444ZM0.25293 13.4918H5.23471V17.989H0.25293V13.4918Z" fill="white" fill-opacity="0.4"/>
    <path d="M0.25293 17.989H5.23471V22.4862H0.25293V17.989Z" fill="white" fill-opacity="0.4"/>
    <path d="M2.74365 0H7.72544V4.49722H2.74365V0Z" fill="white" fill-opacity="0.4"/>
    <path d="M22.6709 4.49719H27.6527V8.99441H22.6709V4.49719ZM2.74365 4.49719H7.72544V8.99441H2.74365V4.49719Z" fill="white" fill-opacity="0.4"/>
    <path d="M15.1982 4.49719H20.18V8.99441H15.1982V4.49719Z" fill="white" fill-opacity="0.4"/>
    <path d="M17.6888 4.49719H22.6706V8.99441H17.6888V4.49719ZM7.7251 4.49719H12.7069V8.99441H7.7251V4.49719Z" fill="white" fill-opacity="0.4"/>
    <path d="M12.7069 8.99463H17.6887V13.4918H12.7069V8.99463ZM17.6887 8.99463H22.6706V13.4918H17.6887V8.99463ZM7.7251 8.99463H12.7069V13.4918H7.7251V8.99463Z" fill="white" fill-opacity="0.4"/>
    <path d="M10.2163 13.4917H15.1981V17.9889H10.2163V13.4917Z" fill="white" fill-opacity="0.4"/>
    <path d="M12.707 13.4917H17.6888V17.9889H12.707V13.4917Z" fill="white" fill-opacity="0.4"/>
    <path d="M22.6709 8.99463H27.6527V13.4918H22.6709V8.99463ZM2.74365 8.99463H7.72544V13.4918H2.74365V8.99463Z" fill="white" fill-opacity="0.4"/>
    <path d="M20.1802 13.4917H25.162V17.9889H20.1802V13.4917Z" fill="white" fill-opacity="0.4"/>
    <path d="M22.6709 13.4917H27.6527V17.9889H22.6709V13.4917Z" fill="white" fill-opacity="0.4"/>
    <path d="M20.1802 17.989H25.162V22.4862H20.1802V17.989Z" fill="white" fill-opacity="0.4"/>
    <path d="M2.74365 13.4917H7.72544V17.9889H2.74365V13.4917Z" fill="white" fill-opacity="0.4"/>
    <path d="M22.6709 17.989H27.6527V22.4862H22.6709V17.989ZM2.74365 17.989H7.72544V22.4862H2.74365V17.989Z" fill="white" fill-opacity="0.4"/>
    </g>
    <defs>
    <clipPath id="clip0_19_1376">
    <rect width="83" height="24" fill="white" transform="translate(0.253418)"/>
    </clipPath>
    </defs>
  </symbol>

  <symbol id="ollama" viewBox="0 0 83 30">
    <path fill-rule="evenodd" clip-rule="evenodd" d="M9.69482 1.96847C9.95282 2.07 10.1857 2.23722 10.3972 2.4582C10.7495 2.8237 11.0469 3.34686 11.2739 3.96678C11.502 4.59028 11.6501 5.28067 11.7063 5.97344C12.4583 5.54799 13.2929 5.28893 14.1537 5.21378L14.2146 5.209C15.2538 5.12539 16.281 5.31292 17.1768 5.77517C17.2975 5.83847 17.4157 5.90656 17.5316 5.97822C17.5913 5.29858 17.737 4.62372 17.9616 4.01456C18.1885 3.39345 18.4859 2.87147 18.8371 2.50478C19.0333 2.29248 19.2734 2.12538 19.5406 2.01506C19.8476 1.89561 20.1737 1.87411 20.4914 1.96489C20.9704 2.10106 21.3813 2.40445 21.705 2.8452C22.0012 3.24772 22.2233 3.76372 22.375 4.38245C22.6498 5.49806 22.6975 6.96603 22.5124 8.7362L22.5757 8.78397L22.6068 8.80667C23.511 9.49467 24.1404 10.4753 24.4737 11.6136C24.9933 13.3898 24.7317 15.3821 23.8358 16.4965L23.8143 16.5216L23.8167 16.5252C24.3148 17.4353 24.617 18.3969 24.6815 19.3918L24.6839 19.4277C24.7603 20.6998 24.445 21.9802 23.7116 23.2379L23.7033 23.2499L23.7152 23.2786C24.279 24.6605 24.4558 26.0521 24.2384 27.4424L24.2312 27.489C24.1975 27.6921 24.0847 27.8735 23.9174 27.9935C23.7502 28.1135 23.5421 28.1623 23.339 28.1292C23.2383 28.1135 23.1418 28.0781 23.0549 28.025C22.968 27.9719 22.8925 27.9022 22.8325 27.8199C22.7726 27.7376 22.7295 27.6442 22.7058 27.5452C22.682 27.4462 22.678 27.3435 22.694 27.2429C22.8934 26.0091 22.7059 24.7716 22.1206 23.5127C22.066 23.3957 22.0418 23.2669 22.0501 23.1381C22.0585 23.0093 22.0991 22.8846 22.1684 22.7757L22.1732 22.7685C22.8946 21.6649 23.1932 20.5827 23.1287 19.5196C23.0738 18.5892 22.7405 17.6754 22.1732 16.8047C22.0628 16.6354 22.0235 16.4295 22.0638 16.2315C22.104 16.0334 22.2205 15.8592 22.3882 15.7464L22.3989 15.7392C22.6892 15.5493 22.9567 15.0644 23.0917 14.4014C23.2406 13.6176 23.2017 12.8096 22.9782 12.0436C22.7334 11.2075 22.2855 10.5099 21.6584 10.0334C20.9477 9.49108 20.0065 9.2295 18.8156 9.30475C18.6599 9.31488 18.5047 9.27806 18.3701 9.19906C18.2356 9.12006 18.1278 9.00252 18.0607 8.86161C17.6857 8.06731 17.1386 7.49875 16.4566 7.14639C15.8018 6.81959 15.0687 6.68224 14.34 6.74983C12.8529 6.86808 11.5414 7.70658 11.1508 8.76367C11.0956 8.91244 10.9962 9.04079 10.866 9.13151C10.7358 9.22224 10.5809 9.27101 10.4222 9.27131C9.14776 9.27369 8.16115 9.57231 7.43971 10.111C6.81621 10.5768 6.39099 11.2278 6.16643 12.0078C5.96323 12.742 5.93541 13.5136 6.08521 14.2605C6.21899 14.927 6.48057 15.4788 6.78038 15.7762L6.78993 15.7846C7.04315 16.0319 7.0969 16.4177 6.92013 16.7223C6.49013 17.4652 6.16882 18.5724 6.11626 19.6367C6.05654 20.8526 6.33843 21.9085 6.97507 22.6658L6.99418 22.6885C7.09026 22.8005 7.15205 22.9377 7.17217 23.0839C7.1923 23.23 7.1699 23.3789 7.10765 23.5127C6.41965 24.989 6.20824 26.2026 6.43638 27.1581C6.47738 27.3568 6.43923 27.5637 6.33003 27.7347C6.22084 27.9057 6.04922 28.0273 5.85171 28.0737C5.6542 28.1201 5.44638 28.0875 5.27248 27.983C5.09859 27.8785 4.97235 27.7102 4.92063 27.5141C4.63038 26.2981 4.82746 24.9054 5.4856 23.3359L5.50232 23.2941L5.49276 23.2797C5.1693 22.802 4.92789 22.2735 4.77849 21.7162L4.77251 21.6935C4.59121 20.9982 4.51988 20.2788 4.5611 19.5614C4.61365 18.4745 4.89315 17.3613 5.30404 16.4678L5.31838 16.4368L5.31599 16.4344C4.96601 15.9351 4.70682 15.2961 4.56349 14.589L4.55751 14.5603C4.36003 13.574 4.39809 12.555 4.6686 11.5861C4.98154 10.4932 5.59668 9.55439 6.50326 8.87595C6.57493 8.8222 6.65018 8.76845 6.72543 8.71828C6.53551 6.93497 6.58329 5.45745 6.85921 4.33467C7.0109 3.71595 7.23426 3.19995 7.53049 2.79742C7.85299 2.35786 8.26388 2.05447 8.74285 1.91711C9.06057 1.82633 9.38785 1.84664 9.69482 1.96728V1.96847ZM14.6112 12.826C15.7292 12.826 16.7612 13.1998 17.5328 13.8472C18.2853 14.4767 18.7332 15.3224 18.7332 16.1644C18.7332 17.2251 18.2482 18.0517 17.3799 18.5796C16.6393 19.0275 15.6467 19.2449 14.5096 19.2449C13.3044 19.2449 12.2748 18.9356 11.5319 18.3682C10.7949 17.8068 10.3816 17.0185 10.3816 16.1644C10.3816 15.32 10.857 14.4719 11.643 13.8401C12.4408 13.1986 13.4943 12.826 14.6112 12.826ZM14.6112 13.8962C13.7825 13.889 12.9758 14.1626 12.3226 14.6726C11.772 15.1145 11.4602 15.6699 11.4602 16.1656C11.4602 16.6769 11.711 17.1558 12.1888 17.5201C12.7323 17.9346 13.5314 18.1747 14.5096 18.1747C15.464 18.1747 16.269 17.9991 16.8173 17.6659C17.3703 17.3314 17.6534 16.8465 17.6534 16.1644C17.6534 15.6592 17.3596 15.1014 16.8376 14.6642C16.2595 14.1805 15.4759 13.8962 14.6112 13.8962ZM15.4019 15.3415L15.4067 15.3463C15.55 15.5266 15.5201 15.7882 15.3398 15.9315L14.991 16.2063V16.739C14.9904 16.8576 14.9427 16.9711 14.8585 17.0546C14.7743 17.1381 14.6605 17.1848 14.5419 17.1845C14.4233 17.1848 14.3094 17.1381 14.2252 17.0546C14.141 16.9711 14.0934 16.8576 14.0928 16.739V16.1895L13.7691 15.9291C13.7264 15.8949 13.6909 15.8526 13.6646 15.8046C13.6384 15.7566 13.6219 15.7039 13.6161 15.6494C13.6103 15.595 13.6154 15.54 13.631 15.4876C13.6466 15.4351 13.6724 15.3863 13.707 15.3439C13.7775 15.258 13.879 15.2035 13.9895 15.1921C14.0999 15.1807 14.2105 15.2133 14.297 15.2829L14.5538 15.4884L14.8166 15.2806C14.9028 15.2124 15.0123 15.1807 15.1216 15.192C15.2309 15.2034 15.3315 15.257 15.4019 15.3415ZM9.38188 13.0493C9.95282 13.0493 10.4175 13.5152 10.4175 14.0897C10.4178 14.3651 10.3088 14.6294 10.1144 14.8244C9.91996 15.0195 9.65608 15.1294 9.38068 15.1301C9.1057 15.1291 8.8423 15.0192 8.64819 14.8244C8.45409 14.6296 8.3451 14.3659 8.3451 14.0909C8.34446 13.8155 8.45317 13.5511 8.64735 13.3558C8.84153 13.1605 9.10648 13.0503 9.38188 13.0493ZM19.7807 13.0493C20.354 13.0493 20.8175 13.5152 20.8175 14.0897C20.8178 14.3651 20.7088 14.6294 20.5144 14.8244C20.32 15.0195 20.0561 15.1294 19.7807 15.1301C19.5057 15.1291 19.2423 15.0192 19.0482 14.8244C18.8541 14.6296 18.7451 14.3659 18.7451 14.0909C18.7445 13.8155 18.8532 13.5511 19.0474 13.3558C19.2416 13.1605 19.5053 13.0503 19.7807 13.0493ZM9.1394 3.41375L9.13582 3.41614C8.99745 3.47631 8.87928 3.57499 8.7954 3.70042L8.78943 3.70758C8.6246 3.93333 8.48126 4.26539 8.37376 4.70136C8.17071 5.52792 8.11576 6.6495 8.22565 8.02431C8.73926 7.87142 9.29946 7.77586 9.90265 7.74122L9.9146 7.74003L9.93729 7.69942C9.99224 7.60147 10.0508 7.50711 10.1141 7.41395C10.261 6.49303 10.1403 5.39295 9.81188 4.49472C9.65182 4.05995 9.45713 3.71833 9.27079 3.52364C9.23232 3.48316 9.18946 3.4471 9.14299 3.41614L9.1394 3.41375ZM20.0972 3.46153L20.0948 3.46272C20.0484 3.49369 20.0055 3.52974 19.967 3.57022C19.7807 3.76492 19.5848 4.10772 19.426 4.5425C19.0796 5.49089 18.9637 6.66383 19.1512 7.61461L19.2205 7.73047L19.2301 7.74719H19.2659C19.8587 7.74735 20.4484 7.83263 21.017 8.00042C21.1197 6.65786 21.0623 5.56017 20.8641 4.74914C20.7566 4.31317 20.6132 3.98111 20.4472 3.75536L20.4424 3.74819C20.3587 3.62232 20.2405 3.52322 20.102 3.46272H20.0972V3.46153Z" fill="white" fill-opacity="0.4"/>
    <path fill-rule="evenodd" clip-rule="evenodd" d="M36.2423 9.99719C34.4184 9.99719 32.9928 10.5802 31.9647 11.7804C30.9705 12.9137 30.4897 14.3809 30.4897 16.1969C30.4897 17.9968 30.9705 19.4634 31.9653 20.5967C32.9922 21.7635 34.4184 22.3632 36.2423 22.3632C38.0488 22.3632 39.4745 21.7801 40.5192 20.6134C41.514 19.4968 42.0108 18.0302 42.0108 16.1969C42.0108 14.3636 41.514 12.8803 40.5192 11.7637C39.4745 10.5802 38.0488 9.99719 36.2416 9.99719H36.2423ZM36.2423 11.7136C37.4688 11.7136 38.4137 12.0969 39.0769 12.897C39.7235 13.6971 40.0551 14.7971 40.0551 16.1969C40.0551 17.5967 39.7235 18.68 39.0769 19.4634C38.4137 20.2468 37.4688 20.6468 36.2416 20.6468C35.0151 20.6468 34.0536 20.2301 33.391 19.4133C32.7438 18.6132 32.4294 17.5466 32.4294 16.1969C32.4294 14.8304 32.7438 13.7639 33.391 12.9632C34.0702 12.1303 35.0157 11.7136 36.2423 11.7136ZM43.4204 9.99719V22.1301H45.3102V9.99719H43.4204ZM47.2166 9.99719V22.1301H49.1064V9.99719H47.2166ZM54.7424 13.2804C53.6483 13.2804 52.7867 13.4634 52.1567 13.8634C51.4109 14.2969 50.9462 14.9968 50.7638 15.9471L52.6375 16.0967C52.7367 15.6466 52.9851 15.3133 53.35 15.0969C53.665 14.8972 54.0798 14.8138 54.6099 14.8138C55.8364 14.8138 56.4503 15.364 56.4503 16.4968V16.8307L54.5766 16.8801C53.3167 16.9135 52.3392 17.18 51.6427 17.6802C50.8802 18.1965 50.5154 18.9465 50.5154 19.9135C50.5154 20.6301 50.7804 21.2132 51.3105 21.68C51.8251 22.1301 52.521 22.3632 53.4166 22.3632C54.1624 22.3632 54.8089 22.2297 55.3557 21.9799C55.8364 21.7468 56.2512 21.4296 56.5822 20.9968V22.1301H58.3401V16.6303C58.3401 15.5804 58.075 14.7804 57.5444 14.2301C56.9471 13.5969 56.0022 13.2804 54.7424 13.2804ZM56.4497 18.1965V18.6299C56.4497 19.2964 56.1847 19.8467 55.6873 20.2802C55.1905 20.6969 54.5766 20.9133 53.8474 20.9133C53.4332 20.9133 53.1016 20.7964 52.8366 20.5967C52.5709 20.3964 52.4544 20.1466 52.4544 19.8467C52.4544 18.8488 53.1503 18.3177 54.5562 18.2515L56.4497 18.1965ZM64.1259 13.2804C63.2975 13.2804 62.5178 13.647 61.8053 14.397V13.5135H59.9149V22.1301H61.8047V16.9636C61.8047 16.3966 61.9705 15.897 62.3021 15.497C62.6337 15.0642 63.0645 14.8638 63.6118 14.8638C64.7385 14.8638 65.3025 15.5131 65.3025 16.83V22.1301H67.1923V16.8634C67.1923 16.2303 67.3414 15.7468 67.673 15.3968C67.988 15.0302 68.3695 14.8638 68.8336 14.8638C69.4962 14.8638 69.961 15.0135 70.2593 15.33C70.541 15.6305 70.6901 16.1301 70.6901 16.814V22.1301H72.5799V16.4801C72.5799 15.5304 72.2816 14.7637 71.7182 14.1639C71.121 13.5642 70.3918 13.2804 69.5129 13.2804C68.9329 13.2804 68.4527 13.3805 68.0706 13.5802C67.6398 13.7806 67.2256 14.1472 66.8274 14.6808C66.2807 13.7472 65.3857 13.2804 64.1259 13.2804ZM78.0513 13.2804C76.9573 13.2804 76.095 13.4634 75.4651 13.8634C74.7193 14.2969 74.2552 14.9968 74.0721 15.9471L75.9459 16.0967C76.0451 15.6466 76.2941 15.3133 76.6584 15.0969C76.9733 14.8972 77.3881 14.8138 77.9182 14.8138C79.1448 14.8138 79.7587 15.364 79.7587 16.4968V16.8307L77.8849 16.8801C76.6257 16.9135 75.6475 17.18 74.951 17.6802C74.1886 18.1965 73.8237 18.9465 73.8237 19.9135C73.8237 20.6301 74.0888 21.2132 74.6194 21.68C75.1335 22.1301 75.83 22.3632 76.7249 22.3632C77.4707 22.3632 78.1179 22.2297 78.6646 21.9799C79.1454 21.7468 79.5596 21.4296 79.8912 20.9968V22.1301H81.6478V16.6303C81.6478 15.5804 81.3828 14.7804 80.8521 14.2301C80.2555 13.5969 79.3112 13.2804 78.0513 13.2804ZM79.7587 18.1965V18.6299C79.7587 19.2964 79.4936 19.8467 78.9962 20.2802C78.4988 20.6969 77.8855 20.9133 77.1558 20.9133C76.7416 20.9133 76.41 20.7964 76.1449 20.5967C75.8799 20.3964 75.7634 20.1466 75.7634 19.8467C75.7634 18.8488 76.4587 18.3177 77.8652 18.2515L79.7587 18.1965Z" fill="white" fill-opacity="0.4"/>
  </symbol>

</svg> 