<svg width="44" height="45" viewBox="0 0 44 45" fill="none" xmlns="http://www.w3.org/2000/svg">
<rect x="0.5" y="1" width="43" height="43" rx="5.5" fill="white" stroke="#F1F1F1"/>
<path d="M21.2346 12.817C21.7247 12.614 22.2753 12.614 22.7654 12.817L28.3057 15.1119C28.7958 15.3149 29.1851 15.7042 29.3881 16.1943L31.683 21.7346C31.886 22.2247 31.886 22.7753 31.683 23.2654L29.3881 28.8057C29.1851 29.2958 28.7958 29.6851 28.3057 29.8881L22.7654 32.183C22.2753 32.386 21.7247 32.386 21.2346 32.183L15.6943 29.8881C15.2042 29.6851 14.8149 29.2958 14.6119 28.8057L12.317 23.2654C12.114 22.7753 12.114 22.2247 12.317 21.7346L14.6119 16.1943C14.8149 15.7042 15.2042 15.3149 15.6943 15.1119L21.2346 12.817Z" fill="#D9D9D9"/>
</svg>
