<svg width="44" height="45" viewBox="0 0 44 45" fill="none" xmlns="http://www.w3.org/2000/svg">
<rect x="0.5" y="1" width="43" height="43" rx="5.5" fill="white" stroke="#F1F1F1"/>
<path d="M21.1322 12.9179C21.6806 12.6538 22.3194 12.6538 22.8678 12.9179L28.9505 15.8472C29.4989 16.1113 29.8972 16.6107 30.0326 17.2041L31.535 23.7862C31.6704 24.3796 31.5283 25.0024 31.1488 25.4782L26.9394 30.7567C26.5599 31.2325 25.9843 31.5097 25.3757 31.5097H18.6243C18.0157 31.5097 17.4401 31.2325 17.0606 30.7567L12.8512 25.4782C12.4717 25.0024 12.3296 24.3796 12.465 23.7862L13.9674 17.2041C14.1028 16.6107 14.5011 16.1113 15.0495 15.8472L21.1322 12.9179Z" fill="#D9D9D9"/>
</svg>
