<svg width="493" height="155" viewBox="0 0 493 155" fill="none" xmlns="http://www.w3.org/2000/svg">
<g filter="url(#filter0_f_239_10828)">
<path d="M172.504 16.7383C174.89 15.1907 173.951 11.498 171.116 11.2776L64.7768 3.01194C63.6713 2.92598 62.5803 3.30694 61.7683 4.06236L3.79693 57.9999C2.07894 59.5981 3.3378 62.4673 5.67733 62.2853L114.426 53.8324C115.085 53.7814 115.722 53.5657 116.277 53.2058L172.504 16.7383Z" stroke="#CCCCCC" stroke-opacity="0.4" stroke-width="0.495714"/>
</g>
<g filter="url(#filter1_f_239_10828)">
<path d="M175.939 22.5927C177.683 20.0765 176.039 16.6175 172.987 16.3802L65.5859 8.032C64.0363 7.91154 62.5596 8.70736 61.8076 10.0677L16.1406 92.7039C14.9952 94.7764 16.6134 97.2912 18.9743 97.1078L128.423 88.6003C129.612 88.5081 130.696 87.8855 131.375 86.9055L175.939 22.5927Z" stroke="#CCCCCC" stroke-opacity="0.6" stroke-width="0.495714"/>
</g>
<g filter="url(#filter2_f_239_10828)">
<path d="M179.182 26.1291C179.555 23.8382 177.889 21.7182 175.575 21.5383L66.7767 13.0814C64.6808 12.9185 62.8223 14.4189 62.5398 16.5017L48.8328 117.453C48.4927 119.957 50.5504 122.136 53.0697 121.94L161.897 113.482C163.721 113.34 165.21 111.97 165.504 110.165L179.182 26.1291Z" stroke="#CCCCCC" stroke-opacity="0.8" stroke-width="0.495714"/>
</g>
<path d="M184.837 29.9048C184.543 28.0998 183.053 26.7298 181.23 26.588L72.4028 18.129C69.8831 17.9331 67.8259 20.1122 68.1655 22.6163L81.8725 123.568C82.155 125.651 84.0139 127.151 86.1093 126.988L194.908 118.531C197.222 118.351 198.888 116.231 198.515 113.94L184.837 29.9048Z" fill="#CCCCCC" fill-opacity="0.01"/>
<path fill-rule="evenodd" clip-rule="evenodd" d="M181.229 26.588C183.052 26.7298 184.542 28.0998 184.836 29.9048L198.514 113.94C198.887 116.231 197.221 118.351 194.907 118.531L86.1083 126.988C84.013 127.151 82.154 125.651 81.8715 123.568L68.1645 22.6163C67.8249 20.1122 69.8821 17.9331 72.4018 18.129L181.229 26.588ZM78.9706 29.6753C77.9439 30.2897 76.5054 29.7746 75.7573 28.5247C75.0093 27.2749 75.2349 25.7637 76.2615 25.1493C77.2876 24.5349 78.7262 25.0501 79.4742 26.2999C80.2222 27.5497 79.9967 29.0609 78.9706 29.6753ZM89.9997 29.2743C90.7477 30.5241 92.1863 31.0392 93.2124 30.4249C94.239 29.8105 94.4646 28.2993 93.7166 27.0494C92.9685 25.7996 91.53 25.2845 90.5033 25.8989C89.4772 26.5133 89.2512 28.0245 89.9997 29.2743ZM86.0915 30.0501C85.0649 30.6645 83.6268 30.1493 82.8783 28.8995C82.1302 27.6497 82.3558 26.1385 83.3824 25.5241C84.4085 24.9097 85.8471 25.4248 86.5956 26.6747C87.3437 27.9245 87.1181 29.4357 86.0915 30.0501Z" fill="url(#paint0_linear_239_10828)"/>
<mask id="mask0_239_10828" style="mask-type:luminance" maskUnits="userSpaceOnUse" x="68" y="18" width="131" height="109">
<path fill-rule="evenodd" clip-rule="evenodd" d="M181.231 26.5875C183.054 26.7293 184.544 28.0993 184.837 29.9043L198.516 113.94C198.889 116.231 197.223 118.351 194.909 118.531L86.1101 126.988C84.0147 127.15 82.1557 125.65 81.8732 123.567L68.1662 22.6158C67.8266 20.1117 69.8838 17.9326 72.4036 18.1285L181.231 26.5875ZM78.9723 29.6748C77.9456 30.2892 76.5071 29.7741 75.759 28.5242C75.011 27.2744 75.2366 25.7632 76.2632 25.1488C77.2893 24.5344 78.7279 25.0496 79.4759 26.2994C80.2239 27.5492 79.9984 29.0605 78.9723 29.6748ZM90.0014 29.2738C90.7494 30.5237 92.188 31.0388 93.2141 30.4244C94.2408 29.81 94.4663 28.2988 93.7183 27.0489C92.9702 25.7992 91.5317 25.284 90.5051 25.8984C89.4789 26.5128 89.2529 28.024 90.0014 29.2738ZM86.0932 30.0496C85.0666 30.664 83.6285 30.1488 82.88 28.8991C82.1319 27.6492 82.3575 26.138 83.3841 25.5236C84.4102 24.9092 85.8488 25.4243 86.5973 26.6742C87.3454 27.924 87.1198 29.4352 86.0932 30.0496Z" fill="white"/>
</mask>
<g mask="url(#mask0_239_10828)">
<path d="M184.348 29.984C184.091 28.4047 182.788 27.2059 181.192 27.0819L181.269 26.0935C183.32 26.2529 184.996 27.7942 185.327 29.8248L184.348 29.984ZM198.026 114.019L184.348 29.984L185.327 29.8248L199.005 113.86L198.026 114.019ZM194.87 118.037C196.895 117.879 198.353 116.024 198.026 114.019L199.005 113.86C199.424 116.438 197.55 118.823 194.947 119.025L194.87 118.037ZM86.0718 126.494L194.87 118.037L194.947 119.025L86.1486 127.482L86.0718 126.494ZM82.3643 123.501C82.6117 125.323 84.2381 126.636 86.0718 126.494L86.1486 127.482C83.791 127.665 81.7001 125.977 81.3818 123.634L82.3643 123.501ZM68.6573 22.5493L82.3643 123.501L81.3818 123.634L67.6753 22.6826L68.6573 22.5493ZM72.3648 18.6229C70.1603 18.4515 68.3599 20.3582 68.6573 22.5493L67.6753 22.6826C67.2926 19.8656 69.6071 17.4141 72.4416 17.6344L72.3648 18.6229ZM181.192 27.0819L72.3648 18.6229L72.4416 17.6344L181.269 26.0935L181.192 27.0819ZM76.1843 28.2698C76.8411 29.3669 78.0006 29.6788 78.7174 29.2496L79.2265 30.1003C77.891 30.8999 76.1734 30.1816 75.3336 28.779L76.1843 28.2698ZM76.5174 25.5743C75.8006 26.0035 75.5274 27.1727 76.1843 28.2698L75.3336 28.779C74.4944 27.3765 74.6723 25.5232 76.0083 24.7237L76.5174 25.5743ZM79.0505 26.5541C78.3942 25.4571 77.2347 25.1452 76.5174 25.5743L76.0083 24.7237C77.3442 23.9241 79.0619 24.6424 79.9011 26.045L79.0505 26.5541ZM78.7174 29.2496C79.4347 28.8205 79.7073 27.6512 79.0505 26.5541L79.9011 26.045C80.7409 27.4475 80.5624 29.3007 79.2265 30.1003L78.7174 29.2496ZM93.4688 30.8499C92.1329 31.6496 90.4152 30.9311 89.576 29.5286L90.4266 29.0194C91.0829 30.1165 92.2424 30.4284 92.9597 29.9992L93.4688 30.8499ZM94.1435 26.7945C94.9827 28.1971 94.8048 30.0503 93.4688 30.8499L92.9597 29.9992C93.6765 29.5701 93.9492 28.4008 93.2928 27.3037L94.1435 26.7945ZM90.2506 25.4732C91.5861 24.6736 93.3037 25.392 94.1435 26.7945L93.2928 27.3037C92.636 26.2066 91.4765 25.8947 90.7597 26.3239L90.2506 25.4732ZM89.576 29.5286C88.7362 28.126 88.9147 26.2728 90.2506 25.4732L90.7597 26.3239C90.0424 26.7531 89.7698 27.9223 90.4266 29.0194L89.576 29.5286ZM83.3052 28.6446C83.962 29.7417 85.1215 30.0536 85.8383 29.6244L86.3479 30.4751C85.0119 31.2747 83.2943 30.5563 82.4545 29.1538L83.3052 28.6446ZM83.6383 25.9491C82.9215 26.3782 82.6489 27.5475 83.3052 28.6446L82.4545 29.1538C81.6153 27.7512 81.7938 25.898 83.1292 25.0984L83.6383 25.9491ZM86.1714 26.9289C85.5151 25.8318 84.3556 25.5199 83.6383 25.9491L83.1292 25.0984C84.4652 24.2988 86.1828 25.0172 87.0226 26.4197L86.1714 26.9289ZM85.8383 29.6244C86.5556 29.1952 86.8282 28.026 86.1714 26.9289L87.0226 26.4197C87.8618 27.8223 87.6833 29.6755 86.3479 30.4751L85.8383 29.6244Z" fill="#AAAAAA"/>
</g>
<mask id="mask1_239_10828" style="mask-type:alpha" maskUnits="userSpaceOnUse" x="68" y="18" width="131" height="109">
<path d="M184.837 29.9043C184.544 28.0993 183.054 26.7293 181.231 26.5875L72.4036 18.1285C69.8838 17.9326 67.8266 20.1117 68.1662 22.6158L81.8732 123.567C82.1557 125.65 84.0147 127.15 86.1101 126.988L194.909 118.531C197.223 118.351 198.889 116.231 198.516 113.94L184.837 29.9043Z" fill="url(#paint1_linear_239_10828)"/>
</mask>
<g mask="url(#mask1_239_10828)">
<g filter="url(#filter3_f_239_10828)">
<path d="M201.125 64.564C184.031 85.8937 147.331 84.878 119.152 62.2953C90.9731 39.7127 81.9869 4.11464 99.0807 -17.2151C116.174 -38.5448 152.875 -37.5291 181.054 -14.9464C209.233 7.63629 218.219 43.2343 201.125 64.564Z" fill="#AAAAAA" fill-opacity="0.72"/>
</g>
</g>
<g filter="url(#filter4_f_239_10828)">
<path d="M91.9702 19.7549L178.659 26.635" stroke="url(#paint2_linear_239_10828)" stroke-width="0.991428"/>
</g>
<g filter="url(#filter5_f_239_10828)">
<path d="M196.855 105.887L184.838 29.9707" stroke="url(#paint3_linear_239_10828)" stroke-width="0.991428"/>
</g>
<g filter="url(#filter6_d_239_10828)">
<path d="M390.897 80.4191H392.071C392.085 80.4191 392.097 80.4077 392.097 80.3936C392.097 78.6239 392.468 76.8738 393.187 75.2567L393.259 75.0936C395.999 68.9286 400.929 63.9991 407.094 61.2591L407.257 61.1867C408.874 60.4679 410.624 60.0965 412.394 60.0965C412.408 60.0965 412.419 60.0851 412.419 60.071V58.8965C412.419 58.811 412.35 58.7417 412.265 58.7417H392.29C391.435 58.7417 390.742 59.4349 390.742 60.2901V80.2643C390.742 80.3498 390.811 80.4191 390.897 80.4191Z" fill="#0089FF"/>
<path d="M390.897 80.4191H392.071C392.085 80.4191 392.097 80.4077 392.097 80.3936C392.097 78.6239 392.468 76.8738 393.187 75.2567L393.259 75.0936C395.999 68.9286 400.929 63.9991 407.094 61.2591L407.257 61.1867C408.874 60.4679 410.624 60.0965 412.394 60.0965C412.408 60.0965 412.419 60.0851 412.419 60.071V58.8965C412.419 58.811 412.35 58.7417 412.265 58.7417H392.29C391.435 58.7417 390.742 59.4349 390.742 60.2901V80.2643C390.742 80.3498 390.811 80.4191 390.897 80.4191Z" stroke="#0089FF" stroke-width="1.54839"/>
</g>
<g filter="url(#filter7_d_239_10828)">
<rect x="404.677" y="72.6772" width="82.0645" height="74.3226" rx="18.5806" fill="white"/>
<rect x="405.452" y="73.4514" width="80.5161" height="72.7742" rx="17.8065" stroke="#F1F1F1" stroke-width="1.54839"/>
</g>
<path d="M418.423 103.742C417.935 103.742 417.724 103.438 417.889 102.983L422.29 90.7564C422.422 90.4001 422.659 90.2285 423.042 90.2285H424.276C424.658 90.2285 424.896 90.4001 425.028 90.7564L429.429 102.983C429.594 103.438 429.383 103.742 428.895 103.742H428.103C427.72 103.742 427.476 103.577 427.351 103.207L426.301 100.165H421.023L419.967 103.207C419.842 103.57 419.598 103.742 419.215 103.742H418.423ZM421.617 98.4499H425.708L423.715 92.683H423.609L421.617 98.4499ZM437.98 96.2989C437.597 96.3649 437.379 96.2131 437.162 95.8832C436.845 95.4147 436.297 95.0386 435.387 95.0386C434.265 95.0386 433.42 95.5929 433.427 96.3715C433.42 97.0577 433.902 97.4338 435.017 97.6977L436.627 98.0672C438.488 98.4961 439.398 99.3803 439.398 100.812C439.398 102.646 437.703 103.946 435.255 103.946C433.282 103.946 431.896 103.187 431.348 101.815C431.184 101.399 431.414 101.102 431.857 101.036L432.477 100.944C432.866 100.885 433.077 101.05 433.275 101.406C433.631 102.033 434.304 102.356 435.241 102.356C436.535 102.356 437.373 101.742 437.373 100.957C437.373 100.324 436.917 99.8883 435.941 99.6706L434.225 99.2945C432.325 98.8722 431.454 97.9155 431.454 96.477C431.454 94.6823 433.077 93.4748 435.367 93.4748C437.227 93.4748 438.395 94.2138 438.956 95.4081C439.154 95.8238 438.936 96.1273 438.488 96.2065L437.98 96.2989ZM441.753 90.8883C441.753 90.4594 441.984 90.2285 442.413 90.2285H443.066C443.495 90.2285 443.726 90.4594 443.726 90.8883V97.8957H443.898L447.606 93.9565C447.837 93.7124 448.081 93.6068 448.418 93.6068H449.183C449.764 93.6068 449.929 93.9961 449.533 94.4184L446.194 97.955L449.968 102.937C450.305 103.385 450.12 103.742 449.566 103.742H448.655C448.305 103.742 448.061 103.616 447.85 103.339L444.709 99.1625L443.726 100.146V103.082C443.726 103.511 443.495 103.742 443.066 103.742H442.413C441.984 103.742 441.753 103.511 441.753 103.082V90.8883ZM457.326 103.742C456.837 103.742 456.626 103.438 456.791 102.983L461.192 90.7564C461.324 90.4001 461.562 90.2285 461.944 90.2285H463.178C463.561 90.2285 463.798 90.4001 463.93 90.7564L468.331 102.983C468.496 103.438 468.285 103.742 467.797 103.742H467.005C466.623 103.742 466.378 103.577 466.253 103.207L465.204 100.165H459.925L458.87 103.207C458.744 103.57 458.5 103.742 458.117 103.742H457.326ZM460.519 98.4499H464.61L462.617 92.683H462.512L460.519 98.4499ZM472.778 103.082C472.778 103.511 472.547 103.742 472.118 103.742H471.399C470.97 103.742 470.739 103.511 470.739 103.082V90.8883C470.739 90.4594 470.97 90.2285 471.399 90.2285H472.118C472.547 90.2285 472.778 90.4594 472.778 90.8883V103.082Z" fill="#565A64"/>
<path d="M421.389 120.246C421.389 119.959 421.547 119.8 421.834 119.8H427.06C427.347 119.8 427.505 119.959 427.505 120.246V120.443C427.505 120.731 427.347 120.889 427.06 120.889H422.616V124.313H426.743C427.03 124.313 427.189 124.472 427.189 124.759V124.957C427.189 125.244 427.03 125.402 426.743 125.402H422.616V128.846H427.139C427.426 128.846 427.584 129.005 427.584 129.292V129.49C427.584 129.777 427.426 129.935 427.139 129.935H421.834C421.547 129.935 421.389 129.777 421.389 129.49V120.246ZM430.866 129.49C430.866 129.777 430.708 129.935 430.421 129.935H430.144C429.857 129.935 429.698 129.777 429.698 129.49V122.779C429.698 122.492 429.857 122.334 430.144 122.334H430.381C430.668 122.334 430.827 122.492 430.827 122.779V123.522H430.926C431.282 122.75 431.994 122.235 433.143 122.235C434.682 122.235 435.716 123.165 435.716 125.105V129.49C435.716 129.777 435.558 129.935 435.27 129.935H434.993C434.706 129.935 434.548 129.777 434.548 129.49V125.184C434.548 123.992 433.89 123.284 432.806 123.284C431.688 123.284 430.866 124.036 430.866 125.362V129.49ZM441.295 122.878C441.295 123.165 441.137 123.324 440.85 123.324H439.672V127.758C439.672 128.747 440.167 128.906 440.681 128.906H440.775C441.058 128.891 441.231 128.99 441.29 129.262L441.335 129.47C441.399 129.752 441.295 129.96 441.013 130.004C440.884 130.019 440.736 130.034 440.563 130.034C439.573 130.034 438.504 129.401 438.504 128.074V123.324H437.801C437.514 123.324 437.356 123.165 437.356 122.878V122.779C437.356 122.492 437.514 122.334 437.801 122.334H438.504V120.958C438.504 120.671 438.662 120.513 438.949 120.513H439.227C439.514 120.513 439.672 120.671 439.672 120.958V122.334H440.85C441.137 122.334 441.295 122.492 441.295 122.779V122.878ZM446.296 130.093C444.099 130.093 442.753 128.53 442.753 126.194C442.753 123.858 444.119 122.235 446.178 122.235C447.761 122.235 449.444 123.205 449.444 126.035V126.085C449.444 126.372 449.286 126.53 448.998 126.53H443.926C443.981 128.158 444.926 129.044 446.296 129.044C447.059 129.044 447.662 128.772 448.014 128.223C448.162 127.985 448.33 127.891 448.588 127.965L448.87 128.045C449.157 128.124 449.29 128.307 449.187 128.525C448.726 129.475 447.677 130.093 446.296 130.093ZM443.926 125.521H448.256C448.256 124.234 447.445 123.284 446.178 123.284C444.842 123.284 444.005 124.338 443.926 125.521ZM451.36 122.779C451.36 122.492 451.518 122.334 451.805 122.334H452.043C452.33 122.334 452.488 122.492 452.488 122.779V123.482H452.567C452.844 122.73 453.636 122.215 454.547 122.215H454.725C455.012 122.225 455.16 122.388 455.16 122.67V122.943C455.16 123.244 455.032 123.393 454.809 123.363C454.695 123.353 454.571 123.343 454.448 123.343C453.339 123.343 452.528 124.096 452.528 125.125V129.49C452.528 129.777 452.369 129.935 452.082 129.935H451.805C451.518 129.935 451.36 129.777 451.36 129.49V122.779Z" fill="#B0BCC9"/>
<path d="M459.903 125.742L462.483 128.322M459.903 125.742L462.483 123.161M459.903 125.742H466.922C468.078 125.742 468.656 125.742 469.098 125.517C469.486 125.319 469.802 125.003 470 124.614C470.225 124.173 470.225 123.595 470.225 122.438V122.387V122.129" stroke="#B0BCC9" stroke-width="0.774194" stroke-linecap="round" stroke-linejoin="round"/>
<defs>
<filter id="filter0_f_239_10828" x="0.768608" y="0.769096" width="175.326" height="63.7553" filterUnits="userSpaceOnUse" color-interpolation-filters="sRGB">
<feFlood flood-opacity="0" result="BackgroundImageFix"/>
<feBlend mode="normal" in="SourceGraphic" in2="BackgroundImageFix" result="shape"/>
<feGaussianBlur stdDeviation="0.991428" result="effect1_foregroundBlur_239_10828"/>
</filter>
<filter id="filter1_f_239_10828" x="14.0287" y="6.28483" width="164.357" height="92.5675" filterUnits="userSpaceOnUse" color-interpolation-filters="sRGB">
<feFlood flood-opacity="0" result="BackgroundImageFix"/>
<feBlend mode="normal" in="SourceGraphic" in2="BackgroundImageFix" result="shape"/>
<feGaussianBlur stdDeviation="0.743571" result="effect1_foregroundBlur_239_10828"/>
</filter>
<filter id="filter2_f_239_10828" x="47.5567" y="11.8299" width="132.917" height="111.362" filterUnits="userSpaceOnUse" color-interpolation-filters="sRGB">
<feFlood flood-opacity="0" result="BackgroundImageFix"/>
<feBlend mode="normal" in="SourceGraphic" in2="BackgroundImageFix" result="shape"/>
<feGaussianBlur stdDeviation="0.495714" result="effect1_foregroundBlur_239_10828"/>
</filter>
<filter id="filter3_f_239_10828" x="34.9974" y="-87.9916" width="230.211" height="223.332" filterUnits="userSpaceOnUse" color-interpolation-filters="sRGB">
<feFlood flood-opacity="0" result="BackgroundImageFix"/>
<feBlend mode="normal" in="SourceGraphic" in2="BackgroundImageFix" result="shape"/>
<feGaussianBlur stdDeviation="27.7104" result="effect1_foregroundBlur_239_10828"/>
</filter>
<filter id="filter4_f_239_10828" x="89.4523" y="16.7822" width="91.7247" height="12.8253" filterUnits="userSpaceOnUse" color-interpolation-filters="sRGB">
<feFlood flood-opacity="0" result="BackgroundImageFix"/>
<feBlend mode="normal" in="SourceGraphic" in2="BackgroundImageFix" result="shape"/>
<feGaussianBlur stdDeviation="1.23929" result="effect1_foregroundBlur_239_10828"/>
</filter>
<filter id="filter5_f_239_10828" x="181.87" y="27.4145" width="17.953" height="81.0289" filterUnits="userSpaceOnUse" color-interpolation-filters="sRGB">
<feFlood flood-opacity="0" result="BackgroundImageFix"/>
<feBlend mode="normal" in="SourceGraphic" in2="BackgroundImageFix" result="shape"/>
<feGaussianBlur stdDeviation="1.23929" result="effect1_foregroundBlur_239_10828"/>
</filter>
<filter id="filter6_d_239_10828" x="377.581" y="47.1286" width="48" height="48.0003" filterUnits="userSpaceOnUse" color-interpolation-filters="sRGB">
<feFlood flood-opacity="0" result="BackgroundImageFix"/>
<feColorMatrix in="SourceAlpha" type="matrix" values="0 0 0 0 0 0 0 0 0 0 0 0 0 0 0 0 0 0 127 0" result="hardAlpha"/>
<feOffset dy="1.54839"/>
<feGaussianBlur stdDeviation="6.19355"/>
<feComposite in2="hardAlpha" operator="out"/>
<feColorMatrix type="matrix" values="0 0 0 0 0.133333 0 0 0 0 0.133333 0 0 0 0 0.133333 0 0 0 0.1 0"/>
<feBlend mode="normal" in2="BackgroundImageFix" result="effect1_dropShadow_239_10828"/>
<feBlend mode="normal" in="SourceGraphic" in2="effect1_dropShadow_239_10828" result="shape"/>
</filter>
<filter id="filter7_d_239_10828" x="398.484" y="68.0321" width="94.4518" height="86.7099" filterUnits="userSpaceOnUse" color-interpolation-filters="sRGB">
<feFlood flood-opacity="0" result="BackgroundImageFix"/>
<feColorMatrix in="SourceAlpha" type="matrix" values="0 0 0 0 0 0 0 0 0 0 0 0 0 0 0 0 0 0 127 0" result="hardAlpha"/>
<feOffset dy="1.54839"/>
<feGaussianBlur stdDeviation="3.09677"/>
<feComposite in2="hardAlpha" operator="out"/>
<feColorMatrix type="matrix" values="0 0 0 0 0.133333 0 0 0 0 0.133333 0 0 0 0 0.133333 0 0 0 0.05 0"/>
<feBlend mode="normal" in2="BackgroundImageFix" result="effect1_dropShadow_239_10828"/>
<feBlend mode="normal" in="SourceGraphic" in2="effect1_dropShadow_239_10828" result="shape"/>
</filter>
<linearGradient id="paint0_linear_239_10828" x1="154.388" y1="-269.389" x2="64.0842" y2="124.061" gradientUnits="userSpaceOnUse">
<stop offset="0.135623" stop-color="#777777"/>
<stop offset="1" stop-color="#777777" stop-opacity="0"/>
</linearGradient>
<linearGradient id="paint1_linear_239_10828" x1="214.051" y1="17.7827" x2="59.692" y2="91.9947" gradientUnits="userSpaceOnUse">
<stop offset="0.254931" stop-color="#FE3F61"/>
<stop offset="1" stop-color="#912639"/>
</linearGradient>
<linearGradient id="paint2_linear_239_10828" x1="99.6131" y1="20.0228" x2="202.016" y2="28.7546" gradientUnits="userSpaceOnUse">
<stop stop-color="#999999" stop-opacity="0"/>
<stop offset="0.481897" stop-color="white"/>
<stop offset="0.716693" stop-color="#999999" stop-opacity="0"/>
</linearGradient>
<linearGradient id="paint3_linear_239_10828" x1="195.78" y1="97.2229" x2="178.812" y2="-4.14128" gradientUnits="userSpaceOnUse">
<stop stop-color="#999999" stop-opacity="0"/>
<stop offset="0.481897" stop-color="white"/>
<stop offset="0.716693" stop-color="#999999" stop-opacity="0"/>
</linearGradient>
</defs>
</svg>
