<svg width="444" height="142" viewBox="0 0 444 142" fill="none" xmlns="http://www.w3.org/2000/svg">
<mask id="mask0_38_1151" style="mask-type:luminance" maskUnits="userSpaceOnUse" x="0" y="0" width="444" height="444">
<path d="M444 0H0V444H444V0Z" fill="white"/>
</mask>
<g mask="url(#mask0_38_1151)">
<path d="M222.694 43.0122C246.108 43.0122 269.292 47.6238 290.924 56.584C312.555 65.5441 332.211 78.6771 348.766 95.2333C365.323 111.789 378.456 131.444 387.416 153.076C396.376 174.708 400.988 197.892 400.988 221.306C400.988 244.72 396.376 267.904 387.416 289.536C378.456 311.167 365.323 330.823 348.766 347.378C332.211 363.935 312.555 377.068 290.924 386.029C269.292 394.988 246.108 399.6 222.694 399.6" stroke="#1FC16B" stroke-width="68.1561"/>
<path d="M222.694 399.6C199.28 399.6 176.096 394.988 154.464 386.029C132.832 377.068 113.178 363.935 96.6215 347.378C80.0652 330.823 66.9323 311.167 57.9722 289.536C49.012 267.904 44.4004 244.72 44.4004 221.306C44.4004 197.892 49.0122 174.707 57.9722 153.076C66.9323 131.444 80.0654 111.789 96.6215 95.2331C113.178 78.6771 132.833 65.5441 154.464 56.584C176.096 47.6238 199.28 43.0122 222.694 43.0122" stroke="#E7F8EB" stroke-width="69.547"/>
<path d="M222.694 4.1626V88.8001" stroke="#FCFCFB" stroke-width="2.78188"/>
<path d="M118.428 366.274C137.395 380.003 158.88 389.86 181.657 395.287C204.433 400.712 228.055 401.598 251.175 397.893C274.294 394.19 296.457 385.968 316.399 373.7C336.34 361.429 353.67 345.353 367.399 326.386C381.127 307.419 390.986 285.934 396.412 263.158C401.836 240.381 402.723 216.759 399.018 193.64C395.314 170.521 387.093 148.358 374.824 128.416C362.554 108.474 346.478 91.1447 327.511 77.416" stroke="#E7F8EB" stroke-width="69.547"/>
<path opacity="0.99" d="M352.19 51.6023C353.762 49.4297 353.276 46.3936 351.103 44.8211C348.931 43.2485 345.895 43.7349 344.322 45.9075L302.831 103.23C301.258 105.402 301.745 108.438 303.917 110.011C306.09 111.583 309.126 111.097 310.699 108.924L352.19 51.6023Z" fill="#1FC16B" stroke="#FCFCFB" stroke-width="2.78188"/>
</g>
</svg>
