<svg width="568" height="150" viewBox="0 0 568 150" fill="none" xmlns="http://www.w3.org/2000/svg">
<g clip-path="url(#clip0_474_2052)">
<rect x="0.217529" y="22.2588" width="601.291" height="0.636489" fill="url(#paint0_linear_474_2052)"/>
<rect x="0.217529" y="63.916" width="601.291" height="0.636489" fill="url(#paint1_linear_474_2052)"/>
<rect x="0.232666" y="105.575" width="601.284" height="0.636489" fill="url(#paint2_linear_474_2052)"/>
<rect x="0.217529" y="147.239" width="601.291" height="0.636489" fill="url(#paint3_linear_474_2052)"/>
<rect x="381.8" y="-102.404" width="1.90947" height="250" rx="0.954733" fill="#F2F2F2"/>
<path d="M-23.5007 129.741H8.20219L39.9051 106.65H71.0417L102.179 94.4065L133.316 106.65L164.452 83.9585L195.589 44.5288L226.726 23.3255H257.863L288.999 45.6449H320.136L351.273 23.3255H382.409L413.546 -17.9644H444.683L475.82 -59.6263L506.957 -79.7132H538.094L569.796 -101.66H601.5" stroke="url(#paint4_linear_474_2052)" stroke-width="1.4881"/>
<path d="M382.748 28.5329C385.624 28.5329 387.956 26.2011 387.956 23.3246C387.956 20.4481 385.624 18.1162 382.748 18.1162C379.871 18.1162 377.54 20.4481 377.54 23.3246C377.54 26.2011 379.871 28.5329 382.748 28.5329Z" fill="white" stroke="black" stroke-opacity="0.08" stroke-width="0.744051"/>
<path d="M382.749 26.301C384.392 26.301 385.725 24.9685 385.725 23.3248C385.725 21.6811 384.392 20.3486 382.749 20.3486C381.105 20.3486 379.772 21.6811 379.772 23.3248C379.772 24.9685 381.105 26.301 382.749 26.301Z" fill="#7D52F4"/>
<path d="M-23.5093 146.853H8.19455L39.8984 138.642H71.0359L102.174 132.319L133.312 124.879L164.449 131.947L195.587 124.879L226.724 103.679L257.862 118.557L289 103.679L320.138 118.557L351.275 88.8007H382.413L413.55 105.538H444.688L475.826 72.8069L506.964 60.1607H538.102L569.805 38.2158H601.509" stroke="url(#paint5_linear_474_2052)" stroke-width="1.48814"/>
<path d="M382.75 94.0098C385.627 94.0098 387.959 91.6779 387.959 88.8013C387.959 85.9247 385.627 83.5928 382.75 83.5928C379.874 83.5928 377.542 85.9247 377.542 88.8013C377.542 91.6779 379.874 94.0098 382.75 94.0098Z" fill="white" stroke="black" stroke-opacity="0.08" stroke-width="0.744072"/>
<path d="M382.751 91.7778C384.395 91.7778 385.727 90.4452 385.727 88.8015C385.727 87.1577 384.395 85.8252 382.751 85.8252C381.107 85.8252 379.775 87.1577 379.775 88.8015C379.775 90.4452 381.107 91.7778 382.751 91.7778Z" fill="#FFCF7B"/>
<g filter="url(#filter0_dddd_474_2052)">
<rect x="393" y="47" width="133" height="84" rx="8" fill="white"/>
<rect x="393.5" y="47.5" width="132" height="83" rx="7.5" stroke="#F2F2F2"/>
<path d="M406.237 56.2727C406.514 56.2727 406.663 56.4219 406.663 56.6989V62.4602C406.659 64.1392 405.611 65.1193 404.009 65.1193C402.688 65.1193 401.661 64.4588 401.456 63.2614C401.409 62.9801 401.584 62.8182 401.865 62.8182H402.338C402.598 62.8182 402.709 62.9545 402.79 63.206C402.952 63.7045 403.42 64.0028 404.043 64.0028C404.878 64.0028 405.347 63.4659 405.351 62.4602V56.6989C405.351 56.4219 405.5 56.2727 405.777 56.2727H406.237ZM412.624 58.8807C412.624 58.6037 412.773 58.4545 413.05 58.4545H413.476C413.753 58.4545 413.902 58.6037 413.902 58.8807V64.5739C413.902 64.8509 413.753 65 413.476 65H413.076C412.799 65 412.65 64.8509 412.65 64.5739V63.8665H412.581C412.279 64.5653 411.61 65.0852 410.625 65.0852C409.368 65.0852 408.478 64.2415 408.478 62.6179V58.8807C408.478 58.6037 408.627 58.4545 408.904 58.4545H409.326C409.603 58.4545 409.752 58.6037 409.752 58.8807V62.4645C409.752 63.3551 410.297 63.9261 411.086 63.9261C411.801 63.9261 412.628 63.3977 412.624 62.2855V58.8807ZM416.888 64.5739C416.888 64.8509 416.739 65 416.462 65H416.04C415.763 65 415.614 64.8509 415.614 64.5739V58.8807C415.614 58.6037 415.763 58.4545 416.04 58.4545H416.411C416.688 58.4545 416.837 58.6037 416.837 58.8807V59.5199H416.918C417.221 58.8253 417.864 58.3693 418.849 58.3693C420.187 58.3693 421.077 59.2173 421.077 60.8366V64.5739C421.077 64.8509 420.928 65 420.651 65H420.229C419.952 65 419.803 64.8509 419.803 64.5739V60.9901C419.803 60.0398 419.279 59.473 418.414 59.473C417.528 59.473 416.888 60.0696 416.888 61.1136V64.5739ZM425.607 65.1321C423.677 65.1321 422.492 63.8026 422.492 61.7699C422.492 59.7585 423.694 58.3693 425.518 58.3693C427.001 58.3693 428.415 59.294 428.415 61.6591V61.6847C428.415 61.9616 428.266 62.1108 427.989 62.1108H423.762C423.796 63.3722 424.529 64.0795 425.62 64.0795C426.204 64.0795 426.677 63.875 426.958 63.4744C427.103 63.2614 427.248 63.1634 427.495 63.2102L427.87 63.2784C428.16 63.3338 428.305 63.5 428.207 63.7173C427.806 64.5824 426.869 65.1321 425.607 65.1321ZM423.766 61.1562H427.167C427.163 60.1548 426.515 59.4219 425.526 59.4219C424.491 59.4219 423.817 60.2273 423.766 61.1562ZM436.299 64.5739C436.299 64.8509 436.15 65 435.873 65H435.404C435.127 65 434.978 64.8509 434.978 64.5739V57.5938H434.927L433.354 58.6207C433.065 58.8125 432.839 58.6889 432.839 58.3438V58.0284C432.839 57.7983 432.924 57.6406 433.116 57.5128L434.773 56.4304C434.948 56.3196 435.102 56.2727 435.306 56.2727H435.873C436.15 56.2727 436.299 56.4219 436.299 56.6989V64.5739ZM438.66 64.3523C438.66 64.1349 438.724 63.9815 438.873 63.8239L441.613 60.9858C442.55 59.9929 443.011 59.4389 443.011 58.6676C443.011 57.7983 442.337 57.2528 441.451 57.2528C440.654 57.2528 440.096 57.6918 439.947 58.3991C439.891 58.6634 439.768 58.804 439.504 58.804H439.094C438.813 58.804 438.643 58.6463 438.685 58.3608C438.886 57.0185 440.002 56.1534 441.477 56.1534C443.121 56.1534 444.263 57.2273 444.263 58.6293C444.263 59.6051 443.808 60.3764 442.21 61.9915L440.475 63.8068V63.8707H443.978C444.255 63.8707 444.404 64.0199 444.404 64.2969V64.5739C444.404 64.8509 444.255 65 443.978 65H439.086C438.809 65 438.66 64.8509 438.66 64.5739V64.3523ZM447.63 64.2713C447.519 65.1236 447.191 66.1506 446.965 66.794C446.88 67.0241 446.727 67.1307 446.479 67.1307H446.42C446.121 67.1307 445.977 66.956 446.04 66.6662C446.173 66.0611 446.347 65.1705 446.424 64.2841L446.428 64.2116C446.454 63.9474 446.607 63.8068 446.876 63.8068H447.234C447.523 63.8068 447.668 63.9773 447.63 64.2628V64.2713ZM452.511 64.3523C452.511 64.1349 452.575 63.9815 452.724 63.8239L455.464 60.9858C456.402 59.9929 456.862 59.4389 456.862 58.6676C456.862 57.7983 456.189 57.2528 455.303 57.2528C454.506 57.2528 453.947 57.6918 453.798 58.3991C453.743 58.6634 453.619 58.804 453.355 58.804H452.946C452.665 58.804 452.494 58.6463 452.537 58.3608C452.737 57.0185 453.854 56.1534 455.328 56.1534C456.973 56.1534 458.115 57.2273 458.115 58.6293C458.115 59.6051 457.659 60.3764 456.061 61.9915L454.327 63.8068V63.8707H457.83C458.107 63.8707 458.256 64.0199 458.256 64.2969V64.5739C458.256 64.8509 458.107 65 457.83 65H452.938C452.661 65 452.511 64.8509 452.511 64.5739V64.3523ZM462.909 65.1449C460.889 65.1406 459.709 63.4957 459.709 60.6406C459.713 57.7983 460.906 56.1534 462.909 56.1534C464.908 56.1534 466.105 57.8026 466.105 60.6406C466.105 63.5 464.925 65.1449 462.909 65.1449ZM461.017 60.6406C461.017 62.8224 461.729 64.0071 462.909 64.0071C464.085 64.0071 464.797 62.8224 464.797 60.6406C464.797 58.4673 464.081 57.2699 462.909 57.2699C461.733 57.2699 461.021 58.4673 461.017 60.6406ZM467.617 64.3523C467.617 64.1349 467.681 63.9815 467.83 63.8239L470.57 60.9858C471.507 59.9929 471.968 59.4389 471.968 58.6676C471.968 57.7983 471.294 57.2528 470.408 57.2528C469.611 57.2528 469.053 57.6918 468.904 58.3991C468.848 58.6634 468.725 58.804 468.461 58.804H468.051C467.77 58.804 467.6 58.6463 467.642 58.3608C467.843 57.0185 468.959 56.1534 470.434 56.1534C472.078 56.1534 473.221 57.2273 473.221 58.6293C473.221 59.6051 472.765 60.3764 471.167 61.9915L469.432 63.8068V63.8707H472.935C473.212 63.8707 473.361 64.0199 473.361 64.2969V64.5739C473.361 64.8509 473.212 65 472.935 65H468.043C467.766 65 467.617 64.8509 467.617 64.5739V64.3523ZM477.857 65.1193C476.434 65.1193 475.326 64.3267 475.057 63.1761C474.993 62.8906 475.164 62.7244 475.453 62.7244H475.897C476.152 62.7244 476.267 62.8523 476.365 63.0952C476.583 63.6449 477.158 64.0114 477.857 64.0114C478.858 64.0114 479.587 63.2528 479.587 62.2045C479.587 61.1392 478.837 60.3636 477.801 60.3551C477.388 60.3551 476.941 60.4787 476.608 60.6705C476.417 60.7812 476.267 60.8366 476.05 60.8026L475.564 60.7301C475.296 60.6918 475.168 60.5213 475.198 60.2528L475.598 56.6733C475.628 56.4048 475.782 56.2727 476.046 56.2727H480.013C480.29 56.2727 480.439 56.4219 480.439 56.6989V56.9759C480.439 57.2528 480.29 57.402 480.013 57.402H476.736L476.459 59.8438H476.51C476.851 59.5114 477.452 59.2642 478.1 59.2642C479.689 59.2642 480.865 60.4915 480.861 62.179C480.865 63.8793 479.613 65.1193 477.857 65.1193Z" fill="#17181A"/>
<path d="M401 77H518" stroke="#F4F4F4"/>
<path d="M405.5 91C405.5 89.8954 406.395 89 407.5 89H411.5C412.605 89 413.5 89.8954 413.5 91V95C413.5 96.1046 412.605 97 411.5 97H407.5C406.395 97 405.5 96.1046 405.5 95V91Z" fill="#7D52F4"/>
<path d="M424.08 89.2102V88.2727H430.625V89.2102H427.881V97H426.824V89.2102H424.08ZM433.125 93.0625V97H432.12V88.2727H433.125V91.4773H433.211C433.364 91.1392 433.594 90.8707 433.901 90.6719C434.211 90.4702 434.623 90.3693 435.137 90.3693C435.583 90.3693 435.973 90.4588 436.309 90.6378C436.644 90.8139 436.904 91.0852 437.088 91.4517C437.276 91.8153 437.37 92.2784 437.37 92.8409V97H436.364V92.9091C436.364 92.3892 436.229 91.9872 435.959 91.7031C435.692 91.4162 435.321 91.2727 434.847 91.2727C434.517 91.2727 434.222 91.3423 433.961 91.4815C433.702 91.6207 433.498 91.8239 433.347 92.0909C433.199 92.358 433.125 92.6818 433.125 93.0625ZM439.21 97V90.4545H440.215V97H439.21ZM439.721 89.3636C439.525 89.3636 439.356 89.2969 439.214 89.1634C439.075 89.0298 439.005 88.8693 439.005 88.6818C439.005 88.4943 439.075 88.3338 439.214 88.2003C439.356 88.0668 439.525 88 439.721 88C439.917 88 440.085 88.0668 440.224 88.2003C440.366 88.3338 440.437 88.4943 440.437 88.6818C440.437 88.8693 440.366 89.0298 440.224 89.1634C440.085 89.2969 439.917 89.3636 439.721 89.3636ZM446.694 91.9205L445.79 92.1761C445.733 92.0256 445.65 91.8793 445.539 91.7372C445.431 91.5923 445.283 91.473 445.096 91.3793C444.908 91.2855 444.668 91.2386 444.375 91.2386C443.975 91.2386 443.641 91.331 443.374 91.5156C443.11 91.6974 442.978 91.929 442.978 92.2102C442.978 92.4602 443.069 92.6577 443.25 92.8026C443.432 92.9474 443.716 93.0682 444.103 93.1648L445.074 93.4034C445.659 93.5455 446.096 93.7628 446.382 94.0554C446.669 94.3452 446.813 94.7187 446.813 95.1761C446.813 95.5511 446.705 95.8864 446.489 96.1818C446.276 96.4773 445.978 96.7102 445.594 96.8807C445.211 97.0511 444.765 97.1364 444.256 97.1364C443.588 97.1364 443.036 96.9915 442.598 96.7017C442.161 96.4119 441.884 95.9886 441.767 95.4318L442.722 95.1932C442.813 95.5455 442.985 95.8097 443.238 95.9858C443.493 96.1619 443.827 96.25 444.239 96.25C444.708 96.25 445.08 96.1506 445.355 95.9517C445.634 95.75 445.773 95.5085 445.773 95.2273C445.773 95 445.694 94.8097 445.534 94.6562C445.375 94.5 445.131 94.3835 444.801 94.3068L443.711 94.0511C443.111 93.9091 442.671 93.6889 442.39 93.3906C442.111 93.0895 441.972 92.7131 441.972 92.2614C441.972 91.892 442.076 91.5653 442.283 91.2812C442.493 90.9972 442.779 90.7741 443.14 90.6122C443.503 90.4503 443.915 90.3693 444.375 90.3693C445.023 90.3693 445.532 90.5114 445.901 90.7955C446.273 91.0795 446.537 91.4545 446.694 91.9205ZM451.702 97V90.4545H452.673V91.4773H452.759C452.895 91.1278 453.115 90.8565 453.419 90.6634C453.723 90.4673 454.088 90.3693 454.514 90.3693C454.946 90.3693 455.305 90.4673 455.592 90.6634C455.882 90.8565 456.108 91.1278 456.27 91.4773H456.338C456.506 91.1392 456.757 90.8707 457.092 90.6719C457.428 90.4702 457.83 90.3693 458.298 90.3693C458.884 90.3693 459.362 90.5526 459.734 90.919C460.107 91.2827 460.293 91.8494 460.293 92.6193V97H459.287V92.6193C459.287 92.1364 459.155 91.7912 458.891 91.5838C458.626 91.3764 458.315 91.2727 457.957 91.2727C457.497 91.2727 457.141 91.4119 456.888 91.6903C456.635 91.9659 456.509 92.3153 456.509 92.7386V97H455.486V92.517C455.486 92.1449 455.365 91.8452 455.124 91.6179C454.882 91.3878 454.571 91.2727 454.19 91.2727C453.929 91.2727 453.685 91.3423 453.457 91.4815C453.233 91.6207 453.051 91.8139 452.912 92.0611C452.776 92.3054 452.707 92.5881 452.707 92.9091V97H451.702ZM464.79 97.1364C464.2 97.1364 463.681 96.9957 463.235 96.7145C462.792 96.4332 462.445 96.0398 462.195 95.5341C461.948 95.0284 461.825 94.4375 461.825 93.7614C461.825 93.0795 461.948 92.4844 462.195 91.9759C462.445 91.4673 462.792 91.0724 463.235 90.7912C463.681 90.5099 464.2 90.3693 464.79 90.3693C465.381 90.3693 465.898 90.5099 466.342 90.7912C466.788 91.0724 467.134 91.4673 467.381 91.9759C467.631 92.4844 467.756 93.0795 467.756 93.7614C467.756 94.4375 467.631 95.0284 467.381 95.5341C467.134 96.0398 466.788 96.4332 466.342 96.7145C465.898 96.9957 465.381 97.1364 464.79 97.1364ZM464.79 96.233C465.239 96.233 465.609 96.1179 465.898 95.8878C466.188 95.6577 466.403 95.3551 466.542 94.9801C466.681 94.6051 466.751 94.1989 466.751 93.7614C466.751 93.3239 466.681 92.9162 466.542 92.5384C466.403 92.1605 466.188 91.8551 465.898 91.6222C465.609 91.3892 465.239 91.2727 464.79 91.2727C464.342 91.2727 463.972 91.3892 463.683 91.6222C463.393 91.8551 463.178 92.1605 463.039 92.5384C462.9 92.9162 462.83 93.3239 462.83 93.7614C462.83 94.1989 462.9 94.6051 463.039 94.9801C463.178 95.3551 463.393 95.6577 463.683 95.8878C463.972 96.1179 464.342 96.233 464.79 96.233ZM470.297 93.0625V97H469.292V90.4545H470.263V91.4773H470.348C470.502 91.1449 470.735 90.8778 471.047 90.6761C471.36 90.4716 471.763 90.3693 472.257 90.3693C472.701 90.3693 473.088 90.4602 473.421 90.642C473.753 90.821 474.012 91.0938 474.196 91.4602C474.381 91.8239 474.473 92.2841 474.473 92.8409V97H473.468V92.9091C473.468 92.3949 473.334 91.9943 473.067 91.7074C472.8 91.4176 472.434 91.2727 471.968 91.2727C471.647 91.2727 471.36 91.3423 471.107 91.4815C470.857 91.6207 470.659 91.8239 470.515 92.0909C470.37 92.358 470.297 92.6818 470.297 93.0625ZM479.158 90.4545V91.3068H475.766V90.4545H479.158ZM476.754 88.8864H477.76V95.125C477.76 95.4091 477.801 95.6222 477.884 95.7642C477.969 95.9034 478.077 95.9972 478.207 96.0455C478.341 96.0909 478.482 96.1136 478.629 96.1136C478.74 96.1136 478.831 96.108 478.902 96.0966C478.973 96.0824 479.03 96.071 479.072 96.0625L479.277 96.9659C479.209 96.9915 479.114 97.017 478.991 97.0426C478.869 97.071 478.714 97.0852 478.527 97.0852C478.243 97.0852 477.964 97.0241 477.692 96.902C477.422 96.7798 477.197 96.5938 477.018 96.3438C476.842 96.0938 476.754 95.7784 476.754 95.3977V88.8864ZM481.817 93.0625V97H480.811V88.2727H481.817V91.4773H481.902C482.055 91.1392 482.286 90.8707 482.592 90.6719C482.902 90.4702 483.314 90.3693 483.828 90.3693C484.274 90.3693 484.665 90.4588 485 90.6378C485.335 90.8139 485.595 91.0852 485.78 91.4517C485.967 91.8153 486.061 92.2784 486.061 92.8409V97H485.055V92.9091C485.055 92.3892 484.92 91.9872 484.651 91.7031C484.384 91.4162 484.013 91.2727 483.538 91.2727C483.209 91.2727 482.913 91.3423 482.652 91.4815C482.393 91.6207 482.189 91.8239 482.038 92.0909C481.891 92.358 481.817 92.6818 481.817 93.0625Z" fill="#979797"/>
<path d="M494.676 97L498.58 89.2784V89.2102H494.08V88.2727H499.67V89.2614L495.784 97H494.676ZM501.259 97V96.233L504.14 93.0795C504.478 92.7102 504.756 92.3892 504.975 92.1165C505.194 91.8409 505.355 91.5824 505.461 91.3409C505.569 91.0966 505.623 90.8409 505.623 90.5739C505.623 90.267 505.549 90.0014 505.401 89.777C505.256 89.5526 505.057 89.3793 504.804 89.2571C504.551 89.1349 504.267 89.0739 503.952 89.0739C503.617 89.0739 503.324 89.1435 503.074 89.2827C502.827 89.419 502.635 89.6108 502.499 89.858C502.365 90.1051 502.299 90.3949 502.299 90.7273H501.293C501.293 90.2159 501.411 89.767 501.647 89.3807C501.882 88.9943 502.203 88.6932 502.61 88.4773C503.019 88.2614 503.478 88.1534 503.986 88.1534C504.498 88.1534 504.951 88.2614 505.346 88.4773C505.74 88.6932 506.05 88.9844 506.275 89.3509C506.499 89.7173 506.611 90.125 506.611 90.5739C506.611 90.8949 506.553 91.2088 506.436 91.5156C506.323 91.8196 506.124 92.1591 505.84 92.5341C505.559 92.9062 505.168 93.3608 504.668 93.8977L502.708 95.9943V96.0625H506.765V97H501.259ZM512.973 95.3636V94.9034C512.973 94.5852 513.039 94.294 513.169 94.0298C513.303 93.7628 513.496 93.5497 513.749 93.3906C514.005 93.2287 514.314 93.1477 514.678 93.1477C515.047 93.1477 515.357 93.2287 515.607 93.3906C515.857 93.5497 516.046 93.7628 516.174 94.0298C516.301 94.294 516.365 94.5852 516.365 94.9034V95.3636C516.365 95.6818 516.3 95.9744 516.169 96.2415C516.042 96.5057 515.851 96.7187 515.598 96.8807C515.348 97.0398 515.042 97.1193 514.678 97.1193C514.309 97.1193 513.998 97.0398 513.745 96.8807C513.492 96.7187 513.3 96.5057 513.169 96.2415C513.039 95.9744 512.973 95.6818 512.973 95.3636ZM513.843 94.9034V95.3636C513.843 95.6278 513.905 95.8651 514.03 96.0753C514.155 96.2827 514.371 96.3864 514.678 96.3864C514.976 96.3864 515.186 96.2827 515.309 96.0753C515.434 95.8651 515.496 95.6278 515.496 95.3636V94.9034C515.496 94.6392 515.436 94.4034 515.317 94.196C515.198 93.9858 514.985 93.8807 514.678 93.8807C514.38 93.8807 514.165 93.9858 514.034 94.196C513.907 94.4034 513.843 94.6392 513.843 94.9034ZM508.627 90.3693V89.9091C508.627 89.5909 508.692 89.2997 508.823 89.0355C508.956 88.7685 509.15 88.5554 509.402 88.3963C509.658 88.2344 509.968 88.1534 510.331 88.1534C510.701 88.1534 511.01 88.2344 511.26 88.3963C511.51 88.5554 511.699 88.7685 511.827 89.0355C511.955 89.2997 512.019 89.5909 512.019 89.9091V90.3693C512.019 90.6875 511.953 90.9801 511.823 91.2472C511.695 91.5114 511.505 91.7244 511.252 91.8864C511.002 92.0455 510.695 92.125 510.331 92.125C509.962 92.125 509.651 92.0455 509.398 91.8864C509.145 91.7244 508.953 91.5114 508.823 91.2472C508.692 90.9801 508.627 90.6875 508.627 90.3693ZM509.496 89.9091V90.3693C509.496 90.6335 509.559 90.8707 509.684 91.081C509.809 91.2884 510.025 91.392 510.331 91.392C510.63 91.392 510.84 91.2884 510.962 91.081C511.087 90.8707 511.15 90.6335 511.15 90.3693V89.9091C511.15 89.6449 511.09 89.4091 510.971 89.2017C510.851 88.9915 510.638 88.8864 510.331 88.8864C510.033 88.8864 509.819 88.9915 509.688 89.2017C509.56 89.4091 509.496 89.6449 509.496 89.9091ZM508.951 97L514.951 88.2727H515.922L509.922 97H508.951Z" fill="#777777"/>
<path d="M405 115C405 113.895 405.895 113 407 113H411C412.105 113 413 113.895 413 115V119C413 120.105 412.105 121 411 121H407C405.895 121 405 120.105 405 119V115Z" fill="#FFCF7B"/>
<path d="M424.057 121V112.273H425.114V120.062H429.17V121H424.057ZM432.597 121.153C432.182 121.153 431.805 121.075 431.467 120.919C431.129 120.76 430.861 120.531 430.662 120.233C430.463 119.932 430.364 119.568 430.364 119.142C430.364 118.767 430.438 118.463 430.585 118.23C430.733 117.994 430.93 117.81 431.178 117.676C431.425 117.543 431.697 117.443 431.996 117.378C432.297 117.31 432.599 117.256 432.903 117.216C433.301 117.165 433.624 117.126 433.871 117.101C434.121 117.072 434.303 117.026 434.416 116.96C434.533 116.895 434.591 116.781 434.591 116.619V116.585C434.591 116.165 434.476 115.838 434.246 115.605C434.018 115.372 433.673 115.256 433.21 115.256C432.73 115.256 432.354 115.361 432.081 115.571C431.808 115.781 431.616 116.006 431.506 116.244L430.551 115.903C430.722 115.506 430.949 115.196 431.233 114.974C431.52 114.75 431.832 114.594 432.17 114.506C432.511 114.415 432.847 114.369 433.176 114.369C433.386 114.369 433.628 114.395 433.901 114.446C434.176 114.494 434.442 114.595 434.697 114.749C434.956 114.902 435.17 115.134 435.341 115.443C435.511 115.753 435.597 116.168 435.597 116.688V121H434.591V120.114H434.54C434.472 120.256 434.358 120.408 434.199 120.57C434.04 120.732 433.828 120.869 433.564 120.983C433.3 121.097 432.977 121.153 432.597 121.153ZM432.75 120.25C433.148 120.25 433.483 120.172 433.756 120.016C434.031 119.859 434.239 119.658 434.378 119.411C434.52 119.163 434.591 118.903 434.591 118.631V117.71C434.548 117.761 434.455 117.808 434.31 117.851C434.168 117.891 434.003 117.926 433.815 117.957C433.631 117.986 433.45 118.011 433.274 118.034C433.101 118.054 432.96 118.071 432.852 118.085C432.591 118.119 432.347 118.175 432.119 118.251C431.895 118.325 431.713 118.437 431.574 118.588C431.438 118.736 431.369 118.937 431.369 119.193C431.369 119.543 431.499 119.807 431.757 119.986C432.018 120.162 432.349 120.25 432.75 120.25ZM442.069 115.92L441.165 116.176C441.108 116.026 441.025 115.879 440.914 115.737C440.806 115.592 440.658 115.473 440.471 115.379C440.283 115.286 440.043 115.239 439.75 115.239C439.35 115.239 439.016 115.331 438.749 115.516C438.485 115.697 438.353 115.929 438.353 116.21C438.353 116.46 438.444 116.658 438.625 116.803C438.807 116.947 439.091 117.068 439.478 117.165L440.449 117.403C441.034 117.545 441.471 117.763 441.757 118.055C442.044 118.345 442.188 118.719 442.188 119.176C442.188 119.551 442.08 119.886 441.864 120.182C441.651 120.477 441.353 120.71 440.969 120.881C440.586 121.051 440.14 121.136 439.631 121.136C438.963 121.136 438.411 120.991 437.973 120.702C437.536 120.412 437.259 119.989 437.142 119.432L438.097 119.193C438.188 119.545 438.36 119.81 438.613 119.986C438.868 120.162 439.202 120.25 439.614 120.25C440.083 120.25 440.455 120.151 440.73 119.952C441.009 119.75 441.148 119.509 441.148 119.227C441.148 119 441.069 118.81 440.909 118.656C440.75 118.5 440.506 118.384 440.176 118.307L439.086 118.051C438.486 117.909 438.046 117.689 437.765 117.391C437.486 117.089 437.347 116.713 437.347 116.261C437.347 115.892 437.451 115.565 437.658 115.281C437.868 114.997 438.154 114.774 438.515 114.612C438.878 114.45 439.29 114.369 439.75 114.369C440.398 114.369 440.907 114.511 441.276 114.795C441.648 115.08 441.912 115.455 442.069 115.92ZM446.548 114.455V115.307H443.156V114.455H446.548ZM444.145 112.886H445.151V119.125C445.151 119.409 445.192 119.622 445.274 119.764C445.359 119.903 445.467 119.997 445.598 120.045C445.732 120.091 445.872 120.114 446.02 120.114C446.131 120.114 446.222 120.108 446.293 120.097C446.364 120.082 446.42 120.071 446.463 120.062L446.668 120.966C446.599 120.991 446.504 121.017 446.382 121.043C446.26 121.071 446.105 121.085 445.918 121.085C445.634 121.085 445.355 121.024 445.082 120.902C444.813 120.78 444.588 120.594 444.409 120.344C444.233 120.094 444.145 119.778 444.145 119.398V112.886ZM451.436 121V114.455H452.408V115.477H452.493C452.629 115.128 452.849 114.857 453.153 114.663C453.457 114.467 453.822 114.369 454.249 114.369C454.68 114.369 455.04 114.467 455.327 114.663C455.616 114.857 455.842 115.128 456.004 115.477H456.072C456.24 115.139 456.491 114.871 456.827 114.672C457.162 114.47 457.564 114.369 458.033 114.369C458.618 114.369 459.097 114.553 459.469 114.919C459.841 115.283 460.027 115.849 460.027 116.619V121H459.021V116.619C459.021 116.136 458.889 115.791 458.625 115.584C458.361 115.376 458.05 115.273 457.692 115.273C457.232 115.273 456.875 115.412 456.622 115.69C456.369 115.966 456.243 116.315 456.243 116.739V121H455.22V116.517C455.22 116.145 455.099 115.845 454.858 115.618C454.616 115.388 454.305 115.273 453.925 115.273C453.663 115.273 453.419 115.342 453.192 115.482C452.967 115.621 452.786 115.814 452.646 116.061C452.51 116.305 452.442 116.588 452.442 116.909V121H451.436ZM464.525 121.136C463.934 121.136 463.415 120.996 462.969 120.714C462.526 120.433 462.18 120.04 461.93 119.534C461.683 119.028 461.559 118.437 461.559 117.761C461.559 117.08 461.683 116.484 461.93 115.976C462.18 115.467 462.526 115.072 462.969 114.791C463.415 114.51 463.934 114.369 464.525 114.369C465.116 114.369 465.633 114.51 466.076 114.791C466.522 115.072 466.869 115.467 467.116 115.976C467.366 116.484 467.491 117.08 467.491 117.761C467.491 118.437 467.366 119.028 467.116 119.534C466.869 120.04 466.522 120.433 466.076 120.714C465.633 120.996 465.116 121.136 464.525 121.136ZM464.525 120.233C464.974 120.233 465.343 120.118 465.633 119.888C465.923 119.658 466.137 119.355 466.276 118.98C466.415 118.605 466.485 118.199 466.485 117.761C466.485 117.324 466.415 116.916 466.276 116.538C466.137 116.161 465.923 115.855 465.633 115.622C465.343 115.389 464.974 115.273 464.525 115.273C464.076 115.273 463.707 115.389 463.417 115.622C463.127 115.855 462.913 116.161 462.773 116.538C462.634 116.916 462.565 117.324 462.565 117.761C462.565 118.199 462.634 118.605 462.773 118.98C462.913 119.355 463.127 119.658 463.417 119.888C463.707 120.118 464.076 120.233 464.525 120.233ZM470.032 117.062V121H469.026V114.455H469.998V115.477H470.083C470.236 115.145 470.469 114.878 470.782 114.676C471.094 114.472 471.498 114.369 471.992 114.369C472.435 114.369 472.823 114.46 473.155 114.642C473.488 114.821 473.746 115.094 473.931 115.46C474.115 115.824 474.208 116.284 474.208 116.841V121H473.202V116.909C473.202 116.395 473.069 115.994 472.801 115.707C472.534 115.418 472.168 115.273 471.702 115.273C471.381 115.273 471.094 115.342 470.841 115.482C470.591 115.621 470.394 115.824 470.249 116.091C470.104 116.358 470.032 116.682 470.032 117.062ZM478.892 114.455V115.307H475.5V114.455H478.892ZM476.489 112.886H477.494V119.125C477.494 119.409 477.536 119.622 477.618 119.764C477.703 119.903 477.811 119.997 477.942 120.045C478.075 120.091 478.216 120.114 478.364 120.114C478.474 120.114 478.565 120.108 478.636 120.097C478.707 120.082 478.764 120.071 478.807 120.062L479.011 120.966C478.943 120.991 478.848 121.017 478.726 121.043C478.604 121.071 478.449 121.085 478.261 121.085C477.977 121.085 477.699 121.024 477.426 120.902C477.156 120.78 476.932 120.594 476.753 120.344C476.577 120.094 476.489 119.778 476.489 119.398V112.886ZM481.551 117.062V121H480.545V112.273H481.551V115.477H481.636C481.79 115.139 482.02 114.871 482.327 114.672C482.636 114.47 483.048 114.369 483.562 114.369C484.009 114.369 484.399 114.459 484.734 114.638C485.07 114.814 485.33 115.085 485.514 115.452C485.702 115.815 485.795 116.278 485.795 116.841V121H484.79V116.909C484.79 116.389 484.655 115.987 484.385 115.703C484.118 115.416 483.747 115.273 483.273 115.273C482.943 115.273 482.648 115.342 482.386 115.482C482.128 115.621 481.923 115.824 481.773 116.091C481.625 116.358 481.551 116.682 481.551 117.062Z" fill="#979797"/>
<path d="M496.682 112.153C497.04 112.156 497.398 112.224 497.756 112.358C498.114 112.491 498.44 112.713 498.736 113.023C499.031 113.33 499.268 113.749 499.447 114.28C499.626 114.811 499.716 115.477 499.716 116.278C499.716 117.054 499.642 117.743 499.494 118.345C499.349 118.945 499.139 119.45 498.864 119.862C498.591 120.274 498.259 120.587 497.866 120.8C497.477 121.013 497.037 121.119 496.545 121.119C496.057 121.119 495.621 121.023 495.237 120.83C494.857 120.634 494.544 120.362 494.3 120.016C494.058 119.666 493.903 119.261 493.835 118.801H494.875C494.969 119.202 495.155 119.533 495.433 119.794C495.714 120.053 496.085 120.182 496.545 120.182C497.219 120.182 497.75 119.888 498.139 119.3C498.531 118.712 498.727 117.881 498.727 116.807H498.659C498.5 117.045 498.311 117.251 498.092 117.425C497.874 117.598 497.631 117.732 497.364 117.825C497.097 117.919 496.813 117.966 496.511 117.966C496.011 117.966 495.553 117.842 495.135 117.595C494.72 117.345 494.388 117.003 494.138 116.568C493.891 116.131 493.767 115.631 493.767 115.068C493.767 114.534 493.886 114.045 494.125 113.602C494.366 113.156 494.705 112.801 495.139 112.537C495.577 112.273 496.091 112.145 496.682 112.153ZM496.682 113.091C496.324 113.091 496.001 113.18 495.714 113.359C495.43 113.536 495.205 113.774 495.037 114.075C494.872 114.374 494.79 114.705 494.79 115.068C494.79 115.432 494.869 115.763 495.028 116.061C495.19 116.357 495.411 116.592 495.689 116.768C495.97 116.942 496.29 117.028 496.648 117.028C496.918 117.028 497.169 116.976 497.402 116.871C497.635 116.763 497.838 116.616 498.011 116.432C498.188 116.244 498.325 116.033 498.425 115.797C498.524 115.558 498.574 115.31 498.574 115.051C498.574 114.71 498.491 114.391 498.327 114.092C498.165 113.794 497.94 113.553 497.653 113.368C497.369 113.183 497.045 113.091 496.682 113.091ZM504.289 121.119C503.931 121.114 503.574 121.045 503.216 120.915C502.858 120.784 502.531 120.564 502.235 120.254C501.94 119.942 501.703 119.52 501.524 118.989C501.345 118.455 501.255 117.784 501.255 116.977C501.255 116.205 501.328 115.52 501.473 114.923C501.618 114.324 501.828 113.82 502.103 113.411C502.379 112.999 502.711 112.686 503.1 112.473C503.493 112.26 503.934 112.153 504.426 112.153C504.914 112.153 505.349 112.251 505.73 112.447C506.113 112.641 506.426 112.911 506.667 113.257C506.909 113.604 507.065 114.003 507.136 114.455H506.096C506 114.062 505.812 113.737 505.534 113.479C505.255 113.22 504.886 113.091 504.426 113.091C503.75 113.091 503.217 113.385 502.828 113.973C502.441 114.561 502.247 115.386 502.244 116.449H502.312C502.471 116.207 502.66 116.001 502.879 115.831C503.1 115.658 503.345 115.524 503.612 115.43C503.879 115.337 504.162 115.29 504.46 115.29C504.96 115.29 505.417 115.415 505.832 115.665C506.247 115.912 506.579 116.254 506.829 116.692C507.079 117.126 507.204 117.625 507.204 118.188C507.204 118.727 507.083 119.222 506.842 119.67C506.6 120.116 506.261 120.472 505.824 120.736C505.389 120.997 504.877 121.125 504.289 121.119ZM504.289 120.182C504.647 120.182 504.968 120.092 505.252 119.913C505.539 119.734 505.765 119.494 505.93 119.193C506.098 118.892 506.181 118.557 506.181 118.188C506.181 117.827 506.1 117.499 505.939 117.203C505.779 116.905 505.559 116.668 505.278 116.491C505 116.315 504.681 116.227 504.324 116.227C504.054 116.227 503.802 116.281 503.569 116.389C503.336 116.494 503.132 116.639 502.956 116.824C502.782 117.009 502.646 117.22 502.547 117.459C502.447 117.695 502.397 117.943 502.397 118.205C502.397 118.551 502.478 118.875 502.64 119.176C502.805 119.477 503.029 119.72 503.314 119.905C503.6 120.089 503.926 120.182 504.289 120.182ZM513.329 119.364V118.903C513.329 118.585 513.394 118.294 513.525 118.03C513.658 117.763 513.852 117.55 514.104 117.391C514.36 117.229 514.67 117.148 515.033 117.148C515.403 117.148 515.712 117.229 515.962 117.391C516.212 117.55 516.401 117.763 516.529 118.03C516.657 118.294 516.721 118.585 516.721 118.903V119.364C516.721 119.682 516.656 119.974 516.525 120.241C516.397 120.506 516.207 120.719 515.954 120.881C515.704 121.04 515.397 121.119 515.033 121.119C514.664 121.119 514.353 121.04 514.1 120.881C513.847 120.719 513.656 120.506 513.525 120.241C513.394 119.974 513.329 119.682 513.329 119.364ZM514.198 118.903V119.364C514.198 119.628 514.261 119.865 514.386 120.075C514.511 120.283 514.727 120.386 515.033 120.386C515.332 120.386 515.542 120.283 515.664 120.075C515.789 119.865 515.852 119.628 515.852 119.364V118.903C515.852 118.639 515.792 118.403 515.673 118.196C515.553 117.986 515.34 117.881 515.033 117.881C514.735 117.881 514.521 117.986 514.39 118.196C514.262 118.403 514.198 118.639 514.198 118.903ZM508.982 114.369V113.909C508.982 113.591 509.048 113.3 509.178 113.036C509.312 112.768 509.505 112.555 509.758 112.396C510.013 112.234 510.323 112.153 510.687 112.153C511.056 112.153 511.366 112.234 511.616 112.396C511.866 112.555 512.055 112.768 512.183 113.036C512.31 113.3 512.374 113.591 512.374 113.909V114.369C512.374 114.687 512.309 114.98 512.178 115.247C512.05 115.511 511.86 115.724 511.607 115.886C511.357 116.045 511.05 116.125 510.687 116.125C510.317 116.125 510.006 116.045 509.754 115.886C509.501 115.724 509.309 115.511 509.178 115.247C509.048 114.98 508.982 114.687 508.982 114.369ZM509.852 113.909V114.369C509.852 114.634 509.914 114.871 510.039 115.081C510.164 115.288 510.38 115.392 510.687 115.392C510.985 115.392 511.195 115.288 511.317 115.081C511.442 114.871 511.505 114.634 511.505 114.369V113.909C511.505 113.645 511.445 113.409 511.326 113.202C511.207 112.991 510.994 112.886 510.687 112.886C510.388 112.886 510.174 112.991 510.043 113.202C509.915 113.409 509.852 113.645 509.852 113.909ZM509.306 121L515.306 112.273H516.278L510.278 121H509.306Z" fill="#777777"/>
</g>
</g>
<defs>
<filter id="filter0_dddd_474_2052" x="387" y="47" width="145" height="102" filterUnits="userSpaceOnUse" color-interpolation-filters="sRGB">
<feFlood flood-opacity="0" result="BackgroundImageFix"/>
<feColorMatrix in="SourceAlpha" type="matrix" values="0 0 0 0 0 0 0 0 0 0 0 0 0 0 0 0 0 0 127 0" result="hardAlpha"/>
<feMorphology radius="6" operator="erode" in="SourceAlpha" result="effect1_dropShadow_474_2052"/>
<feOffset dy="12"/>
<feGaussianBlur stdDeviation="6"/>
<feComposite in2="hardAlpha" operator="out"/>
<feColorMatrix type="matrix" values="0 0 0 0 0 0 0 0 0 0 0 0 0 0 0 0 0 0 0.04 0"/>
<feBlend mode="normal" in2="BackgroundImageFix" result="effect1_dropShadow_474_2052"/>
<feColorMatrix in="SourceAlpha" type="matrix" values="0 0 0 0 0 0 0 0 0 0 0 0 0 0 0 0 0 0 127 0" result="hardAlpha"/>
<feMorphology radius="3" operator="erode" in="SourceAlpha" result="effect2_dropShadow_474_2052"/>
<feOffset dy="6"/>
<feGaussianBlur stdDeviation="3"/>
<feComposite in2="hardAlpha" operator="out"/>
<feColorMatrix type="matrix" values="0 0 0 0 0 0 0 0 0 0 0 0 0 0 0 0 0 0 0.04 0"/>
<feBlend mode="normal" in2="effect1_dropShadow_474_2052" result="effect2_dropShadow_474_2052"/>
<feColorMatrix in="SourceAlpha" type="matrix" values="0 0 0 0 0 0 0 0 0 0 0 0 0 0 0 0 0 0 127 0" result="hardAlpha"/>
<feMorphology radius="1.5" operator="erode" in="SourceAlpha" result="effect3_dropShadow_474_2052"/>
<feOffset dy="3"/>
<feGaussianBlur stdDeviation="1.5"/>
<feComposite in2="hardAlpha" operator="out"/>
<feColorMatrix type="matrix" values="0 0 0 0 0 0 0 0 0 0 0 0 0 0 0 0 0 0 0.04 0"/>
<feBlend mode="normal" in2="effect2_dropShadow_474_2052" result="effect3_dropShadow_474_2052"/>
<feColorMatrix in="SourceAlpha" type="matrix" values="0 0 0 0 0 0 0 0 0 0 0 0 0 0 0 0 0 0 127 0" result="hardAlpha"/>
<feMorphology radius="0.5" operator="erode" in="SourceAlpha" result="effect4_dropShadow_474_2052"/>
<feOffset dy="1"/>
<feGaussianBlur stdDeviation="0.5"/>
<feComposite in2="hardAlpha" operator="out"/>
<feColorMatrix type="matrix" values="0 0 0 0 0 0 0 0 0 0 0 0 0 0 0 0 0 0 0.04 0"/>
<feBlend mode="normal" in2="effect3_dropShadow_474_2052" result="effect4_dropShadow_474_2052"/>
<feBlend mode="normal" in="SourceGraphic" in2="effect4_dropShadow_474_2052" result="shape"/>
</filter>
<linearGradient id="paint0_linear_474_2052" x1="0.217529" y1="22.577" x2="601.508" y2="22.577" gradientUnits="userSpaceOnUse">
<stop offset="0.5" stop-opacity="0.08"/>
<stop offset="1" stop-opacity="0"/>
</linearGradient>
<linearGradient id="paint1_linear_474_2052" x1="0.217529" y1="64.2343" x2="601.508" y2="64.2343" gradientUnits="userSpaceOnUse">
<stop offset="0.5" stop-opacity="0.08"/>
<stop offset="1" stop-opacity="0"/>
</linearGradient>
<linearGradient id="paint2_linear_474_2052" x1="0.232666" y1="105.893" x2="601.517" y2="105.893" gradientUnits="userSpaceOnUse">
<stop offset="0.5" stop-opacity="0.08"/>
<stop offset="1" stop-opacity="0"/>
</linearGradient>
<linearGradient id="paint3_linear_474_2052" x1="0.217529" y1="147.558" x2="601.508" y2="147.558" gradientUnits="userSpaceOnUse">
<stop offset="0.5" stop-opacity="0.08"/>
<stop offset="1" stop-opacity="0"/>
</linearGradient>
<linearGradient id="paint4_linear_474_2052" x1="-23.5007" y1="-101.66" x2="601.5" y2="-101.66" gradientUnits="userSpaceOnUse">
<stop offset="0.05" stop-color="#7D52F4" stop-opacity="0"/>
<stop offset="0.4" stop-color="#7D52F4"/>
</linearGradient>
<linearGradient id="paint5_linear_474_2052" x1="-23.5093" y1="38.2158" x2="601.509" y2="38.2158" gradientUnits="userSpaceOnUse">
<stop offset="0.05" stop-color="#FFCF7B" stop-opacity="0"/>
<stop offset="0.4" stop-color="#FFCF7B"/>
</linearGradient>
<clipPath id="clip0_474_2052">
<rect width="568" height="150" rx="24" fill="white"/>
</clipPath>
</defs>
</svg>
