<svg xmlns="http://www.w3.org/2000/svg" width="48" height="48" viewBox="0 0 48 48" fill="none">
  <path opacity="0.4" d="M36 37.72H34.48C32.88 37.72 31.36 38.34 30.24 39.46L26.82 42.84C25.26 44.38 22.72 44.38 21.16 42.84L17.74 39.46C16.62 38.34 15.08 37.72 13.5 37.72H12C8.68 37.72 6 35.06 6 31.78V9.96002C6 6.68002 8.68 4.02002 12 4.02002H36C39.32 4.02002 42 6.68002 42 9.96002V31.78C42 35.04 39.32 37.72 36 37.72Z" fill="#979797"/>
  <path d="M24.56 29.92C24.26 30.02 23.76 30.02 23.44 29.92C20.84 29.02 15 25.32 15 19.02C15 16.24 17.24 14 20 14C21.64 14 23.08 14.78 24 16C24.92 14.78 26.36 14 28 14C30.76 14 33 16.24 33 19.02C32.98 25.32 27.16 29.02 24.56 29.92Z" fill="#979797"/>
</svg>