<svg width="160" height="160" viewBox="0 0 160 160" fill="none" xmlns="http://www.w3.org/2000/svg">
<path d="M156.5 22.5V58.5H79.5V97.5H3.5V22.5H156.5Z" fill="#1A1A1A" stroke="#1A1A1A"/>
<path d="M3 98.5H2.5V98M80.5 98V98.5H80" stroke="#C2C2C2"/>
<path d="M2.5 22V21.5H3" stroke="#C2C2C2"/>
<path d="M80.5 60V59" stroke="#414141"/>
<path d="M41.5 55V54M35.5 61V60M41.5 67V66M47.5 61V60" stroke="#CCCCCC"/>
<path d="M157.5 22V61" stroke="white"/>
<path d="M2.5 22V98M3 98.5H80M80.5 98V60M41.5 55V66M36 60.5H47" stroke="white"/>
<path d="M3 21.5L157 21.5" stroke="white"/>
<path d="M157 21.5H157.5V22" stroke="#C2C2C2"/>
<path d="M157 60.5H157.5V60" stroke="#C2C2C2"/>
<path d="M40 26.5H41M41.5 26V25M42 26.5H43M41.5 27V28" stroke="#414141"/>
<path d="M41 26.5H42" stroke="#A3A3A3"/>
<path d="M117 26.5H118M118.5 26V25M119 26.5H120M118.5 27V28" stroke="#414141"/>
<path d="M118 26.5H119" stroke="#A3A3A3"/>
<path d="M117 64.5H118M118.5 64V63M119 64.5H120M118.5 65V66" stroke="#414141"/>
<path d="M118 64.5H119" stroke="#A3A3A3"/>
<path d="M74 60.5H75M75.5 60V59M76 60.5H77M75.5 61V62" stroke="#414141"/>
<path d="M75 60.5H76" stroke="#A3A3A3"/>
<path d="M29 60.5H30M30.5 60V59M31 60.5H32M30.5 61V62" stroke="#414141"/>
<path d="M30 60.5H31" stroke="#A3A3A3"/>
<path d="M27 137.5H28M28.5 137V136M29 137.5H30M28.5 138V139" stroke="#414141"/>
<path d="M28 137.5H29" stroke="#A3A3A3"/>
<path d="M87 137.5H88M88.5 137V136M89 137.5H90M88.5 138V139" stroke="#414141"/>
<path d="M88 137.5H89" stroke="#A3A3A3"/>
<path d="M141 137.5H142M142.5 137V136M143 137.5H144M142.5 138V139" stroke="#414141"/>
<path d="M142 137.5H143" stroke="#A3A3A3"/>
<path d="M57 137.5H58M58.5 137V136M59 137.5H60M58.5 138V139" stroke="#414141"/>
<path d="M58 137.5H59" stroke="#A3A3A3"/>
<path d="M117 137.5H118M118.5 137V136M119 137.5H120M118.5 138V139" stroke="#414141"/>
<path d="M118 137.5H119" stroke="#A3A3A3"/>
<path d="M40 32.5H41M41.5 32V31M42 32.5H43M41.5 33V34" stroke="#414141"/>
<path d="M41 32.5H42" stroke="#A3A3A3"/>
<path d="M117 32.5H118M118.5 32V31M119 32.5H120M118.5 33V34" stroke="#414141"/>
<path d="M118 32.5H119" stroke="#A3A3A3"/>
<path d="M117 70.5H118M118.5 70V69M119 70.5H120M118.5 71V72" stroke="#414141"/>
<path d="M118 70.5H119" stroke="#A3A3A3"/>
<path d="M68 60.5H69M69.5 60V59M70 60.5H71M69.5 61V62" stroke="#414141"/>
<path d="M69 60.5H70" stroke="#A3A3A3"/>
<path d="M23 60.5H24M24.5 60V59M25 60.5H26M24.5 61V62" stroke="#414141"/>
<path d="M24 60.5H25" stroke="#A3A3A3"/>
<path d="M21 137.5H22M22.5 137V136M23 137.5H24M22.5 138V139" stroke="#414141"/>
<path d="M22 137.5H23" stroke="#A3A3A3"/>
<path d="M81 137.5H82M82.5 137V136M83 137.5H84M82.5 138V139" stroke="#414141"/>
<path d="M82 137.5H83" stroke="#A3A3A3"/>
<path d="M135 137.5H136M136.5 137V136M137 137.5H138M136.5 138V139" stroke="#414141"/>
<path d="M136 137.5H137" stroke="#A3A3A3"/>
<path d="M51 137.5H52M52.5 137V136M53 137.5H54M52.5 138V139" stroke="#414141"/>
<path d="M52 137.5H53" stroke="#A3A3A3"/>
<path d="M111 137.5H112M112.5 137V136M113 137.5H114M112.5 138V139" stroke="#414141"/>
<path d="M112 137.5H113" stroke="#A3A3A3"/>
<path d="M40 38.5H41M41.5 38V37M42 38.5H43M41.5 39V40" stroke="#414141"/>
<path d="M41 38.5H42" stroke="#A3A3A3"/>
<path d="M117 38.5H118M118.5 38V37M119 38.5H120M118.5 39V40" stroke="#414141"/>
<path d="M118 38.5H119" stroke="#A3A3A3"/>
<path d="M117 76.5H118M118.5 76V75M119 76.5H120M118.5 77V78" stroke="#414141"/>
<path d="M118 76.5H119" stroke="#A3A3A3"/>
<path d="M62 60.5H63M63.5 60V59M64 60.5H65M63.5 61V62" stroke="#414141"/>
<path d="M63 60.5H64" stroke="#A3A3A3"/>
<path d="M17 60.5H18M18.5 60V59M19 60.5H20M18.5 61V62" stroke="#414141"/>
<path d="M18 60.5H19" stroke="#A3A3A3"/>
<path d="M15 137.5H16M16.5 137V136M17 137.5H18M16.5 138V139" stroke="#414141"/>
<path d="M16 137.5H17" stroke="#A3A3A3"/>
<path d="M75 137.5H76M76.5 137V136M77 137.5H78M76.5 138V139" stroke="#414141"/>
<path d="M76 137.5H77" stroke="#A3A3A3"/>
<path d="M129 137.5H130M130.5 137V136M131 137.5H132M130.5 138V139" stroke="#414141"/>
<path d="M130 137.5H131" stroke="#A3A3A3"/>
<path d="M45 137.5H46M46.5 137V136M47 137.5H48M46.5 138V139" stroke="#414141"/>
<path d="M46 137.5H47" stroke="#A3A3A3"/>
<path d="M105 137.5H106M106.5 137V136M107 137.5H108M106.5 138V139" stroke="#414141"/>
<path d="M106 137.5H107" stroke="#A3A3A3"/>
<path d="M40 44.5H41M41.5 44V43M42 44.5H43M41.5 45V46" stroke="#414141"/>
<path d="M41 44.5H42" stroke="#A3A3A3"/>
<path d="M117 44.5H118M118.5 44V43M119 44.5H120M118.5 45V46" stroke="#414141"/>
<path d="M118 44.5H119" stroke="#A3A3A3"/>
<path d="M117 82.5H118M118.5 82V81M119 82.5H120M118.5 83V84" stroke="#414141"/>
<path d="M118 82.5H119" stroke="#A3A3A3"/>
<path d="M56 60.5H57M57.5 60V59M58 60.5H59M57.5 61V62" stroke="#414141"/>
<path d="M57 60.5H58" stroke="#A3A3A3"/>
<path d="M11 60.5H12M12.5 60V59M13 60.5H14M12.5 61V62" stroke="#414141"/>
<path d="M12 60.5H13" stroke="#A3A3A3"/>
<path d="M9 137.5H10M10.5 137V136M11 137.5H12M10.5 138V139" stroke="#414141"/>
<path d="M10 137.5H11" stroke="#A3A3A3"/>
<path d="M69 137.5H70M70.5 137V136M71 137.5H72M70.5 138V139" stroke="#414141"/>
<path d="M70 137.5H71" stroke="#A3A3A3"/>
<path d="M123 137.5H124M124.5 137V136M125 137.5H126M124.5 138V139" stroke="#414141"/>
<path d="M124 137.5H125" stroke="#A3A3A3"/>
<path d="M39 137.5H40M40.5 137V136M41 137.5H42M40.5 138V139" stroke="#414141"/>
<path d="M40 137.5H41" stroke="#A3A3A3"/>
<path d="M99 137.5H100M100.5 137V136M101 137.5H102M100.5 138V139" stroke="#414141"/>
<path d="M100 137.5H101" stroke="#A3A3A3"/>
<path d="M153 137.5H154M154.5 137V136M155 137.5H156M154.5 138V139" stroke="#414141"/>
<path d="M154 137.5H155" stroke="#A3A3A3"/>
<path d="M40 50.5H41M41.5 50V49M42 50.5H43M41.5 51V52" stroke="#414141"/>
<path d="M41 50.5H42" stroke="#A3A3A3"/>
<path d="M117 50.5H118M118.5 50V49M119 50.5H120M118.5 51V52" stroke="#414141"/>
<path d="M118 50.5H119" stroke="#A3A3A3"/>
<path d="M117 56.5H118M118.5 56V55M119 56.5H120M118.5 57V58" stroke="#414141"/>
<path d="M118 56.5H119" stroke="#A3A3A3"/>
<path d="M117 88.5H118M118.5 88V87M119 88.5H120M118.5 89V90" stroke="#414141"/>
<path d="M118 88.5H119" stroke="#A3A3A3"/>
<path d="M117 94.5H118M119 94.5H120M118.5 95V96" stroke="#414141"/>
<path d="M118.5 93V94" stroke="#1A1A1A"/>
<path d="M118 94.5H119" stroke="#A3A3A3"/>
<path d="M117 108.5H118M119 108.5H120M118.5 109V110" stroke="#414141"/>
<path d="M118.5 107V108" stroke="#1A1A1A"/>
<path d="M118 108.5H119" stroke="#A3A3A3"/>
<path d="M43 76.5H42M41 76.5H40M41.5 76V75" stroke="#414141"/>
<path d="M41.5 78V77" stroke="#1A1A1A"/>
<path d="M42 76.5H41" stroke="#A3A3A3"/>
<path d="M40 108.5H41M42 108.5H43M41.5 109V110" stroke="#414141"/>
<path d="M41.5 107V108" stroke="#1A1A1A"/>
<path d="M41 108.5H42" stroke="#A3A3A3"/>
<path d="M117 114.5H118M119 114.5H120M118.5 115V116" stroke="#414141"/>
<path d="M118.5 113V114" stroke="#1A1A1A"/>
<path d="M118 114.5H119" stroke="#A3A3A3"/>
<path d="M43 82.5H42M41 82.5H40M41.5 82V81" stroke="#414141"/>
<path d="M41.5 84V83" stroke="#1A1A1A"/>
<path d="M42 82.5H41" stroke="#A3A3A3"/>
<path d="M40 114.5H41M42 114.5H43M41.5 115V116" stroke="#414141"/>
<path d="M41.5 113V114" stroke="#1A1A1A"/>
<path d="M41 114.5H42" stroke="#A3A3A3"/>
<path d="M117 120.5H118M119 120.5H120M118.5 121V122" stroke="#414141"/>
<path d="M118.5 119V120" stroke="#1A1A1A"/>
<path d="M118 120.5H119" stroke="#A3A3A3"/>
<path d="M43 88.5H42M41 88.5H40M41.5 88V87" stroke="#414141"/>
<path d="M41.5 90V89" stroke="#1A1A1A"/>
<path d="M42 88.5H41" stroke="#A3A3A3"/>
<path d="M40 120.5H41M42 120.5H43M41.5 121V122" stroke="#414141"/>
<path d="M41.5 119V120" stroke="#1A1A1A"/>
<path d="M41 120.5H42" stroke="#A3A3A3"/>
<path d="M117 126.5H118M119 126.5H120M118.5 127V128" stroke="#414141"/>
<path d="M118.5 125V126" stroke="#1A1A1A"/>
<path d="M118 126.5H119" stroke="#A3A3A3"/>
<path d="M43 94.5H42M41 94.5H40M41.5 94V93" stroke="#414141"/>
<path d="M41.5 96V95" stroke="#1A1A1A"/>
<path d="M42 94.5H41" stroke="#A3A3A3"/>
<path d="M40 126.5H41M42 126.5H43M41.5 127V128" stroke="#414141"/>
<path d="M41.5 125V126" stroke="#1A1A1A"/>
<path d="M41 126.5H42" stroke="#A3A3A3"/>
<path d="M117 132.5H118M119 132.5H120M118.5 133V134" stroke="#414141"/>
<path d="M118.5 131V132" stroke="#1A1A1A"/>
<path d="M118 132.5H119" stroke="#A3A3A3"/>
<path d="M40 132.5H41M42 132.5H43M41.5 133V134" stroke="#414141"/>
<path d="M41.5 131V132" stroke="#1A1A1A"/>
<path d="M41 132.5H42" stroke="#A3A3A3"/>
<path d="M40 102.5H41M42 102.5H43M41.5 103V104" stroke="#414141"/>
<path d="M41.5 101V102" stroke="#1A1A1A"/>
<path d="M41 102.5H42" stroke="#A3A3A3"/>
<path d="M50 60.5H51M51.5 60V59M52 60.5H53M51.5 61V62" stroke="#414141"/>
<path d="M51 60.5H52" stroke="#A3A3A3"/>
<path d="M5 60.5H6M6.5 60V59M7 60.5H8M6.5 61V62" stroke="#414141"/>
<path d="M6 60.5H7" stroke="#A3A3A3"/>
<path d="M3 137.5H4M4.5 137V136M5 137.5H6M4.5 138V139" stroke="#414141"/>
<path d="M4 137.5H5" stroke="#A3A3A3"/>
<path d="M63 137.5H64M64.5 137V136M65 137.5H66M64.5 138V139" stroke="#414141"/>
<path d="M64 137.5H65" stroke="#A3A3A3"/>
<path d="M117 137.5H118M118.5 137V136M119 137.5H120M118.5 138V139" stroke="#414141"/>
<path d="M118 137.5H119" stroke="#A3A3A3"/>
<path d="M33 137.5H34M34.5 137V136M35 137.5H36M34.5 138V139" stroke="#414141"/>
<path d="M34 137.5H35" stroke="#A3A3A3"/>
<path d="M93 137.5H94M94.5 137V136M95 137.5H96M94.5 138V139" stroke="#414141"/>
<path d="M94 137.5H95" stroke="#A3A3A3"/>
<path d="M147 137.5H148M148.5 137V136M149 137.5H150M148.5 138V139" stroke="#414141"/>
<path d="M148 137.5H149" stroke="#A3A3A3"/>
<path d="M81 59.5H157M157 60.5H81" stroke="#848484"/>
<rect width="2" height="1" transform="translate(79 31)" fill="#949494"/>
<rect width="2" height="1" transform="translate(79 32)" fill="#5D5D5D"/>
<rect width="2" height="1" transform="matrix(-1 0 0 -1 81 110)" fill="#949494"/>
<rect width="2" height="1" transform="matrix(-1 0 0 -1 81 109)" fill="#5D5D5D"/>
<rect width="2" height="1" transform="translate(79 25)" fill="#949494"/>
<rect width="2" height="1" transform="translate(79 26)" fill="#5D5D5D"/>
<rect width="2" height="1" transform="matrix(-1 0 0 -1 81 104)" fill="#949494"/>
<rect width="2" height="1" transform="matrix(-1 0 0 -1 81 103)" fill="#5D5D5D"/>
<rect width="2" height="1" transform="matrix(0 -1 1 0 84 100)" fill="#949494"/>
<rect width="2" height="1" transform="matrix(0 -1 1 0 85 100)" fill="#5D5D5D"/>
<rect width="2" height="1" transform="matrix(0 -1 1 0 120 100)" fill="#949494"/>
<rect width="2" height="1" transform="matrix(0 -1 1 0 121 100)" fill="#5D5D5D"/>
<rect width="2" height="1" transform="matrix(0 -1 1 0 102 100)" fill="#949494"/>
<rect width="2" height="1" transform="matrix(0 -1 1 0 103 100)" fill="#5D5D5D"/>
<rect width="2" height="1" transform="matrix(0 -1 1 0 138 100)" fill="#949494"/>
<rect width="2" height="1" transform="matrix(0 -1 1 0 139 100)" fill="#5D5D5D"/>
<rect width="2" height="1" transform="matrix(0 -1 1 0 90 100)" fill="#949494"/>
<rect width="2" height="1" transform="matrix(0 -1 1 0 91 100)" fill="#5D5D5D"/>
<rect width="2" height="1" transform="matrix(0 -1 1 0 126 100)" fill="#949494"/>
<rect width="2" height="1" transform="matrix(0 -1 1 0 127 100)" fill="#5D5D5D"/>
<rect width="2" height="1" transform="matrix(0 -1 1 0 108 100)" fill="#949494"/>
<rect width="2" height="1" transform="matrix(0 -1 1 0 109 100)" fill="#5D5D5D"/>
<rect width="2" height="1" transform="matrix(0 -1 1 0 144 100)" fill="#949494"/>
<rect width="2" height="1" transform="matrix(0 -1 1 0 145 100)" fill="#5D5D5D"/>
<rect width="2" height="1" transform="matrix(0 -1 1 0 96 100)" fill="#949494"/>
<rect width="2" height="1" transform="matrix(0 -1 1 0 97 100)" fill="#5D5D5D"/>
<rect width="2" height="1" transform="matrix(0 -1 1 0 132 100)" fill="#949494"/>
<rect width="2" height="1" transform="matrix(0 -1 1 0 133 100)" fill="#5D5D5D"/>
<rect width="2" height="1" transform="matrix(0 -1 1 0 114 100)" fill="#949494"/>
<rect width="2" height="1" transform="matrix(0 -1 1 0 115 100)" fill="#5D5D5D"/>
<rect width="2" height="1" transform="matrix(0 -1 1 0 150 100)" fill="#949494"/>
<rect width="2" height="1" transform="matrix(0 -1 1 0 151 100)" fill="#5D5D5D"/>
<rect width="2" height="1" transform="matrix(0 -1 1 0 156 100)" fill="#949494"/>
<rect width="2" height="1" transform="matrix(0 -1 1 0 157 100)" fill="#5D5D5D"/>
<rect width="2" height="1" transform="matrix(-1 0 0 -1 158 95)" fill="#949494"/>
<rect width="2" height="1" transform="matrix(-1 0 0 -1 158 94)" fill="#5D5D5D"/>
<rect width="2" height="1" transform="translate(156 133)" fill="#949494"/>
<rect width="2" height="1" transform="translate(156 134)" fill="#5D5D5D"/>
<rect width="2" height="1" transform="translate(2 132)" fill="#949494"/>
<rect width="2" height="1" transform="translate(2 133)" fill="#5D5D5D"/>
<rect width="2" height="1" transform="matrix(-1 0 0 -1 158 89)" fill="#949494"/>
<rect width="2" height="1" transform="matrix(-1 0 0 -1 158 88)" fill="#5D5D5D"/>
<rect width="2" height="1" transform="translate(156 127)" fill="#949494"/>
<rect width="2" height="1" transform="translate(156 128)" fill="#5D5D5D"/>
<rect width="2" height="1" transform="translate(2 126)" fill="#949494"/>
<rect width="2" height="1" transform="translate(2 127)" fill="#5D5D5D"/>
<rect width="2" height="1" transform="matrix(-1 0 0 -1 158 83)" fill="#949494"/>
<rect width="2" height="1" transform="matrix(-1 0 0 -1 158 82)" fill="#5D5D5D"/>
<rect width="2" height="1" transform="translate(156 121)" fill="#949494"/>
<rect width="2" height="1" transform="translate(156 122)" fill="#5D5D5D"/>
<rect width="2" height="1" transform="translate(2 120)" fill="#949494"/>
<rect width="2" height="1" transform="translate(2 121)" fill="#5D5D5D"/>
<rect width="2" height="1" transform="matrix(-1 0 0 -1 158 77)" fill="#949494"/>
<rect width="2" height="1" transform="matrix(-1 0 0 -1 158 76)" fill="#5D5D5D"/>
<rect width="2" height="1" transform="translate(156 115)" fill="#949494"/>
<rect width="2" height="1" transform="translate(156 116)" fill="#5D5D5D"/>
<rect width="2" height="1" transform="translate(2 114)" fill="#949494"/>
<rect width="2" height="1" transform="translate(2 115)" fill="#5D5D5D"/>
<rect width="2" height="1" transform="matrix(-1 0 0 -1 158 71)" fill="#949494"/>
<rect width="2" height="1" transform="matrix(-1 0 0 -1 158 70)" fill="#5D5D5D"/>
<rect width="2" height="1" transform="translate(156 109)" fill="#949494"/>
<rect width="2" height="1" transform="translate(156 110)" fill="#5D5D5D"/>
<rect width="2" height="1" transform="translate(2 108)" fill="#949494"/>
<rect width="2" height="1" transform="translate(2 109)" fill="#5D5D5D"/>
<rect width="2" height="1" transform="matrix(-1 0 0 -1 158 65)" fill="#949494"/>
<rect width="2" height="1" transform="matrix(-1 0 0 -1 158 64)" fill="#5D5D5D"/>
<rect width="2" height="1" transform="translate(156 103)" fill="#949494"/>
<rect width="2" height="1" transform="translate(156 104)" fill="#5D5D5D"/>
<rect width="2" height="1" transform="translate(2 102)" fill="#949494"/>
<rect width="2" height="1" transform="translate(2 103)" fill="#5D5D5D"/>
<rect width="2" height="1" transform="translate(79 37)" fill="#949494"/>
<rect width="2" height="1" transform="translate(79 38)" fill="#5D5D5D"/>
<rect width="2" height="1" transform="matrix(-1 0 0 -1 81 116)" fill="#949494"/>
<rect width="2" height="1" transform="matrix(-1 0 0 -1 81 115)" fill="#5D5D5D"/>
<rect width="2" height="1" transform="translate(79 49)" fill="#949494"/>
<rect width="2" height="1" transform="translate(79 50)" fill="#5D5D5D"/>
<rect width="2" height="1" transform="matrix(-1 0 0 -1 81 128)" fill="#949494"/>
<rect width="2" height="1" transform="matrix(-1 0 0 -1 81 127)" fill="#5D5D5D"/>
<rect width="2" height="1" transform="translate(79 43)" fill="#949494"/>
<rect width="2" height="1" transform="translate(79 44)" fill="#5D5D5D"/>
<rect width="2" height="1" transform="translate(79 43)" fill="#949494"/>
<rect width="2" height="1" transform="translate(79 44)" fill="#5D5D5D"/>
<rect width="2" height="1" transform="matrix(-1 0 0 -1 81 122)" fill="#949494"/>
<rect width="2" height="1" transform="matrix(-1 0 0 -1 81 121)" fill="#5D5D5D"/>
<rect width="2" height="1" transform="translate(79 55)" fill="#949494"/>
<rect width="2" height="1" transform="translate(79 56)" fill="#5D5D5D"/>
<rect width="2" height="1" transform="matrix(-1 0 0 -1 81 134)" fill="#949494"/>
<rect width="2" height="1" transform="matrix(-1 0 0 -1 81 133)" fill="#5D5D5D"/>
</svg>
