<svg xmlns="http://www.w3.org/2000/svg" width="16" height="16" viewBox="0 0 16 16" fill="none">
  <g clip-path="url(#clip0_1396_13592)">
    <mask id="mask0_1396_13592" style="mask-type:luminance" maskUnits="userSpaceOnUse" x="0" y="0" width="16" height="16">
      <path d="M0 0H16V16H0V0Z" fill="white"/>
    </mask>
    <g mask="url(#mask0_1396_13592)">
      <path d="M0 0H16V16H0V0Z" fill="white"/>
      <path d="M4 8H8V12H4V8ZM8 8H12V12H8V8ZM4 0H8V4H4V0Z" fill="#060606"/>
      <path d="M8 8H12V12H8V8ZM12 12H16V16H12V12ZM0 12H4V16H0V12ZM4 8H8V12H4V8Z" fill="#060606"/>
      <path d="M8 8H12V12H8V8ZM8 0H12V4H8V0ZM12 4H16V8H12V4ZM0 4H4V8H0V4Z" fill="#060606"/>
    </g>
  </g>
  <defs>
    <clipPath id="clip0_1396_13592">
      <rect width="16" height="16" fill="white"/>
    </clipPath>
  </defs>
</svg>