<svg xmlns="http://www.w3.org/2000/svg" width="16" height="16" viewBox="0 0 16 16" fill="none">
  <g clip-path="url(#clip0_1396_13618)">
    <mask id="mask0_1396_13618" style="mask-type:luminance" maskUnits="userSpaceOnUse" x="0" y="0" width="16" height="16">
      <path d="M16 16H0V0H16V16Z" fill="white"/>
    </mask>
    <g mask="url(#mask0_1396_13618)">
      <path d="M16 16H0V0H16V16Z" fill="white"/>
      <path d="M12 16H8V12H12V16ZM12 12H8V8H12V12ZM8 12H4V8H8V12ZM8 8H4V4H8V8ZM12 8H8V4H12V8Z" fill="#060606"/>
      <path d="M12 8H8V4H12V8Z" fill="#060606"/>
      <path d="M12 8H8V4H12V8Z" fill="#060606"/>
      <path d="M12 8H8V4H12V8Z" fill="#060606"/>
      <path d="M12 8H8V4H12V8Z" fill="#060606"/>
      <path d="M12 8H8V4H12V8ZM8 8H4V4H8V8Z" fill="#060606"/>
      <path d="M12 8H8V4H12V8ZM8 12H4V8H8V12Z" fill="#060606"/>
      <path d="M12 8H8V4H12V8Z" fill="#060606"/>
      <path d="M12 8H8V4H12V8ZM16 12H12V8H16V12ZM8 8H4V4H8V8Z" fill="#060606"/>
      <path d="M8 8H4V4H8V8Z" fill="#060606"/>
    </g>
  </g>
  <defs>
    <clipPath id="clip0_1396_13618">
      <rect width="16" height="16" fill="white"/>
    </clipPath>
  </defs>
</svg>