<svg xmlns="http://www.w3.org/2000/svg" width="16" height="16" viewBox="0 0 16 16" fill="none">
  <g clip-path="url(#clip0_1396_13542)">
    <mask id="mask0_1396_13542" style="mask-type:luminance" maskUnits="userSpaceOnUse" x="0" y="0" width="16" height="16">
      <path d="M0 0H16V16H0V0Z" fill="white"/>
    </mask>
    <g mask="url(#mask0_1396_13542)">
      <path d="M0 0H16V16H0V0Z" fill="white"/>
      <path d="M0 0H4V4H0V0ZM8 0H12V4H8V0ZM4 4H8V8H4V4ZM4 12H8V16H4V12ZM12 4H16V8H12V4ZM-1 8H3V12H-1V8Z" fill="#060606"/>
      <path d="M0 8H4V12H0V8ZM8 8H12V12H8V8ZM12 12H16V16H12V12Z" fill="#060606"/>
    </g>
  </g>
  <defs>
    <clipPath id="clip0_1396_13542">
      <rect width="16" height="16" fill="white"/>
    </clipPath>
  </defs>
</svg>