<svg width="572" height="572" viewBox="0 0 572 572" fill="none" xmlns="http://www.w3.org/2000/svg">
<g clip-path="url(#clip0_1396_13648)">
<rect width="572" height="572" fill="#646464"/>
<path d="M278.322 100.365H15.8906V15.624H278.322V100.365Z" fill="#060606"/>
<path d="M106.676 73V43H113.996V45.67C115.016 44.59 116.236 43.74 117.656 43.12C119.076 42.48 120.606 42.16 122.246 42.16C124.326 42.16 126.236 42.65 127.976 43.63C129.736 44.61 131.136 45.92 132.176 47.56C133.236 45.92 134.636 44.61 136.376 43.63C138.116 42.65 140.026 42.16 142.106 42.16C144.306 42.16 146.296 42.7 148.076 43.78C149.876 44.84 151.306 46.27 152.366 48.07C153.446 49.85 153.986 51.84 153.986 54.04V73H146.666V55.99C146.666 54.83 146.376 53.77 145.796 52.81C145.236 51.83 144.476 51.05 143.516 50.47C142.576 49.87 141.516 49.57 140.336 49.57C139.156 49.57 138.086 49.86 137.126 50.44C136.186 51 135.426 51.76 134.846 52.72C134.266 53.68 133.976 54.77 133.976 55.99V73H126.656V55.99C126.656 54.77 126.376 53.68 125.816 52.72C125.256 51.76 124.496 51 123.536 50.44C122.576 49.86 121.506 49.57 120.326 49.57C119.166 49.57 118.106 49.87 117.146 50.47C116.186 51.05 115.416 51.83 114.836 52.81C114.276 53.77 113.996 54.83 113.996 55.99V73H106.676ZM158.796 61.9V43H166.116V59.98C166.116 61.16 166.406 62.24 166.986 63.22C167.566 64.18 168.336 64.95 169.296 65.53C170.276 66.09 171.346 66.37 172.506 66.37C173.706 66.37 174.786 66.09 175.746 65.53C176.706 64.95 177.476 64.18 178.056 63.22C178.636 62.24 178.926 61.16 178.926 59.98V43H186.246L186.276 73H178.956L178.926 70.27C177.886 71.35 176.656 72.21 175.236 72.85C173.816 73.47 172.296 73.78 170.676 73.78C168.496 73.78 166.506 73.25 164.706 72.19C162.906 71.11 161.466 69.68 160.386 67.9C159.326 66.1 158.796 64.1 158.796 61.9ZM205.012 73.78C202.252 73.78 199.732 73.07 197.452 71.65C195.192 70.23 193.382 68.32 192.022 65.92C190.682 63.52 190.012 60.87 190.012 57.97C190.012 55.79 190.402 53.75 191.182 51.85C191.962 49.93 193.032 48.25 194.392 46.81C195.772 45.35 197.372 44.21 199.192 43.39C201.012 42.57 202.952 42.16 205.012 42.16C207.352 42.16 209.492 42.66 211.432 43.66C213.392 44.64 215.052 45.99 216.412 47.71C217.772 49.43 218.762 51.39 219.382 53.59C220.002 55.79 220.142 58.09 219.802 60.49H197.872C198.152 61.61 198.612 62.62 199.252 63.52C199.892 64.4 200.702 65.11 201.682 65.65C202.662 66.17 203.772 66.44 205.012 66.46C206.292 66.48 207.452 66.18 208.492 65.56C209.552 64.92 210.432 64.06 211.132 62.98L218.602 64.72C217.382 67.38 215.562 69.56 213.142 71.26C210.722 72.94 208.012 73.78 205.012 73.78ZM197.632 55H212.392C212.172 53.8 211.702 52.72 210.982 51.76C210.282 50.78 209.412 50 208.372 49.42C207.332 48.84 206.212 48.55 205.012 48.55C203.812 48.55 202.702 48.84 201.682 49.42C200.662 49.98 199.792 50.75 199.072 51.73C198.372 52.69 197.892 53.78 197.632 55ZM233.768 73.54C232.208 73.44 230.698 73.13 229.238 72.61C227.798 72.07 226.518 71.34 225.398 70.42C224.278 69.5 223.418 68.4 222.818 67.12L228.998 64.48C229.238 64.88 229.628 65.31 230.168 65.77C230.708 66.21 231.348 66.58 232.088 66.88C232.848 67.18 233.678 67.33 234.578 67.33C235.338 67.33 236.058 67.23 236.738 67.03C237.438 66.81 237.998 66.48 238.418 66.04C238.858 65.6 239.078 65.03 239.078 64.33C239.078 63.59 238.818 63.02 238.298 62.62C237.798 62.2 237.158 61.89 236.378 61.69C235.618 61.47 234.878 61.27 234.158 61.09C232.258 60.71 230.488 60.12 228.848 59.32C227.228 58.52 225.918 57.49 224.918 56.23C223.938 54.95 223.448 53.41 223.448 51.61C223.448 49.63 223.968 47.92 225.008 46.48C226.068 45.04 227.438 43.93 229.118 43.15C230.818 42.37 232.648 41.98 234.608 41.98C236.988 41.98 239.168 42.48 241.148 43.48C243.148 44.46 244.728 45.85 245.888 47.65L240.098 51.07C239.818 50.59 239.428 50.15 238.928 49.75C238.428 49.33 237.858 48.99 237.218 48.73C236.578 48.45 235.908 48.29 235.208 48.25C234.308 48.21 233.488 48.29 232.748 48.49C232.008 48.69 231.408 49.03 230.948 49.51C230.508 49.99 230.288 50.63 230.288 51.43C230.288 52.19 230.588 52.76 231.188 53.14C231.788 53.5 232.508 53.78 233.348 53.98C234.208 54.18 235.028 54.4 235.808 54.64C237.568 55.22 239.218 55.93 240.758 56.77C242.318 57.61 243.568 58.64 244.508 59.86C245.448 61.08 245.898 62.54 245.858 64.24C245.858 66.18 245.278 67.88 244.118 69.34C242.958 70.78 241.458 71.88 239.618 72.64C237.798 73.4 235.848 73.7 233.768 73.54Z" fill="#646464"/>
<path d="M87.0781 51.4906H73.5252V38H60.537C60.537 45.4528 54.5134 51.4906 47.0781 51.4906V64.5094H60.537V78H73.5252C73.5252 70.5472 79.6428 64.5094 87.0781 64.5094V51.4906Z" fill="#646464"/>
<path d="M79.8901 348.496H15.8892V337.048H79.8901V348.496ZM79.8901 336.253H15.8892V324.534H79.8901V336.253ZM25.5298 323.735H26.3247V128.043H33.0278V323.735H33.8228V128.043H63.02V323.735H63.8149V128.043H70.5181V323.735H71.313V128.043H79.8901V323.739H15.8892V128.043H25.5298V323.735ZM33.8306 311.754H63.019V310.959H33.8306V311.754ZM33.8306 305.364H63.019V304.569H33.8306V305.364ZM33.8237 146.685L33.8306 147.479L40.5259 147.418V304.565H41.3208V147.41L48.0239 147.35V304.565H48.8188V147.342L55.522 147.281V304.565H56.3169V147.273L63.02 147.213L63.0132 146.418L33.8237 146.685ZM33.8306 140.823H63.019V140.028H33.8306V140.823ZM79.8901 127.248H15.8892V115.264H79.8901V127.248ZM79.8901 114.469H15.8892V102.483H79.8901V114.469Z" fill="#060606"/>
<path d="M146.035 348.496H82.0337V337.048H146.035V348.496ZM146.035 336.253H82.0337V324.534H146.035V336.253ZM91.6743 323.735H92.4692V128.043H99.1724V323.735H99.9673V128.043H129.165V323.735H129.959V128.043H136.663V323.735H137.458V128.043H146.035V323.739H82.0337V128.043H91.6743V323.735ZM99.9751 311.754H129.164V310.959H99.9751V311.754ZM99.9751 305.364H129.164V304.569H99.9751V305.364ZM99.9683 146.685L99.9751 147.479L106.67 147.418V304.565H107.465V147.41L114.168 147.35V304.565H114.963V147.342L121.667 147.281V304.565H122.461V147.273L129.165 147.213L129.158 146.418L99.9683 146.685ZM99.9751 140.823H129.164V140.028H99.9751V140.823ZM146.035 127.248H82.0337V115.264H146.035V127.248ZM146.035 114.469H82.0337V102.483H146.035V114.469Z" fill="#060606"/>
<path d="M212.175 348.496H148.174V337.048H212.175V348.496ZM212.175 336.253H148.174V324.534H212.175V336.253ZM157.815 323.735H158.61V128.043H165.313V323.735H166.108V128.043H195.305V323.735H196.1V128.043H202.803V323.735H203.598V128.043H212.175V323.739H148.174V128.043H157.815V323.735ZM166.116 311.754H195.304V310.959H166.116V311.754ZM166.116 305.364H195.304V304.569H166.116V305.364ZM166.109 146.685L166.116 147.479L172.811 147.418V304.565H173.606V147.41L180.309 147.35V304.565H181.104V147.342L187.807 147.281V304.565H188.602V147.273L195.305 147.213L195.298 146.418L166.109 146.685ZM166.116 140.823H195.304V140.028H166.116V140.823ZM212.175 127.248H148.174V115.264H212.175V127.248ZM212.175 114.469H148.174V102.483H212.175V114.469Z" fill="#060606"/>
<path d="M278.32 348.496H214.319V337.048H278.32V348.496ZM278.32 336.253H214.319V324.534H278.32V336.253ZM223.959 323.735H224.754V128.043H231.458V323.735H232.252V128.043H261.45V323.735H262.245V128.043H268.948V323.735H269.743V128.043H278.32V323.739H214.319V128.043H223.959V323.735ZM232.26 311.754H261.449V310.959H232.26V311.754ZM232.26 305.364H261.449V304.569H232.26V305.364ZM232.253 146.685L232.26 147.479L238.956 147.418V304.565H239.75V147.41L246.454 147.35V304.565H247.249V147.342L253.952 147.281V304.565H254.747V147.273L261.45 147.213L261.443 146.418L232.253 146.685ZM232.26 140.823H261.449V140.028H232.26V140.823ZM278.32 127.248H214.319V115.264H278.32V127.248ZM278.32 114.469H214.319V102.483H278.32V114.469Z" fill="#060606"/>
<path d="M41.5454 393.76H15.8892V380.816H41.5454V393.76ZM47.9595 386.494H42.3472V387.289H58.3823V393.76H42.3403V380.816H47.9595V386.494ZM76.2876 393.76H59.1772V387.289H76.2876V393.76ZM101.944 393.76H77.0825V380.816H101.943V380.021H77.0825V374.884H101.943V374.089H77.0825V370.569H101.943V369.774H77.0825V364.637H101.943V363.842H77.0825V350.615H101.944V393.76ZM68.8052 386.479H69.6001V357.086H76.2876V363.842H69.606V364.637H76.2876V369.774H69.606V370.569H76.2876V374.089H69.606V374.884H76.2876V380.021H69.606V380.816H76.2876V386.494H48.7544V357.086H68.8052V386.479ZM41.5454 380.021H15.8892V374.884H41.5454V380.021ZM47.9595 380.021H42.3403V374.884H47.9595V380.021ZM41.5454 374.089H15.8892V370.569H41.5454V374.089ZM47.9595 374.089H42.3403V370.569H47.9595V374.089ZM41.5454 369.774H15.8892V364.637H41.5454V369.774ZM47.9595 369.774H42.3403V364.637H47.9595V369.774ZM41.5454 363.842H15.8892V350.615H41.5454V363.842ZM58.3823 356.292H42.3472V357.086H47.9595V363.842H42.3403V350.615H58.3823V356.292ZM76.2876 356.292H59.1772V350.615H76.2876V356.292Z" fill="#060606"/>
<path d="M129.717 393.76H104.061V380.816H129.717V393.76ZM136.131 386.494H130.519V387.289H146.554V393.76H130.512V380.816H136.131V386.494ZM164.459 393.76H147.349V387.289H164.459V393.76ZM190.116 393.76H165.254V380.816H190.115V380.021H165.254V374.884H190.115V374.089H165.254V370.569H190.115V369.774H165.254V364.637H190.115V363.842H165.254V350.615H190.116V393.76ZM156.977 386.479H157.772V357.086H164.459V363.842H157.778V364.637H164.459V369.774H157.778V370.569H164.459V374.089H157.778V374.884H164.459V380.021H157.778V380.816H164.459V386.494H136.926V357.086H156.977V386.479ZM129.717 380.021H104.061V374.884H129.717V380.021ZM136.131 380.021H130.512V374.884H136.131V380.021ZM129.717 374.089H104.061V370.569H129.717V374.089ZM136.131 374.089H130.512V370.569H136.131V374.089ZM129.717 369.774H104.061V364.637H129.717V369.774ZM136.131 369.774H130.512V364.637H136.131V369.774ZM129.717 363.842H104.061V350.615H129.717V363.842ZM146.554 356.292H130.519V357.086H136.131V363.842H130.512V350.615H146.554V356.292ZM164.459 356.292H147.349V350.615H164.459V356.292Z" fill="#060606"/>
<path d="M217.889 393.76H192.233V380.816H217.889V393.76ZM224.303 386.494H218.691V387.289H234.726V393.76H218.684V380.816H224.303V386.494ZM252.631 393.76H235.521V387.289H252.631V393.76ZM278.288 393.76H253.426V380.816H278.287V380.021H253.426V374.884H278.287V374.089H253.426V370.569H278.287V369.774H253.426V364.637H278.287V363.842H253.426V350.615H278.288V393.76ZM245.149 386.479H245.944V357.086H252.631V363.842H245.95V364.637H252.631V369.774H245.95V370.569H252.631V374.089H245.95V374.884H252.631V380.021H245.95V380.816H252.631V386.494H225.098V357.086H245.149V386.479ZM217.889 380.021H192.233V374.884H217.889V380.021ZM224.303 380.021H218.684V374.884H224.303V380.021ZM217.889 374.089H192.233V370.569H217.889V374.089ZM224.303 374.089H218.684V370.569H224.303V374.089ZM217.889 369.774H192.233V364.637H217.889V369.774ZM224.303 369.774H218.684V364.637H224.303V369.774ZM217.889 363.842H192.233V350.615H217.889V363.842ZM234.726 356.292H218.691V357.086H224.303V363.842H218.684V350.615H234.726V356.292ZM252.631 356.292H235.521V350.615H252.631V356.292Z" fill="#060606"/>
<path d="M41.5454 439.063H15.8892V426.119H41.5454V439.063ZM47.9595 431.797H42.3472V432.592H58.3823V439.063H42.3403V426.119H47.9595V431.797ZM76.2876 439.063H59.1772V432.592H76.2876V439.063ZM101.944 439.063H77.0825V426.119H101.943V425.324H77.0825V420.188H101.943V419.393H77.0825V415.872H101.943V415.077H77.0825V409.94H101.943V409.146H77.0825V395.918H101.944V439.063ZM68.8052 431.782H69.6001V402.39H76.2876V409.146H69.606V409.94H76.2876V415.077H69.606V415.872H76.2876V419.393H69.606V420.188H76.2876V425.324H69.606V426.119H76.2876V431.797H48.7544V402.39H68.8052V431.782ZM41.5454 425.324H15.8892V420.188H41.5454V425.324ZM47.9595 425.324H42.3403V420.188H47.9595V425.324ZM41.5454 419.393H15.8892V415.872H41.5454V419.393ZM47.9595 419.393H42.3403V415.872H47.9595V419.393ZM41.5454 415.077H15.8892V409.94H41.5454V415.077ZM47.9595 415.077H42.3403V409.94H47.9595V415.077ZM41.5454 409.146H15.8892V395.918H41.5454V409.146ZM58.3823 401.595H42.3472V402.39H47.9595V409.146H42.3403V395.918H58.3823V401.595ZM76.2876 401.595H59.1772V395.918H76.2876V401.595Z" fill="#060606"/>
<path d="M129.717 439.063H104.061V426.119H129.717V439.063ZM136.131 431.797H130.519V432.592H146.554V439.063H130.512V426.119H136.131V431.797ZM164.459 439.063H147.349V432.592H164.459V439.063ZM190.116 439.063H165.254V426.119H190.115V425.324H165.254V420.188H190.115V419.393H165.254V415.872H190.115V415.077H165.254V409.94H190.115V409.146H165.254V395.918H190.116V439.063ZM156.977 431.782H157.772V402.39H164.459V409.146H157.778V409.94H164.459V415.077H157.778V415.872H164.459V419.393H157.778V420.188H164.459V425.324H157.778V426.119H164.459V431.797H136.926V402.39H156.977V431.782ZM129.717 425.324H104.061V420.188H129.717V425.324ZM136.131 425.324H130.512V420.188H136.131V425.324ZM129.717 419.393H104.061V415.872H129.717V419.393ZM136.131 419.393H130.512V415.872H136.131V419.393ZM129.717 415.077H104.061V409.94H129.717V415.077ZM136.131 415.077H130.512V409.94H136.131V415.077ZM129.717 409.146H104.061V395.918H129.717V409.146ZM146.554 401.595H130.519V402.39H136.131V409.146H130.512V395.918H146.554V401.595ZM164.459 401.595H147.349V395.918H164.459V401.595Z" fill="#060606"/>
<path d="M217.889 439.063H192.233V426.119H217.889V439.063ZM224.303 431.797H218.691V432.592H234.726V439.063H218.684V426.119H224.303V431.797ZM252.631 439.063H235.521V432.592H252.631V439.063ZM278.288 439.063H253.426V426.119H278.287V425.324H253.426V420.188H278.287V419.393H253.426V415.872H278.287V415.077H253.426V409.94H278.287V409.146H253.426V395.918H278.288V439.063ZM245.149 431.782H245.944V402.39H252.631V409.146H245.95V409.94H252.631V415.077H245.95V415.872H252.631V419.393H245.95V420.188H252.631V425.324H245.95V426.119H252.631V431.797H225.098V402.39H245.149V431.782ZM217.889 425.324H192.233V420.188H217.889V425.324ZM224.303 425.324H218.684V420.188H224.303V425.324ZM217.889 419.393H192.233V415.872H217.889V419.393ZM224.303 419.393H218.684V415.872H224.303V419.393ZM217.889 415.077H192.233V409.94H217.889V415.077ZM224.303 415.077H218.684V409.94H224.303V415.077ZM217.889 409.146H192.233V395.918H217.889V409.146ZM234.726 401.595H218.691V402.39H224.303V409.146H218.684V395.918H234.726V401.595ZM252.631 401.595H235.521V395.918H252.631V401.595Z" fill="#060606"/>
<path d="M20.3022 459.415H15.8892V441.181H20.3022V459.415ZM25.8198 459.415H21.0972V441.181H25.8198V459.415ZM36.854 454.2H26.647V454.995H36.854V459.415H26.6147V441.181H36.854V454.2ZM42.3716 459.415H37.6489V441.181H42.3716V459.415ZM46.7856 459.415H43.1665V441.181H46.7856V459.415Z" fill="#060606"/>
<path d="M20.3022 479.826H15.8892V461.592H20.3022V479.826ZM25.8198 479.826H21.0972V461.592H25.8198V479.826ZM36.854 467.329H26.647V468.124H36.854V479.826H26.6147V461.592H36.854V467.329ZM42.3716 479.826H37.6489V461.592H42.3716V479.826ZM46.7856 479.826H43.1665V461.592H46.7856V479.826Z" fill="#060606"/>
<path d="M53.3765 459.415H48.9634V441.181H53.3765V459.415ZM58.894 459.415H54.1714V441.181H58.894V459.415ZM69.9282 454.2H59.7212V454.995H69.9282V459.415H59.689V441.181H69.9282V454.2ZM75.4458 459.415H70.7231V441.181H75.4458V459.415ZM79.8599 459.415H76.2407V441.181H79.8599V459.415Z" fill="#060606"/>
<path d="M53.3765 479.826H48.9634V461.592H53.3765V479.826ZM58.894 479.826H54.1714V461.592H58.894V479.826ZM69.9282 467.329H59.7212V468.124H69.9282V479.826H59.689V461.592H69.9282V467.329ZM75.4458 479.826H70.7231V461.592H75.4458V479.826ZM79.8599 479.826H76.2407V461.592H79.8599V479.826Z" fill="#060606"/>
<path d="M86.4546 459.415H82.0415V441.181H86.4546V459.415ZM91.9722 459.415H87.2495V441.181H91.9722V459.415ZM103.006 454.2H92.7993V454.995H103.006V459.415H92.7671V441.181H103.006V454.2ZM108.524 459.415H103.801V441.181H108.524V459.415ZM112.938 459.415H109.319V441.181H112.938V459.415Z" fill="#060606"/>
<path d="M86.4546 479.826H82.0415V461.592H86.4546V479.826ZM91.9722 479.826H87.2495V461.592H91.9722V479.826ZM103.006 467.329H92.7993V468.124H103.006V479.826H92.7671V461.592H103.006V467.329ZM108.524 479.826H103.801V461.592H108.524V479.826ZM112.938 479.826H109.319V461.592H112.938V479.826Z" fill="#060606"/>
<path d="M119.529 459.415H115.116V441.181H119.529V459.415ZM125.046 459.415H120.324V441.181H125.046V459.415ZM136.081 454.2H125.874V454.995H136.081V459.415H125.841V441.181H136.081V454.2ZM141.598 459.415H136.875V441.181H141.598V459.415ZM146.012 459.415H142.393V441.181H146.012V459.415Z" fill="#060606"/>
<path d="M119.529 479.826H115.116V461.592H119.529V479.826ZM125.046 479.826H120.324V461.592H125.046V479.826ZM136.081 467.329H125.874V468.124H136.081V479.826H125.841V461.592H136.081V467.329ZM141.598 479.826H136.875V461.592H141.598V479.826ZM146.012 479.826H142.393V461.592H146.012V479.826Z" fill="#060606"/>
<path d="M152.607 459.415H148.194V441.181H152.607V459.415ZM158.125 459.415H153.402V441.181H158.125V459.415ZM169.159 454.2H158.952V454.995H169.159V459.415H158.919V441.181H169.159V454.2ZM174.676 459.415H169.954V441.181H174.676V459.415ZM179.09 459.415H175.471V441.181H179.09V459.415Z" fill="#060606"/>
<path d="M152.607 479.826H148.194V461.592H152.607V479.826ZM158.125 479.826H153.402V461.592H158.125V479.826ZM169.159 467.329H158.952V468.124H169.159V479.826H158.919V461.592H169.159V467.329ZM174.676 479.826H169.954V461.592H174.676V479.826ZM179.09 479.826H175.471V461.592H179.09V479.826Z" fill="#060606"/>
<path d="M185.681 459.415H181.268V441.181H185.681V459.415ZM191.199 459.415H186.476V441.181H191.199V459.415ZM202.233 454.2H192.026V454.995H202.233V459.415H191.994V441.181H202.233V454.2ZM207.75 459.415H203.028V441.181H207.75V459.415ZM212.165 459.415H208.545V441.181H212.165V459.415Z" fill="#060606"/>
<path d="M185.681 479.826H181.268V461.592H185.681V479.826ZM191.199 479.826H186.476V461.592H191.199V479.826ZM202.233 467.329H192.026V468.124H202.233V479.826H191.994V461.592H202.233V467.329ZM207.75 479.826H203.028V461.592H207.75V479.826ZM212.165 479.826H208.545V461.592H212.165V479.826Z" fill="#060606"/>
<path d="M218.759 459.415H214.346V441.181H218.759V459.415ZM224.277 459.415H219.554V441.181H224.277V459.415ZM235.311 454.2H225.104V454.995H235.311V459.415H225.072V441.181H235.311V454.2ZM240.829 459.415H236.106V441.181H240.829V459.415ZM245.243 459.415H241.624V441.181H245.243V459.415Z" fill="#060606"/>
<path d="M218.759 479.826H214.346V461.592H218.759V479.826ZM224.277 479.826H219.554V461.592H224.277V479.826ZM235.311 467.329H225.104V468.124H235.311V479.826H225.072V461.592H235.311V467.329ZM240.829 479.826H236.106V461.592H240.829V479.826ZM245.243 479.826H241.624V461.592H245.243V479.826Z" fill="#060606"/>
<path d="M251.837 459.415H247.424V441.181H251.837V459.415ZM257.355 459.415H252.632V441.181H257.355V459.415ZM268.389 454.2H258.182V454.995H268.389V459.415H258.15V441.181H268.389V454.2ZM273.907 459.415H269.184V441.181H273.907V459.415ZM278.321 459.415H274.702V441.181H278.321V459.415Z" fill="#060606"/>
<path d="M251.837 479.826H247.424V461.592H251.837V479.826ZM257.355 479.826H252.632V461.592H257.355V479.826ZM268.389 467.329H258.182V468.124H268.389V479.826H258.15V461.592H268.389V467.329ZM273.907 479.826H269.184V461.592H273.907V479.826ZM278.321 479.826H274.702V461.592H278.321V479.826Z" fill="#060606"/>
<path d="M20.3022 500.214H15.8892V481.981H20.3022V500.214ZM25.8198 500.214H21.0972V481.981H25.8198V500.214ZM36.854 495H26.647V495.794H36.854V500.214H26.6147V481.981H36.854V495ZM42.3716 500.214H37.6489V481.981H42.3716V500.214ZM46.7856 500.214H43.1665V481.981H46.7856V500.214Z" fill="#060606"/>
<path d="M20.3022 520.625H15.8892V502.392H20.3022V520.625ZM25.8198 520.625H21.0972V502.392H25.8198V520.625ZM36.854 508.128H26.647V508.923H36.854V520.625H26.6147V502.392H36.854V508.128ZM42.3716 520.625H37.6489V502.392H42.3716V520.625ZM46.7856 520.625H43.1665V502.392H46.7856V520.625Z" fill="#060606"/>
<path d="M53.3765 500.214H48.9634V481.981H53.3765V500.214ZM58.894 500.214H54.1714V481.981H58.894V500.214ZM69.9282 495H59.7212V495.794H69.9282V500.214H59.689V481.981H69.9282V495ZM75.4458 500.214H70.7231V481.981H75.4458V500.214ZM79.8599 500.214H76.2407V481.981H79.8599V500.214Z" fill="#060606"/>
<path d="M53.3765 520.625H48.9634V502.392H53.3765V520.625ZM58.894 520.625H54.1714V502.392H58.894V520.625ZM69.9282 508.128H59.7212V508.923H69.9282V520.625H59.689V502.392H69.9282V508.128ZM75.4458 520.625H70.7231V502.392H75.4458V520.625ZM79.8599 520.625H76.2407V502.392H79.8599V520.625Z" fill="#060606"/>
<path d="M86.4546 500.214H82.0415V481.981H86.4546V500.214ZM91.9722 500.214H87.2495V481.981H91.9722V500.214ZM103.006 495H92.7993V495.794H103.006V500.214H92.7671V481.981H103.006V495ZM108.524 500.214H103.801V481.981H108.524V500.214ZM112.938 500.214H109.319V481.981H112.938V500.214Z" fill="#060606"/>
<path d="M86.4546 520.625H82.0415V502.392H86.4546V520.625ZM91.9722 520.625H87.2495V502.392H91.9722V520.625ZM103.006 508.128H92.7993V508.923H103.006V520.625H92.7671V502.392H103.006V508.128ZM108.524 520.625H103.801V502.392H108.524V520.625ZM112.938 520.625H109.319V502.392H112.938V520.625Z" fill="#060606"/>
<path d="M119.529 500.214H115.116V481.981H119.529V500.214ZM125.046 500.214H120.324V481.981H125.046V500.214ZM136.081 495H125.874V495.794H136.081V500.214H125.841V481.981H136.081V495ZM141.598 500.214H136.875V481.981H141.598V500.214ZM146.012 500.214H142.393V481.981H146.012V500.214Z" fill="#060606"/>
<path d="M119.529 520.625H115.116V502.392H119.529V520.625ZM125.046 520.625H120.324V502.392H125.046V520.625ZM136.081 508.128H125.874V508.923H136.081V520.625H125.841V502.392H136.081V508.128ZM141.598 520.625H136.875V502.392H141.598V520.625ZM146.012 520.625H142.393V502.392H146.012V520.625Z" fill="#060606"/>
<path d="M152.607 500.214H148.194V481.981H152.607V500.214ZM158.125 500.214H153.402V481.981H158.125V500.214ZM169.159 495H158.952V495.794H169.159V500.214H158.919V481.981H169.159V495ZM174.676 500.214H169.954V481.981H174.676V500.214ZM179.09 500.214H175.471V481.981H179.09V500.214Z" fill="#060606"/>
<path d="M152.607 520.625H148.194V502.392H152.607V520.625ZM158.125 520.625H153.402V502.392H158.125V520.625ZM169.159 508.128H158.952V508.923H169.159V520.625H158.919V502.392H169.159V508.128ZM174.676 520.625H169.954V502.392H174.676V520.625ZM179.09 520.625H175.471V502.392H179.09V520.625Z" fill="#060606"/>
<path d="M185.681 500.214H181.268V481.981H185.681V500.214ZM191.199 500.214H186.476V481.981H191.199V500.214ZM202.233 495H192.026V495.794H202.233V500.214H191.994V481.981H202.233V495ZM207.75 500.214H203.028V481.981H207.75V500.214ZM212.165 500.214H208.545V481.981H212.165V500.214Z" fill="#060606"/>
<path d="M185.681 520.625H181.268V502.392H185.681V520.625ZM191.199 520.625H186.476V502.392H191.199V520.625ZM202.233 508.128H192.026V508.923H202.233V520.625H191.994V502.392H202.233V508.128ZM207.75 520.625H203.028V502.392H207.75V520.625ZM212.165 520.625H208.545V502.392H212.165V520.625Z" fill="#060606"/>
<path d="M218.759 500.214H214.346V481.981H218.759V500.214ZM224.277 500.214H219.554V481.981H224.277V500.214ZM235.311 495H225.104V495.794H235.311V500.214H225.072V481.981H235.311V495ZM240.829 500.214H236.106V481.981H240.829V500.214ZM245.243 500.214H241.624V481.981H245.243V500.214Z" fill="#060606"/>
<path d="M218.759 520.625H214.346V502.392H218.759V520.625ZM224.277 520.625H219.554V502.392H224.277V520.625ZM235.311 508.128H225.104V508.923H235.311V520.625H225.072V502.392H235.311V508.128ZM240.829 520.625H236.106V502.392H240.829V520.625ZM245.243 520.625H241.624V502.392H245.243V520.625Z" fill="#060606"/>
<path d="M251.837 500.214H247.424V481.981H251.837V500.214ZM257.355 500.214H252.632V481.981H257.355V500.214ZM268.389 495H258.182V495.794H268.389V500.214H258.15V481.981H268.389V495ZM273.907 500.214H269.184V481.981H273.907V500.214ZM278.321 500.214H274.702V481.981H278.321V500.214Z" fill="#060606"/>
<path d="M251.837 520.625H247.424V502.392H251.837V520.625ZM257.355 520.625H252.632V502.392H257.355V520.625ZM268.389 508.128H258.182V508.923H268.389V520.625H258.15V502.392H268.389V508.128ZM273.907 520.625H269.184V502.392H273.907V520.625ZM278.321 520.625H274.702V502.392H278.321V520.625Z" fill="#060606"/>
<path d="M33.3306 555.582H15.8892V547.637H33.3306V555.582ZM37.2358 555.582H34.1255V547.637H37.2358V555.582ZM41.1401 555.582H38.0308V547.637H41.1401V555.582ZM45.0454 555.582H41.9351V547.637H45.0454V555.582ZM48.9507 555.582H45.8403V547.637H48.9507V555.582ZM52.855 555.582H49.7456V547.637H52.855V555.582ZM56.7603 555.582H53.6499V547.637H56.7603V555.582ZM60.6646 555.582H57.5552V547.637H60.6646V555.582ZM79.9292 555.582H61.4595V547.637H79.9292V555.582ZM36.7153 546.842H15.8892V530.689H36.7153V546.842ZM59.103 546.842H37.5103V539.164H59.103V546.842ZM79.9292 546.842H59.8979V530.689H79.9292V546.842ZM59.103 538.369H37.5103V530.689H59.103V538.369ZM33.3306 529.894H15.8892V522.745H33.3306V529.894ZM37.2358 529.894H34.1255V522.745H37.2358V529.894ZM41.1401 529.894H38.0308V522.745H41.1401V529.894ZM45.0454 529.894H41.9351V522.745H45.0454V529.894ZM48.9507 529.894H45.8403V522.745H48.9507V529.894ZM52.855 529.894H49.7456V522.745H52.855V529.894ZM56.7603 529.894H53.6499V522.745H56.7603V529.894ZM60.6646 529.894H57.5552V522.745H60.6646V529.894ZM79.9292 529.894H61.4595V522.745H79.9292V529.894Z" fill="#060606"/>
<path d="M99.4595 555.582H82.0181V547.637H99.4595V555.582ZM103.365 555.582H100.254V547.637H103.365V555.582ZM107.269 555.582H104.16V547.637H107.269V555.582ZM111.174 555.582H108.064V547.637H111.174V555.582ZM115.08 555.582H111.969V547.637H115.08V555.582ZM118.984 555.582H115.875V547.637H118.984V555.582ZM122.889 555.582H119.779V547.637H122.889V555.582ZM126.793 555.582H123.684V547.637H126.793V555.582ZM146.058 555.582H127.588V547.637H146.058V555.582ZM102.844 546.842H82.0181V530.689H102.844V546.842ZM125.232 546.842H103.639V539.164H125.232V546.842ZM146.058 546.842H126.027V530.689H146.058V546.842ZM125.232 538.369H103.639V530.689H125.232V538.369ZM99.4595 529.894H82.0181V522.745H99.4595V529.894ZM103.365 529.894H100.254V522.745H103.365V529.894ZM107.269 529.894H104.16V522.745H107.269V529.894ZM111.174 529.894H108.064V522.745H111.174V529.894ZM115.08 529.894H111.969V522.745H115.08V529.894ZM118.984 529.894H115.875V522.745H118.984V529.894ZM122.889 529.894H119.779V522.745H122.889V529.894ZM126.793 529.894H123.684V522.745H126.793V529.894ZM146.058 529.894H127.588V522.745H146.058V529.894Z" fill="#060606"/>
<path d="M165.588 555.582H148.147V547.637H165.588V555.582ZM169.494 555.582H166.383V547.637H169.494V555.582ZM173.398 555.582H170.289V547.637H173.398V555.582ZM177.303 555.582H174.193V547.637H177.303V555.582ZM181.208 555.582H178.098V547.637H181.208V555.582ZM185.113 555.582H182.003V547.637H185.113V555.582ZM189.018 555.582H185.908V547.637H189.018V555.582ZM192.922 555.582H189.813V547.637H192.922V555.582ZM212.187 555.582H193.717V547.637H212.187V555.582ZM168.973 546.842H148.147V530.689H168.973V546.842ZM191.361 546.842H169.768V539.164H191.361V546.842ZM212.187 546.842H192.156V530.689H212.187V546.842ZM191.361 538.369H169.768V530.689H191.361V538.369ZM165.588 529.894H148.147V522.745H165.588V529.894ZM169.494 529.894H166.383V522.745H169.494V529.894ZM173.398 529.894H170.289V522.745H173.398V529.894ZM177.303 529.894H174.193V522.745H177.303V529.894ZM181.208 529.894H178.098V522.745H181.208V529.894ZM185.113 529.894H182.003V522.745H185.113V529.894ZM189.018 529.894H185.908V522.745H189.018V529.894ZM192.922 529.894H189.813V522.745H192.922V529.894ZM212.187 529.894H193.717V522.745H212.187V529.894Z" fill="#060606"/>
<path d="M231.721 555.582H214.28V547.637H231.721V555.582ZM235.626 555.582H232.516V547.637H235.626V555.582ZM239.531 555.582H236.421V547.637H239.531V555.582ZM243.436 555.582H240.326V547.637H243.436V555.582ZM247.341 555.582H244.231V547.637H247.341V555.582ZM251.246 555.582H248.136V547.637H251.246V555.582ZM255.151 555.582H252.041V547.637H255.151V555.582ZM259.055 555.582H255.946V547.637H259.055V555.582ZM278.32 555.582H259.85V547.637H278.32V555.582ZM235.106 546.842H214.28V530.689H235.106V546.842ZM257.494 546.842H235.901V539.164H257.494V546.842ZM278.32 546.842H258.289V530.689H278.32V546.842ZM257.494 538.369H235.901V530.689H257.494V538.369ZM231.721 529.894H214.28V522.745H231.721V529.894ZM235.626 529.894H232.516V522.745H235.626V529.894ZM239.531 529.894H236.421V522.745H239.531V529.894ZM243.436 529.894H240.326V522.745H243.436V529.894ZM247.341 529.894H244.231V522.745H247.341V529.894ZM251.246 529.894H248.136V522.745H251.246V529.894ZM255.151 529.894H252.041V522.745H255.151V529.894ZM259.055 529.894H255.946V522.745H259.055V529.894ZM278.32 529.894H259.85V522.745H278.32V529.894Z" fill="#060606"/>
<path d="M289.091 133.202H280.44V133.997H289.091V137.438H280.44V138.233H289.091V142.735H280.439V128.965H289.091V133.202ZM324.776 142.735H289.886V128.965H324.776V142.735ZM333.428 142.735H325.571V138.233H333.428V142.735ZM333.428 137.438H325.571V133.997H333.428V137.438ZM333.428 133.202H325.571V128.965H333.428V133.202ZM289.091 119.432H280.44V120.227H289.091V124.198H280.44V124.993H289.091V128.17H280.439V114.665H289.091V119.432ZM297.742 128.17H289.886V114.665H297.742V128.17ZM306.934 128.17H298.537V114.665H306.934V128.17ZM316.126 128.17H307.729V114.665H316.126V128.17ZM324.776 128.17H316.921V114.665H324.776V128.17ZM333.428 128.17H325.571V124.993H333.428V128.17ZM333.428 124.198H325.571V120.227H333.428V124.198ZM333.428 119.432H325.571V114.665H333.428V119.432ZM292.478 113.87H280.439V107.25H292.478V113.87ZM297.742 113.87H293.272V107.25H297.742V113.87ZM306.934 113.87H298.537V107.25H306.934V113.87ZM316.126 113.87H307.729V107.25H316.126V113.87ZM320.595 113.87H316.921V107.25H320.595V113.87ZM333.428 113.87H321.39V107.25H333.428V113.87ZM289.091 56.4053H280.44V57.2002H289.091V61.4365H280.44V62.2314H289.091V66.4688H280.44V67.2637H289.091V71.5H280.44V72.2949H289.091V76.5312H280.44V77.3262H289.091V81.5625H280.44V82.3574H289.091V86.5947H280.44V87.3896H289.091V91.626H280.44V92.4209H289.091V96.6572H280.44V97.4521H289.091V101.688H280.44V102.483H289.091V106.455H280.439V51.1094H289.091V56.4053ZM297.742 106.455H289.886V51.1094H297.742V106.455ZM306.934 106.455H298.537V51.1094H306.934V106.455ZM316.126 106.455H307.729V51.1094H316.126V106.455ZM324.776 106.455H316.921V51.1094H324.776V106.455ZM333.428 106.455H325.571V102.483H333.428V106.455ZM333.428 101.688H325.571V97.4521H333.428V101.688ZM333.428 96.6572H325.571V92.4209H333.428V96.6572ZM333.428 91.626H325.571V87.3896H333.428V91.626ZM333.428 86.5947H325.571V82.3574H333.428V86.5947ZM333.428 81.5625H325.571V77.3262H333.428V81.5625ZM333.428 76.5312H325.571V72.2949H333.428V76.5312ZM333.428 71.5H325.571V67.2637H333.428V71.5ZM333.428 66.4688H325.571V62.2314H333.428V66.4688ZM333.428 61.4365H325.571V57.2002H333.428V61.4365ZM333.428 56.4053H325.571V51.1094H333.428V56.4053ZM292.478 50.3145H280.439V43.6943H292.478V50.3145ZM297.742 50.3145H293.272V43.6943H297.742V50.3145ZM306.934 50.3145H298.537V43.6943H306.934V50.3145ZM316.126 50.3145H307.729V43.6943H316.126V50.3145ZM320.595 50.3145H316.921V43.6943H320.595V50.3145ZM333.428 50.3145H321.39V43.6943H333.428V50.3145ZM289.091 34.1611H280.44V34.9561H289.091V38.9277H280.44V39.7227H289.091V42.8994H280.439V29.9238H289.091V34.1611ZM297.742 42.8994H289.886V29.9238H297.742V42.8994ZM306.934 42.8994H298.537V29.9238H306.934V42.8994ZM316.126 42.8994H307.729V29.9238H316.126V42.8994ZM324.776 42.8994H316.921V29.9238H324.776V42.8994ZM333.428 42.8994H325.571V39.7227H333.428V42.8994ZM333.428 38.9277H325.571V34.9561H333.428V38.9277ZM333.428 34.1611H325.571V29.9238H333.428V34.1611ZM289.091 19.8613H280.44V20.6562H289.091V24.6279H280.44V25.4229H289.091V29.1289H280.439V15.624H289.091V19.8613ZM324.776 29.1289H289.886V15.624H324.776V29.1289ZM333.428 29.1289H325.571V25.4229H333.428V29.1289ZM333.428 24.6279H325.571V20.6562H333.428V24.6279ZM333.428 19.8613H325.571V15.624H333.428V19.8613Z" fill="#060606"/>
<path d="M344.231 133.202H335.581V133.997H344.231V137.438H335.581V138.233H344.231V142.735H335.58V128.965H344.231V133.202ZM379.917 142.735H345.026V128.965H379.917V142.735ZM388.568 142.735H380.712V138.233H388.568V142.735ZM388.568 137.438H380.712V133.997H388.568V137.438ZM388.568 133.202H380.712V128.965H388.568V133.202ZM344.231 119.432H335.581V120.227H344.231V124.198H335.581V124.993H344.231V128.17H335.58V114.665H344.231V119.432ZM352.883 128.17H345.026V114.665H352.883V128.17ZM362.074 128.17H353.678V114.665H362.074V128.17ZM371.267 128.17H362.869V114.665H371.267V128.17ZM379.917 128.17H372.062V114.665H379.917V128.17ZM388.568 128.17H380.712V124.993H388.568V128.17ZM388.568 124.198H380.712V120.227H388.568V124.198ZM388.568 119.432H380.712V114.665H388.568V119.432ZM347.618 113.87H335.58V107.25H347.618V113.87ZM352.883 113.87H348.413V107.25H352.883V113.87ZM362.074 113.87H353.678V107.25H362.074V113.87ZM371.267 113.87H362.869V107.25H371.267V113.87ZM375.735 113.87H372.062V107.25H375.735V113.87ZM388.568 113.87H376.53V107.25H388.568V113.87ZM344.231 56.4053H335.581V57.2002H344.231V61.4365H335.581V62.2314H344.231V66.4688H335.581V67.2637H344.231V71.5H335.581V72.2949H344.231V76.5312H335.581V77.3262H344.231V81.5625H335.581V82.3574H344.231V86.5947H335.581V87.3896H344.231V91.626H335.581V92.4209H344.231V96.6572H335.581V97.4521H344.231V101.688H335.581V102.483H344.231V106.455H335.58V51.1094H344.231V56.4053ZM352.883 106.455H345.026V51.1094H352.883V106.455ZM362.074 106.455H353.678V51.1094H362.074V106.455ZM371.267 106.455H362.869V51.1094H371.267V106.455ZM379.917 106.455H372.062V51.1094H379.917V106.455ZM388.568 106.455H380.712V102.483H388.568V106.455ZM388.568 101.688H380.712V97.4521H388.568V101.688ZM388.568 96.6572H380.712V92.4209H388.568V96.6572ZM388.568 91.626H380.712V87.3896H388.568V91.626ZM388.568 86.5947H380.712V82.3574H388.568V86.5947ZM388.568 81.5625H380.712V77.3262H388.568V81.5625ZM388.568 76.5312H380.712V72.2949H388.568V76.5312ZM388.568 71.5H380.712V67.2637H388.568V71.5ZM388.568 66.4688H380.712V62.2314H388.568V66.4688ZM388.568 61.4365H380.712V57.2002H388.568V61.4365ZM388.568 56.4053H380.712V51.1094H388.568V56.4053ZM347.618 50.3145H335.58V43.6943H347.618V50.3145ZM352.883 50.3145H348.413V43.6943H352.883V50.3145ZM362.074 50.3145H353.678V43.6943H362.074V50.3145ZM371.267 50.3145H362.869V43.6943H371.267V50.3145ZM375.735 50.3145H372.062V43.6943H375.735V50.3145ZM388.568 50.3145H376.53V43.6943H388.568V50.3145ZM344.231 34.1611H335.581V34.9561H344.231V38.9277H335.581V39.7227H344.231V42.8994H335.58V29.9238H344.231V34.1611ZM352.883 42.8994H345.026V29.9238H352.883V42.8994ZM362.074 42.8994H353.678V29.9238H362.074V42.8994ZM371.267 42.8994H362.869V29.9238H371.267V42.8994ZM379.917 42.8994H372.062V29.9238H379.917V42.8994ZM388.568 42.8994H380.712V39.7227H388.568V42.8994ZM388.568 38.9277H380.712V34.9561H388.568V38.9277ZM388.568 34.1611H380.712V29.9238H388.568V34.1611ZM344.231 19.8613H335.581V20.6562H344.231V24.6279H335.581V25.4229H344.231V29.1289H335.58V15.624H344.231V19.8613ZM379.917 29.1289H345.026V15.624H379.917V29.1289ZM388.568 29.1289H380.712V25.4229H388.568V29.1289ZM388.568 24.6279H380.712V20.6562H388.568V24.6279ZM388.568 19.8613H380.712V15.624H388.568V19.8613Z" fill="#060606"/>
<path d="M399.416 142.735H390.721V138.233H399.416V142.735ZM435.283 142.735H400.211V128.965H435.283V142.735ZM443.979 142.735H436.078V138.233H443.979V142.735ZM399.416 137.438H390.721V133.997H399.416V137.438ZM443.979 137.438H436.078V133.997H443.979V137.438ZM399.416 133.202H390.721V128.965H399.416V133.202ZM443.979 133.202H436.078V128.965H443.979V133.202ZM399.416 128.17H390.721V124.993H399.416V128.17ZM408.11 128.17H400.211V114.665H408.11V128.17ZM417.35 128.17H408.905V114.665H417.35V128.17ZM426.588 128.17H418.145V114.665H426.588V128.17ZM435.283 128.17H427.383V114.665H435.283V128.17ZM443.979 128.17H436.078V124.993H443.979V128.17ZM443.979 124.198H436.078V120.227H443.979V124.198ZM399.416 124.198H390.721V120.227H399.416V124.198ZM399.416 119.432H390.721V114.665H399.416V119.432ZM443.979 119.432H436.078V114.665H443.979V119.432ZM402.822 113.87H390.721V107.25H402.822V113.87ZM408.11 113.87H403.617V107.25H408.11V113.87ZM417.35 113.87H408.905V107.25H417.35V113.87ZM426.588 113.87H418.145V107.25H426.588V113.87ZM431.081 113.87H427.383V107.25H431.081V113.87ZM443.979 113.87H431.876V107.25H443.979V113.87ZM399.416 106.455H390.721V102.483H399.416V106.455ZM408.11 106.455H400.211V51.1094H408.11V106.455ZM417.35 106.455H408.905V51.1094H417.35V106.455ZM426.588 106.455H418.145V51.1094H426.588V106.455ZM435.283 106.455H427.383V51.1094H435.283V106.455ZM443.979 106.455H436.078V102.483H443.979V106.455ZM399.416 101.688H390.721V97.4521H399.416V101.688ZM443.979 101.688H436.078V97.4521H443.979V101.688ZM399.416 96.6572H390.721V92.4209H399.416V96.6572ZM443.979 96.6572H436.078V92.4209H443.979V96.6572ZM399.416 91.626H390.721V87.3896H399.416V91.626ZM443.979 91.626H436.078V87.3896H443.979V91.626ZM399.416 86.5947H390.721V82.3574H399.416V86.5947ZM443.979 86.5947H436.078V82.3574H443.979V86.5947ZM399.416 81.5625H390.721V77.3262H399.416V81.5625ZM443.979 81.5625H436.078V77.3262H443.979V81.5625ZM399.416 76.5312H390.721V72.2949H399.416V76.5312ZM443.979 76.5312H436.078V72.2949H443.979V76.5312ZM399.416 71.5H390.721V67.2637H399.416V71.5ZM443.979 71.5H436.078V67.2637H443.979V71.5ZM399.416 66.4688H390.721V62.2314H399.416V66.4688ZM443.979 66.4688H436.078V62.2314H443.979V66.4688ZM399.416 61.4365H390.721V57.2002H399.416V61.4365ZM443.979 61.4365H436.078V57.2002H443.979V61.4365ZM399.416 56.4053H390.721V51.1094H399.416V56.4053ZM443.979 56.4053H436.078V51.1094H443.979V56.4053ZM402.822 50.3145H390.721V43.6943H402.822V50.3145ZM408.11 50.3145H403.617V43.6943H408.11V50.3145ZM417.35 50.3145H408.905V43.6943H417.35V50.3145ZM426.588 50.3145H418.145V43.6943H426.588V50.3145ZM431.081 50.3145H427.383V43.6943H431.081V50.3145ZM443.979 50.3145H431.876V43.6943H443.979V50.3145ZM399.416 42.8994H390.721V39.7227H399.416V42.8994ZM408.11 42.8994H400.211V29.9238H408.11V42.8994ZM417.35 42.8994H408.905V29.9238H417.35V42.8994ZM426.588 42.8994H418.145V29.9238H426.588V42.8994ZM435.283 42.8994H427.383V29.9238H435.283V42.8994ZM443.979 42.8994H436.078V39.7227H443.979V42.8994ZM399.416 38.9277H390.721V34.9561H399.416V38.9277ZM443.979 38.9277H436.078V34.9561H443.979V38.9277ZM399.416 34.1611H390.721V29.9238H399.416V34.1611ZM443.979 34.1611H436.078V29.9238H443.979V34.1611ZM399.416 29.1289H390.721V25.4229H399.416V29.1289ZM435.283 29.1289H400.211V15.624H435.283V29.1289ZM443.979 29.1289H436.078V25.4229H443.979V29.1289ZM399.416 24.6279H390.721V20.6562H399.416V24.6279ZM443.979 24.6279H436.078V20.6562H443.979V24.6279ZM399.416 19.8613H390.721V15.624H399.416V19.8613ZM443.979 19.8613H436.078V15.624H443.979V19.8613Z" fill="#060606"/>
<path d="M454.782 133.202H446.132V133.997H454.782V137.438H446.132V138.233H454.782V142.735H446.131V128.965H454.782V133.202ZM490.468 142.735H455.577V128.965H490.468V142.735ZM499.119 142.735H491.263V138.233H499.119V142.735ZM499.119 137.438H491.263V133.997H499.119V137.438ZM499.119 133.202H491.263V128.965H499.119V133.202ZM454.782 119.432H446.132V120.227H454.782V124.198H446.132V124.993H454.782V128.17H446.131V114.665H454.782V119.432ZM463.434 128.17H455.577V114.665H463.434V128.17ZM472.625 128.17H464.229V114.665H472.625V128.17ZM481.817 128.17H473.42V114.665H481.817V128.17ZM490.468 128.17H482.612V114.665H490.468V128.17ZM499.119 128.17H491.263V124.993H499.119V128.17ZM499.119 124.198H491.263V120.227H499.119V124.198ZM499.119 119.432H491.263V114.665H499.119V119.432ZM458.169 113.87H446.131V107.25H458.169V113.87ZM463.434 113.87H458.964V107.25H463.434V113.87ZM472.625 113.87H464.229V107.25H472.625V113.87ZM481.817 113.87H473.42V107.25H481.817V113.87ZM486.286 113.87H482.612V107.25H486.286V113.87ZM499.119 113.87H487.081V107.25H499.119V113.87ZM454.782 56.4053H446.132V57.2002H454.782V61.4365H446.132V62.2314H454.782V66.4688H446.132V67.2637H454.782V71.5H446.132V72.2949H454.782V76.5312H446.132V77.3262H454.782V81.5625H446.132V82.3574H454.782V86.5947H446.132V87.3896H454.782V91.626H446.132V92.4209H454.782V96.6572H446.132V97.4521H454.782V101.688H446.132V102.483H454.782V106.455H446.131V51.1094H454.782V56.4053ZM463.434 106.455H455.577V51.1094H463.434V106.455ZM472.625 106.455H464.229V51.1094H472.625V106.455ZM481.817 106.455H473.42V51.1094H481.817V106.455ZM490.468 106.455H482.612V51.1094H490.468V106.455ZM499.119 106.455H491.263V102.483H499.119V106.455ZM499.119 101.688H491.263V97.4521H499.119V101.688ZM499.119 96.6572H491.263V92.4209H499.119V96.6572ZM499.119 91.626H491.263V87.3896H499.119V91.626ZM499.119 86.5947H491.263V82.3574H499.119V86.5947ZM499.119 81.5625H491.263V77.3262H499.119V81.5625ZM499.119 76.5312H491.263V72.2949H499.119V76.5312ZM499.119 71.5H491.263V67.2637H499.119V71.5ZM499.119 66.4688H491.263V62.2314H499.119V66.4688ZM499.119 61.4365H491.263V57.2002H499.119V61.4365ZM499.119 56.4053H491.263V51.1094H499.119V56.4053ZM458.169 50.3145H446.131V43.6943H458.169V50.3145ZM463.434 50.3145H458.964V43.6943H463.434V50.3145ZM472.625 50.3145H464.229V43.6943H472.625V50.3145ZM481.817 50.3145H473.42V43.6943H481.817V50.3145ZM486.286 50.3145H482.612V43.6943H486.286V50.3145ZM499.119 50.3145H487.081V43.6943H499.119V50.3145ZM454.782 34.1611H446.132V34.9561H454.782V38.9277H446.132V39.7227H454.782V42.8994H446.131V29.9238H454.782V34.1611ZM463.434 42.8994H455.577V29.9238H463.434V42.8994ZM472.625 42.8994H464.229V29.9238H472.625V42.8994ZM481.817 42.8994H473.42V29.9238H481.817V42.8994ZM490.468 42.8994H482.612V29.9238H490.468V42.8994ZM499.119 42.8994H491.263V39.7227H499.119V42.8994ZM499.119 38.9277H491.263V34.9561H499.119V38.9277ZM499.119 34.1611H491.263V29.9238H499.119V34.1611ZM454.782 19.8613H446.132V20.6562H454.782V24.6279H446.132V25.4229H454.782V29.1289H446.131V15.624H454.782V19.8613ZM490.468 29.1289H455.577V15.624H490.468V29.1289ZM499.119 29.1289H491.263V25.4229H499.119V29.1289ZM499.119 24.6279H491.263V20.6562H499.119V24.6279ZM499.119 19.8613H491.263V15.624H499.119V19.8613Z" fill="#060606"/>
<path d="M509.923 133.202H501.272V133.997H509.923V137.438H501.272V138.233H509.923V142.735H501.271V128.965H509.923V133.202ZM545.608 142.735H510.718V128.965H545.608V142.735ZM554.26 142.735H546.403V138.233H554.26V142.735ZM554.26 137.438H546.403V133.997H554.26V137.438ZM554.26 133.202H546.403V128.965H554.26V133.202ZM509.923 119.432H501.272V120.227H509.923V124.198H501.272V124.993H509.923V128.17H501.271V114.665H509.923V119.432ZM518.574 128.17H510.718V114.665H518.574V128.17ZM527.766 128.17H519.369V114.665H527.766V128.17ZM536.958 128.17H528.561V114.665H536.958V128.17ZM545.608 128.17H537.753V114.665H545.608V128.17ZM554.26 128.17H546.403V124.993H554.26V128.17ZM554.26 124.198H546.403V120.227H554.26V124.198ZM554.26 119.432H546.403V114.665H554.26V119.432ZM513.31 113.87H501.271V107.25H513.31V113.87ZM518.574 113.87H514.104V107.25H518.574V113.87ZM527.766 113.87H519.369V107.25H527.766V113.87ZM536.958 113.87H528.561V107.25H536.958V113.87ZM541.427 113.87H537.753V107.25H541.427V113.87ZM554.26 113.87H542.222V107.25H554.26V113.87ZM509.923 56.4053H501.272V57.2002H509.923V61.4365H501.272V62.2314H509.923V66.4688H501.272V67.2637H509.923V71.5H501.272V72.2949H509.923V76.5312H501.272V77.3262H509.923V81.5625H501.272V82.3574H509.923V86.5947H501.272V87.3896H509.923V91.626H501.272V92.4209H509.923V96.6572H501.272V97.4521H509.923V101.688H501.272V102.483H509.923V106.455H501.271V51.1094H509.923V56.4053ZM518.574 106.455H510.718V51.1094H518.574V106.455ZM527.766 106.455H519.369V51.1094H527.766V106.455ZM536.958 106.455H528.561V51.1094H536.958V106.455ZM545.608 106.455H537.753V51.1094H545.608V106.455ZM554.26 106.455H546.403V102.483H554.26V106.455ZM554.26 101.688H546.403V97.4521H554.26V101.688ZM554.26 96.6572H546.403V92.4209H554.26V96.6572ZM554.26 91.626H546.403V87.3896H554.26V91.626ZM554.26 86.5947H546.403V82.3574H554.26V86.5947ZM554.26 81.5625H546.403V77.3262H554.26V81.5625ZM554.26 76.5312H546.403V72.2949H554.26V76.5312ZM554.26 71.5H546.403V67.2637H554.26V71.5ZM554.26 66.4688H546.403V62.2314H554.26V66.4688ZM554.26 61.4365H546.403V57.2002H554.26V61.4365ZM554.26 56.4053H546.403V51.1094H554.26V56.4053ZM513.31 50.3145H501.271V43.6943H513.31V50.3145ZM518.574 50.3145H514.104V43.6943H518.574V50.3145ZM527.766 50.3145H519.369V43.6943H527.766V50.3145ZM536.958 50.3145H528.561V43.6943H536.958V50.3145ZM541.427 50.3145H537.753V43.6943H541.427V50.3145ZM554.26 50.3145H542.222V43.6943H554.26V50.3145ZM509.923 34.1611H501.272V34.9561H509.923V38.9277H501.272V39.7227H509.923V42.8994H501.271V29.9238H509.923V34.1611ZM518.574 42.8994H510.718V29.9238H518.574V42.8994ZM527.766 42.8994H519.369V29.9238H527.766V42.8994ZM536.958 42.8994H528.561V29.9238H536.958V42.8994ZM545.608 42.8994H537.753V29.9238H545.608V42.8994ZM554.26 42.8994H546.403V39.7227H554.26V42.8994ZM554.26 38.9277H546.403V34.9561H554.26V38.9277ZM554.26 34.1611H546.403V29.9238H554.26V34.1611ZM509.923 19.8613H501.272V20.6562H509.923V24.6279H501.272V25.4229H509.923V29.1289H501.271V15.624H509.923V19.8613ZM545.608 29.1289H510.718V15.624H545.608V29.1289ZM554.26 29.1289H546.403V25.4229H554.26V29.1289ZM554.26 24.6279H546.403V20.6562H554.26V24.6279ZM554.26 19.8613H546.403V15.624H554.26V19.8613Z" fill="#060606"/>
<path d="M289.091 262.432H280.44V263.227H289.091V266.668H280.44V267.463H289.091V271.965H280.439V258.194H289.091V262.432ZM324.776 271.965H289.886V258.194H324.776V271.965ZM333.428 271.965H325.571V267.463H333.428V271.965ZM333.428 266.668H325.571V263.227H333.428V266.668ZM333.428 262.432H325.571V258.194H333.428V262.432ZM289.091 248.661H280.44V249.456H289.091V253.428H280.44V254.223H289.091V257.399H280.439V243.895H289.091V248.661ZM297.742 257.399H289.886V243.895H297.742V257.399ZM306.934 257.399H298.537V243.895H306.934V257.399ZM316.126 257.399H307.729V243.895H316.126V257.399ZM324.776 257.399H316.921V243.895H324.776V257.399ZM333.428 257.399H325.571V254.223H333.428V257.399ZM333.428 253.428H325.571V249.456H333.428V253.428ZM333.428 248.661H325.571V243.895H333.428V248.661ZM292.478 243.1H280.439V236.479H292.478V243.1ZM297.742 243.1H293.272V236.479H297.742V243.1ZM306.934 243.1H298.537V236.479H306.934V243.1ZM316.126 243.1H307.729V236.479H316.126V243.1ZM320.595 243.1H316.921V236.479H320.595V243.1ZM333.428 243.1H321.39V236.479H333.428V243.1ZM289.091 185.635H280.44V186.43H289.091V190.666H280.44V191.461H289.091V195.698H280.44V196.493H289.091V200.729H280.44V201.524H289.091V205.761H280.44V206.556H289.091V210.792H280.44V211.587H289.091V215.824H280.44V216.619H289.091V220.855H280.44V221.65H289.091V225.887H280.44V226.682H289.091V230.918H280.44V231.713H289.091V235.685H280.439V180.339H289.091V185.635ZM297.742 235.685H289.886V180.339H297.742V235.685ZM306.934 235.685H298.537V180.339H306.934V235.685ZM316.126 235.685H307.729V180.339H316.126V235.685ZM324.776 235.685H316.921V180.339H324.776V235.685ZM333.428 235.685H325.571V231.713H333.428V235.685ZM333.428 230.918H325.571V226.682H333.428V230.918ZM333.428 225.887H325.571V221.65H333.428V225.887ZM333.428 220.855H325.571V216.619H333.428V220.855ZM333.428 215.824H325.571V211.587H333.428V215.824ZM333.428 210.792H325.571V206.556H333.428V210.792ZM333.428 205.761H325.571V201.524H333.428V205.761ZM333.428 200.729H325.571V196.493H333.428V200.729ZM333.428 195.698H325.571V191.461H333.428V195.698ZM333.428 190.666H325.571V186.43H333.428V190.666ZM333.428 185.635H325.571V180.339H333.428V185.635ZM292.478 179.544H280.439V172.924H292.478V179.544ZM297.742 179.544H293.272V172.924H297.742V179.544ZM306.934 179.544H298.537V172.924H306.934V179.544ZM316.126 179.544H307.729V172.924H316.126V179.544ZM320.595 179.544H316.921V172.924H320.595V179.544ZM333.428 179.544H321.39V172.924H333.428V179.544ZM289.091 163.391H280.44V164.186H289.091V168.157H280.44V168.952H289.091V172.129H280.439V159.153H289.091V163.391ZM297.742 172.129H289.886V159.153H297.742V172.129ZM306.934 172.129H298.537V159.153H306.934V172.129ZM316.126 172.129H307.729V159.153H316.126V172.129ZM324.776 172.129H316.921V159.153H324.776V172.129ZM333.428 172.129H325.571V168.952H333.428V172.129ZM333.428 168.157H325.571V164.186H333.428V168.157ZM333.428 163.391H325.571V159.153H333.428V163.391ZM289.091 149.091H280.44V149.886H289.091V153.857H280.44V154.652H289.091V158.358H280.439V144.854H289.091V149.091ZM324.776 158.358H289.886V144.854H324.776V158.358ZM333.428 158.358H325.571V154.652H333.428V158.358ZM333.428 153.857H325.571V149.886H333.428V153.857ZM333.428 149.091H325.571V144.854H333.428V149.091Z" fill="#060606"/>
<path d="M344.231 262.432H335.581V263.227H344.231V266.668H335.581V267.463H344.231V271.965H335.58V258.194H344.231V262.432ZM379.917 271.965H345.026V258.194H379.917V271.965ZM388.568 271.965H380.712V267.463H388.568V271.965ZM388.568 266.668H380.712V263.227H388.568V266.668ZM388.568 262.432H380.712V258.194H388.568V262.432ZM344.231 248.661H335.581V249.456H344.231V253.428H335.581V254.223H344.231V257.399H335.58V243.895H344.231V248.661ZM352.883 257.399H345.026V243.895H352.883V257.399ZM362.074 257.399H353.678V243.895H362.074V257.399ZM371.267 257.399H362.869V243.895H371.267V257.399ZM379.917 257.399H372.062V243.895H379.917V257.399ZM388.568 257.399H380.712V254.223H388.568V257.399ZM388.568 253.428H380.712V249.456H388.568V253.428ZM388.568 248.661H380.712V243.895H388.568V248.661ZM347.618 243.1H335.58V236.479H347.618V243.1ZM352.883 243.1H348.413V236.479H352.883V243.1ZM362.074 243.1H353.678V236.479H362.074V243.1ZM371.267 243.1H362.869V236.479H371.267V243.1ZM375.735 243.1H372.062V236.479H375.735V243.1ZM388.568 243.1H376.53V236.479H388.568V243.1ZM344.231 185.635H335.581V186.43H344.231V190.666H335.581V191.461H344.231V195.698H335.581V196.493H344.231V200.729H335.581V201.524H344.231V205.761H335.581V206.556H344.231V210.792H335.581V211.587H344.231V215.824H335.581V216.619H344.231V220.855H335.581V221.65H344.231V225.887H335.581V226.682H344.231V230.918H335.581V231.713H344.231V235.685H335.58V180.339H344.231V185.635ZM352.883 235.685H345.026V180.339H352.883V235.685ZM362.074 235.685H353.678V180.339H362.074V235.685ZM371.267 235.685H362.869V180.339H371.267V235.685ZM379.917 235.685H372.062V180.339H379.917V235.685ZM388.568 235.685H380.712V231.713H388.568V235.685ZM388.568 230.918H380.712V226.682H388.568V230.918ZM388.568 225.887H380.712V221.65H388.568V225.887ZM388.568 220.855H380.712V216.619H388.568V220.855ZM388.568 215.824H380.712V211.587H388.568V215.824ZM388.568 210.792H380.712V206.556H388.568V210.792ZM388.568 205.761H380.712V201.524H388.568V205.761ZM388.568 200.729H380.712V196.493H388.568V200.729ZM388.568 195.698H380.712V191.461H388.568V195.698ZM388.568 190.666H380.712V186.43H388.568V190.666ZM388.568 185.635H380.712V180.339H388.568V185.635ZM347.618 179.544H335.58V172.924H347.618V179.544ZM352.883 179.544H348.413V172.924H352.883V179.544ZM362.074 179.544H353.678V172.924H362.074V179.544ZM371.267 179.544H362.869V172.924H371.267V179.544ZM375.735 179.544H372.062V172.924H375.735V179.544ZM388.568 179.544H376.53V172.924H388.568V179.544ZM344.231 163.391H335.581V164.186H344.231V168.157H335.581V168.952H344.231V172.129H335.58V159.153H344.231V163.391ZM352.883 172.129H345.026V159.153H352.883V172.129ZM362.074 172.129H353.678V159.153H362.074V172.129ZM371.267 172.129H362.869V159.153H371.267V172.129ZM379.917 172.129H372.062V159.153H379.917V172.129ZM388.568 172.129H380.712V168.952H388.568V172.129ZM388.568 168.157H380.712V164.186H388.568V168.157ZM388.568 163.391H380.712V159.153H388.568V163.391ZM344.231 149.091H335.581V149.886H344.231V153.857H335.581V154.652H344.231V158.358H335.58V144.854H344.231V149.091ZM379.917 158.358H345.026V144.854H379.917V158.358ZM388.568 158.358H380.712V154.652H388.568V158.358ZM388.568 153.857H380.712V149.886H388.568V153.857ZM388.568 149.091H380.712V144.854H388.568V149.091Z" fill="#060606"/>
<path d="M399.416 271.965H390.721V267.463H399.416V271.965ZM435.283 271.965H400.211V258.194H435.283V271.965ZM443.979 271.965H436.078V267.463H443.979V271.965ZM399.416 266.668H390.721V263.227H399.416V266.668ZM443.979 266.668H436.078V263.227H443.979V266.668ZM399.416 262.432H390.721V258.194H399.416V262.432ZM443.979 262.432H436.078V258.194H443.979V262.432ZM399.416 257.399H390.721V254.223H399.416V257.399ZM408.11 257.399H400.211V243.895H408.11V257.399ZM417.35 257.399H408.905V243.895H417.35V257.399ZM426.588 257.399H418.145V243.895H426.588V257.399ZM435.283 257.399H427.383V243.895H435.283V257.399ZM443.979 257.399H436.078V254.223H443.979V257.399ZM443.979 253.428H436.078V249.456H443.979V253.428ZM399.416 253.428H390.721V249.456H399.416V253.428ZM399.416 248.661H390.721V243.895H399.416V248.661ZM443.979 248.661H436.078V243.895H443.979V248.661ZM402.822 243.1H390.721V236.479H402.822V243.1ZM408.11 243.1H403.617V236.479H408.11V243.1ZM417.35 243.1H408.905V236.479H417.35V243.1ZM426.588 243.1H418.145V236.479H426.588V243.1ZM431.081 243.1H427.383V236.479H431.081V243.1ZM443.979 243.1H431.876V236.479H443.979V243.1ZM399.416 235.685H390.721V231.713H399.416V235.685ZM408.11 235.685H400.211V180.339H408.11V235.685ZM417.35 235.685H408.905V180.339H417.35V235.685ZM426.588 235.685H418.145V180.339H426.588V235.685ZM435.283 235.685H427.383V180.339H435.283V235.685ZM443.979 235.685H436.078V231.713H443.979V235.685ZM399.416 230.918H390.721V226.682H399.416V230.918ZM443.979 230.918H436.078V226.682H443.979V230.918ZM399.416 225.887H390.721V221.65H399.416V225.887ZM443.979 225.887H436.078V221.65H443.979V225.887ZM399.416 220.855H390.721V216.619H399.416V220.855ZM443.979 220.855H436.078V216.619H443.979V220.855ZM399.416 215.824H390.721V211.587H399.416V215.824ZM443.979 215.824H436.078V211.587H443.979V215.824ZM399.416 210.792H390.721V206.556H399.416V210.792ZM443.979 210.792H436.078V206.556H443.979V210.792ZM399.416 205.761H390.721V201.524H399.416V205.761ZM443.979 205.761H436.078V201.524H443.979V205.761ZM399.416 200.729H390.721V196.493H399.416V200.729ZM443.979 200.729H436.078V196.493H443.979V200.729ZM399.416 195.698H390.721V191.461H399.416V195.698ZM443.979 195.698H436.078V191.461H443.979V195.698ZM399.416 190.666H390.721V186.43H399.416V190.666ZM443.979 190.666H436.078V186.43H443.979V190.666ZM399.416 185.635H390.721V180.339H399.416V185.635ZM443.979 185.635H436.078V180.339H443.979V185.635ZM402.822 179.544H390.721V172.924H402.822V179.544ZM408.11 179.544H403.617V172.924H408.11V179.544ZM417.35 179.544H408.905V172.924H417.35V179.544ZM426.588 179.544H418.145V172.924H426.588V179.544ZM431.081 179.544H427.383V172.924H431.081V179.544ZM443.979 179.544H431.876V172.924H443.979V179.544ZM399.416 172.129H390.721V168.952H399.416V172.129ZM408.11 172.129H400.211V159.153H408.11V172.129ZM417.35 172.129H408.905V159.153H417.35V172.129ZM426.588 172.129H418.145V159.153H426.588V172.129ZM435.283 172.129H427.383V159.153H435.283V172.129ZM443.979 172.129H436.078V168.952H443.979V172.129ZM399.416 168.157H390.721V164.186H399.416V168.157ZM443.979 168.157H436.078V164.186H443.979V168.157ZM399.416 163.391H390.721V159.153H399.416V163.391ZM443.979 163.391H436.078V159.153H443.979V163.391ZM399.416 158.358H390.721V154.652H399.416V158.358ZM435.283 158.358H400.211V144.854H435.283V158.358ZM443.979 158.358H436.078V154.652H443.979V158.358ZM399.416 153.857H390.721V149.886H399.416V153.857ZM443.979 153.857H436.078V149.886H443.979V153.857ZM399.416 149.091H390.721V144.854H399.416V149.091ZM443.979 149.091H436.078V144.854H443.979V149.091Z" fill="#060606"/>
<path d="M454.782 262.432H446.132V263.227H454.782V266.668H446.132V267.463H454.782V271.965H446.131V258.194H454.782V262.432ZM490.468 271.965H455.577V258.194H490.468V271.965ZM499.119 271.965H491.263V267.463H499.119V271.965ZM499.119 266.668H491.263V263.227H499.119V266.668ZM499.119 262.432H491.263V258.194H499.119V262.432ZM454.782 248.661H446.132V249.456H454.782V253.428H446.132V254.223H454.782V257.399H446.131V243.895H454.782V248.661ZM463.434 257.399H455.577V243.895H463.434V257.399ZM472.625 257.399H464.229V243.895H472.625V257.399ZM481.817 257.399H473.42V243.895H481.817V257.399ZM490.468 257.399H482.612V243.895H490.468V257.399ZM499.119 257.399H491.263V254.223H499.119V257.399ZM499.119 253.428H491.263V249.456H499.119V253.428ZM499.119 248.661H491.263V243.895H499.119V248.661ZM458.169 243.1H446.131V236.479H458.169V243.1ZM463.434 243.1H458.964V236.479H463.434V243.1ZM472.625 243.1H464.229V236.479H472.625V243.1ZM481.817 243.1H473.42V236.479H481.817V243.1ZM486.286 243.1H482.612V236.479H486.286V243.1ZM499.119 243.1H487.081V236.479H499.119V243.1ZM454.782 185.635H446.132V186.43H454.782V190.666H446.132V191.461H454.782V195.698H446.132V196.493H454.782V200.729H446.132V201.524H454.782V205.761H446.132V206.556H454.782V210.792H446.132V211.587H454.782V215.824H446.132V216.619H454.782V220.855H446.132V221.65H454.782V225.887H446.132V226.682H454.782V230.918H446.132V231.713H454.782V235.685H446.131V180.339H454.782V185.635ZM463.434 235.685H455.577V180.339H463.434V235.685ZM472.625 235.685H464.229V180.339H472.625V235.685ZM481.817 235.685H473.42V180.339H481.817V235.685ZM490.468 235.685H482.612V180.339H490.468V235.685ZM499.119 235.685H491.263V231.713H499.119V235.685ZM499.119 230.918H491.263V226.682H499.119V230.918ZM499.119 225.887H491.263V221.65H499.119V225.887ZM499.119 220.855H491.263V216.619H499.119V220.855ZM499.119 215.824H491.263V211.587H499.119V215.824ZM499.119 210.792H491.263V206.556H499.119V210.792ZM499.119 205.761H491.263V201.524H499.119V205.761ZM499.119 200.729H491.263V196.493H499.119V200.729ZM499.119 195.698H491.263V191.461H499.119V195.698ZM499.119 190.666H491.263V186.43H499.119V190.666ZM499.119 185.635H491.263V180.339H499.119V185.635ZM458.169 179.544H446.131V172.924H458.169V179.544ZM463.434 179.544H458.964V172.924H463.434V179.544ZM472.625 179.544H464.229V172.924H472.625V179.544ZM481.817 179.544H473.42V172.924H481.817V179.544ZM486.286 179.544H482.612V172.924H486.286V179.544ZM499.119 179.544H487.081V172.924H499.119V179.544ZM454.782 163.391H446.132V164.186H454.782V168.157H446.132V168.952H454.782V172.129H446.131V159.153H454.782V163.391ZM463.434 172.129H455.577V159.153H463.434V172.129ZM472.625 172.129H464.229V159.153H472.625V172.129ZM481.817 172.129H473.42V159.153H481.817V172.129ZM490.468 172.129H482.612V159.153H490.468V172.129ZM499.119 172.129H491.263V168.952H499.119V172.129ZM499.119 168.157H491.263V164.186H499.119V168.157ZM499.119 163.391H491.263V159.153H499.119V163.391ZM454.782 149.091H446.132V149.886H454.782V153.857H446.132V154.652H454.782V158.358H446.131V144.854H454.782V149.091ZM490.468 158.358H455.577V144.854H490.468V158.358ZM499.119 158.358H491.263V154.652H499.119V158.358ZM499.119 153.857H491.263V149.886H499.119V153.857ZM499.119 149.091H491.263V144.854H499.119V149.091Z" fill="#060606"/>
<path d="M509.923 262.432H501.272V263.227H509.923V266.668H501.272V267.463H509.923V271.965H501.271V258.194H509.923V262.432ZM545.608 271.965H510.718V258.194H545.608V271.965ZM554.26 271.965H546.403V267.463H554.26V271.965ZM554.26 266.668H546.403V263.227H554.26V266.668ZM554.26 262.432H546.403V258.194H554.26V262.432ZM509.923 248.661H501.272V249.456H509.923V253.428H501.272V254.223H509.923V257.399H501.271V243.895H509.923V248.661ZM518.574 257.399H510.718V243.895H518.574V257.399ZM527.766 257.399H519.369V243.895H527.766V257.399ZM536.958 257.399H528.561V243.895H536.958V257.399ZM545.608 257.399H537.753V243.895H545.608V257.399ZM554.26 257.399H546.403V254.223H554.26V257.399ZM554.26 253.428H546.403V249.456H554.26V253.428ZM554.26 248.661H546.403V243.895H554.26V248.661ZM513.31 243.1H501.271V236.479H513.31V243.1ZM518.574 243.1H514.104V236.479H518.574V243.1ZM527.766 243.1H519.369V236.479H527.766V243.1ZM536.958 243.1H528.561V236.479H536.958V243.1ZM541.427 243.1H537.753V236.479H541.427V243.1ZM554.26 243.1H542.222V236.479H554.26V243.1ZM509.923 185.635H501.272V186.43H509.923V190.666H501.272V191.461H509.923V195.698H501.272V196.493H509.923V200.729H501.272V201.524H509.923V205.761H501.272V206.556H509.923V210.792H501.272V211.587H509.923V215.824H501.272V216.619H509.923V220.855H501.272V221.65H509.923V225.887H501.272V226.682H509.923V230.918H501.272V231.713H509.923V235.685H501.271V180.339H509.923V185.635ZM518.574 235.685H510.718V180.339H518.574V235.685ZM527.766 235.685H519.369V180.339H527.766V235.685ZM536.958 235.685H528.561V180.339H536.958V235.685ZM545.608 235.685H537.753V180.339H545.608V235.685ZM554.26 235.685H546.403V231.713H554.26V235.685ZM554.26 230.918H546.403V226.682H554.26V230.918ZM554.26 225.887H546.403V221.65H554.26V225.887ZM554.26 220.855H546.403V216.619H554.26V220.855ZM554.26 215.824H546.403V211.587H554.26V215.824ZM554.26 210.792H546.403V206.556H554.26V210.792ZM554.26 205.761H546.403V201.524H554.26V205.761ZM554.26 200.729H546.403V196.493H554.26V200.729ZM554.26 195.698H546.403V191.461H554.26V195.698ZM554.26 190.666H546.403V186.43H554.26V190.666ZM554.26 185.635H546.403V180.339H554.26V185.635ZM513.31 179.544H501.271V172.924H513.31V179.544ZM518.574 179.544H514.104V172.924H518.574V179.544ZM527.766 179.544H519.369V172.924H527.766V179.544ZM536.958 179.544H528.561V172.924H536.958V179.544ZM541.427 179.544H537.753V172.924H541.427V179.544ZM554.26 179.544H542.222V172.924H554.26V179.544ZM509.923 163.391H501.272V164.186H509.923V168.157H501.272V168.952H509.923V172.129H501.271V159.153H509.923V163.391ZM518.574 172.129H510.718V159.153H518.574V172.129ZM527.766 172.129H519.369V159.153H527.766V172.129ZM536.958 172.129H528.561V159.153H536.958V172.129ZM545.608 172.129H537.753V159.153H545.608V172.129ZM554.26 172.129H546.403V168.952H554.26V172.129ZM554.26 168.157H546.403V164.186H554.26V168.157ZM554.26 163.391H546.403V159.153H554.26V163.391ZM509.923 149.091H501.272V149.886H509.923V153.857H501.272V154.652H509.923V158.358H501.271V144.854H509.923V149.091ZM545.608 158.358H510.718V144.854H545.608V158.358ZM554.26 158.358H546.403V154.652H554.26V158.358ZM554.26 153.857H546.403V149.886H554.26V153.857ZM554.26 149.091H546.403V144.854H554.26V149.091Z" fill="#060606"/>
<path d="M283.615 348.497H280.438V339.229H283.615V348.497ZM287.322 348.497H284.41V339.229H287.322V348.497ZM291.03 348.497H288.117V339.229H291.03V348.497ZM294.737 348.497H291.825V339.229H294.737V348.497ZM298.445 348.497H295.532V339.229H298.445V348.497ZM302.152 348.497H299.24V339.229H302.152V348.497ZM305.859 348.497H302.947V339.229H305.859V348.497ZM309.567 348.497H306.654V339.229H309.567V348.497ZM313.274 348.497H310.362V339.229H313.274V348.497ZM316.982 348.497H314.069V339.229H316.982V348.497ZM320.689 348.497H317.777V339.229H320.689V348.497ZM324.396 348.497H321.484V339.229H324.396V348.497ZM328.104 348.497H325.191V339.229H328.104V348.497ZM331.812 348.497H328.899V339.229H331.812V348.497ZM335.519 348.497H332.606V339.229H335.519V348.497ZM339.227 348.497H336.313V339.229H339.227V348.497ZM342.934 348.497H340.021V339.229H342.934V348.497ZM346.642 348.497H343.729V339.229H346.642V348.497ZM350.349 348.497H347.437V339.229H350.349V348.497ZM354.056 348.497H351.144V339.229H354.056V348.497ZM357.764 348.497H354.851V339.229H357.764V348.497ZM361.471 348.497H358.559V339.229H361.471V348.497ZM365.179 348.497H362.266V339.229H365.179V348.497ZM369.415 348.497H365.974V339.229H369.415V348.497ZM297.386 338.434H280.438V332.687H297.386V338.434ZM315.393 331.597H333.93V322.875H351.938V338.434H298.181V322.875H315.393V331.597ZM369.415 338.434H352.732V332.687H369.415V338.434ZM297.386 331.892H280.438V291.255H297.386V331.892ZM369.415 331.892H352.732V291.255H369.415V331.892ZM333.135 330.802H316.188V293.141H333.135V330.802ZM315.393 322.08H298.181V317.423H315.393V322.08ZM351.938 322.08H333.93V317.423H351.938V322.08ZM315.393 316.628H298.181V311.971H315.393V316.628ZM351.938 316.628H333.93V311.971H351.938V316.628ZM315.393 311.176H298.181V306.52H315.393V311.176ZM351.938 311.176H333.93V306.52H351.938V311.176ZM315.393 305.725H298.181V301.069H315.393V305.725ZM351.938 305.725H333.93V301.069H351.938V305.725ZM351.938 300.274H333.93V292.346H315.393V300.274H298.181V284.714H351.938V300.274ZM297.386 290.46H280.438V284.714H297.386V290.46ZM369.415 290.46H352.732V284.714H369.415V290.46ZM283.615 283.896H284.41V274.083H287.322V283.896H288.117V274.083H291.03V283.896H291.825V274.083H294.737V283.896H295.532V274.083H298.445V283.896H299.24V274.083H302.152V283.896H302.947V274.083H305.859V283.896H306.654V274.083H309.567V283.896H310.362V274.083H313.274V283.896H314.069V274.083H316.982V283.896H317.777V274.083H320.689V283.896H321.484V274.083H324.396V283.896H325.191V274.083H328.104V283.896H328.899V274.083H331.812V283.896H332.606V274.083H335.519V283.896H336.313V274.083H339.227V283.896H340.021V274.083H342.934V283.896H343.729V274.083H346.642V283.896H347.437V274.083H350.349V283.896H351.144V274.083H354.056V283.896H354.851V274.083H357.764V283.896H358.559V274.083H361.471V283.896H362.266V274.083H365.179V283.896H365.974V274.083H369.415V283.919H352.732V283.896H351.938V283.919H298.181V283.896H297.386V283.919H280.438V274.083H283.615V283.896Z" fill="#060606"/>
<path d="M416.024 348.497H371.535V339.228H416.024V348.497ZM460.777 348.497H416.819V339.228H460.777V348.497ZM393.25 338.433H371.535V316.984H393.25V338.433ZM404.372 338.433H394.045V316.984H404.372V338.433ZM427.411 338.433H405.167V324.928H427.411V338.433ZM438.533 338.433H428.206V316.984H438.533V338.433ZM460.777 338.433H439.328V316.984H460.777V338.433ZM416.024 306.391H412.316V316.454H416.024V324.133H405.167V298.182H416.024V306.391ZM427.411 324.133H416.819V316.454H420.525V306.391H416.819V298.182H427.411V324.133ZM382.128 316.189H371.535V306.126H382.128V316.189ZM385.306 316.189H382.923V306.126H385.306V316.189ZM388.483 316.189H386.101V306.126H388.483V316.189ZM391.661 316.189H389.278V306.126H391.661V316.189ZM394.839 316.189H392.456V306.126H394.839V316.189ZM398.017 316.189H395.634V306.126H398.017V316.189ZM401.194 316.189H398.812V306.126H401.194V316.189ZM404.372 316.189H401.989V306.126H404.372V316.189ZM430.589 306.126V316.189H428.206V306.126H430.589ZM436.944 316.189H434.562V306.126H436.944V316.189ZM440.122 316.189H437.739V306.126H440.122V316.189ZM443.3 316.189H440.917V306.126H443.3V316.189ZM446.478 316.189H444.095V306.126H446.478V316.189ZM449.655 316.189H447.272V306.126H449.655V316.189ZM460.777 316.189H450.45V306.126H460.777V316.189ZM419.731 315.66H413.111V307.186H419.731V315.66ZM404.372 305.332H394.045V284.941H393.25V305.332H371.535V284.676H404.372V305.332ZM460.777 305.332H439.328V284.941H438.533V305.332H428.206V284.676H460.777V305.332ZM427.411 297.387H405.167V284.676H427.411V297.387ZM416.024 283.881H371.535V274.083H416.024V283.881ZM460.777 283.881H416.819V274.083H460.777V283.881ZM433.767 316.189H431.384V306.126H433.767V316.189Z" fill="#060606"/>
<path d="M465.626 348.497H462.898V339.229H465.626V348.497ZM468.354 348.497H466.421V339.229H468.354V348.497ZM471.08 348.497H469.148V339.229H471.08V348.497ZM473.808 348.497H471.875V339.229H473.808V348.497ZM476.534 348.497H474.603V339.229H476.534V348.497ZM479.262 348.497H477.329V339.229H479.262V348.497ZM481.988 348.497H480.057V339.229H481.988V348.497ZM484.715 348.497H482.783V339.229H484.715V348.497ZM487.442 348.497H485.51V339.229H487.442V348.497ZM490.169 348.497H488.237V339.229H490.169V348.497ZM492.896 348.497H490.964V339.229H492.896V348.497ZM495.623 348.497H493.691V339.229H495.623V348.497ZM498.35 348.497H496.418V339.229H498.35V348.497ZM519.074 348.497H499.145V339.229H519.074V348.497ZM524.528 348.497H522.596V339.229H524.528V348.497ZM527.255 348.497H525.323V339.229H527.255V348.497ZM529.981 348.497H528.05V339.229H529.981V348.497ZM532.709 348.497H530.776V339.229H532.709V348.497ZM535.436 348.497H533.504V339.229H535.436V348.497ZM538.162 348.497H536.23V339.229H538.162V348.497ZM540.89 348.497H538.957V339.229H540.89V348.497ZM543.616 348.497H541.685V339.229H543.616V348.497ZM546.344 348.497H544.411V339.229H546.344V348.497ZM549.07 348.497H547.139V339.229H549.07V348.497ZM551.798 348.497H549.865V339.229H551.798V348.497ZM554.524 348.497H552.593V339.229H554.524V348.497ZM521.801 348.497H519.869V339.229H521.801V348.497ZM508.438 338.434H462.898V316.877H508.438V338.434ZM554.524 338.434H509.233V316.877H554.524V338.434ZM497.258 316.083H462.898V311.699H497.258V316.083ZM520.165 316.083H498.053V311.699H520.165V316.083ZM554.524 316.083H520.96V311.699H554.524V316.083ZM497.258 310.904H462.898V306.248H497.258V310.904ZM520.165 310.904H498.053V306.248H520.165V310.904ZM554.524 310.904H520.96V306.248H554.524V310.904ZM508.438 305.387H462.898V284.714H508.438V305.387ZM554.524 305.387H509.233V284.714H554.524V305.387ZM465.626 283.854H462.898V274.083H465.626V283.854ZM468.354 283.854H466.421V274.083H468.354V283.854ZM471.08 283.854H469.148V274.083H471.08V283.854ZM473.808 283.854H471.875V274.083H473.808V283.854ZM476.534 283.854H474.603V274.083H476.534V283.854ZM479.262 283.854H477.329V274.083H479.262V283.854ZM481.988 283.854H480.057V274.083H481.988V283.854ZM484.715 283.854H482.783V274.083H484.715V283.854ZM487.442 283.854H485.51V274.083H487.442V283.854ZM490.169 283.854H488.237V274.083H490.169V283.854ZM492.896 283.854H490.964V274.083H492.896V283.854ZM495.623 283.854H493.691V274.083H495.623V283.854ZM498.35 283.854H496.418V274.083H498.35V283.854ZM519.074 283.854H499.145V274.083H519.074V283.854ZM521.801 283.854H519.869V274.083H521.801V283.854ZM524.528 283.854H522.596V274.083H524.528V283.854ZM527.255 283.854H525.323V274.083H527.255V283.854ZM529.981 283.854H528.05V274.083H529.981V283.854ZM532.709 283.854H530.776V274.083H532.709V283.854ZM535.436 283.854H533.504V274.083H535.436V283.854ZM538.162 283.854H536.23V274.083H538.162V283.854ZM540.89 283.854H538.957V274.083H540.89V283.854ZM543.616 283.854H541.685V274.083H543.616V283.854ZM546.344 283.854H544.411V274.083H546.344V283.854ZM549.07 283.854H547.139V274.083H549.07V283.854ZM551.798 283.854H549.865V274.083H551.798V283.854ZM554.524 283.854H552.593V274.083H554.524V283.854Z" fill="#060606"/>
<path d="M287.853 412.052H280.438V408.874H287.853V412.052ZM303.211 400.135H307.184V412.052H288.647V388.218H303.211V400.135ZM311.95 412.052H307.979V400.135H311.95V412.052ZM316.718 412.052H312.745V400.135H316.718V412.052ZM321.484 412.052H317.513V400.135H321.484V412.052ZM340.286 353.792H340.285V354.587H340.286V356.97H340.285V357.765H340.286V360.148H340.285V360.943H340.286V363.326H340.285V364.121H340.286V366.503H340.285V367.298H340.286V369.681H340.285V370.476H340.286V374.712H325.456V375.507H340.286V377.89H325.456V378.685H340.286V381.068H325.456V381.863H340.286V384.246H325.456V385.041H340.286V387.423H325.456V388.218H340.286V392.19H340.285V392.985H340.286V395.368H340.285V396.163H340.286V398.545H340.285V399.34H340.286V401.723H340.285V402.518H340.286V404.901H340.285V405.696H340.286V408.079H340.285V408.874H340.286V412.052H322.279V400.135H325.455V362.532H322.279V350.615H340.286V353.792ZM347.7 412.052H341.081V408.874H347.7V412.052ZM347.7 408.079H341.081V405.696H347.7V408.079ZM287.853 408.079H280.438V405.696H287.853V408.079ZM287.853 404.901H280.438V402.518H287.853V404.901ZM347.7 404.901H341.081V402.518H347.7V404.901ZM287.853 401.723H280.438V399.34H287.853V401.723ZM347.7 401.723H341.081V399.34H347.7V401.723ZM324.661 399.341H304.006V363.327H324.661V399.341ZM287.853 398.545H280.438V396.163H287.853V398.545ZM347.7 398.545H341.081V396.163H347.7V398.545ZM287.853 395.368H280.438V392.985H287.853V395.368ZM347.7 395.368H341.081V392.985H347.7V395.368ZM287.853 392.19H280.438V370.476H287.853V392.19ZM347.7 392.19H341.081V370.476H347.7V392.19ZM310.097 387.955H318.57V374.713H310.097V387.955ZM303.211 387.423H288.647V385.041H303.211V387.423ZM317.776 387.16H310.892V375.508H317.776V387.16ZM303.211 384.246H288.647V381.863H303.211V384.246ZM303.211 381.068H288.647V378.685H303.211V381.068ZM303.211 377.89H288.647V375.507H303.211V377.89ZM307.184 362.532H303.211V374.712H288.647V350.615H307.184V362.532ZM287.853 369.681H280.438V367.298H287.853V369.681ZM347.7 369.681H341.081V367.298H347.7V369.681ZM287.853 366.503H280.438V364.121H287.853V366.503ZM347.7 366.503H341.081V364.121H347.7V366.503ZM287.853 363.326H280.438V360.943H287.853V363.326ZM347.7 363.326H341.081V360.943H347.7V363.326ZM311.95 362.532H307.979V350.615H311.95V362.532ZM316.718 362.532H312.745V350.615H316.718V362.532ZM321.484 362.532H317.513V350.615H321.484V362.532ZM287.853 360.148H280.438V357.765H287.853V360.148ZM347.7 360.148H341.081V357.765H347.7V360.148ZM287.853 356.97H280.438V354.587H287.853V356.97ZM347.7 356.97H341.081V354.587H347.7V356.97ZM287.853 353.792H280.438V350.615H287.853V353.792ZM347.7 353.792H341.081V350.615H347.7V353.792Z" fill="#060606"/>
<path d="M359.089 412.052H349.82V350.615H359.089V412.052ZM368.622 412.052H359.884V408.875H368.622V412.052ZM378.155 365.445H373.918V397.222H378.155V412.052H369.417V350.615H378.155V365.445ZM388.483 412.052H378.95V397.222H388.483V412.052ZM398.017 412.052H389.278V397.222H394.044V365.445H389.278V350.615H398.017V412.052ZM407.55 412.052H398.812V408.875H407.55V412.052ZM416.818 412.052H408.345V350.615H416.818V412.052ZM407.55 408.08H398.812V404.637H407.55V408.08ZM368.622 408.08H359.884V404.637H368.622V408.08ZM368.622 403.842H359.884V400.4H368.622V403.842ZM407.55 403.842H398.812V400.4H407.55V403.842ZM368.622 399.605H359.884V396.163H368.622V399.605ZM407.55 399.605H398.812V396.163H407.55V399.605ZM393.249 396.428H374.713V366.24H393.249V396.428ZM368.622 395.368H359.884V391.926H368.622V395.368ZM407.55 395.368H398.812V391.926H407.55V395.368ZM368.622 391.131H359.884V387.689H368.622V391.131ZM407.55 391.131H398.812V387.689H407.55V391.131ZM368.622 386.894H359.884V383.452H368.622V386.894ZM407.55 386.894H398.812V383.452H407.55V386.894ZM368.622 382.657H359.884V379.214H368.622V382.657ZM407.55 382.657H398.812V379.214H407.55V382.657ZM368.622 378.419H359.884V374.978H368.622V378.419ZM407.55 378.419H398.812V374.978H407.55V378.419ZM368.622 374.183H359.884V370.741H368.622V374.183ZM407.55 374.183H398.812V370.741H407.55V374.183ZM368.622 369.946H359.884V366.503H368.622V369.946ZM407.55 369.946H398.812V366.503H407.55V369.946ZM368.622 365.708H359.884V362.267H368.622V365.708ZM407.55 365.708H398.812V362.267H407.55V365.708ZM388.483 365.445H378.95V350.615H388.483V365.445ZM368.622 361.472H359.884V358.03H368.622V361.472ZM407.55 361.472H398.812V358.03H407.55V361.472ZM368.622 357.235H359.884V353.792H368.622V357.235ZM407.55 357.235H398.812V353.792H407.55V357.235ZM368.622 352.998H359.884V350.615H368.622V352.998ZM407.55 352.998H398.812V350.615H407.55V352.998Z" fill="#060606"/>
<path d="M347.832 507.286V520.626H280.438V507.286H347.832ZM370.736 493.945H416.817V506.491H280.438V493.946H325.453V493.151H325.449V491.539H370.736V493.945ZM294.555 454.191H314.799V480.872H294.555V493.151H280.438V440.852H294.555V454.191ZM314.799 488.604H324.654V493.151H295.35V481.667H314.799V488.604ZM401.105 453.396H381.657V447.255H371.535V448.05H380.862V452.324H371.535V453.119H380.862V457.394H371.535V458.188H380.862V462.463H371.535V463.258H380.862V467.532H371.535V468.327H380.862V472.602H371.535V473.396H380.862V477.671H371.535V478.466H380.862V482.74H371.535V483.535H380.862V487.81H371.535V488.604H381.657V481.667H401.105V493.15H371.531V440.852H401.105V453.396ZM416.817 493.15H401.9V481.667L401.901 480.872H381.657V454.191H401.9V440.852H416.817V493.15ZM370.736 490.744H325.449V488.604H370.736V490.744ZM324.654 487.81H315.594V483.535H324.654V487.81ZM347.562 487.81H325.449V485.402H347.562V487.81ZM370.736 487.81H348.357V485.402H370.736V487.81ZM370.736 484.607H325.449V481.667H370.736V484.607ZM324.654 482.74H315.594V478.466H324.654V482.74ZM347.562 480.872H325.449V478.466H347.562V480.872ZM370.736 480.872H348.357V478.466H370.736V480.872ZM324.654 477.671H315.594V473.396H324.654V477.671ZM370.736 477.671H325.449V474.464H370.736V477.671ZM347.562 473.669H325.449V470.995H347.562V473.669ZM370.736 473.669H348.357V470.995H370.736V473.669ZM324.654 472.602H315.594V468.327H324.654V472.602ZM370.736 470.2H325.449V464.858H370.736V470.2ZM324.654 467.532H315.594V463.258H324.654V467.532ZM370.736 464.063H348.357V461.129H347.562V464.063H325.449V461.123H370.736V464.063ZM324.654 462.463H315.594V458.188H324.654V462.463ZM347.562 457.66H348.357V457.655H370.736V460.328H325.449V457.655H347.562V457.66ZM324.654 457.394H315.594V453.119H324.654V457.394ZM370.736 456.86H348.357V454.458H347.562V456.86H325.449V454.453H370.736V456.86ZM370.736 453.658H325.449V451.251H370.736V453.658ZM324.654 447.255H314.799V453.396H295.35V440.852H324.654V447.255ZM324.654 452.324H315.594V448.05H324.654V452.324ZM347.562 450.456H325.449V448.05H347.562V450.456ZM370.736 450.456H348.357V448.05H370.736V450.456ZM370.736 447.255H325.449V444.314H370.736V447.255ZM416.817 440.057H371.531V440.051H370.736V443.52H325.449V440.852H325.453V440.057H280.438V427.511H416.817V440.057ZM347.832 426.716H280.438V414.171H347.832V426.716ZM416.817 426.716H348.627V414.171H416.817V426.716ZM416.817 520.626H348.627V507.286H416.817V520.626Z" fill="#060606"/>
<path d="M313.539 538.369H313.467V539.164H313.539V555.582H280.438V547.637H313.467V546.842H280.438V530.689H313.467V529.894H280.438V522.745H313.539V538.369ZM323.072 546.578H323.057V547.373H323.072V550.814H323.057V551.609H323.072V555.582H314.334V539.164H323.072V546.578ZM333.136 555.582H323.867V551.609H333.136V555.582ZM347.828 530.689H344.898V548.961H347.7V555.582H333.931V522.745H347.828V530.689ZM362.795 555.582H348.495V548.961H351.558V530.689H348.623V522.745H362.795V555.582ZM372.857 555.582H363.59V551.609H372.857V555.582ZM382.392 555.582H373.652V539.164H382.392V555.582ZM416.817 555.582H383.187V547.637H416.817V555.582ZM328.117 550.814H323.867V547.373H328.117V550.814ZM333.136 550.814H328.912V547.373H333.136V550.814ZM367.806 550.814H363.59V547.373H367.806V550.814ZM372.857 550.814H368.601V547.373H372.857V550.814ZM350.763 548.167H345.693V545.254H350.763V548.167ZM416.817 546.842H383.187V530.689H416.817V546.842ZM333.136 546.578H323.867V532.278H333.136V546.578ZM372.857 546.578H363.59V532.278H372.857V546.578ZM350.763 544.459H345.693V543.135H350.763V544.459ZM350.763 542.34H345.693V541.017H350.763V542.34ZM350.763 540.222H345.693V538.899H350.763V540.222ZM323.072 527.246H323.057V528.041H323.072V531.483H323.057V532.278H323.072V538.369H314.334V522.745H323.072V527.246ZM382.392 538.369H373.652V522.745H382.392V538.369ZM350.763 538.104H345.693V536.78H350.763V538.104ZM350.763 535.985H345.693V534.662H350.763V535.985ZM350.763 533.867H345.693V531.484H350.763V533.867ZM328.117 531.483H323.867V528.041H328.117V531.483ZM333.136 531.483H328.912V528.041H333.136V531.483ZM367.806 531.483H363.59V528.041H367.806V531.483ZM372.857 531.483H368.601V528.041H372.857V531.483ZM416.817 529.894H383.187V522.745H416.817V529.894ZM333.136 527.246H323.867V522.745H333.136V527.246ZM372.857 527.246H363.59V522.745H372.857V527.246Z" fill="#060606"/>
<path d="M445.624 555.586H418.934V544.654H445.624V555.586ZM472.848 555.586H446.419V539.323H472.848V555.586ZM500.605 555.586H473.643V522.264H500.605V555.586ZM527.829 555.586H501.4V539.323H527.829V555.586ZM554.519 555.586H528.624V544.654H554.519V555.586ZM445.624 543.859H418.934V533.458H445.624V543.859ZM554.519 543.859H528.624V533.458H554.519V543.859ZM527.829 538.528H501.4V522.264H527.829V538.528ZM472.848 538.528H446.419V522.264H472.848V538.528ZM445.624 532.664H418.934V522.264H445.624V532.664ZM554.519 532.664H528.624V522.264H554.519V532.664ZM445.624 521.469H418.934V510.537H445.624V521.469ZM472.848 521.469H446.419V505.206H472.848V521.469ZM500.605 521.469H473.643V488.148H500.605V521.469ZM527.829 521.469H501.4V505.206H527.829V521.469ZM554.519 521.469H528.624V510.537H554.519V521.469ZM445.624 509.742H418.934V499.342H445.624V509.742ZM554.519 509.742H528.624V499.342H554.519V509.742ZM472.848 504.411H446.419V488.148H472.848V504.411ZM527.829 504.411H501.4V488.148H527.829V504.411ZM445.624 498.547H418.934V488.148H445.624V498.547ZM554.519 498.547H528.624V488.148H554.519V498.547ZM445.624 487.353H418.934V476.42H445.624V487.353ZM472.848 487.353H446.419V471.089H472.848V487.353ZM500.605 487.353H473.643V454.031H500.605V487.353ZM527.829 487.353H501.4V471.089H527.829V487.353ZM554.519 487.353H528.624V476.42H554.519V487.353ZM445.624 475.625H418.934V465.225H445.624V475.625ZM554.519 475.625H528.624V465.225H554.519V475.625ZM472.848 470.294H446.419V454.031H472.848V470.294ZM527.829 470.294H501.4V454.031H527.829V470.294ZM445.624 464.43H418.934V454.031H445.624V464.43ZM554.519 464.43H528.624V454.031H554.519V464.43ZM445.624 453.236H418.934V442.303H445.624V453.236ZM472.848 453.236H446.419V436.972H472.848V453.236ZM500.605 453.236H473.643V419.915H500.605V453.236ZM527.829 453.236H501.4V436.972H527.829V453.236ZM554.519 453.236H528.624V442.303H554.519V453.236ZM445.624 441.508H418.934V431.109H445.624V441.508ZM554.519 441.508H528.624V431.109H554.519V441.508ZM472.848 436.177H446.419V419.915H472.848V436.177ZM527.829 436.177H501.4V419.915H527.829V436.177ZM445.624 430.314H418.934V419.915H445.624V430.314ZM554.519 430.314H528.624V419.915H554.519V430.314ZM445.624 419.12H418.934V408.187H445.624V419.12ZM472.848 419.12H446.419V402.856H472.848V419.12ZM500.605 419.12H473.643V385.797H500.605V419.12ZM527.829 419.12H501.4V402.856H527.829V419.12ZM554.519 419.12H528.624V408.187H554.519V419.12ZM445.624 407.392H418.934V396.992H445.624V407.392ZM554.519 407.392H528.624V396.992H554.519V407.392ZM472.848 402.061H446.419V385.797H472.848V402.061ZM527.829 402.061H501.4V385.797H527.829V402.061ZM445.624 396.197H418.934V385.797H445.624V396.197ZM554.519 396.197H528.624V385.797H554.519V396.197ZM445.624 385.002H418.934V374.07H445.624V385.002ZM472.848 385.002H446.419V368.74H472.848V385.002ZM500.605 385.002H473.643V350.615H500.605V385.002ZM527.829 385.002H501.4V368.74H527.829V385.002ZM554.519 385.002H528.624V374.07H554.519V385.002ZM445.624 373.275H418.934V362.875H445.624V373.275ZM554.519 373.275H528.624V362.875H554.519V373.275ZM472.848 367.945H446.419V350.615H472.848V367.945ZM527.829 367.945H501.4V350.615H527.829V367.945ZM445.624 362.081H418.934V350.615H445.624V362.081ZM554.519 362.081H528.624V350.615H554.519V362.081Z" fill="#060606"/>
</g>
<defs>
<clipPath id="clip0_1396_13648">
<rect width="572" height="572" fill="white"/>
</clipPath>
</defs>
</svg>
